<svg xmlns="http://www.w3.org/2000/svg" width="1000" height="450" viewBox="0 0 1000 450"><g><path fill="#443F3B" d="M418.045 73.389h-12.755v-62.336h12.755v62.336zM468.808 73.474h-13.853l-10.727-23.904h-6.672v23.819h-12.756v-62.421h22.722c.338 0 .774.042 1.309.127.535.084 1.098.198 1.69.337.591.142 1.14.283 1.646.422.508.142.9.268 1.183.38 1.295.564 2.547 1.212 3.759 1.943 1.21.732 2.407 1.746 3.589 3.041 1.352 1.464 2.407 2.985 3.168 4.562.76 1.577 1.28 3.124 1.562 4.646.28 1.295.422 2.59.422 3.885 0 2.76-.663 5.604-1.985 8.532-1.325 2.928-3.647 5.519-6.968 7.771l11.911 26.86zm-15.626-43.163c0-1.125-.296-2.28-.887-3.463-.591-1.183-1.676-2.112-3.252-2.787-.282-.112-.633-.212-1.056-.295-.422-.085-.691-.127-.802-.127h-9.629v13.346h9.629c.111 0 .38-.056.802-.169.423-.111.773-.224 1.056-.338 1.576-.618 2.661-1.52 3.252-2.702.591-1.184.887-2.338.887-3.465zM510.109 73.389h-10.98c-.114 0-.367-.029-.761-.084-.394-.056-.731-.113-1.013-.168-1.013-.169-1.999-.338-2.956-.508-.958-.168-2-.479-3.125-.928-3.774-1.409-6.984-3.225-9.63-5.449-2.647-2.223-4.815-4.658-6.504-7.306-1.689-2.646-2.914-5.405-3.674-8.278-.761-2.872-1.141-5.686-1.141-8.446 0-.563.056-1.563.169-2.999.112-1.436.309-2.8.591-4.096.393-1.576.999-3.294 1.816-5.152.815-1.858 1.844-3.675 3.083-5.448 1.238-1.774 2.673-3.463 4.308-5.068 1.632-1.604 3.463-2.998 5.49-4.181 2.873-1.689 5.631-2.787 8.278-3.293.112 0 .38-.056.802-.169l1.436-.38c.534-.139 1.069-.253 1.604-.337.535-.084.972-.127 1.31-.127h10.896v12.67h-10.304c-.114 0-.451.071-1.015.211-.563.142-1.012.24-1.35.296-1.013.113-2.126.464-3.337 1.056-1.212.591-2.406 1.338-3.589 2.238-1.183.901-2.268 1.916-3.252 3.041-.985 1.127-1.731 2.28-2.238 3.463-.113.282-.267.606-.464.972-.198.366-.352.717-.465 1.055-.451 1.296-.732 2.38-.844 3.252-.114.874-.169 1.846-.169 2.914 0 1.521.197 3.112.591 4.773.394 1.661 1.042 3.252 1.942 4.772.9 1.52 2.07 2.943 3.505 4.266 1.437 1.322 3.196 2.436 5.28 3.335.225.113.591.253 1.098.423.507.168 1.027.324 1.563.464.535.142 1.056.268 1.563.379.506.114.928.168 1.267.168h10.22v12.669zM568.982 48.725c0 .113-.027.422-.084.928-.059.508-.113.93-.168 1.268-.283 1.973-.762 3.843-1.438 5.617-.676 1.773-1.576 3.562-2.701 5.364-1.014 1.634-2.381 3.209-4.098 4.73-1.719 1.52-3.338 2.674-4.857 3.463-.451.225-.916.465-1.393.719-.479.253-.973.492-1.479.717-1.521.619-3.111 1.083-4.773 1.395-1.662.309-3.334.464-5.023.464-.846 0-1.818-.057-2.916-.168-1.098-.114-2.098-.253-3-.423-1.855-.451-3.758-1.127-5.699-2.027-1.943-.902-3.844-2.196-5.701-3.886-1.52-1.351-2.859-2.842-4.014-4.477-1.154-1.632-2.041-3.237-2.66-4.814-.281-.676-.592-1.576-.928-2.703-.115-.281-.227-.604-.34-.972-.111-.366-.197-.689-.252-.971l-.211-1.183c-.086-.45-.156-.888-.211-1.309-.057-.424-.102-.774-.129-1.056l-.041-.508v-37.84h12.754v37.503c0 .114.014.198.041.253.029.057.043.142.043.254.057.451.154.944.297 1.479.141.535.295 1.028.465 1.478 1.35 3.154 3.18 5.393 5.488 6.715 2.311 1.324 4.617 1.984 6.928 1.984 1.236 0 2.504-.182 3.801-.548 1.295-.366 2.535-.956 3.717-1.775 1.184-.815 2.238-1.843 3.168-3.083.928-1.237 1.646-2.702 2.154-4.392.111-.281.238-.73.379-1.351.139-.619.211-.985.211-1.098v-37.419h12.67v37.672zM588.492 73.389h-12.754v-62.336h12.754v62.336zM648.549 23.638h-20.188v49.751h-12.754v-49.666h-20.355v-12.67h53.297v12.585zM395.978 151.676h-24.668c-.255 0-.822-.066-1.708-.19-.885-.126-1.645-.256-2.276-.38-2.277-.378-4.492-.761-6.641-1.137-2.153-.38-4.491-1.077-7.021-2.089-8.477-3.164-15.688-7.242-21.631-12.237-5.948-4.997-10.816-10.467-14.611-16.416-3.796-5.944-6.547-12.142-8.255-18.596-1.707-6.451-2.561-12.772-2.561-18.974 0-1.264.124-3.51.379-6.736.252-3.226.693-6.291 1.328-9.203.884-3.539 2.246-7.4 4.081-11.575 1.832-4.175 4.142-8.255 6.925-12.238 2.781-3.986 6.006-7.781 9.676-11.387 3.669-3.605 7.781-6.735 12.334-9.392 6.452-3.795 12.648-6.262 18.596-7.4.25 0 .854-.125 1.802-.379l3.225-.855c1.202-.313 2.404-.569 3.605-.758 1.202-.189 2.185-.286 2.941-.286h24.479v28.462h-23.147c-.257 0-1.017.161-2.277.476-1.268.316-2.28.539-3.037.665-2.277.254-4.778 1.043-7.496 2.37-2.722 1.33-5.408 3.007-8.063 5.028-2.659 2.026-5.094 4.302-7.306 6.833-2.216 2.531-3.891 5.122-5.029 7.778-.255.634-.602 1.362-1.043 2.183-.444.824-.793 1.612-1.042 2.372-1.015 2.912-1.647 5.346-1.898 7.305-.256 1.962-.379 4.144-.379 6.546 0 3.417.441 6.991 1.327 10.722.884 3.733 2.34 7.306 4.364 10.721 2.022 3.415 4.649 6.611 7.876 9.583 3.224 2.972 7.177 5.472 11.858 7.495.504.254 1.329.569 2.467.947 1.138.38 2.306.731 3.51 1.044 1.201.318 2.372.602 3.509.854 1.139.254 2.088.38 2.846.38h22.961v28.464z"/><path fill="#5B7A8C" d="M373.017 123.282c-.234 0-.495-.017-.767-.042.272.024-2.401 28.347-2.401 28.347.736.102 1.231.157 1.46.157h24.668v-28.462h-22.96z"/><path fill="#BE3B3B" d="M395.978 39.911v-28.462h-24.479l-.066.002c.748 9.631.689 19.112.395 28.633.512-.113.849-.172 1.002-.172h23.148z"/><path fill="#443F3B" d="M450.042 151.676h-44.752v-63.15h44.751v12.751h-31.831v12.406h15.83v12.835h-15.83v12.321h31.831v12.837zM498.585 151.676h-44.751v-63.15h12.92v50.314h31.831v12.836zM549.025 151.676h-44.75v-63.15h12.92v50.314h31.83v12.836z"/><path fill-rule="evenodd" clip-rule="evenodd" fill="#E99347" d="M604.418 106.03l25.086 9.448-59.379 37.982 26.27-37.982-19.514-8.95 46.162-29.274z"/></g><g fill-rule="evenodd" clip-rule="evenodd"><path fill="#D2D3D3" d="M674.678 449.912l-55.495.006c-.407-.783-.283-1.625-.263-2.451.206-8.227.902-16.424 1.384-24.636.555-9.456.901-18.877-.108-28.377-1.215-11.416-2.593-22.804-4.134-34.177-.157-1.159-.173-2.323.153-3.466 2.173-3.143 4.066-6.449 5.83-9.847 1.129-2.172 2.763-2.851 4.486-1.782 8.556 5.306 17.784 4.64 27.109 3.278 4.194-.613 8.357-1.444 12.573-1.925 1.078-.123 2.148-.214 3.233-.171 1.787.071 2.825.95 2.853 2.769.052 3.323.77 6.416 2.872 9.085.059 4.41-.603 8.771-.99 13.146-.902 10.174-1.705 20.361-2.812 30.515-.797 7.297.7 14.403 1.281 21.581.649 8.029 1.577 16.039 2.369 24.058.082.824.25 1.666-.341 2.394z"/><path fill="#2A7964" d="M322.938 449.879h-34.982c-.705-.785-.492-1.709-.389-2.613 1.582-13.88 3.222-27.754 4.903-41.622.399-3.291-.139-6.482-.348-9.692-.513-7.874-1.171-15.742-1.734-23.615-.573-8.038-1.199-16.075-1.685-24.121-.326-5.391-.899-10.766-1.092-16.167-.048-1.339.051-2.476 1.527-3.044 2.193-.844 3.421-.173 3.505 2.192.15 4.24.058 8.484.037 13.205 2.502-4.522 5.046-8.551 7.389-12.701 2.217-3.929 2.775-4.148 5.978-1.173 5.36 4.98 10.75 9.929 16.103 14.916 2.512 2.342 3.671 5.068 3.587 8.627-.253 10.721-.454 21.447-.718 32.165-.18 7.314.057 14.644-.406 21.937-.539 8.482-.129 16.968-.536 25.432-.22 4.57-.347 9.134-.415 13.704-.013.913-.018 1.843-.724 2.57zM362.96 449.848c-12.683.008-25.366.016-38.05.021-.877-.975-.685-2.186-.688-3.33-.017-5.822.379-11.646.383-17.45.011-14.146.564-28.278.758-42.417.112-8.144.042-16.302.406-24.44.2-4.464.389-8.947 1.013-13.385.202-1.438 1.016-2.625 1.884-3.755 4.26-5.543 8.409-11.171 12.704-16.688 2.089-2.684 2.612-2.737 5.14-.563 3.909 3.362 7.779 6.769 11.535 10.307.177.255.304.53.395.825.214 3.697.717 7.404-.326 11.064-.969.862-2.174.721-3.323.733-3.663.038-7.326-.045-10.988.038-2.524.058-3.528.92-3.57 2.858-.043 1.928.937 2.879 3.454 3.026 3.49.203 6.991.031 10.486.086 1.153.018 2.35-.124 3.368.642.949 1.531.792 3.266.557 4.862-.839 5.703-.479 11.459-.757 17.18-.388 7.958-1.146 15.945-.618 23.92.473 7.143 2.058 14.148 3.169 21.211 1.125 7.148 2.227 14.301 3.457 21.432.222 1.293.596 2.638-.389 3.823z"/><path fill="#411010" d="M570.833 220.719c4.357-5.577 9.248-10.627 15.012-14.86-3.577-2.481-4.639-5.421-3.652-9.513.18-.743.347-1.214 1.234-1.163 10.779.606 19.977-4.173 29.263-8.632 1.496-.718 2.978-1.468 4.438-2.256 8.424-4.543 17.329-6.165 26.922-5.482 11.375.809 22.721 1.483 33.722 4.783 5.362 1.609 10.478 3.737 14.885 7.287 6.925 5.576 9.285 12.742 7.15 21.322-.427 1.712-.127 2.374 1.529 3.087 6.099 2.623 11.546 6.237 15.812 11.426 5.558 6.76 7.269 14.438 5.159 22.898-.423 1.699-.08 2.632 1.253 3.719 4.418 3.604 8.146 7.818 10.657 13.015 3.659 7.566 2.98 14.667-2.388 21.162-1.053 1.275-.952 1.808.227 2.886 10.92 9.979 12.177 22.281 3.495 34.294-5.045 6.982-11.727 12.195-18.828 16.912-5.888 3.911-12.072 7.299-18.418 10.399-.484.236-1 .405-1.82.731 1.464-4.652 2.237-9.058 1.568-14.141-2.761 3.465-6.148 5.365-9.337 7.526-.633-.346-.822-.903-.767-1.581.312-.842 1.016-1.302 1.75-1.687 2.327-1.213 4.071-3.107 5.925-4.893 1.177-1.134 1.402-2.348.892-3.831-1.496-4.341-3.908-8.051-7.527-10.908-2.419-1.91-5.025-3.533-7.922-4.633-1.879-.714-3.562-1.762-5.219-2.87-1.026-.428-1.831-1.191-2.748-1.788-6.889-5.73-6.584-11.162.875-16.191 2.431-1.639 5.035-2.924 7.788-3.884 1.498-.521 1.587-1.169.599-2.271-.553-.617-1.008-1.32-1.425-2.043-3.152-5.462-2.626-9.804 2.402-13.579 2.498-1.875 2.752-3.553 1.986-6.265-.994-3.517-1.556-7.167.092-10.728.639-.621 1.29-.965 1.993-.088.229.466.251.967.158 1.462-.777 4.146-.191 8.141 1.464 11.967.827 1.912.465 3.195-1.447 4.033l-.222.117c-6.673 3.996-7.284 8.784-1.829 14.353l.528.531c2.378 2.453 2.268 2.979-.938 4.16-3.762 1.385-7.416 2.969-10.701 5.318-4.526 3.238-4.649 6.794-.334 10.375 2.717 2.254 5.812 3.832 9.013 5.287 8.014 3.645 14.012 9.203 16.389 18.003 1.237 4.579.796 9.235.535 14.12 3.088-1.402 5.97-2.957 8.795-4.621 7.77-4.578 15.191-9.621 21.418-16.234 2.757-2.928 5.123-6.146 6.774-9.824 3.449-7.686 2.521-14.909-2.464-21.647-1.44-1.947-3.089-3.678-5.01-5.189-1.964-1.546-1.925-1.917-.302-3.787 1.592-1.833 2.941-3.799 3.898-6.056 2.775-6.542.469-12.218-3.012-17.644-2.266-3.533-5.314-6.397-8.525-9.061-1.402-1.165-2.247-2.364-1.69-4.288 3.766-13.007-2.31-21.944-11.761-28.724-7.59-5.445-8.933-5.446-17.713-2.233-3.146 1.152-6.14 2.583-8.793 4.652-4.281 3.339-4.964 7.032-1.949 11.518 2.897 4.307 7.021 7.271 11.394 9.928 3.181 1.932 5.01 2.167.954 6.009-1.262 1.193-1.747 3.062-3.387 3.935-.74.145-1.205-.145-1.379-.882.054-1.906 1.417-3.129 2.416-4.528.712-1 .87-1.785-.423-2.372-3.309-1.968-6.197-4.491-9.184-6.888-2.298-2.765-4.562-5.55-5.083-9.28-.18-1.294-1.006-1.682-2.134-1.481-3.638.647-7.304.295-10.957.396-1.269.034-2.47.328-3.65.75-5.106 1.819-10.284 3.341-15.712 3.862-1.839.177-3.296 1.086-4.393 2.564-1.244 1.682-2.734 3.134-4.23 4.578-.651.627-1.273 1.347-2.309 1.315-1.185-1.008-.139-2.035-.03-3.059 1.104-1.728 2.934-2.854 4.245-4.828-3.427-.372-6.542-.663-9.536-1.698-2.552-.883-4.96-1.979-6.936-3.825-3.345-3.124-7.647-2.824-11.548-2.612-2.843.154-4.485 3.178-5.758 5.759-.736 1.494-1.292 3.116-1.428 4.764-.513 6.227-2.406 11.86-7.05 16.604 2.261.797 4.203.536 6.125.198 10.262-1.807 20.098-4.686 28.403-11.384.323-.26.712-.428 1.11-.563.652-.168 1.288-.203 1.861.235.566 1.53-.758 2.025-1.58 2.686-6.714 5.391-14.429 8.634-22.778 10.487-.506.102-1.015.171-1.527.21-3.482.809-6.963 1.631-10.585 1.415-3.115-.185-3.675-.675-4.708-3.77-.449-1.345-1.71-.446-2.566-.699-.65.003-1.298-.029-1.941-.133-1.117-.242-2.202-.609-3.258-1.033-2.41-.968-2.594-1.82-.845-3.698.333-.358.692-.691 1.082-.987.596-.422 1.208-.823 1.718-1.355 3.174-3.139 6.649-5.954 9.97-9.264-1.474-.14-2.784.002-4.081-.091-2.674-.192-5.025-1.15-6.856-3.143-1.803-1.961-1.573-3.205.784-4.49 3.436-1.87 7.054-3.362 10.568-5.068 2.072-1.006 2.105-1.226.255-2.577-6.64-4.849-5.991-13.436.632-18.99.692-.579 1.501-.833 2.309-.345 4.016 2.425 7.61.633 11.009-1.312 3.397-1.943 6.726-3.985 10.466-5.205 1.148-.374 1.372-.958 1.023-2.046-.587-1.828-.846-3.737-1.033-5.635-.177-1.804-.936-1.803-2.295-1.137-4.107 2.006-8.123 4.197-12.343 5.982-5.862 2.481-11.851 4.368-18.279 4.533-.95.025-1.962.134-2.118 1.292-.209 1.555.232 2.973 1.459 4.046 1.021.895 2.31.814 3.548.921.572.05 1.265.055 1.515.666.276.681-.361 1.063-.8 1.374-6.482 4.598-12.271 9.916-17.091 16.259-.204.269-.518.407-.848.497-.994-.129-1.337-.679-1.046-1.635z"/><path fill="#0D211C" d="M357.756 350.05c.04-3.829.079-7.657.118-11.486.701-.877-.066-1.778.041-2.664-.229-3.808-.437-7.614.225-11.407.085-.487.045-.991-.056-1.484-.159-.779-.644-1.153-1.417-1.067-.829.092-1.117.669-1.014 1.422.204 1.479.616 2.922.854 4.394.437 2.697 1.376 5.305 1.399 8.074-.129.912.615 1.83-.017 2.738-4.432-3.239-8.26-7.177-12.383-10.771-1.289-1.124-1.849-1.306-2.988.239-4.432 6.011-9.089 11.854-13.553 17.841-1.019 1.367-1.218 3.057-1.514 4.829-.423 2.533-.17 5.041-.568 7.517-.676 4.212-.337 8.454-.413 12.683-.212 11.878-.14 23.767-.658 35.63-.36 8.226.015 16.458-.492 24.658-.385 6.23-.199 12.452-.41 18.675l-1.972.01c.177-12.138.113-24.284.626-36.406.288-6.816.068-13.633.427-20.436.464-8.806.187-17.626.566-26.422.205-4.734.139-9.469.402-14.192.1-1.783-.339-3.218-1.579-4.489-6.548-6.719-13.646-12.839-20.604-19.319-3.539 6.012-6.937 11.783-10.335 17.557l-.449-.115c0-4.849.04-9.698-.04-14.546-.013-.793.829-2.438-1.288-2.094-1.35.219-2.596-.079-2.368 2.334.786 8.34 1.111 16.722 1.716 25.079.737 10.17 1.556 20.335 2.387 30.497.867 10.596 1.007 21.124-.735 31.703-1.479 8.983-2.16 18.1-3.204 27.156-.142 1.232-.335 2.462-.504 3.693l-1.923-.006c-.978-1.12-.422-2.407-.285-3.585 1.556-13.366 3.006-26.745 4.699-40.093.553-4.36-.36-8.609-.428-12.917-.023-1.481-.37-2.971-.302-4.467.09-1.996-.59-3.1-2.804-3.149-1.732-.038-3.463-.388-5.193-.609-1.434-.695-3.231.138-4.545-1.068-3.783-.492-7.557-1.074-11.352-1.43-1.549-.145-2.009-.363-1.33-1.993 7.209-17.287 14.364-34.597 21.497-51.916.349-.848.702-1.102 1.623-.993.887.104 1.812-.168 2.723-.194 1.389-.041 1.76-.716 1.74-2.064-.05-3.321.188-6.649.08-9.968-.054-1.658.572-2.557 1.897-3.388 2.245-1.409 4.375-2.998 6.555-4.511.852-.739 1.769-.662 2.714-.219.894 1.246-.176 1.792-.923 2.352-1.662 1.241-3.381 2.42-5.173 3.457-1.941 1.123-2.704 2.619-2.663 4.889.113 6.305.064 12.614.022 19.355 1.938-3.395 3.756-6.444 5.516-9.53 1.796-3.152 2.481-3.223 5.145-.663 4.483 4.307 9.279 8.28 13.617 12.727.151.128.165.428.465.396-.227-.123-.346-.338-.481-.559-2.51-4.521-4.885-9.1-7.315-13.647-1.409-2.635-1.329-3.427 1.001-5.082 2.62-1.863 3.774-4.205 3.851-7.383.042-1.768.046-3.666 1.1-5.28.805-.384 1.54-.341 2.165.356.551 3.755-.177 7.406-1.1 11.003-.309 1.205-1.569 1.902-2.576 2.635-1.356.988-1.704 2.126-.855 3.651 3.468 6.236 6.717 12.596 10.229 18.801.908-.178.954-.952 1.226-1.491 2.247-4.454 4.433-8.938 6.739-13.36.958-1.836.974-3.47-.832-4.56-5.398-3.259-7.44-8.139-7.285-14.211.028-1.117-.7-2.285.278-3.325.627-.346 1.256-.342 1.888-.017 1.756 2.373 1.106 5.263 1.591 7.9.305 1.659.813 2.889 2.135 3.969 1.726 1.409 3.279 3.028 5.03 4.421 1.617 1.286 2.097 2.793 1.192 4.807-.985 2.194-1.959 4.376-3.351 6.319.031.151-.394.18-.167.354.256.195-.141.098.079-.181 2.279-3.618 5.031-6.859 7.598-10.236 1.695-2.231 2.565-2.39 4.643-.393 2.521 2.423 5.333 4.523 7.705 7.071.705-.204-.08-.554.066-.806-1.129-4.503-2.023-9.049-2.966-13.582-.407-1.952-1.316-3.271-2.973-4.299-2.317-1.439-4.574-2.98-6.814-4.54-.776-.539-1.832-.911-1.805-2.154.67-.942 1.515-1.122 2.527-.587 2.47 1.68 4.838 3.544 7.439 4.986 2.612 1.448 4.188 3.315 4.278 6.364.049 1.672.718 2.341 2.656 2.081 5.025-.671 5.034-.542 6.64 4.27 5.931 17.765 11.832 35.539 17.848 53.273.665 1.961.344 2.701-1.642 3.157-2.416.555-4.763 1.41-7.14 2.135-.635.793-1.523 1.15-2.455 1.438-2.552.762-5.095 1.572-7.667 2.236-2.381.616-3.126 2.049-3.187 4.341-.228 8.588.237 17.1 1.79 25.581 1.858 10.146 3.391 20.351 4.956 30.549.188 1.226.49 2.476-.346 3.609l-2.061-.059c-.697-7.348-2.247-14.567-3.335-21.857-1.821-12.205-4.553-24.284-3.731-36.795.74-11.259.997-22.549 1.467-33.824.533-1.06 1.284-1.357 2.32-.664.648 1.434.455 2.943.312 4.422-.612 6.375-.472 12.781-.858 19.167-.153 2.542.144 2.67 2.492 1.98 4.391-1.288 8.79-2.547 13.163-3.891 3.085-.947 3.085-.972 2.102-3.926-4.866-14.602-9.737-29.202-14.606-43.805-.499-1.496-1.094-2.965-1.278-4.118.08 3.248.288 6.912-.22 10.576-.413 2.977-.114 5.982-.188 8.976-.042 1.666-.042 3.337-.965 4.828-1.009.538-1.581.133-1.879-.868z"/><path d="M264.163 261.273c-1.427-3.252-1.489-6.774-1.912-10.206-1.09-8.837-1.803-17.697-.296-26.568.664-3.903 1.764-7.619 4.876-10.374.465-.412.755-.769.5-1.48-1.529-4.279-.116-8.192 1.709-11.975 5.528-11.455 15.285-17.749 26.796-21.996 11.176-4.123 22.435-2.732 33.695-.78 7.072 1.226 13.811 3.555 20.025 7.23 7.971 4.717 13.979 11.213 17.384 19.875 1.909 4.856 3.973 9.627 6.122 14.382 2.746 6.076 4.107 12.437 1.953 19.82l-4.419-10.163c-1.159 3.814-2.057 7.469-3.573 10.938-.397.908-.069 1.817.251 2.667 2.609 6.933 1.961 13.458-1.875 19.867-1.945 3.25-3.192 6.915-4.756 10.393-.796-.509-.787-1.286-.699-2.088.323-5.32 3.033-9.833 5.285-14.405 1.855-3.767.826-7.005-.159-10.926-1.611 2.658-2.997 4.912-4.669 6.968-1.341 1.434-1.897.481-2.359-.771-.153-.477-.208-.967-.192-1.466.452-1.493-.229-2.722-.933-3.946-.955-3.745-2.619-7.177-4.563-10.49-1.076-1.833-2.524-2.888-4.757-3.137-4.459-.499-8.87-1.381-13.327-1.937-.909-.114-1.806-.302-2.69-.538-1.742-.466-2.761-1.538-2.581-3.423.161-1.695 1.623-2.827 3.621-2.621 2.807.29 5.61.674 8.203 1.186-7.315-3.334-15.02-5.232-22.526-4.95-7.934.297-15.607 2.311-23.259 4.282-1.438.369-1.741.833-3.586 3.438 2.191-.579 4.056-1.306 5.957-1.904.951-.302 1.882-.675 2.857-.893 1.729-.386 3.173-.009 3.935 1.741.674 1.547-.064 3.111-1.858 4.1-.879.484-1.843.759-2.782 1.097-3.837 1.379-7.789 2.396-11.649 3.702-1.472.498-2.629 1.28-3.564 2.559-2.237 3.06-3.722 6.691-7.048 8.942-1.099.744-.527 2.15-.357 3.287 1.441 9.62 2.952 19.23 4.29 28.866.08.576.219 1.149.179 1.734-.068 1.017-.548 1.742-1.582 1.118-3.225-1.947-6.998-3.371-7.795-7.793-.265-1.471-.941-2.857-1.18-4.328-.459-2.816-1.895-4.918-4.251-6.444-.827-.849-2.1-1.281-2.441-2.59z"/><path fill="#0E0D0E" d="M688.185 344.489l.532 1.631c3.638 11.896 7.286 23.789 10.911 35.69 3.287 10.798 6.433 21.642 9.876 32.39 1.525 4.764.844 9.556 1.003 14.342.056 1.688-.809.116-1.22.219-1.614-.189-2.34-1.648-3.521-2.457-4.293-3.283-4.299-3.291-8.79.025-1.801 1.331-3.651 2.593-5.457 3.916-.777.445-1.45 1.12-2.429 1.139-1.049.654-1.392.389-1.635-.864-1.374-7.078-2.865-14.134-4.318-21.196-2.523-12.255-5.047-24.51-7.569-36.765-.976-1.322-.6-2.788-.459-4.228.08-.407.218-.799.373-1.186.185-.458.325-1.062.898-1.067.582-.005.709.606.864 1.064.24.71.373 1.448.52 2.183 3.652 18.27 7.523 36.494 11.15 54.769.098.49.219.976.3 1.467.237 1.457.88 1.557 2.024.747 2.785-1.967 5.568-3.938 8.314-5.956 1.702-1.25 3.126-1.12 4.685.204 1.332 1.131 2.494 2.447 4.032 3.536-.802-10.792-5.169-20.61-8.065-30.791-3.938-13.836-8.263-27.562-12.433-41.332-.889-2.936-1.624-5.938-3.479-8.5-1.101-1.521-2.457-2.71-4.08-3.597-1.861-1.015-2.342-.755-2.366 1.367-.05 4.238.772 8.443.493 12.696-.072 1.076.041 2.165-.051 3.241-.074.897-.053 1.898-1.274 2.129-.987-.074-1.692-.653-2.346-1.321-2.818-1.778-2.854-4.662-2.922-7.497-.082-3.51-.16-3.761-3.702-3.329-6.179.752-12.322 1.795-18.497 2.594-8.144 1.054-16.085.791-23.249-4.01-1.787-1.197-2.934-.229-3.715 1.435-1.589 3.38-3.048 6.839-5.86 9.461-.569.626-.971 1.491-2.021 1.445-.91-.44-.831-1.361-.982-2.133-.951-4.845-3.025-9.224-5.498-13.441-.502-.399-.75-.967-1.019-1.521-8.132-17.326-16.074-34.74-24.086-52.12-2.16-4.686-4.376-9.346-6.482-14.056-.397-.892-1.049-1.753-.51-2.821.596-.563 1.366-.742 2.111-.977 2.41-.604 4.817-1.224 7.234-1.801 1.287-.306 1.968-1.008 2.184-2.343.33-2.042.622-4.095 1.087-6.116.257-.726.318-1.524.804-2.165 1.59-.753 2.172.618 3.035 1.431 5.342 5.025 7.609 11.779 10.306 18.292.922 2.227 1.688 4.517 2.755 6.684 1.422 3.965 2.148 8.157 4.15 11.942 1.085 2.05 2.65 3.82 3.424 6.038 2.046 5.703 4.566 11.215 6.827 16.831 1.425 3.542 2.983 7.028 4.373 10.585.3.764.729 1.509.546 2.386-.347.289-.5.64-.311.7.933.297 1.792.783 2.74 1.045 7.565 3.153 15.271 5.523 23.623 5.384 4.557-.075 8.705-1.035 12.429-3.679 1.024-.536 1.774-1.405 2.607-2.176.587-.505 1.262-.898 2.038-.699 4.781 1.229 9.961 1.119 14.28 3.892 2.698 1.729 5.329 3.669 5.818 7.244z"/><path fill="#FCC07C" d="M365.021 449.906c-.896-8.506-2.589-16.891-3.883-25.336-1.018-6.643-2.333-13.244-3.138-19.911-.687-5.695.003-11.44.207-17.162.033-.934.398-1.478 1.375-1.741 3.439-.93 6.855-1.945 10.28-2.928 1.181.579 1.181 1.722 1.3 2.785.761 6.779.962 13.6 1.479 20.397.492 6.464.873 12.938 1.322 19.407.396 5.723.74 11.45 1.101 17.176.156 2.467.423 4.609 2.701 6.023.413.256.7.714.636 1.277-4.461.005-8.921.009-13.38.013z"/><path fill="#010000" d="M506.256 302.725c-4.26-2.279-8.653-.776-13.62-.573l3.652 1.959c.28.31.318.619.004.931-.78 1.46.776 1.329 1.291 1.662 7.383 4.774 13.185 10.863 16.343 19.216.21.556.861 1.062-.197 2.306-3.836-10.512-10.938-17.759-20.832-22.828 1.883 5.825 4.209 11.222 4.693 17.107 1.018 12.338 3.33 24.59 2.582 37.042-.144 2.397.347 3.351 3.049 3.298 5.675-.109 10.467 3.733 12.033 9.731 2.575 9.857 2.131 19.766-.352 29.592-.438 1.729-.852 3.893-3.047 4.126-1.965.208-2.93-1.6-3.967-3.005-.326-.442-.445-1.074-1.329-1.346-.777 7.445-3.335 14.316-6.362 21.04-.244.634-.195 1.372-.683 1.922-1.285 1.579-2.255 3.527-4.565 3.912-.814-.193-1.049-.717-.857-1.488 6.398-6.911 8.877-15.532 10.193-24.49 1.345-9.141-.766-17.86-4.4-26.254-.555-1.278-1.403-1.543-2.598-.995-9.967 4.574-20.198 2.784-30.366 1.101-4.201-.695-7.664-3.129-10.746-6.034-2.633-1.921-4.462-4.392-5.427-7.548-.664-2.17-1.068-2.235-2.905-.763-1.56 1.25-2.981 2.66-4.216 4.234-.98 1.249-1.906 2.544-1.54 4.304.124.598-.007 1.176-.597 1.517-.654.38-1.147-.04-1.531-.454-1.7-1.841-3.263-1.054-4.793.213-.902.746-1.636 1.67-2.304 2.614-3.301 4.673-7.568 8.372-11.938 11.969-4.863 4.003-5.165 4.839-2.821 10.562 2.557 6.244 5.515 12.286 9.668 17.669.975 1.263 2.06 2.395 3.402 3.265 2.881 1.867 5.666 1.299 7.525-1.561.781-1.202 1.371-2.522 1.415-3.955.127-4.146.321-8.266-1.008-12.347-1.967-6.041-.812-12.019 1.053-17.872.61-1.914 1.283-1.945 2.58-.415-.424 3.368-1.697 6.568-1.811 10.015-.095 2.854.017 5.624.993 8.337 1.354 3.765 1.228 7.695.999 11.589-.111 1.889.443 3.339 1.5 4.826 3.931 5.529 8.599 10.307 14.129 14.239.45.667.911 1.337.061 2.04-1.106.313-1.897-.372-2.698-.917-4.385-2.977-8.42-6.334-11.449-10.757-.409-.687-1.03-1.243-1.271-2.035.041-1.303-1.051-1.988-1.575-2.991-.18.106-.37.153-.445.273-3.783 6.041-8.436 6.618-13.36 1.37-5.604-5.976-8.847-13.382-11.941-20.835-.412-.992-.671-2.05-1.102-3.032-.92-2.097-.469-3.922 1.076-5.477 1.461-1.471 2.972-2.902 4.556-4.239 4.014-3.386 7.774-6.992 10.984-11.183 1.952-2.55 3.923-5.316 7.852-4.757.859.123 1.015-.74 1.34-1.267 2.092-3.392 4.855-6.16 8.218-8.216 1.884-1.151 3.154-2.628 4.039-4.548 5.747-12.475 13.276-23.929 20.439-35.586 4.085-6.649 9.417-12.225 15.764-16.77 1-.716 1.054-1.825 1.755-2.604.645.373 1.719-.622 2.083.652-.305 1.332.685.796 1.194.768 2.481-.136 4.958-.35 7.439-.49 1.781-.103 3.447.252 4.823 1.497.176.264.152.509-.074.734z"/><path fill="#FCC07C" d="M281.425 384.442c2.313.21 4.624.513 6.941.6 1.566.059 1.859.865 1.983 2.198.944 10.103 1.066 20.152-.422 30.257-1.583 10.75-2.619 21.58-3.894 32.376l-4.587-.035c.464-9.213-.787-18.354-1.125-27.531-.27-7.293-.86-14.563-1.185-21.852-.188-4.217-.343-8.447-.762-12.657-.268-2.721.549-3.541 3.051-3.356z"/><path fill="#F8A348" d="M578.29 271.558c-.605.451-1.272.592-2.005.392-2.056-2.532-2.537-5.799-4.001-8.611-.714-1.372-1.187-2.873-1.756-4.32-.214-.459-.075-.953-.143-1.428-.438-2.597-2.068-4.649-3.169-6.943.076-.804-.467-1.398-.709-2.095-.401-.766-.619-1.603-.935-2.401-.553-.738-.248-1.921-1.256-2.425-.039-.915-.179-1.789-.545-2.659-2.855-6.821-5.714-13.643-8.469-20.505-.594-1.482-1.452-2.195-2.993-2.551-3.072-.711-6.073-1.724-9.141-2.458-1.672-.401-2.4-1.198-2.698-2.957-.852-5.018-.953-5.003 4.165-5.426.989-.083 2.002-.027 3.146-.729-2.195-2.326-4.278-4.65-6.504-6.828-.965-.945-.983-1.638-.341-2.767 3.088-5.417 3.05-5.429 7.737-1.48.937.788 1.697 1.838 3.035 2.188.81-1.406.449-2.938.521-4.396.057-1.144.418-1.802 1.604-2.146 1.991-.576 3.957-1.271 5.876-2.057 1.664-.68 2.046-.01 2.043 1.514-.005 1.948-.074 3.92.641 6.136l.724-1.295c.817-1.52 1.229-4.423 2.416-4.325 2.25.186 4.391 1.777 6.56 2.818.86.411.479 1.08.269 1.715-.54 1.623-1.052 3.255-1.562 4.848.263.127.33.185.4.188 1.519.092 2.501-2.418 4.056-1.147 1.098.897 1.649 2.465 2.443 3.734 2.692 4.307 2.691 4.306-1.551 6.985-2.109 1.333-4.167 2.755-6.337 3.98-1.449.819-1.908 1.626-.89 3.117.745 1.09 1.279 2.326 1.908 3.495l.839 1.454c1.855 1.639 2.61 3.995 3.714 6.07 2.746 5.174 5.405 10.396 8.128 15.585.446.852 1.097 1.697.695 2.781-.354.5-.749.95-1.385 1.092-1.254.128-1.437-.966-1.834-1.705-4.37-8.131-8.628-16.319-12.806-24.551-.789-1.558-1.467-3.18-2.437-4.636-1.15-1.729-.623-2.888 1.027-3.894 2.627-1.602 5.157-3.361 7.807-4.926 1.682-.993 1.792-2.019.747-3.645-1.062-1.651-2.112-1.942-3.638-.776-.262.2-.559.368-.86.503-1.152.516-2.312 2.046-3.543.96-1.155-1.021-.025-2.494.315-3.729.374-1.362.882-2.688 1.325-4.03.414-1.251.028-2.108-1.185-2.598-1.283-.518-1.57.501-1.967 1.307-1.176 2.387-2.407 4.746-3.42 7.213-.271.66-.596 1.558-1.486 1.449-1.02-.125-1.15-1.089-1.214-1.931-.198-2.65.251-5.34-.421-7.953-.214-.832.398-2.406-1.134-2.286-1.439.11-3.056.607-3.18 2.561-.101 1.58-.557 3.11-.551 4.704.003.817.142 1.861-.67 2.279-.955.49-1.706-.403-2.395-.938-1.575-1.223-3.074-2.543-4.616-3.811-.683-.56-1.423-1.453-2.337-.477-.872.931-.371 1.858.375 2.639 1.726 1.804 3.521 3.537 5.276 5.31.527.532 1.091 1.033 1.554 1.621 1.198 1.521.937 2.432-.978 2.746-1.716.281-3.451.519-5.191.665-.967.08-2.185-.1-2.303 1.312-.112 1.34.914 1.876 2.006 2.177 2.807.771 5.592 1.633 8.417 2.319 2.174.527 3.336 1.759 4.173 3.797 6.67 16.23 13.407 32.435 20.087 48.662.457 1.095 1.361 2.202.527 3.519z"/><path fill="#3A5D79" d="M458.84 449.877l-42.002.002c-.396-3.321 2.385-8.716 5.458-10.18 5.409-2.578 10.803-5.185 15.991-8.182 1.93-1.115 3.262-.901 4.672.896 3.425 4.363 7.953 7.521 12.369 10.771 2.302 1.693 3.68 3.759 3.512 6.693z"/><path fill="#FBC689" d="M691.074 429.941c3.01-2.198 6.061-4.344 9.013-6.617 1.265-.975 2.206-1.16 3.32.173.788.942 1.789 1.706 2.694 2.549 1.288 1.606 1.624 3.596 2.128 5.494 1.335 5.027 2.332 10.131 3.313 15.235.2 1.046.46 2.127-.367 3.062-4.688.021-9.378.043-14.068.062-.767-.717-1.015-1.697-1.329-2.641-1.555-4.651-3.106-9.303-4.646-13.958-.368-1.113-.748-2.226-.058-3.359z"/><path fill="#F8A241" d="M358.426 251.558c.512.167.125 2.602 1.5.595 1.623.412 1.197 1.811 1.237 2.844.203 5.209.019 10.409-.679 15.582-.135.787-.133 1.563.163 2.322-.475 3.957-.813 7.935-1.447 11.862-1.674 10.376-7.131 17.724-17.348 21.123-.846.127-1.722.147-2.455.684-1.297 1.433-3.143 1.327-4.789 1.495-2.379.243-4.781 1.422-7.195.131l-1.907-.063c-1.777 1.724-3.876 1.171-5.944.844-.577-.791-1.362-.445-2.094-.383-1.896 1.247-4.049.827-6.04.648-2.653-.236-5.482.228-7.909-1.383l-2.911-.33c-3.617-1.176-7.258-2.249-10.817-3.634-5.84-2.271-10.135-6.22-13.489-11.345-1.044-1.595-2.096-3.217-2.872-4.947-1.57-3.503-3.281-6.221-7.553-7.536-7.792-2.401-8.181-15.134-1.715-18.793l2.249 1.796c-2.296 1.802-3.98 3.784-3.794 7.073.248 4.398 2.093 7.3 6.447 8.278 2.566.576 4.05 1.827 5.013 4.212.93 2.304 2.176 4.484 3.38 6.673 5.205 9.464 13.975 13.618 23.95 15.268 12.207 2.019 24.519 1.8 36.677-.747 7.235-1.516 13.253-4.895 16.238-12.196 1.684-4.121 2.463-8.424 2.922-12.838.821-7.888.293-15.788.482-23.68.029-1.213-.306-2.525.7-3.555z"/><path fill="#050707" d="M458.84 449.877c-.685-4.076-3.732-6.2-6.783-8.4-3.847-2.774-7.547-5.75-10.401-9.604-.566-.765-1.012-.884-1.837-.432-5.833 3.199-11.799 6.138-17.751 9.11-2.867 1.432-3.638 4.604-4.664 7.416-.228.623-.379 1.273-.566 1.912-.668 0-1.605.495-1.18-.999 1.333-4.675 3.127-8.759 8.125-10.897 5.17-2.214 10.065-5.07 15.092-7.626.862-.438 1.112-1.005 1.364-2.011.758-3.03 1.936-5.956 2.951-8.922.755.295 1.288.827 1.648 1.545-3.827 9.36-3.429 7.736 2.334 13.698 2.725 2.819 5.902 5.073 9.259 7.552.648-3.245.226-6.486 1.892-9.256.785-.47.184-.94-.001-1.411 2.467-4.652 5.637-5.465 9.934-2.546.345.233.692.469.993.755 2.419 2.307 4.838 4.593 8.565 2.598.132-.071.346-.067.492-.013 3.548 1.34 5.998-.257 8.493-2.682 1.962-1.906 4.542-3.068 7.506-2.059.044.582.384.836.942.848 2.33 1.67 2.35 4.451 3.198 6.879 2.888-3.267 3.196-5.302 1.399-8.892-.297-.592-.698-1.147-.571-1.867l.925-1.591c.756 1.38 1.452 2.798 2.285 4.129.818 1.311 1.521 2.566.545 4.093-.552.861.04 1.621.314 2.359 1.794 4.827 3.146 9.785 4.438 14.761.219.838.744 1.933-.988 1.559-1.207-.51-1.23-1.697-1.482-2.708-.962-3.854-2.067-7.664-3.424-11.614-1.654 2.146-2.521 4.217-2.567 6.871-.044 2.543.106 5.378-2.086 7.418l-1.54.031c-.376-.562-.164-1.124.024-1.67 1.737-5.03 1.045-10.009-.45-14.92-1.174-3.861-3.267-4.443-6.485-1.99l-1.668 1.492c-1.789 1.354-2.215 2.727-.882 4.812 1.21 1.894 1.069 4.244.255 6.272-.751 1.872-.262 2.928 1.287 3.921.715.459 1.652.917 1.51 2.071l-1.972.008c-1.007.204-2.017-1.911-3.021.004l-1.419-.035c-2.367-.789-4.729-.582-7.09.023l-1.422-.008c-1.027-1.94-2.315-2.353-4.031-.754-.414.386-1.028.513-1.555.746l-2.072.031c.133-1.79 1.819-2.236 2.86-3.207.836-.781 1.154-1.414.701-2.563-.953-2.42-.891-4.876.403-7.189.627-1.12.481-1.993-.416-2.884-1.355-1.35-2.704-2.693-4.446-3.545-2.354-1.15-3.908-.754-4.776 1.681-1.743 4.884-2.756 9.887-1.174 15.066.259.847.817 1.662.446 2.624l-1.46.01z"/><path fill="#411111" d="M570.386 257.59l.439.864c.51 1.514-.645 2.274-1.449 3.188-2.977 3.386-5.839 6.845-7.278 11.226-1.386 4.219-.923 8.084 2.405 11.257 1.596 1.522 1.83 2.914.526 4.78-1.524 2.183-2.731 4.573-3.463 7.161-1.865 6.592.106 11.78 5.886 15.487 2.471 1.583 5.193 2.622 7.938 3.607 2.598.935 5.088 2.094 7.267 3.805 4.745 3.723 5.893 8.729 3.452 14.24-2.053 4.633-5.065 8.538-9.069 12.119 9.715.308 18.903-.521 27.794-3.649.933-.329 1.816-.873 2.874-.641.566.353.484.933.516 1.474-5.305 2.856-11.152 3.706-16.996 4.417-6.355.774-12.753.855-19.435.532 1.235-1.854 3.04-2.869 4.435-4.275 3.058-3.084 5.92-6.3 7.721-10.305 2.536-5.641 1.21-9.959-4.015-13.228-1.766-1.105-3.7-1.846-5.639-2.589-1.93-.742-3.891-1.444-5.729-2.379-9.416-4.779-12.25-12.589-8.032-22.203.828-1.886 2.723-3.565 2.845-5.424.111-1.716-2.287-2.987-3.095-4.823-1.491-3.393-1.369-6.768-.19-10.188 2.007-5.83 5.968-10.27 10.292-14.453z"/><path fill="#BE3C3C" d="M460.297 449.867c-3.118-6.349-1.872-12.611.527-18.775.79-2.031 2.554-2.477 4.556-1.565 2.562 1.164 4.438 3.167 6.317 5.177.608.648.389 1.089-.028 1.714-1.758 2.634-1.956 5.435-.549 8.264.5 1.008.141 1.448-.621 2.025-1.314.995-2.536 2.112-3.798 3.179l-6.404-.019zM489.283 449.869c-.362-.33-.694-.701-1.091-.981-1.999-1.412-4.045-2.417-2.149-5.717 1.191-2.075.565-4.938-1.231-6.976-.821-.932-.672-1.492.104-2.244 1.486-1.441 2.884-2.979 4.72-4.007 2.844-1.591 4.795-1.064 5.852 2.049 2.002 5.898 2.964 11.894.205 17.888l-6.41-.012z"/><path fill="#B2B2B2" d="M675.727 368.01l-.158 4.549c-1.125 3.417-.901 7.013-1.304 10.519-.84 7.322-1.456 14.673-2.008 22.022-.354 4.738.703 9.408 1.117 14.106.661 7.505 1.521 14.993 2.276 22.49.224 2.225.252 4.478.616 6.679.257 1.559-.402 1.706-1.589 1.537-.978-6.286-1.395-12.632-2.04-18.952-.595-5.828-1.263-11.648-1.893-17.472-.535-4.94-.501-9.854.207-14.799.607-4.246.8-8.55 1.195-12.826.632-6.822 1.288-13.642 1.917-20.464.227-2.469.405-4.942.605-7.415.868-.052 1.528.296 1.981 1.037.865 2.007.34 4.044-.18 5.957-.269 1.002-.477 2.025-.742 3.032zM614.703 358.083l2.021-1.445c-.081 5.156 1.161 10.167 1.704 15.256.55 5.171 1.455 10.296 1.804 15.497.405 6.019 1.114 12.017 1.5 18.036.194 3.035.184 6.12-.12 9.145-.48 4.779-.636 9.571-.91 14.359-.375 6.528-1.021 13.042-1.053 19.591-.003.466-.304.932-.467 1.396-1.231.181-1.602-.4-1.539-1.568.251-4.635.412-9.275.682-13.91.204-3.469.56-6.929.782-10.398.362-5.621.905-11.244.925-16.869.016-4.287-.65-8.577-1.031-12.864-.717-8.078-1.645-16.132-2.792-24.162-.574-4.012-1.009-8.042-1.506-12.064z"/><path fill="#F8A341" d="M378.401 449.895c-3.153-1.572-3.991-4.011-4.157-7.588-.48-10.388-1.263-20.77-1.928-31.153-.469-7.332-1.049-14.658-1.492-21.995-.127-2.104-.139-4.299-.962-6.33l2.069-.677c1.143 4.209.995 8.56 1.299 12.847 1.16 16.369 2.164 32.749 3.168 49.13.084 1.376.436 2.337 1.675 3.039 1.205.685 2.297 1.564 3.969 2.728l-3.641-.001z"/><path fill="#F8A342" d="M281.425 384.442c-2.278-.124-2.591 1.342-2.411 3.087.561 5.428.715 10.879 1.003 16.324.515 9.729 1.298 19.442 1.89 29.167.281 4.624.352 9.261.583 13.888.059 1.17-.271 2.104-1.044 2.93h-3.515c3.355-1.942 2.456-4.687 2.278-7.356-.479-7.216-.814-14.439-1.229-21.659-.601-10.452-1.237-20.902-1.817-31.356-.101-1.822.002-3.655.012-5.482 1.432.01 2.881-.131 4.25.457z"/><path fill="#3A5C78" d="M497.231 449.85c1.113-2.975 1.55-6.049 1.44-9.223-.091-2.611 2.309-4.043 3.016-7.068 2.473 5.752 3.512 11.128 5.104 16.324-3.187-.012-6.373-.022-9.56-.033z"/><path fill="#F8A44A" d="M711.176 449.838c-.928-7.678-2.798-15.151-4.882-22.578-.109-.393-.13-.809-.192-1.214 1.063.906 2.128 1.812 3.188 2.718.023 3.507 1.479 6.73 2.03 10.141.488 3.017 1.124 6.014 1.811 8.991.431 1.866-.188 2.417-1.955 1.942z"/><path fill="#F8A449" d="M691.074 429.941c.878 4.845 2.955 9.316 4.317 14.012.575 1.981 1.585 3.839 1.716 5.947-1.437.357-2.031-.358-2.449-1.659-1.81-5.634-3.704-11.24-5.566-16.857.506-.693 1.21-1.113 1.982-1.443z"/><path fill="#0A0A0A" d="M494.301 296.602c5.035-1.755 10.023-4.015 15.465-1.449.01.748-.574.827-1.094.979-2.408-.108-4.81-.74-7.182-.122 1.334-.074 2.619-.076 3.907-.082 4.275.722 8.284 1.972 11.097 5.594-.085.429-.256.744-.781.585-3.466-2.23-7.008-4.194-11.217-4.775-3.115-.429-6.049.233-9.027.824-1.275.148-1.313-.635-1.168-1.554z"/><path fill="#111" d="M508.935 303.486c3.456 1.799 6.583 4.109 9.741 6.356 2.438 1.734 2.838 4.528 3.484 7.141-2.24-6.396-8.168-8.846-13.078-12.345-.268-.19-.528-.393-.792-.59-.036-.474.093-.76.645-.562z"/><path fill="#161616" d="M508.726 295.599l1.04-.446c3.58 1.149 6.939 2.743 9.998 4.946.096.484-.205.679-.591.812-3.815-1.115-7.416-2.653-10.447-5.312zM519.135 300.633l.629-.534c3.209 1.736 4.537 5.328 7.341 7.469.198.151.483.607.118.831-.807.494-1.119-.219-1.485-.735-.665-.452-1.683-.071-2.181-.92-.889-1.598-2.027-3.001-3.32-4.287-.518-.515-1.18-.948-1.102-1.824z"/><path fill="#151515" d="M517.17 318.775c-1.961-3.936-4.795-6.99-8.874-8.786-.025-.581.282-.671.758-.515 4.265 1.478 6.933 4.57 8.689 8.586-.16.263-.196.626-.573.715z"/><path fill="#385A76" d="M468.771 449.854c.623-.539 1.218-1.114 1.873-1.612 2.325-1.765 3.322-1.323 3.713 1.62l-5.586-.008z"/><path fill="#151515" d="M494.301 296.602c.316.572.492 1.251 1.168 1.554l-2.598 2.061c-.598-.526-1.651.403-2.083-.652.576-1.694 1.873-2.531 3.513-2.963z"/><path fill="#365670" d="M475.78 449.869c.043-.985.726-.907 1.417-.881 1.406.055 2.816.152 4.178-.371 1.194-.46 1.461.253 1.496 1.229l-7.091.023z"/><path fill="#151515" d="M509.054 309.475l-.758.515c-2.455-.909-4.721-2.203-6.998-3.47-.048-.6.241-.732.76-.548l6.996 3.503z"/><path fill="#202020" d="M523.707 306.537c.605.503 1.625.262 2.03 1.126-.909.484-1.712.854-2.69-.082s-2.197-1.619-3.311-2.413c-.188-.217-.199-.441-.039-.677 1.903-.427 2.947.829 4.01 2.046z"/><path fill="#1A1A1A" d="M502.058 305.972l-.76.548c-1.747-.227-3.46-.569-5.006-1.479l-.004-.931 5.77 1.862z"/><path fill="#34536B" d="M484.29 449.881c.241-.688-.629-1.406.202-2.26l2.82 2.256-3.022.004z"/><path fill="#111" d="M517.17 318.775l.573-.715c.722 1.229 1.183 2.503.87 4.641-1.058-1.613-1.143-2.81-1.443-3.926z"/><path fill="#2B2B2B" d="M508.935 303.486l-.645.562c-.778-.287-1.493-.673-2.034-1.324l.071-.734c1.038.205 1.869.77 2.608 1.496z"/><path fill="#323232" d="M515.713 302.106l.576-.56c1.227-.24 1.945.292 2.232 1.475-.092.388-.22.73-.736.543-.832-.286-1.528-.763-2.072-1.458z"/><path fill="#6C3E35" d="M565.688 246.137c.758.656.922 1.562 1.043 2.484-.164.164-.326.17-.484-.008-.646-.706-.895-1.558-.922-2.49.131-.244.253-.252.363.014z"/><path fill="#7F5448" d="M566.247 248.613c.161-.007.323-.005.484.007.66.557 1.127 1.159.485 2.026-.59-.55-.888-1.24-.969-2.033z"/><path fill="#191919" d="M517.785 303.564l.5-.53c1.069-.119 1.513.429 1.531 1.434l-.08.7-1.951-1.604z"/><path fill="#865541" d="M565.688 246.137l-.363-.014-1.007-2.397c1.377.28 1.226 1.43 1.37 2.411z"/><path fill="#7BCAF1" d="M663.126 373.06c-6.232.078-5.334-.814-5.409 5.428-.012.997-.061 1.998.011 2.989.143 1.968-.338 3.186-2.693 3.111-2.157-.067-2.974-1.024-2.904-3.09.071-2.073-.047-4.155.035-6.229.063-1.595-.538-2.281-2.167-2.225-2.157.073-4.319-.014-6.479.024-1.811.03-2.858-.696-2.852-2.609.007-1.924.965-2.938 2.897-2.959 2.243-.022 4.489-.068 6.729.012 1.406.051 1.921-.471 1.873-1.875-.08-2.323-.002-4.652-.024-6.978-.02-1.898.929-2.672 2.776-2.676 1.84-.002 2.813.75 2.798 2.654-.018 2.077.114 4.162-.033 6.228-.152 2.14.751 2.787 2.763 2.654 1.984-.131 3.986-.006 5.979-.032 2.024-.026 2.821 1.008 2.778 2.951-.043 1.905-1.015 2.682-2.838 2.626-1.079-.032-2.16-.004-3.24-.004z"/><path fill="#ED3E3E" d="M359.332 356.373l-1.971.998c-4.496-.006-8.993.004-13.489-.02-3.641-.02-4.546-.788-4.52-3.734.024-2.814.941-3.577 4.42-3.585 4.662-.011 9.324.011 13.984.018l1.675 1.066c1.552 2.052 1.526 3.416-.099 5.257z"/><path fill="#661B1B" d="M688.642 255.106c1.323-2.009 2.541-4.103 4.423-5.672 1.14-.951 1.095-1.53-.292-2.313-4.197-2.371-8.198-5.019-11.522-8.601-1.556-1.676-2.779-3.519-3.671-5.589-1.306-3.035.187-6.956 3.614-9.521 5.097-3.812 11.08-5.557 17.095-7.195.52-.141 1.203-.073 1.7.148 8.895 3.948 16.523 9.358 20.31 18.76 1.843 4.577 1.946 9.405.471 14.146-.701 2.252-.269 3.557 1.694 5.183 5.007 4.149 9.273 8.962 11.528 15.335 2.352 6.646.407 12.205-3.717 17.323-1.951 2.421-2.05 2.322.452 4.245 4.156 3.194 6.932 7.41 8.278 12.396 1.901 7.046-.021 13.449-4.136 19.267-6.68 9.444-16.001 15.757-25.77 21.505-2.574 1.516-5.261 2.84-7.892 4.26-.614.332-1.169 1.265-1.894.679-.485-.392-.052-1.238.028-1.892.886-7.254.437-14.274-3.917-20.517-3.168-4.543-7.453-7.77-12.481-9.953-3.453-1.5-6.738-3.236-9.617-5.655-4.344-3.649-4.034-7.759.584-11.053 4.107-2.928 8.754-4.67 14.275-6.698-1.527-1.256-2.845-2.043-3.779-3.154-4.843-5.758-4.426-10.763 2.385-14.421 2.113-1.135 2.412-1.993 1.454-4.113-1.859-4.114-2.099-8.484-1.103-12.902.825-1.212 1.152-2.608 1.5-3.998z"/><path fill="#FBC689" d="M606.7 255.609c5.731-1.689 11.517-3.23 16.648-6.465 2.808-1.77 5.672-3.461 7.945-5.941l-.027.017c2.896-1.882 5.019-4.555 7.221-7.134.787-.924 1.562-1.47 2.871-1.615 5.958-.665 11.745-2.104 17.344-4.275.771-.3 1.552-.512 2.412-.504 4.318.039 8.638.099 12.936-.496.653-.092 1.63-.46 1.59.833-.119 3.886 2.019 6.728 4.326 9.505.256.309.417.693.623 1.044-2.382.822-4.894-.05-7.326.644-1.914.547-3.902.852-5.754 1.625-.778.324-1.639.809-1.251 1.828.332.877 1.252.706 1.971.528 2.02-.501 4.017-1.088 6.069-1.449 4.186-.736 8.011.037 11.109 3.027 1.489 1.437 2.779 1.595 4.347.377l1.879 1.185c-1.399 1.987-3.21 3.538-3.981 5.797-.836 1.358-2.105.726-3.172.587-7.067-.925-12.132 2.483-16.474 7.498-.433.5-.82 1.056-.987 1.719-.128.505-.146 1.022.315 1.365.578.431 1.126.146 1.588-.232 1.226-1.003 2.268-2.201 3.408-3.296 2.523-2.424 5.431-4.196 8.933-4.633 1.736-.216 3.734-.406 4.488 1.94-1.258 4.602-.57 9.075.992 13.457.357 1.002.481 1.554-.644 2.171-7.95 4.354-8.28 10.868-2.456 17.444.272.308.517.641.896 1.113-2.457 1.099-4.831 2.132-7.179 3.22-2.046.949-3.951 2.14-5.604 3.685-3.938 3.681-4.033 7.641-.281 11.496.695.714 1.451 1.369 2.18 2.052-.127 1.208-1.067 1.359-1.985 1.48-.988.13-1.986.289-2.973.318-12.626.371-25.257 1.069-37.633-2.579-13.25-3.906-20.999-12.702-24.105-26.004-2.151-9.214-1.366-18.529-1.358-27.822.001-1.224.239-2.496 1.099-3.51z"/><path fill="#661B1B" d="M621.446 185.983c3.562.718 6.855 2.392 10.534 2.79 3.538.383 7.049.919 10.625.897 7.661-.046 15.338.292 22.977-.121 5.876-.317 11.553.062 17.103 1.896 8.216 2.711 13.399 9.555 13.955 18.194.329 5.113.327 5.109-4.573 6.778-2.522.859-4.976 1.88-7.311 3.166-1.126.619-2.046.572-3.214-.163-4.033-2.542-8.657-3.627-13.276-3.695-10.856-.158-21.131-2.852-30.995-6.926-8.896-3.675-14.702-10.345-16.001-20.281-.107-.808-.233-1.648.176-2.535z"/><path fill="#FBC689" d="M578.29 271.558c-1.204-4.51-3.346-8.655-5.09-12.95-4.906-12.072-9.944-24.09-14.929-36.13-.571-1.38-1.153-2.757-1.695-4.148-.392-1.005-1.007-1.526-2.14-1.79-3.065-.714-6.082-1.634-9.116-2.48-.56-.156-1.125-.307-1.66-.53-1.315-.55-1.462-1.682-1.385-2.912.091-1.424 1.134-1.372 2.158-1.473 2.507-.246 5.008-.557 7.512-.841l.442-.889c-2.786-2.593-5.493-5.279-8.39-7.74-1.692-1.438-.92-2.69.001-3.823 1.184-1.454 2.041.05 2.839.683 2.191 1.737 4.307 3.571 6.718 5.592.252-2.714.48-5.058.685-7.403.117-1.354 3.86-3.842 5.044-3.313.709.315.376 1.005.471 1.537.579 3.206.472 6.448.505 9.684.006.575-.038 1.165.681 1.878 1.586-3.277 3.125-6.415 4.619-9.576.375-.795.477-2.093 1.753-1.174 1.009.727 3.368.37 2.513 2.842-.935 2.704-1.773 5.442-2.768 8.517 2.268-.55 3.677-1.714 5.169-2.667 1.371-.874 2.165-.92 3.102.729 2.11 3.718 2.233 3.669-1.457 6.025-2.379 1.52-4.778 3.009-7.197 4.464-1.02.613-1.353 1.19-.717 2.395 4.004 7.567 7.912 15.185 11.881 22.77 1.572 3.005 3.044 6.07 4.985 8.869-.824.887-1.649 1.771-2.488 2.671 1.398 1.326 3.267 1.497 4.875 2.233 1.803 2.457 3.73 4.851 4.062 8.05-.365 2.529-.746 5.058-1.089 7.591-.104.76-.473 1.168-1.223 1.335-2.895.639-5.782 1.312-8.671 1.974z"/><path fill="#661B1B" d="M654.17 216.304c-7.467 1.753-14.799.973-22.255-1.248l7.974 6.495c-9.791-.351-19.029 3.767-28.102-.816-.8-.403-1.685-.64-3.179-1.197 2.38 2.2 4.291 3.967 6.647 6.146-8.515-.726-16.389-1.721-21.729-8.66-3.219-4.183-.623-9.078 2.404-12.315.372-.398.801-.492 1.347-.274 5.364 2.133 9.91-.079 14.236-2.883 2.757-1.784 5.692-3.017 8.782-4.043 1.443-.48 2.194-.062 2.859 1.086 4.506 7.776 11.806 11.592 20.036 14.034 3.644 1.081 7.332 2.009 11 3.007l-.02.668zM584.208 246.609l-12.537-24.437c5.225-6.92 11.423-12.824 19.267-18.03-1.576 0-2.44.045-3.301-.008-3.011-.179-5.154-3.206-4.301-6.066.257-.86.734-1.426 1.773-1.417 9.706.084 18.229-3.787 26.646-8.011 1.934-.97 3.877-1.922 5.799-2.915 1.309-.676 2.136-.804 2.179 1.146.056 2.565.549 5.09 1.356 7.539.181.547.574 1.077-.389 1.309-5.512 1.328-9.865 5.07-14.995 7.204-2.799 1.163-5.544 1.737-8.211-.263-.555-.416-.998-.474-1.538-.002-4.457 3.891-7.643 10.194-3.082 16.28.929 1.239 2.19 2.092 3.417 2.861 1.884 1.181.975 1.592-.285 2.19-3.905 1.853-7.811 3.706-11.696 5.601-2.458 1.2-2.542 1.77-.602 3.759 2.333 2.394 5.28 2.959 8.474 2.783.993-.055 1.991-.009 3.769-.009-4.226 3.774-7.984 7.13-11.743 10.486zM688.185 344.489c-2.959-5.917-8.055-8.549-14.347-9.407-1.636-.223-3.239-.675-4.862-.993-.954-.188-1.953-.517-2.717.464-2.208.282-4.266-.402-6.324-1.021-1.134-.341-1.749-1.178-1.941-2.353-.632-3.846-1.083-7.716-1.473-11.589-.249-2.461.543-3.268 3.203-3.236 5.47.064 10.892-.361 16.287-1.208 4.095 2.939 9.172 4.083 13.112 7.357 4.005 3.327 6.776 7.352 8.236 12.354.391 1.34.023 2.147-.837 3.084-2.424 2.647-5.168 4.861-8.337 6.548zM629.157 243.149c-8.116 7.042-17.937 10.038-28.227 11.993-2.314.439-4.608.45-6.926.456-.5.002-1.052.01-1.35-.461-.368-.585.193-.898.514-1.224 4.221-4.254 6.17-9.397 6.655-15.353.258-3.184 1.436-6.252 3.547-8.885 2.241-2.792 4.829-3.562 8.424-3.063 3.726.518 6.769 1.775 9.729 4.088 3.759 2.937 8.412 3.689 13.112 3.938.773.04 1.908-.474 2.239.461.299.847-.79 1.346-1.349 1.905-1.227 1.23-2.529 2.385-3.801 3.571-7.146-2.973-13.305-.108-19.348 3.319-.783.443-1.663 1.199-.979 2.215.679 1.007 1.656.395 2.455-.032 3.168-1.694 6.391-3.284 9.968-3.867 1.834-.298 3.821-.834 5.337.939zM698.271 210.252c-.891-11.823-8.969-20.122-20.51-21.647-4.569-.604-9.114-.392-13.671-.431-8.317-.071-16.638.049-24.956-.043-5.938-.065-11.583-1.582-17.079-3.885 1.901-1.688 8.654-4.038 11.946-4.063 14.279-.109 28.482.71 42.318 4.545 6.667 1.848 13.041 4.453 17.899 9.747 3.686 4.018 5.263 8.746 4.89 14.154-.039.582-.15 1.151-.837 1.623zM638.436 218.358c1.9-.646 3.456.228 5.054.339 5.128.354 10.014-.998 14.998-1.706 7.389-1.05 14.486.239 21.311 3.194 1.537.667 1.298 1.333.265 2.307-1.322 1.245-2.652 2.474-3.496 4.174-.899 1.812-2.948 1.155-4.286 1.212-7.014.296-14.048.852-20.998-1.097-5.199-1.457-8.684-5.211-12.848-8.423z"/><path fill="#F8A348" d="M676.011 315.146c.118 1.128-.777.833-1.347.923-5.077.799-10.192 1.198-15.325 1.016-1.905-.066-2.49.498-2.204 2.391.59 3.921 1.071 7.86 1.497 11.804.125 1.158.73 1.492 1.704 1.745 1.973.515 4.096.454 5.923 1.529-.619.692-1.162 1.468-2.048 1.866-1.562-.228-3.108-.534-4.663-.799-2.31-.393-3.407-1.631-3.636-4.006-.366-3.807-.958-7.593-1.377-11.395-.194-1.768-.937-2.533-2.695-2.447-3.674.18-7.306-.366-10.933-.808-1.725-.21-2.419.374-2.664 2.031-.512 3.457-.85 6.936-1.254 10.403-.25 2.147-1.3 3.278-3.33 3.771-2.334.565-4.565 1.543-6.995 1.735-.747-.312-1.521-.572-2.233-.951-.985-.527-.365-.796.227-1.029 1.553-1.801 3.892-1.801 5.908-2.356 2.349-.646 3.236-1.994 3.404-4.229.192-2.568.532-5.124.954-7.665.298-1.781-.303-2.718-2.142-3.238-4.398-1.243-8.774-2.614-12.634-5.201-2.917-1.955-5.677-4.072-7.434-7.221-3.906-5.389-6.152-11.479-7.569-17.919-1.197-3.467-1.823-7.008-1.739-10.702.107-4.801-.021-9.606.054-14.408.025-1.658.091-3.361 1.812-4.342l1.429-.035c-.861 6.784-.712 13.613-.418 20.401.421 9.74 2.453 19.051 9.185 26.72 4.138 4.715 9.411 7.45 15.249 9.335 10.212 3.295 20.754 3.05 31.291 3.046 3.331-.002 6.614-.453 9.926-.565.713-.024 1.301-.228 1.722-.822l2.355 1.422z"/><path fill="#661B1B" d="M615.696 223.42c5.434 1.714 10.324.963 15.188.048 3.391-.638 6.789-.171 10.179-.333.624-.029 1.105.277 1.552.681 3.713 3.36 8.235 4.795 13.159 5.417-10.978 7.336-32.292 4.459-40.078-5.813zM605.271 255.645c-1.159 1.496-.92 3.294-.974 4.985-.256 8.172-.452 16.348.848 24.467-2.322-5.465-4.516-10.989-7.009-16.375-1.876-4.053-4.848-7.334-8.335-10.127-1.074-1.896-2.214-3.762-2.652-5.94h4.213c-1.619 2.865-.727 4.206 2.742 4.445 3.821.264 7.493-.604 11.167-1.455zM605.519 225.634c-2.698 2.46-4.61 4.494-5.702 7.178-.622 1.527-2.208 1.281-3.456 1.477-3.277.515-6.569.818-9.759-.503-.947-.393-1.974-1.005-2.104-1.956-.153-1.115 1.208-1.175 1.95-1.543 3.854-1.916 7.773-3.697 11.625-5.615 2.597-1.297 4.469.995 7.446.962z"/><path fill="#651B1B" d="M598.587 236.499c-.38 3.943-.866 7.706-2.651 11.151-1.694 3.266-4.356 4.53-7.937 3.798l-.47-.164c-1.382-.389-3.54.057-3.936-1.308-.315-1.086 1.605-2.116 2.62-3.062 3.517-3.275 7.106-6.471 10.671-9.695.435-.391.883-.762 1.703-.72z"/><path fill="#4F1110" d="M685.751 259.087c-2.21-2.119-4.719-1.422-7.124-.599-3.471 1.189-6.09 3.616-8.429 6.354-.99 1.157-2.004 2.653-3.614 1.173-1.477-1.359-.386-2.712.628-3.868 5.128-5.846 10.969-9.903 19.307-7.648.459.124.794-.116 1.134-.359.021.638.355.957.989.968.822 1.827.207 3.116-1.498 3.997-.456-.772-.925-.206-1.393-.018z"/><path fill="#200D0D" d="M689.754 247.157c-1.226 2.376-2.329 2.755-3.845 1.022-3.897-4.45-8.738-4.547-13.919-3.279-1.282.315-2.513.831-3.776 1.227-1.211.378-2.408.382-2.928-1.001-.499-1.332.219-2.234 1.461-2.725 4.46-1.756 9.014-2.837 13.842-1.824 3.214 1.972 5.824 4.785 9.165 6.58z"/><path fill="#1F0C0D" d="M629.157 243.149c-3.945-1.398-7.509.114-11.045 1.535-1.608.646-3.137 1.528-4.626 2.426-1.116.674-2.051.664-2.85-.353-.843-1.072-.523-2.164.493-2.805 5.625-3.55 11.479-6.31 18.446-4.88.985.202 1.669.664 2.148 1.505.576 1.006-.324 1.757-.458 2.641l.027-.016-2.135-.053z"/><path fill="#F5A148" d="M587.149 252.654c1.163 1.856 2.564 3.605 2.652 5.94l-.53 2.059c-1.185-2.77-3.157-5.14-4.062-8.05l1.94.051z"/><path fill="#2A7864" d="M359.332 356.373c.796-1.738.73-3.492.099-5.257.667-8.812.974-17.641 1.059-26.594 1.019.558.982 1.494 1.227 2.225 5.453 16.287 10.843 32.594 16.335 48.867.609 1.805.545 2.489-1.542 3.029-5.294 1.365-10.528 2.991-15.72 4.713-2.117.702-2.51.129-2.41-1.878.397-7.951.69-15.907 1.014-23.86.018-.414-.04-.83-.062-1.245zM286.504 334.056c.494 7.344.946 14.691 1.492 22.032.578 7.771 1.2 15.538 1.891 23.301.336 3.775.328 3.941-3.416 3.555-5.853-.604-11.691-1.338-17.539-1.98-1.682-.187-2.071-.854-1.397-2.458 4.25-10.107 8.434-20.242 12.645-30.367 1.965-4.724 3.943-9.44 5.915-14.161l.409.078zM303.519 307.858c4.649.245 9.299.49 13.949.734-.208 2.391-.462 4.778-.609 7.174-.16 2.6-1.744 4.163-3.733 5.502-1.785 1.202-2.414 2.425-1.089 4.663 2.697 4.556 4.99 9.35 7.449 14.046.166.548-.082.687-.576.579-4.948-4.539-9.964-9.008-14.802-13.661-1.502-1.444-2.126-1.197-3.031.433-2.129 3.834-4.368 7.607-6.582 11.438-.908-.535-.484-1.268-.485-1.837-.018-6.728.047-13.456-.008-20.183-.013-1.582.479-2.559 1.83-3.465 2.603-1.742 5.422-3.197 7.687-5.423zM327.413 308.195c3.995-.543 7.99-1.085 11.984-1.626 3.284 2.243 6.562 4.495 9.856 6.723.908.614 1.732 1.23 1.968 2.414 1.057 5.273 2.148 10.54 3.226 15.808.235.562.395 1.084-.54 1.031-2.829-2.544-5.696-5.046-8.471-7.646-1.435-1.346-2.336-1.109-3.455.442-2.607 3.62-5.377 7.124-8.082 10.673-.444.127-.684.046-.481-.479 1.167-2.462 2.26-4.962 3.531-7.368.681-1.288.421-2.12-.622-2.984-1.461-1.209-2.71-2.74-4.308-3.708-3.546-2.149-3.922-5.532-4.103-9.116-.068-1.393-.33-2.777-.503-4.164z"/><path fill="#FCC07C" d="M319.562 308.976c1.884-.97 4.052.058 5.944-.844.342 3.303.694 6.604 1.021 9.907.104 1.054.572 1.829 1.395 2.52 2.036 1.706 3.964 3.542 6.008 5.238.975.809 1.279 1.495.65 2.732-2.996 5.895-5.897 11.836-9.004 18.107-2.075-3.854-3.993-7.419-5.911-10.985-1.886-3.507-3.768-7.015-5.656-10.521-.351-.652-.923-1.377.065-1.895 5.445-2.858 4.573-8.27 5.317-13.03.065-.407.115-.819.171-1.229z"/><path fill="#297762" d="M357.462 335.987c-.849-4.136-1.729-8.268-2.514-12.416-.119-.632-.866-1.44.062-2.024.967-.609 2.105-.615 3.147-.361 1.16.282.75 1.389.667 2.11-.486 4.22-.386 8.456-.483 12.687-.291.351-.584.35-.879.004z"/><path fill="#1A483C" d="M357.462 335.987l.879-.005c-.008.887.388 1.848-.467 2.581l.016.005-.428-2.581z"/><path fill="#20594A" d="M333.42 335.536l.481.479c-.21.546-.537.991-1.236 1.313-.177-.835.271-1.32.755-1.792z"/><path fill="#256A58" d="M318.91 340.557l.575-.578c.453.464.865.947.802 1.72-.782-.035-1.037-.642-1.377-1.142z"/><path fill="#1E5446" d="M353.908 332.545c.425-.215.478-.625.54-1.03.486.442.714 1.085.303 1.534-.366.4-.647-.166-.843-.504z"/><path fill="#FCC07D" d="M358.426 251.558c-.008 7.159.167 14.326-.081 21.477-.188 5.446-.748 10.866-2.345 16.174-2.681 8.91-9.047 13.381-17.631 15.332-7.81 1.773-15.787 2.046-23.737 1.951-9.252-.109-18.325-1.346-26.747-5.692-5.444-2.811-8.777-7.477-11.796-12.498-.556-.924-.998-1.919-1.473-2.89-1.521-3.106-2.652-5.806-7.035-6.841-6.704-1.583-6.805-9.628-4.393-13.472.726-1.157 1.737-2.009 3.224-2.028 2.876 1.522 4.769 3.741 5.107 7.105.066.65.336 1.281.514 1.92 1.761 6.334 2.499 7.189 9.013 10.318-.963-6.424-1.907-12.735-2.858-19.047-.718-4.764-1.438-9.526-2.173-14.286-.202-1.31-.315-2.472 1.51-2.691 1.215-.146 1.792-1.225 2.232-2.172 2.983-6.417 7.994-10.001 14.929-11.182 2.021-.345 3.942-1.264 5.915-1.901 2.893-.936 3.925-2.065 3.208-3.769-1.012-2.402-2.893-1.662-4.661-1.086-2.907.948-5.809 1.915-9.123 3.011 1.66-3.034 3.198-5.204 6.662-5.878 6.106-1.188 12.126-2.938 18.334-3.467 9.551-.811 18.688.878 27.188 5.484.264.144.646.24.597.829-3.213-.507-6.417-1.002-9.618-1.521-1.747-.284-3.333-.026-3.663 1.97-.322 1.956.928 2.751 2.788 3.005 5.511.757 11.006 1.631 16.511 2.429 1.012.147 1.943.305 2.609 1.213 2.93 3.995 5.163 8.3 6.028 13.231-.547.388-1.124.2-1.671.041-7.414-2.16-13.065.905-17.98 6.086-.793.836-1.639 1.656-2.198 2.688-.491.905-.453 1.776.427 2.434.792.591 1.591.398 2.261-.222 1.095-1.011 2.092-2.126 3.141-3.188 1.961-1.986 4.303-3.354 6.88-4.355 1.423-.553 2.934-.866 4.379-.35 1.853.663 3.695.69 5.589.457l.137 1.381z"/><path fill="#1D1E1E" d="M365.115 206.212c-8.328-7.602-18.154-12.028-29.084-13.887-10.992-1.871-21.581-.805-30.702 6.418-7.045 5.58-11.189 13.135-13.25 21.719-.884 3.684-3.288 6.242-5.046 9.288-.407.706-1.201.833-1.912 1.067-2.446.802-4.898 1.588-7.326 2.44-1.535.539-2.759 1.459-2.222 3.318.519 1.799 2.086 1.586 3.517 1.529.71-.027 1.357-.745 2.408-.024-2.157 2.5-2.805 6.231-6.771 7.059-1.497.311-1.175 1.406-.993 2.568 1.573 10.027 3.073 20.065 4.644 30.425-1.922-.716-3.093-1.468-3.472-3.291-.455-2.185-1.315-4.287-1.741-6.477-.508-2.609-1.68-4.656-4.061-5.889-3.37-1.743-4.29-4.824-4.581-8.246-.604-7.093-1.846-14.148-1.503-21.297.198-4.127.562-8.249 1.972-12.21.804-2.259 1.913-4.235 3.955-5.564.694-.452 1.306-.971.844-1.798-2.639-4.728-.41-8.912 1.63-12.945 3.43-6.78 8.844-11.749 15.427-15.421 6.579-3.671 13.532-6.452 21.128-6.847 4.683-.242 9.411-.144 14.097.535 6.818.988 13.55 2.285 19.951 4.943 10.713 4.452 18.761 11.636 23.091 22.587zM293.691 222.121c2.82-11.095 8.107-20.05 18.341-25.204 6.798-3.423 14.099-3.86 21.601-2.864 9.682 1.286 18.492 4.663 26.214 10.603 7.886 6.064 11.892 14.522 14.005 24.014.137.617.018 1.292-.291 2.021-1.227-2.96-2.446-5.924-3.687-8.88-.263-.627-.249-1.544-1.426-1.254-1.265.312-.88 1.022-.721 1.895 1.016 5.558-.167 10.832-2.25 15.958-1.34 3.3-2.893 6.494-5.389 9.759-1.209-5.483-3.146-10.312-6.057-14.752 1.044-.435 1.745-.228 2.477-.024 1.562.435 2.936.092 3.33-1.614.383-1.656-.221-2.786-2.151-3.24-2.43-.571-4.884-.954-7.343-1.139-2.907-.217-4.693-2.347-6.938-3.646-5.874-3.399-12.263-4.786-18.895-5.659-10.232-1.348-19.849 1.616-29.594 3.804-.303.065-.614.111-1.226.222z"/><path fill="#679962" d="M358.291 250.177c-.958 1.035-2.189 1.312-3.41.796-4.805-2.03-8.535.176-12.047 3.024-1.403 1.139-2.561 2.586-3.79 3.93-1.031 1.129-2.165 1.565-3.481.569-1.39-1.05-1.459-2.412-.437-3.7 3.97-5 8.646-8.946 15.337-9.573 2.438-.229 4.755.455 7 1.363 1.355.948 1.401 2.198.828 3.591z"/><path fill="#1D1E1E" d="M360.483 270.578c-.052-5.534-.095-11.068-.171-16.602-.009-.615.296-1.338-.387-1.824 1.562-2.233 3.257-4.381 4.415-6.874.173-.372.346-.87.816-.827.605.058.631.637.735 1.125.293 1.371.475 2.788.958 4.092 1.305 3.533-1 6.201-2.09 9.135-.834 2.246-1.869 4.436-3.01 6.545-.902 1.668-.47 3.584-1.266 5.23z"/><path fill="#661B1B" d="M607.707 341.035c-5.035 2.771-10.629 3.608-16.175 4.428-5.069.749-10.209.732-15.687.492 2.015-2.667 4.505-4.5 6.259-6.998 1.542-2.197 2.857-4.512 3.836-6.973 1.958-4.928.314-9.751-4.121-12.896-3.028-2.147-6.558-3.166-9.925-4.566-5.021-2.091-9.567-4.747-11.221-10.465-1.043-3.609-.413-7.089 1.072-10.416.876-1.966 1.93-3.874 3.106-5.676.707-1.082.959-1.83-.179-2.701-4.669-3.573-4.973-9.728-2.189-15.168 1.717-3.356 4.012-6.279 6.546-9.035.721-.783 1.702-1.389 1.795-2.605 1.97 4.437 4.024 8.84 5.46 13.494 1.402 4.624 3.779 8.828 5.775 13.188 8.396 18.345 16.913 36.634 25.379 54.946.138.295.182.634.269.951z"/><path fill="#1E1F1E" d="M675.727 368.01c.203-3.007.339-6.021.925-8.988 1.393-.25.934-1.359.984-2.19.332-5.404-.445-10.777-.478-16.171-.019-2.96.098-2.991 2.673-1.791 3.517 1.64 5.851 4.35 6.966 7.991 5.022 16.407 9.965 32.841 14.947 49.262 1.854 6.109 3.639 12.243 5.655 18.298 1.102 3.312 1.427 6.619 1.117 10.224-2.437-.5-3.47-2.772-5.246-4.007-1.257-.873-1.943-.734-2.963.008-3.083 2.244-6.232 4.397-9.265 6.705-1.474 1.121-2.047.922-2.414-.892-3.95-19.525-7.944-39.042-11.92-58.562-.091-.444-.103-.905-.17-1.546l-.811 1.659zM622.36 332.582c-1.565-.519-2.393-.438-3.331.22-3.12 2.188-6.346 4.224-9.718 6.441-2.641-5.625-5.303-11.218-7.897-16.842-3.405-7.384-6.749-14.799-10.137-22.191-3.804-8.301-7.597-16.606-11.471-24.874-.694-1.479-.118-1.926 1.156-2.218 1.694-.387 3.365-.915 5.077-1.18 2.688-.416 4.454-1.532 4.352-4.579-.027-.81.208-1.632.358-2.441.103-.555.157-1.296.782-1.387.342-.05.816.466 1.156.805 2.395 2.391 3.762 5.384 5.028 8.464 5.807 14.108 11.668 28.194 17.492 42.295 2.337 5.65 4.631 11.318 7.153 17.487z"/><path fill="#FBC689" d="M626.664 334.906c2.126-1.344 4.568-1.8 6.942-2.417 1.697-.441 2.569-1.129 2.681-3.165.214-3.95.966-7.868 1.37-11.812.129-1.26.714-1.587 1.772-1.445 4.683.631 9.373 1.138 14.109 1.02 1.002-.024 1.489.514 1.602 1.51.492 4.353 1.169 8.69 1.458 13.055.138 2.088.98 2.908 2.873 3.289 1.615.324 3.471.005 4.738 1.479-4.548 3.825-9.969 4.554-15.618 4.273-7.705-.382-14.927-2.683-21.927-5.787z"/><path fill="#1E1F1E" d="M675.153 355.55c-1.607-2.278-1.505-4.263-1.507-6.243-.003-3.285-1.008-4.382-4.335-4.241-5.535.236-10.976 1.314-16.439 2.151-9.066 1.39-17.985 1.982-26.113-3.603-1.836-1.26-4.338-.232-5.616 2.062-1.373 2.464-2.654 4.98-4.015 7.452-.308.559-.675 1.297-1.458 1.123-.727-.16-.471-.979-.604-1.496-.945-3.682-1.835-7.379-2.751-11.069-.267-1.078-.084-1.915.962-2.54 1.208-.721 2.457-1.444 3.48-2.391 2.497-2.304 4.883-2 7.812-.613 7.517 3.558 15.335 6.047 23.794 6.479 7.098.364 13.459-.974 18.772-5.862 1.419-1.305 2.729-.278 3.968-.077 4.067.663 4.049.775 4.049 4.843.001 4.488.001 8.973.001 14.025z"/><path fill="#661B1B" d="M612.715 303.016c5.836 6.561 13.223 10.344 21.729 12.1 1.176.242 1.406.938 1.273 1.986-.497 3.941-.997 7.883-1.43 11.831-.111 1.02-.632 1.379-1.533 1.627-2.711.746-5.4 1.572-8.098 2.366-3.731-9.109-7.461-18.22-11.197-27.326-.343-.837-.892-1.609-.744-2.584z"/><path fill="#F4D988" d="M494.304 427.605c-4.5.04-7.765 2.404-10.534 5.654-.678.795-1.295.676-2.172.319-2.419-.986-4.883-.971-7.172.372-1.073.629-1.569.216-2.219-.578-1.373-1.678-3.002-3.1-4.841-4.251-3.429-2.144-5.785-1.652-7.93 1.697-.315.492-.569.747-1.114.732-6.349-4.055-11.193-9.58-15.4-15.734-.63-.923-.859-1.778-.711-2.971.453-3.642.659-7.408-.584-10.876-2.451-6.837-1.339-13.393.808-19.972.598-5.142 4.306-7.926 8.171-10.461 1.631-1.069 3.406-2.449 5.672-1.507 6.981 6.722 15.771 7.481 24.788 7.57 5.74.057 11.499.375 16.636-2.957 1.25-.812 1.939-.361 2.551 1.007 5.75 12.835 6.887 25.837 1.783 39.173-1.817 4.746-3.491 9.529-7.732 12.783z"/><path fill="#BE3C3C" d="M456.311 351.028c1.402-4.111 3.502-7.884 5.74-11.574 4.139-6.826 8.364-13.6 12.529-20.409 3.567-5.834 8.673-10.279 13.491-14.978 1.534-1.496 2.589-.854 3.321.972 2.451 6.11 4.569 12.312 5.208 18.91.878 9.096 1.929 18.185 2.471 27.302.398 6.711-.517 13.454-.207 20.19.045.967-.395 1.53-1.238 1.936-3.766 1.806-7.514 3.33-11.89 3.196-6.738-.207-13.612.23-19.966-2.252-6.453-2.521-12.124-6.298-13.959-13.744-.227-.919-.374-1.72.2-2.605 1.484-2.289 2.88-4.636 4.311-6.959.18.179.401.282.638.366 3.558 1.261 3.755 1.526 3.738 5.025 2.672-1.069 2.672-1.069 5.69.455.744-3.407.744-3.407 3.269-4.861-2.012-1.003-3.197-2.44-2.431-5.128-2.234 1.165-4.174 1.452-5.999-.537-.522 1.595-.062 3.368-1.668 4.161-1.018.503-2.019 1.251-3.248.534z"/><path fill="#D3A66C" d="M456.277 370.031c-6.865 1.386-11.155 5.751-13.843 11.968-.76-1.238-1.265-.809-1.58.277-1.721 5.951-3.113 11.91-1.081 18.107 1.397 4.26 1.744 8.652.898 13.058-.57 2.972-1.886 5.586-5.104 6.499-3.182.903-5.213-1.159-7.081-3.182-3.241-3.513-5.6-7.642-7.656-11.92-1.582-3.289-2.866-6.721-4.42-10.024-1.187-2.522-.544-4.48 1.431-6.2 2.071-1.803 4.132-3.616 6.217-5.401 2.98-2.554 5.663-5.379 8.013-8.529 1.094-1.466 2.242-2.902 3.772-3.959 1.679-1.157 3.224-1.331 4.414.686.282.479.439 1.25 1.218.771.703-.432.325-1.057-.041-1.498-.767-.927-.248-1.648.232-2.444 1.835-3.048 4.349-5.428 7.167-7.551 1.15-.865 1.688-.724 2.003.673.796 3.52 2.553 6.453 5.441 8.669zM515.51 385.889c-.12 5.5-.401 10.564-1.8 15.482-.372 1.307-.505 3.196-2.027 3.424-1.376.205-2.034-1.496-2.772-2.568-1.43-2.079-2.162-4.286-2.295-6.934-.373-7.541-2.385-14.736-5.66-21.555-1.368-2.85-.818-5.846-.754-8.807.023-1.053.832-.797 1.459-.833 5.688-.329 10.285 2.84 12.123 8.417.414 1.258.724 2.559.971 3.86.624 3.28.678 6.61.755 9.514z"/><path fill="#3A5D78" d="M458.322 432.963c-.222 3.372-1.375 6.641-.909 10.482-3.48-1.967-6.187-4.338-8.945-6.625-1.017-.844-1.932-1.812-2.869-2.747-4.696-4.688-4.984-6.807-1.767-12.58.247-.444.571-.538 1.004-.524 3.64 4.96 8.105 8.992 13.486 11.994z"/><path fill="#395C77" d="M499.272 424.573c.803 1.341 1.571 2.704 2.423 4.012.412.634.396 1.178.125 1.843-.906 2.205-1.78 4.42-3.62 6.669-.674-3.213-1.438-6.074-2.954-8.644 1.635-.99 2.673-2.599 4.026-3.88z"/><path fill="#BE3C3C" d="M478.36 447.943c-3.66-.036-6.961-3.268-6.966-6.818-.005-3.69 3.42-7.08 7.062-6.989 3.663.092 6.826 3.338 6.778 6.957-.049 3.696-3.248 6.886-6.874 6.85z"/><path fill="#757575" d="M500.361 295.638c1.549.933 3.449-.178 4.98.859h-6.346c.333-.726.735-.975 1.366-.859z"/><path fill="#F5A1A3" d="M653.696 302.049c.905 3.784-.018 7.011-2.419 8.449-2.899 1.737-8.624 1.563-10.831-.642-2.279-2.276-2.491-5.305-2.151-8.362.091-.817.262-1.626.396-2.438 2.409-.866 4.78-1.781 6.354-3.999.35-.493 1.022-.867 1.487-.32 2.217 2.609 5.064 4.596 7.164 7.312z"/><path fill="#F8A448" d="M653.696 302.049c-1.514-.985-2.989-2.004-4.221-3.357-1.155-1.268-2.44-2.414-3.417-3.997-2 2.456-3.902 4.782-7.367 4.362-3.678-1.925-5.223-5.379-6.45-9.043-.215-.644-.716-1.504.43-1.837.912-.264 1.662-.014 1.952.996.577 2.012 1.426 3.894 2.671 5.579 1.621 2.193 3.287 2.306 5.123.297 1.126-1.232 1.932-2.694 2.637-4.2.589-1.258 1.105-1.348 1.729-.023 1.256 2.667 3.146 4.854 5.255 6.878 3.385 3.246 6.212 2.98 8.771-.904.68-1.033 1.263-2.143 1.776-3.27.359-.789.514-1.652 1.707-1.126 1.022.451.943 1.183.662 2.065-1.812 5.671-5.468 8.142-11.258 7.58z"/><path fill="#4F1110" d="M614.99 254.195c5.851 1.122 11.58 2.483 15.967 6.903.749.755 1.393 1.657 1.909 2.59.56 1.014.206 1.948-.758 2.581-.916.601-1.901.414-2.453-.395-3.576-5.25-9.214-6.439-14.844-7.619-1.337-.279-2.205-.811-2.081-2.253.114-1.333 1.085-1.743 2.26-1.807z"/><path fill="#F8A449" d="M647.325 267.729c-.405 2.767-.755 5.543-1.248 8.293-.154.858-.278 1.939-1.105 2.423-1.281.751-2.983 1.045-1.716 3.229.229.392-.813 1.057-1.46.631-.859-.565-1.233-1.608-1.4-2.55-.164-.929.364-1.937 1.322-2.148 2.599-.571 2.614-2.716 2.9-4.603.32-2.111.355-4.265.549-6.397.067-.747-.352-1.889.921-1.926 1.485-.043.944 1.23 1.062 2.033.048.324.008.661.008.992l.167.023z"/><path fill="#679A62" d="M284.303 245.631c6.203 1.219 12.336 2.692 16.782 7.799.538.617 1.045 1.306 1.377 2.046.591 1.32.227 2.433-1.06 3.178-1.215.705-2.395.414-3.109-.62-3.103-4.493-7.845-5.877-12.771-6.972-.647-.144-1.292-.313-1.946-.42-1.613-.264-2.279-1.241-2.142-2.811.153-1.719 1.369-2.099 2.869-2.2z"/><path fill="#F8A341" d="M320.485 298.59c-6.563.12-12.112-1.949-17.014-5.843-.615-.487-1.494-1.097-.636-2.021.665-.716 1.355-.582 2.143.105 7.103 6.201 15.367 6.223 23.92 4.28 2.088-.473 4.092-1.34 6.108-2.099.827-.312 1.544-.716 2.058.404.595 1.298-.582 1.374-1.219 1.669-4.948 2.288-10.117 3.635-15.36 3.505z"/><path fill="#F8A342" d="M325.933 269.426c.129 1.393-.615 2.435-1.222 3.511-.265.47-.73.718-1.252.331-.457-.339-1.076-.722-.515-1.391 1.774-2.117.798-3.311-1.272-4.345-.899-.448-1.431-1.429-1.637-2.42-.555-2.668-1.112-5.345-1.074-8.09.011-.758-.317-1.868 1.012-1.829 1.299.038.886 1.149.97 1.9.202 1.806.276 3.632.589 5.416.31 1.771.634 3.555 2.877 4.153 1.248.334 1.69 1.51 1.524 2.764z"/><path fill="#0F0F15" d="M469.503 422.463c-.443-.364-.966-.666-1.316-1.105-2.332-2.925-4.229-6.228-8.385-7.179-1.216-.277-2.487-1.552-2.646-3.382 1.011-.101 1.513.378 2.032.892 3.389 3.352 12.958 4.815 17.062 2.626 1.613-.862 2.519-4.258 1.553-5.782-.531-.838-1.352-.416-2.035-.453-4.846-.269-6.819-3.031-5.533-7.687.395-1.43 1.363-2.262 2.551-2.868 3.677-1.877 7.373-1.693 10.992.17 1.919.987 3 2.57 2.938 4.812-.066 2.422-1.654 3.681-3.596 4.622-.586.284-1.29.315-1.901.56-.821.328-2.246.007-2.028 1.589.186 1.354-.511 2.898 1.506 3.763 4.824 2.067 8.87 1.173 12.138-2.915.421-.527.547-1.399 1.565-1.606.123 1.995-.785 3.501-2.252 4.421-1.817 1.139-3.06 2.613-3.899 4.517-.426.11-.684-.147-.935-.422-3.341-1.162-6.556-3.002-10.292-1.131-2.171 1.087-4.591 1.323-7.025 1.229-.646-.025-1.481-.198-1.854.407-.473.769.313 1.355.667 1.977.479.844 1.351 1.498 1.242 2.623-.094.255-.273.372-.549.322z"/><path fill="#101015" d="M488.328 388.579c-3.667.042-5.19-1.479-5.282-5.274-.062-2.571 2.609-4.771 5.827-4.798 2.928-.025 5.373 2.138 5.34 4.726-.043 3.223-2.334 5.306-5.885 5.346z"/><path fill="#101016" d="M454.252 387.875c.087-2.903 2.557-5.424 5.173-5.28 2.915.159 5.452 2.395 5.446 4.798-.006 2.789-2.835 5.423-5.757 5.36-2.773-.059-4.942-2.234-4.862-4.878z"/><path fill="#070604" d="M492.729 419.482c-.56 3.957-2.546 7.454-6.021 9.204-8.932 4.499-18.917 2.899-24.605-6.716-.211-.356-.381-.737-.546-1.118-.197-.456-.441-1.021.168-1.275.584-.245.91.278 1.08.753 1.033 2.891 3.224 4.661 5.632 6.421 5.594 4.087 11.437 3.45 17.255 1.052 2.761-1.137 4.19-3.928 5.517-6.547.33-.65.572-1.345.854-2.02l.666.246z"/><path fill="#17151A" d="M469.503 422.463l.123.025c1.001-.349.898-1.294 1.11-2.065.276-1.01.685-1.985 1.877-2.039 1.254-.058 1.585.942 1.885 1.956.341 1.152.121 2.779 1.536 3.197 1.705.504 3.448-.146 5.121-.617.713-.2.874-.93 1.059-1.585.333-1.175.405-2.651 2.049-2.744 1.609-.092 1.878 1.389 2.467 2.447.154.349.349.689.177 1.089-.073 1.296-.62 2.099-1.991 2.436-3.904.958-7.867.953-11.828.791-1.776-.074-3.049-1.107-3.585-2.891z"/><path fill="#3E2F28" d="M486.907 422.127l-.654-.71c-.052-1.677-.277-3.412 1.466-4.506l.53.544c-.001 1.686-.459 3.24-1.342 4.672z"/><path fill="#EF974B" d="M456.311 351.028c3.773-1.088 3.773-1.088 4.241-5.979 2.222 2.444 4.56 3.131 7.258.492-.92 3.433-.126 5.707 3.619 6.612-3.901.596-4.777 2.814-3.862 6.843-2.754-2.844-5.052-3.94-7.822-.652 1.243-4.206-.92-5.864-3.423-7.332l-.011.016z"/><path fill="#3A5C78" d="M486.002 334.954c-1.044 4.337-1.044 4.337 1.609 7.558-3.12.023-5.581.796-5.359 4.805-1.775-2.485-3.456-4.8-6.656-1.999-.461-1.979 1.262-3.03.953-4.337-.304-1.281-2.077-1.586-2.6-2.859.107-.401.394-.564.744-.534 2.332.202 3.819-.589 3.982-3.164.041-.658.412-1.94 1.173-.545 1.53 2.801 3.569 2.375 6.154 1.075z"/><path fill="#5D7A8C" d="M492.906 361.767c-2.541-2.803-4.703-2.258-7.028.136.467-3.192-.228-5.466-3.896-6.186 3.301-1.05 4.797-2.808 3.376-6.355 2.538 2.228 4.826 2.589 7.041-.037.772 4.212.772 4.212 4.145 6.313-3.353.739-4.706 2.599-3.638 6.129z"/><path fill="#F6B788" d="M469.954 372.999c-.638-2.425-1.786-3.164-4.241-1.633.942-2.352 1.419-4.241-2.076-4.275 2.319-.963 3.975-1.834 1.771-4.577 2.295.758 4.29 1.654 4.472-1.704 1.666 2.693 1.666 2.693 4.404 2.287-1.633 2.358-.033 3.228 2.387 4.11-3.099.467-3.804 1.737-1.975 4.413-2.353-1.099-4.179-1.67-4.742 1.379z"/><path fill="#798A88" d="M485.343 323.617c-1.897-1.273-2.813-.636-3.512 1.388-.641-2.215-1.818-2.348-3.839-1.138 1.403-2.196 1.016-3.231-1.581-3.494 2.159-.763 2.901-1.711 1.444-3.896 2.288 1.31 3.323.774 3.651-1.775.669 2.361 1.67 3.091 3.604 1.871-1.178 1.811-.506 2.771 1.55 3.396-2.19.711-2.564 1.849-1.317 3.648z"/><path fill="#C64C46" d="M468.803 341.477l-.503-.818c.194-.481.648-.584 1.064-.742.944-.337 1.632-.912 1.806-1.958.02-.315.014-.629-.032-.94-.533-1.944-2.283-1.329-3.564-1.703-.233-.13-.356-.325-.374-.59 1.031-1.58 2.339-1.319 3.722-.566 2.531 2.129 2.683 2.961 1.076 5.922-.934.765-1.671 1.98-3.195 1.395z"/><path fill="#F0A97F" d="M471.815 340.041c1.167-2.109 1.279-4.037-.961-5.556-.102-.446-.027-.707.507-.483 2.566 2.307 2.703 4.13.501 6.714-.247-.21-.263-.435-.047-.675z"/><path fill="#E59371" d="M471.361 334.002l-.508.483c-1.3-.479-2.587-.864-3.624.515-.147.166-.332.25-.554.253-.316-.117-.58-.262-.334-.663 1.522-1.494 3.138-2.179 5.02-.588z"/><path fill="#F1AC81" d="M469.804 340.429l-1.505.229c-.766-.232-1.581-.387-1.951-1.241-.133-.128-.172-.249-.116-.364.054-.112.105-.168.154-.168.223-.062.446-.061.67-.011.724.278 1.451.547 2.254.407.231.017.442.091.629.229.198.343.142.647-.135.919z"/><path fill="#EDA47C" d="M471.815 340.041l.047.673c-1.734 1.481-1.98 1.543-3.06.763 1.212-.045 2.077-.817 3.013-1.436z"/><path fill="#F0AA80" d="M466.298 339.124l.05.294c-1.292-.832-1.071-2.097-.952-3.332.465-.097.677.206.866.547.222.826.747 1.65.036 2.491z"/><path fill="#E69472" d="M465.851 336.581l-.454-.495c.163-.594.322-1.191.945-1.496l.387.433c.419.92.136 1.445-.878 1.558z"/><path fill="#BE3C3C" d="M487.719 416.911l-1.466 4.507c-.185-.352-.38-.695-.55-1.053-.312-.651-.427-1.525-1.433-1.443-1.001.081-.893 1.032-1.23 1.652-.516.95.501 2.554-1.146 2.967-2.081.519-4.213 1.175-6.354.795-1.411-.252-1.028-1.895-1.473-2.902-.397-.899.218-2.541-1.34-2.562-1.648-.022-1.504 1.489-1.466 2.617.048 1.415-.836 1.078-1.631 1-.171-1.758-1.605-2.801-2.402-4.204-.678-1.196-.667-1.844.94-1.813 3.749.073 7.495.15 10.704-2.339.586-.454 1.258.036 1.891.224 1.904.559 3.789 1.315 5.813 1.201 1.141-.067 1.226.512 1.143 1.353z"/><path fill="#EAEAEB" d="M486.246 381.455c.577.111.991.495.895 1.139-.094.625-.577.962-1.23.888-.596-.067-.77-.551-.773-1.047-.007-.66.32-1.058 1.108-.98z"/><path fill="#E5E5E5" d="M457.453 385.202c.666.081 1.08.527 1.142 1.118.055.524-.316.923-.923.924-.589.001-.913-.299-.938-.896-.024-.545.157-.967.719-1.146z"/><path fill="#F7F7F7" d="M472.437 420.624c.655 1.075 1.287 2.11.789 3.323-.024.059-.55.049-.637-.075-.731-1.037-.194-2.171-.152-3.248z"/><path fill="#F2F2F3" d="M484.738 419.941c-.076 1.131.733 2.14-.229 3.047-.07.067-.58-.134-.584-.225-.046-.952-.586-2.063.813-2.822z"/><path fill="#EFA87E" d="M467.839 335.049c1.792-.393 3.331-.256 3.925 1.867-.908.923-1.046-.206-1.477-.553-.897-.208-1.882-.572-1.755.99.543.1.539-.467.828-.674.299-.251.612-.382.98-.141.881 1.638.258 2.523-1.434 2.876-.901.113-1.549-.406-2.216-.88-.625-1.493-.26-2.661 1.149-3.485z"/><path fill="#C74E47" d="M468.848 339.131c1.399-.454 1.974-1.219.969-2.577-.091-.421-.052-.717.499-.514.543.193.631 1.138 1.449.877l-.01 1.24c-.692.419-.793 1.637-1.943 1.436-.15-.026-.301-.036-.454-.03-.528.278-.571-.015-.51-.432z"/><path fill="#C64D46" d="M467.839 335.049c-1.017.952-1.174 2.155-1.005 3.453.125.132.162.26.114.385-.047.123-.093.185-.136.185l-.514.052-.448-2.542.878-1.559.502-.022.609.048z"/><path fill="#EDA47C" d="M469.811 339.593c.869-.181.844-1.57 1.944-1.437-.167 1.174-.929 1.836-1.951 2.273l.007-.836z"/><path fill="#CA554B" d="M466.812 339.071l.022-.569 2.013.629.51.432c-1.063.95-1.783.123-2.545-.492z"/><path fill="#C75048" d="M470.316 336.04l-.499.514-.559.39c-.302.417-.335 1.05-.967 1.204-.711-.448-1.183-1.002-.518-1.807.728-.878 1.578-1.199 2.543-.301z"/><path fill="#CF6152" d="M468.292 338.147c.315-.407.187-1.171.968-1.204.13.419.534.837.038 1.267-.347.3-.693.306-1.006-.063z"/></g></svg>