<svg xmlns="http://www.w3.org/2000/svg" width="1000" height="450" viewBox="0 0 1000 450"><g><path fill="#443F3B" d="M418.045 73.389h-12.755v-62.336h12.755v62.336zM468.808 73.474h-13.853l-10.727-23.904h-6.672v23.819h-12.756v-62.421h22.722c.338 0 .774.042 1.309.127.535.084 1.098.198 1.69.337.591.142 1.14.283 1.646.422.508.142.9.268 1.183.38 1.295.564 2.547 1.212 3.759 1.943 1.21.732 2.407 1.746 3.589 3.041 1.352 1.464 2.407 2.985 3.168 4.562.76 1.577 1.28 3.124 1.562 4.646.28 1.295.422 2.59.422 3.885 0 2.76-.663 5.604-1.985 8.532-1.325 2.928-3.647 5.519-6.968 7.771l11.911 26.86zm-15.626-43.163c0-1.125-.296-2.28-.887-3.463-.591-1.183-1.676-2.112-3.252-2.787-.282-.112-.633-.212-1.056-.295-.422-.085-.691-.127-.802-.127h-9.629v13.346h9.629c.111 0 .38-.056.802-.169.423-.111.773-.224 1.056-.338 1.576-.618 2.661-1.52 3.252-2.702.591-1.184.887-2.338.887-3.465zM510.109 73.389h-10.98c-.114 0-.367-.029-.761-.084-.394-.056-.731-.113-1.013-.168-1.013-.169-1.999-.338-2.956-.508-.958-.168-2-.479-3.125-.928-3.774-1.409-6.984-3.225-9.63-5.449-2.647-2.223-4.815-4.658-6.504-7.306-1.689-2.646-2.914-5.405-3.674-8.278-.761-2.872-1.141-5.686-1.141-8.446 0-.563.056-1.563.169-2.999.112-1.436.309-2.8.591-4.096.393-1.576.999-3.294 1.816-5.152.815-1.858 1.844-3.675 3.083-5.448 1.238-1.774 2.673-3.463 4.308-5.068 1.632-1.604 3.463-2.998 5.49-4.181 2.873-1.689 5.631-2.787 8.278-3.293.112 0 .38-.056.802-.169l1.436-.38c.534-.139 1.069-.253 1.604-.337.535-.084.972-.127 1.31-.127h10.896v12.67h-10.304c-.114 0-.451.071-1.015.211-.563.142-1.012.24-1.35.296-1.013.113-2.126.464-3.337 1.056-1.212.591-2.406 1.338-3.589 2.238-1.183.901-2.268 1.916-3.252 3.041-.985 1.127-1.731 2.28-2.238 3.463-.113.282-.267.606-.464.972-.198.366-.352.717-.465 1.055-.451 1.296-.732 2.38-.844 3.252-.114.874-.169 1.846-.169 2.914 0 1.521.197 3.112.591 4.773.394 1.661 1.042 3.252 1.942 4.772.9 1.52 2.07 2.943 3.505 4.266 1.437 1.322 3.196 2.436 5.28 3.335.225.113.591.253 1.098.423.507.168 1.027.324 1.563.464.535.142 1.056.268 1.563.379.506.114.928.168 1.267.168h10.22v12.669zM568.982 48.725c0 .113-.027.422-.084.928-.059.508-.113.93-.168 1.268-.283 1.973-.762 3.843-1.438 5.617-.676 1.773-1.576 3.562-2.701 5.364-1.014 1.634-2.381 3.209-4.098 4.73-1.719 1.52-3.338 2.674-4.857 3.463-.451.225-.916.465-1.393.719-.479.253-.973.492-1.479.717-1.521.619-3.111 1.083-4.773 1.395-1.662.309-3.334.464-5.023.464-.846 0-1.818-.057-2.916-.168-1.098-.114-2.098-.253-3-.423-1.855-.451-3.758-1.127-5.699-2.027-1.943-.902-3.844-2.196-5.701-3.886-1.52-1.351-2.859-2.842-4.014-4.477-1.154-1.632-2.041-3.237-2.66-4.814-.281-.676-.592-1.576-.928-2.703-.115-.281-.227-.604-.34-.972-.111-.366-.197-.689-.252-.971l-.211-1.183c-.086-.45-.156-.888-.211-1.309-.057-.424-.102-.774-.129-1.056l-.041-.508v-37.84h12.754v37.503c0 .114.014.198.041.253.029.057.043.142.043.254.057.451.154.944.297 1.479.141.535.295 1.028.465 1.478 1.35 3.154 3.18 5.393 5.488 6.715 2.311 1.324 4.617 1.984 6.928 1.984 1.236 0 2.504-.182 3.801-.548 1.295-.366 2.535-.956 3.717-1.775 1.184-.815 2.238-1.843 3.168-3.083.928-1.237 1.646-2.702 2.154-4.392.111-.281.238-.73.379-1.351.139-.619.211-.985.211-1.098v-37.419h12.67v37.672zM588.492 73.389h-12.754v-62.336h12.754v62.336zM648.549 23.638h-20.188v49.751h-12.754v-49.666h-20.355v-12.67h53.297v12.585zM395.978 151.676h-24.668c-.255 0-.822-.066-1.708-.19-.885-.126-1.645-.256-2.276-.38-2.277-.378-4.492-.761-6.641-1.137-2.153-.38-4.491-1.077-7.021-2.089-8.477-3.164-15.688-7.242-21.631-12.237-5.948-4.997-10.816-10.467-14.611-16.416-3.796-5.944-6.547-12.142-8.255-18.596-1.707-6.451-2.561-12.772-2.561-18.974 0-1.264.124-3.51.379-6.736.252-3.226.693-6.291 1.328-9.203.884-3.539 2.246-7.4 4.081-11.575 1.832-4.175 4.142-8.255 6.925-12.238 2.781-3.986 6.006-7.781 9.676-11.387 3.669-3.605 7.781-6.735 12.334-9.392 6.452-3.795 12.648-6.262 18.596-7.4.25 0 .854-.125 1.802-.379l3.225-.855c1.202-.313 2.404-.569 3.605-.758 1.202-.189 2.185-.286 2.941-.286h24.479v28.462h-23.147c-.257 0-1.017.161-2.277.476-1.268.316-2.28.539-3.037.665-2.277.254-4.778 1.043-7.496 2.37-2.722 1.33-5.408 3.007-8.063 5.028-2.659 2.026-5.094 4.302-7.306 6.833-2.216 2.531-3.891 5.122-5.029 7.778-.255.634-.602 1.362-1.043 2.183-.444.824-.793 1.612-1.042 2.372-1.015 2.912-1.647 5.346-1.898 7.305-.256 1.962-.379 4.144-.379 6.546 0 3.417.441 6.991 1.327 10.722.884 3.733 2.34 7.306 4.364 10.721 2.022 3.415 4.649 6.611 7.876 9.583 3.224 2.972 7.177 5.472 11.858 7.495.504.254 1.329.569 2.467.947 1.138.38 2.306.731 3.51 1.044 1.201.318 2.372.602 3.509.854 1.139.254 2.088.38 2.846.38h22.961v28.464z"/><path fill="#5B7A8C" d="M373.017 123.282c-.234 0-.495-.017-.767-.042.272.024-2.401 28.347-2.401 28.347.736.102 1.231.157 1.46.157h24.668v-28.462h-22.96z"/><path fill="#BE3B3B" d="M395.978 39.911v-28.462h-24.479l-.066.002c.748 9.631.689 19.112.395 28.633.512-.113.849-.172 1.002-.172h23.148z"/><path fill="#443F3B" d="M450.042 151.676h-44.752v-63.15h44.751v12.751h-31.831v12.406h15.83v12.835h-15.83v12.321h31.831v12.837zM498.585 151.676h-44.751v-63.15h12.92v50.314h31.831v12.836zM549.025 151.676h-44.75v-63.15h12.92v50.314h31.83v12.836z"/><path fill-rule="evenodd" clip-rule="evenodd" fill="#E99347" d="M604.418 106.03l25.086 9.448-59.379 37.982 26.27-37.982-19.514-8.95 46.162-29.274z"/></g><g fill-rule="evenodd" clip-rule="evenodd"><path fill="#591717" d="M1037.008-611.014c3.327-1.543 6.655-1.542 9.983-.001-3.328 0-6.656 0-9.983.001z"/><path fill="#581717" d="M996.021-626.015c-2.333-.361-4.896.925-7.016-.975 2.333.366 4.892-.899 7.016.975z"/><path fill="#D2D3D3" d="M675.534 449.897l-55.493.006c-.406-.782-.282-1.625-.262-2.45.207-8.226.903-16.425 1.385-24.634.554-9.456.901-18.877-.109-28.375-1.215-11.416-2.593-22.803-4.134-34.176-.157-1.159-.172-2.323.153-3.466 2.174-3.144 4.067-6.449 5.831-9.847 1.127-2.172 2.762-2.851 4.485-1.781 8.556 5.305 17.782 4.639 27.107 3.277 4.195-.613 8.357-1.443 12.573-1.924 1.078-.124 2.148-.215 3.232-.172 1.788.072 2.825.951 2.854 2.769.051 3.323.768 6.415 2.872 9.084.059 4.411-.603 8.771-.991 13.146-.902 10.174-1.705 20.36-2.812 30.513-.797 7.297.7 14.402 1.28 21.58.649 8.029 1.578 16.039 2.369 24.057.085.823.251 1.665-.34 2.393z"/><path fill="#2A7964" d="M323.814 449.864h-34.98c-.705-.785-.492-1.707-.389-2.612 1.582-13.88 3.222-27.752 4.903-41.62.398-3.291-.139-6.482-.348-9.691-.513-7.875-1.172-15.742-1.734-23.614-.573-8.038-1.199-16.074-1.685-24.119-.325-5.392-.898-10.766-1.092-16.167-.048-1.338.05-2.477 1.526-3.044 2.193-.844 3.422-.173 3.505 2.192.15 4.24.057 8.484.037 13.204 2.501-4.521 5.046-8.55 7.389-12.7 2.215-3.928 2.774-4.148 5.978-1.172 5.359 4.979 10.749 9.928 16.102 14.914 2.512 2.342 3.67 5.068 3.586 8.627-.252 10.721-.453 21.446-.718 32.163-.181 7.313.057 14.643-.406 21.937-.538 8.479-.129 16.965-.535 25.429-.22 4.571-.347 9.134-.415 13.703-.013.914-.018 1.844-.724 2.57zM363.834 449.835c-12.683.006-25.365.014-38.048.021-.878-.974-.695-2.185-.693-3.329.013-5.488.362-10.984.366-16.453.01-13.896.582-27.777.745-41.668.104-8.893.137-17.799.466-26.688.157-4.215.338-8.461.946-12.658.209-1.449.92-2.667 1.787-3.797 4.309-5.611 8.504-11.309 12.858-16.884 2.062-2.64 2.605-2.67 5.17-.52 3.366 2.821 6.534 5.873 10.22 8.939-.14-2.522-.881-4.548-1.258-6.63-.473-2.62-1.051-5.221-1.632-7.82-.936-4.189 1.036-6.359 5.416-6.115 1.191.066 1.582.762 1.716 1.747.189 1.407.189 2.833.079 4.239-.671 8.617-1.086 17.25-1.506 25.883-.049 1.01-.165 2.013-1.171 2.604-4.897.167-9.799-.023-14.697.068-1.692.031-3.188.349-3.479 2.41-.309 2.178.746 3.391 3.432 3.508 4.151.183 8.311.135 12.466.009.818-.024 1.661-.267 2.416.281.901 2.948.177 5.946-.025 8.86-.275 3.973-.479 7.963-.689 11.931-.384 7.212-.955 14.415-1.195 21.636-.252 7.565 1.676 14.848 2.771 22.23 1.209 8.138 2.514 16.266 3.923 24.375.224 1.29.599 2.634-.384 3.821z"/><path fill="#0D211C" d="M359.351 350.374c.925-3.068.457-6.264.74-9.393.675-7.431.785-14.912 1.223-22.367.109-1.859-.506-2-2.105-1.59-4.645 1.188-4.608 1.116-3.575 5.779 1.127 5.08 2.146 10.184 3.31 15.736-3.109-1.7-4.959-4.207-7.344-6.041-1.968-1.516-3.747-3.283-5.56-4.991-.857-.809-1.394-1.159-2.318.078-4.671 6.251-9.491 12.391-14.151 18.649-.921 1.238-.91 2.953-1.236 4.414-.552 2.482-.278 4.873-.555 7.279-.839 7.289-.146 14.621-.538 21.917-.482 8.97-.1 17.956-.551 26.91-.401 7.979-.007 15.964-.483 23.919-.385 6.397-.243 12.789-.42 19.181l-1.971.009c.176-12.136.112-24.281.625-36.403.288-6.817.068-13.632.427-20.435.465-8.806.187-17.625.567-26.42.204-4.734.139-9.469.401-14.191.1-1.784-.339-3.219-1.578-4.49-6.548-6.719-13.646-12.838-20.604-19.318l-10.335 17.556-.449-.115c0-4.849.041-9.696-.04-14.544-.013-.793.829-2.439-1.288-2.094-1.349.219-2.595-.08-2.368 2.334.786 8.338 1.11 16.719 1.716 25.076.737 10.17 1.556 20.334 2.387 30.496.866 10.596 1.006 21.123-.735 31.701-1.48 8.982-2.161 18.098-3.204 27.154-.143 1.234-.335 2.463-.504 3.693l-1.923-.006c-.978-1.12-.422-2.406-.284-3.584 1.556-13.365 3.005-26.743 4.699-40.092.553-4.359-.361-8.609-.429-12.915-.023-1.481-.37-2.971-.302-4.468.09-1.995-.59-3.099-2.804-3.148-1.732-.039-3.463-.387-5.193-.609-1.434-.695-3.231.139-4.544-1.068-3.783-.492-7.557-1.074-11.351-1.43-1.549-.145-2.009-.363-1.33-1.992 7.209-17.287 14.363-34.596 21.496-51.914.349-.848.702-1.102 1.623-.993.887.104 1.812-.167 2.722-.194 1.389-.041 1.76-.716 1.74-2.062-.049-3.322.188-6.65.08-9.969-.054-1.658.573-2.557 1.897-3.389 2.245-1.408 4.375-2.996 6.554-4.51.852-.739 1.77-.661 2.715-.219.894 1.246-.177 1.793-.923 2.352-1.662 1.242-3.381 2.42-5.173 3.457-1.941 1.123-2.704 2.618-2.663 4.889.113 6.305.065 12.613.022 19.354 1.938-3.395 3.756-6.443 5.516-9.529 1.796-3.15 2.481-3.222 5.145-.663 4.482 4.308 9.278 8.28 13.615 12.728.151.127.165.427.466.395-.227-.124-.347-.338-.481-.559-2.511-4.52-4.885-9.1-7.315-13.646-1.409-2.635-1.328-3.427 1.001-5.083 2.62-1.862 3.774-4.204 3.851-7.382.042-1.768.046-3.666 1.1-5.28.806-.383 1.54-.34 2.165.356.55 3.756-.178 7.406-1.1 11.002-.309 1.206-1.569 1.902-2.575 2.637-1.356.986-1.702 2.123-.855 3.65 3.46 6.24 6.734 12.584 10.211 18.803.925-.182.972-.955 1.243-1.495 2.246-4.453 4.433-8.938 6.738-13.358.958-1.838.974-3.471-.831-4.56-5.398-3.259-7.44-8.14-7.284-14.211.028-1.117-.7-2.284.277-3.324.627-.347 1.256-.343 1.887-.017 1.758 2.373 1.107 5.262 1.591 7.899.306 1.658.813 2.889 2.136 3.969 1.726 1.408 3.279 3.028 5.029 4.421 1.618 1.287 2.098 2.793 1.193 4.807-.985 2.193-1.959 4.375-3.351 6.319.03.149-.395.179-.166.353.256.194-.142.098.078-.182 2.279-3.617 5.03-6.857 7.597-10.234 1.695-2.231 2.565-2.391 4.643-.394 2.521 2.423 5.332 4.524 7.704 7.071.706-.204-.079-.554.066-.806-1.129-4.503-2.022-9.048-2.967-13.581-.405-1.953-1.314-3.271-2.971-4.299-2.317-1.439-4.574-2.98-6.814-4.539-.776-.541-1.831-.912-1.805-2.154.669-.942 1.515-1.123 2.526-.588 2.743 1.864 5.478 3.744 8.237 5.584 1.434.955 3.053 1.672 3.1 3.807.025 1.121.896.9 1.646.72 2.646-.634 5.146-1.847 7.911-1.986.822-.042.771-.802.993-1.253 4.846-9.886 9.665-19.784 14.465-29.691 1.442-2.977 1.408-2.992 4.31-1.385.932.055 1.641.611 2.398 1.062 4.045 2.675 8.188 5.198 12.196 7.928.586.527 1.573.64 1.709 1.635 1.43.992 2.783 2.129 4.312 2.934 1.603.845 1.545 1.645.662 3.033-7.927 12.479-15.797 24.992-23.679 37.499-6.466 10.259-12.905 20.533-19.407 30.769-.834 1.313-1.227 2.624-1.307 4.172-.529 10.205-1.244 20.403-1.668 30.613-.2 4.836 1.216 9.543 1.947 14.298 1.654 10.755 3.427 21.492 5.226 32.226.302 1.796-.074 2.516-1.943 1.993-.696-7.339-2.358-14.532-3.3-21.833-1.322-10.24-4.36-20.281-3.742-30.75.762-12.896 1.595-25.789 2.39-38.685.031-.496-.007-.996-.012-1.494 1.243-2.203.969-4.445.18-6.701z"/><path d="M265.042 261.271c-1.427-3.252-1.489-6.775-1.912-10.206-1.09-8.837-1.804-17.696-.296-26.567.664-3.903 1.764-7.618 4.876-10.374.465-.412.755-.769.5-1.481-1.529-4.278-.116-8.191 1.709-11.973 5.528-11.456 15.284-17.749 26.794-21.995 11.176-4.124 22.435-2.733 33.694-.781 7.071 1.226 13.811 3.554 20.024 7.23 7.971 4.716 13.978 11.213 17.383 19.874 1.908 4.856 3.967 9.629 6.123 14.38 2.757 6.076 4.081 12.44 1.962 19.843l-4.431-10.186c-1.158 3.815-2.056 7.468-3.572 10.938-.397.908-.069 1.817.251 2.668 2.609 6.932 1.962 13.457-1.875 19.866-1.945 3.249-3.192 6.913-4.756 10.391-.797-.511-.786-1.286-.699-2.09.309-5.124 2.854-9.501 5.064-13.89 1.931-3.834 1.338-7.289.006-11.264-1.594 2.474-2.955 4.805-4.685 6.876-1.655 1.472-1.921-.022-2.384-1.109-.762-4.981-2.28-9.689-4.683-14.148-1.211-2.249-2.744-3.548-5.359-3.831-6.123-.666-12.187-1.787-18.288-2.627-1.156-.158-2.313-.324-3.436-.633-2.002-.551-2.979-1.91-2.667-3.598.31-1.665 1.731-2.655 3.77-2.47 1.406.127 2.806.361 4.207.564 3.521.51 7.043 1.013 11.153 1.68-5.615-3.148-11.122-4.55-16.814-5.473-10.624-1.723-20.637 1.369-30.745 3.746-1.277.3-2.12 1.262-2.839 2.319-1.31 1.929-2.62 3.857-3.883 5.816-1.298 2.015-1.194 2.214 1.065 2.79 4.117 1.047 8.335 1.625 12.446 2.704 1.568.411 2.812 1.138 2.967 2.917.184 2.127-1.747 3.574-4.306 3.158-4.438-.721-8.854-1.631-13.193-2.771-3.248-.854-5.492-.313-6.935 2.824-.31.672-.787 1.363-1.443 1.693-2.344 1.178-2.306 3.01-1.947 5.279 1.497 9.453 2.941 18.916 4.257 28.398.133.959.596 2.175-.468 2.74-.855.453-1.672-.451-2.475-.859-3.788-1.923-6.169-4.789-6.93-9.122-.586-3.34-1.38-6.765-4.776-8.639-.825-.856-2.109-1.291-2.454-2.607z"/><path fill="#451111" d="M571.69 220.716c4.35-5.586 9.27-10.609 15.005-14.874-3.56-2.424-4.644-5.438-3.642-9.515.185-.755.374-1.195 1.252-1.147 10.871.591 20.143-4.226 29.487-8.771 6.343-3.085 12.546-6.632 19.694-7.463 5.882-.685 11.805-.118 17.693.248 10.391.646 20.688 1.918 30.58 5.429 4.495 1.595 8.726 3.667 12.391 6.776 3.742 3.175 6.215 7.1 7.053 11.985.761 1.417.673 2.476-1.179 2.794-.571-.454-.688-1.126-.804-1.774-1.412-7.931-6.747-12.566-13.548-15.803-8.914-4.241-18.562-5.581-28.235-6.779-3.471-.43-6.963-.347-10.434-.683-1.193-.396-2.42-.292-3.644-.244-5.667-.102-11.333-.197-16.698 2.092-.586.249-1.325.236-1.787 1.09 4.854 2.198 9.917 3.275 15.165 3.328 9.147.09 18.298.025 27.447.019 1.54.088 3.083.032 4.621.043 6.082-.051 11.836 1.245 17.12 4.328 6.396 3.729 9.204 9.703 10.332 16.706.055.342-.414 1.091.569.795.525 0 .924.209 1.178.67-.84 3.985 1.8 5.333 4.806 6.597 1.938.815 3.956 1.673 5.166 3.607.171.675.122 1.277-.558 1.667-1.209.263-2.059-.5-2.935-1.093-1.867-1.263-3.914-2.183-5.906-3.21-1.16-.598-2.335-.784-3.612-.434-5.146 1.409-10.165 3.114-14.675 6.062-1.049.686-2.006 1.471-2.841 2.411-2.231 2.509-2.658 5.253-1.161 8.29 1.586 3.219 4.167 5.565 6.859 7.795 2.311 1.912 4.919 3.395 7.465 4.965.993.611 1.962 1.48.898 2.564-1.985 2.021-3.305 4.549-5.279 6.559-.946.027-1.309-.554-1.441-1.377.173-1.744 1.217-3.029 2.298-4.291.812-.945 1.227-1.836-.274-2.525-3.309-1.964-6.193-4.488-9.179-6.883-2.399-2.703-4.543-5.551-5.079-9.268-.165-1.148-.813-1.561-1.913-1.389-3.476.541-6.977.214-10.465.275-1.52.026-2.977.257-4.398.775-5.173 1.891-10.468 3.326-15.931 4.059-1.777.238-2.98 1.137-4.162 2.436-1.972 2.162-3.495 4.895-6.586 5.803-.984-1.185.057-2.303.111-3.455 1.281-1.4 2.871-2.508 3.98-4.108-.529-.875-1.354-.46-2.024-.52-5.146-.453-10.066-1.665-14.021-5.157-3.502-3.093-7.746-2.457-11.794-2.823-1.184-.107-2.075.97-2.866 1.823-2.568 2.773-4.15 6.082-4.466 9.812-.477 5.674-2.375 10.659-6.239 14.866-.167.18-.306.396-.216.914 1.326.471 2.785.255 4.23.057 10.852-1.486 21.113-4.517 29.865-11.476.324-.258.711-.427 1.108-.562.651-.168 1.288-.203 1.861.233.494 1.846-1.098 2.392-2.108 3.181-6.572 5.124-14.103 8.159-22.167 9.994-.751.169-1.493.377-2.244.551-3.338.645-6.676 1.363-10.105 1.054-2.11-.19-4.203-.475-4.714-3.142-.194-1.014-1.139-.76-1.821-.922-.878-.172-1.748-.383-2.63-.535-.967-.234-1.91-.553-2.841-.901-2.788-1.048-2.993-1.899-.983-3.984.288-.298.596-.575.925-.826.595-.421 1.205-.825 1.714-1.358 3.119-3.203 6.637-5.977 10.021-9.273-2.659-.139-5.153.166-7.536-.775-1.617-.639-2.914-1.601-3.913-2.973-1.356-1.861-1.111-2.878.998-3.883 3.532-1.681 6.954-3.584 10.58-5.076 2.227-.917 2.215-1.14.335-2.644-7.157-5.723-4.974-14.297.656-18.904.774-.633 1.583-.861 2.535-.397 3.514 1.712 6.894.883 10.013-.905 3.683-2.112 7.215-4.484 11.354-5.66 1.18-.335 1.297-1.062.988-2.108-.471-1.598-.781-3.237-1.005-4.888-.336-2.492-.303-2.447-2.689-1.351-5.592 2.57-11.023 5.51-16.888 7.458-3.95 1.312-7.909 2.604-12.147 2.608-1.364.001-2.96-.368-3.042 1.887-.083 2.261.794 3.747 2.702 4.177.829.187 1.654.054 2.482-.051.574-.073 1.295-.215 1.58.396.352.758-.346 1.215-.852 1.601-2.713 2.067-5.413 4.136-8.034 6.331-3.225 2.701-5.859 5.884-8.523 9.075-.526.631-.946 1.388-1.823 1.636-1.003-.128-1.344-.683-1.06-1.642z"/><path fill="#0E0D0E" d="M675.526 357.976c-2.818-1.779-2.854-4.662-2.922-7.496-.082-3.511-.16-3.762-3.701-3.33-6.179.752-12.322 1.796-18.496 2.594-8.144 1.053-16.084.792-23.248-4.01-1.788-1.197-2.933-.229-3.715 1.436-1.588 3.379-3.047 6.838-5.859 9.459-.571.627-.972 1.491-2.021 1.447-.91-.441-.831-1.363-.982-2.133-.951-4.846-3.025-9.224-5.499-13.442-.5-.399-.749-.966-1.018-1.521-8.131-17.325-16.073-34.737-24.085-52.118-2.159-4.684-4.375-9.344-6.481-14.055-.397-.891-1.049-1.752-.51-2.82.595-.562 1.365-.741 2.11-.977 2.41-.604 4.817-1.223 7.234-1.799 1.287-.307 1.968-1.01 2.184-2.344.33-2.043.622-4.096 1.088-6.115.256-.727.317-1.525.803-2.165 1.591-.754 2.172.618 3.035 1.431 5.342 5.025 7.609 11.777 10.306 18.291.921 2.227 1.688 4.516 2.754 6.684 1.422 3.964 2.148 8.156 4.15 11.94 1.085 2.05 2.65 3.819 3.424 6.038 2.045 5.703 4.566 11.214 6.826 16.83 1.425 3.541 2.983 7.028 4.374 10.584.298.764.729 1.509.546 2.386-.348.29-.501.64-.312.699.933.298 1.793.784 2.741 1.047 7.56 3.149 15.259 5.519 23.604 5.384 4.553-.074 8.7-1.027 12.424-3.664.979-.549 1.795-1.278 2.429-2.209 1.863-4.007 2.58-8.377 3.985-12.529.557-1.643.997-3.33 1.558-4.975.14-.717.366-1.41.59-2.103.178-.567.379-1.129.515-1.711.145-.718.355-1.417.555-2.12 1.257-3.966 2.354-7.979 3.604-11.946.245-.711.35-1.456.503-2.188 1.059-3.098 1.997-6.23 2.882-9.381.352-.92.669-1.853.956-2.795.49-1.381.738-2.832 1.204-4.221.368-1.162.651-2.348.914-3.537.647-1.982 1.22-3.992 2.041-5.914.471-1.123.996-2.219 1.678-3.232 1.182-1.67 2.273-3.397 3.435-5.079.508-.734.977-1.729 1.952-1.698 1.171.037.955 1.328 1.371 2.06.34 1.1.719 2.186 1.097 3.274.203.633.407 1.268.535 1.914.367 1.84 1.406 2.551 3.316 2.572 3.486.039 6.943-.255 10.409-.521.668-.001 1.336-.03 2.001.038 1.719.096 2.121 1.02 1.584 2.531l-.165.471c-6.601 16.342-12.955 32.782-19.702 49.065-.459.887-.708 1.853-1.033 2.79-2.858 7.049-5.645 14.127-8.486 21.182-.34.799-.688 1.592-1.477 2.069l-4.573 11.431c-.646.281-.859-.356-1.268-.584-.408-.284-.866-.499-1.164-.915z"/><path fill="#010000" d="M493.737 300.21c-.305 1.332.685.795 1.193.768 2.481-.136 4.958-.35 7.439-.491 1.782-.101 3.447.253 4.823 1.497.179.266.154.51-.072.736-4.259-2.281-8.653-.777-13.618-.575l3.652 1.96c.279.309.317.619.003.93-.78 1.461.778 1.33 1.292 1.662 7.382 4.775 13.182 10.864 16.345 19.215.174.459.37.912.509 1.381.025.087-.17.24-.704.939-3.842-10.525-10.942-17.772-20.836-22.842 1.882 5.824 4.209 11.221 4.692 17.105 1.019 12.339 3.33 24.59 2.583 37.043-.145 2.396.346 3.349 3.048 3.297 5.675-.11 10.466 3.732 12.032 9.73 2.575 9.856 2.132 19.764-.353 29.59-.437 1.729-.85 3.893-3.047 4.126-1.964.208-2.928-1.6-3.967-3.005-.325-.441-.443-1.075-1.327-1.346-.777 7.445-3.335 14.316-6.362 21.039-.244.633-.195 1.372-.683 1.922-1.285 1.578-2.255 3.527-4.565 3.912-.813-.193-1.049-.718-.857-1.489 6.399-6.91 8.876-15.53 10.194-24.487 1.344-9.141-.767-17.861-4.401-26.253-.554-1.278-1.403-1.544-2.598-.995-9.966 4.573-20.196 2.783-30.364 1.1-4.201-.694-7.664-3.129-10.744-6.033-2.634-1.922-4.463-4.391-5.428-7.547-.663-2.17-1.068-2.235-2.904-.764-1.561 1.25-2.981 2.66-4.216 4.234-.981 1.25-1.906 2.544-1.54 4.305.124.598-.008 1.175-.597 1.516-.654.379-1.148-.039-1.531-.454-1.7-1.841-3.263-1.054-4.794.213-.901.746-1.636 1.67-2.304 2.614-3.301 4.671-7.567 8.371-11.937 11.968-4.864 4.003-5.165 4.838-2.822 10.561 2.558 6.245 5.516 12.286 9.669 17.669.976 1.262 2.059 2.393 3.401 3.264 2.881 1.867 5.665 1.299 7.524-1.561.781-1.201 1.37-2.521 1.414-3.954.127-4.146.322-8.267-1.008-12.347-1.967-6.04-.812-12.017 1.054-17.871.609-1.914 1.283-1.945 2.579-.415-.424 3.368-1.697 6.568-1.812 10.015-.095 2.854.017 5.623.993 8.336 1.354 3.766 1.229 7.695.999 11.588-.112 1.889.442 3.34 1.5 4.826 3.931 5.529 8.599 10.306 14.129 14.238.449.668.911 1.337.06 2.041-1.106.312-1.896-.373-2.698-.917-4.384-2.978-8.42-6.333-11.447-10.757-.409-.686-1.03-1.243-1.271-2.035.041-1.303-1.051-1.988-1.575-2.99-.18.105-.371.152-.446.272-3.782 6.04-8.435 6.618-13.358 1.37-5.604-5.975-8.847-13.381-11.94-20.833-.411-.993-.671-2.05-1.102-3.032-.92-2.096-.469-3.922 1.075-5.478 1.461-1.47 2.973-2.901 4.557-4.237 4.013-3.387 7.773-6.992 10.982-11.184 1.951-2.549 3.923-5.316 7.851-4.756.859.123 1.016-.74 1.341-1.268 2.092-3.391 4.855-6.16 8.217-8.215 1.885-1.15 3.154-2.627 4.039-4.547 5.747-12.475 13.275-23.927 20.438-35.584 4.087-6.65 9.417-12.225 15.764-16.77 1-.715 1.054-1.823 1.756-2.604.644.375 1.718-.621 2.081.654z"/><path fill="#FCC07C" d="M282.304 384.432c2.312.211 4.623.513 6.94.601 1.566.059 1.859.865 1.983 2.197.944 10.102 1.066 20.152-.422 30.255-1.583 10.749-2.619 21.579-3.894 32.374l-4.586-.035c.464-9.213-.786-18.353-1.125-27.529-.27-7.292-.859-14.562-1.184-21.85-.188-4.218-.343-8.447-.761-12.658-.271-2.72.547-3.54 3.049-3.355z"/><path fill="#F8A241" d="M399.691 292.298c-.729-.246-1.38-.615-1.89-1.207.213-4.11 1.615-7.969 2.644-11.891 3.716-14.166 7.114-28.412 10.729-42.603l.731-2.905c1.049-4.061 1.313-4.229 5.519-3.556 2.628.421 5.279.712 7.884 1.266 1.685.358 2.203-.47 2.437-1.946.229-1.436.372-2.688-1.481-3.083-1.382-.295-2.788-.491-4.141-.916-.557-.176-1.225-.385-1.341-.996-.125-.652.521-.979.989-1.302 1.852-1.279 3.866-2.285 5.807-3.416 1.068-.623 1.733-1.317 1.06-2.599-.652-1.241-1.592-.88-2.564-.469-2.3.973-4.585 1.975-6.892 2.929-.77.318-1.696.785-2.316.027-.63-.771.03-1.587.536-2.232 1.542-1.964 3.052-3.952 4.572-5.931.529-.688 1.907-1.471.88-2.45-1.021-.973-2.479-1.416-3.871-.346-.596.458-1.101 1.014-1.637 1.537-.833.814-1.594 1.709-2.515 2.423-1.561 1.21-2.365.935-2.697-1.008-.376-2.213-.772-4.425-1.075-6.652-.116-.85.012-2.073-1.335-1.974-1.175.087-1.296 1.157-1.3 2.092-.01 2.159-.191 4.328.228 6.473.143.737.26 1.482.222 2.231-.053 1.048.306 2.346-.847 2.935-1.026.526-1.865-.405-2.687-.922-1.408-.886-2.771-1.843-4.159-2.762-.53-.352-1.097-.902-1.775-.279-.539.496-.612 1.166-.486 1.848.156.838.643 1.526 1.095 2.225 1.401 2.166 2.89 4.273 4.25 6.466.985 1.59 1.161 3.205.541 5.003-5.297 15.334-10.579 30.673-15.935 45.986-.741 2.12-1.448 4.252-2.205 6.367-.306.85-.49 1.789-1.41 2.263l-1.868-1.252c4.947-14.19 9.894-28.381 14.84-42.572 1.284-3.687 2.492-7.401 3.886-11.046.569-1.492.378-2.606-.514-3.888-1.85-2.661-3.445-5.5-5.337-8.128-.999-1.387-.938-2.357-.014-3.749 2.726-4.109 2.656-4.15 6.811-1.305.812.557 1.646 1.082 2.6 1.705 0-3.01.171-5.862-.059-8.681-.162-2.002.324-2.946 2.352-3.543 5.201-1.532 5.155-1.64 5.792 3.848.161 1.385.434 2.757.732 4.629 1.301-1.239 2.426-2.16 3.363-3.245.991-1.147 1.944-1.253 3.27-.593 1.781.887 3.626 1.67 5.502 2.338 1.325.472 1.55.912.565 2.026-1.366 1.549-2.586 3.229-4.077 5.118 2.115-.205 3.581-1.175 5.138-1.843.993-.427 1.542-.255 1.849.758l.088.233c.665 2.108 2.858 4.289 2.049 6.115-.716 1.615-3.434 2.343-5.235 3.442.014.505.37.581.655.651 3.622.887 3.624.883 3.006 4.508-.055.328-.151.648-.216.975-1.087 5.528-1.085 5.518-6.741 4.473-1.714-.316-3.44-.562-5.166-.822-3.519-.532-3.501-.522-4.342 2.805-4.618 18.275-9.244 36.548-13.879 54.818-.142.549-.407 1.068-.615 1.599z"/><path fill="#F8A348" d="M711.97 270.579l-1.996.025c-.728-.85-.291-1.732-.062-2.604 4.569-17.383 9.346-34.711 13.909-52.095.598-2.282 1.844-3.605 4.09-4.174 2.257-.573 4.5-1.213 6.721-1.917 1.036-.328 2.272-.636 1.961-2.093-.264-1.228-1.446-.879-2.302-.912-1.912-.073-3.83.062-5.74-.078-1.618-.118-2.106-.84-1.096-2.258 1.737-2.44 3.575-4.809 5.28-7.272.331-.479.709-.926.998-1.434.415-.729.48-1.448-.242-2.008-.682-.528-1.257-.104-1.769.352-1.499 1.331-2.763 2.876-4.053 4.403-.672.796-1.385 1.931-2.608 1.56-1.071-.325-1.102-1.559-1.325-2.522-.3-1.297-.521-2.611-.807-3.912-.234-1.064-.795-1.762-1.866-2.121-2.409-.807-2.983-.344-2.663 2.189.321 2.556.3 5.142.663 7.7.134.942.303 2.316-.783 2.647-.937.285-1.43-.947-1.88-1.709-1.271-2.15-2.77-4.155-4.012-6.324-.547-.954-1.102-1.966-2.512-1.143-1.349.787-1.202 1.777-.587 2.964.92 1.772 1.841 3.547 2.643 5.377.264.601.568 1.284.015 1.869-.546.575-1.245.313-1.878.135-1.206-.339-2.306-.951-3.46-1.424-2.261-.926-2.421 1.006-3.071 2.228-.764 1.435.203 1.935 1.341 2.297 3.252 1.036 6.43 2.284 9.634 3.454 2.929 1.07 3.093 1.364 1.828 4.139-3.826 8.404-7.8 16.742-11.421 25.238-3.166 7.426-6.192 14.907-8.684 22.595-.251.777-.364 1.661-1.33 1.959l-1.002-3.131c-.338-1.619.178-3.1.725-4.58 4.32-11.678 9.283-23.082 14.464-34.397.349-.761.685-1.522 1.52-1.887.502-.362.386-.932.479-1.431-.072-1.242.706-2.195 1.189-3.22.776-1.649.519-2.518-1.352-3.076-2.533-.758-4.969-1.833-7.495-2.637-.853-.271-1.795-.435-2.313-1.313l-1.054-.451c-1.563-1.333-.818-2.421.367-3.463.694-.793.736-1.769.771-2.744.214-.121.573-.206.62-.376.872-3.175 2.659-3.793 5.479-1.624.289-2.218-1.019-3.527-1.712-5.013-.498-1.069-.628-1.758.611-2.375 1.971-.983 3.733-3.598 5.665-3.016 1.595.479 2.514 3.206 4.064 5.409-.188-2.774-.31-4.969-.494-7.158-.104-1.246.277-1.733 1.547-1.261.382.143.81.191 1.221.231 4.474.444 8.485 1.386 7.561 7.767l.668-.269c1.839-1.971 3.715-3.91 5.501-5.927.886-1 1.359-.955 2.227.124 3.848 4.785 3.886 4.749.213 9.659-1.035 1.384-2.04 2.793-3.307 4.531 2.44 0 4.547.053 6.648-.02 1.244-.043 1.718.311 1.774 1.659.229 5.43.363 5.945-4.867 6.777-6.147.978-9.175 3.999-9.841 10.101-.321 2.934-1.525 5.767-2.264 8.664-.216.848-.705 1.725-.169 2.639-.436.787-.238 1.703-.51 2.525-2.84 10.435-5.588 20.893-8.42 31.328-.283 1.04-.515 2.113-1.45 2.824zM579.151 271.554c-.605.451-1.271.592-2.004.391-2.055-2.532-2.537-5.798-4.001-8.611-.715-1.371-1.187-2.871-1.755-4.318-.215-.459-.076-.953-.144-1.428-.438-2.598-2.069-4.649-3.169-6.943.077-.805-.467-1.398-.709-2.094-.4-.767-.619-1.604-.935-2.402-.554-.738-.247-1.921-1.256-2.425-.039-.915-.179-1.788-.543-2.658-2.857-6.821-5.716-13.643-8.469-20.504-.595-1.481-1.452-2.195-2.993-2.551-3.071-.711-6.073-1.723-9.14-2.458-1.671-.401-2.402-1.196-2.7-2.956-.85-5.018-.951-5.001 4.164-5.429.987-.082 2.009.006 3.122-.754-2.171-2.297-4.253-4.62-6.478-6.799-.963-.943-.986-1.635-.342-2.766 3.088-5.419 3.049-5.431 7.734-1.484.938.79 1.699 1.839 3.035 2.19.812-1.405.451-2.938.523-4.395.058-1.142.414-1.803 1.604-2.146 1.99-.575 3.955-1.271 5.873-2.056 1.662-.679 2.051-.02 2.046 1.509-.005 1.95-.073 3.921.642 6.136.336-.601.534-.943.721-1.291.818-1.519 1.232-4.424 2.415-4.326 2.251.186 4.391 1.776 6.56 2.816.859.412.483 1.078.272 1.714-.54 1.622-1.052 3.253-1.578 4.896.357.087.519.179.659.153 1.332-.245 2.309-2.186 3.668-1.342 1.016.631 1.479 2.155 2.184 3.282 3.109 4.965 3.106 4.961-1.775 8.021-1.902 1.192-3.744 2.489-5.703 3.579-1.451.808-1.917 1.62-.896 3.114.744 1.091 1.278 2.327 1.906 3.497l.838 1.458c1.865 1.632 2.615 3.992 3.717 6.067 2.748 5.172 5.406 10.395 8.129 15.584.446.852 1.099 1.697.692 2.781-.356.498-.751.945-1.386 1.088-1.254.128-1.435-.967-1.831-1.705-4.37-8.131-8.626-16.318-12.804-24.549-.791-1.557-1.47-3.179-2.438-4.635-1.15-1.73-.617-2.887 1.032-3.893 2.627-1.601 5.157-3.361 7.805-4.925 1.685-.994 1.79-2.019.744-3.644-1.062-1.652-2.112-1.938-3.636-.774-.264.201-.56.368-.861.502-1.152.516-2.312 2.047-3.542.959-1.155-1.021-.025-2.494.315-3.729.375-1.361.882-2.686 1.325-4.028.415-1.251.029-2.109-1.185-2.598-1.283-.515-1.57.503-1.968 1.308-1.176 2.386-2.406 4.746-3.419 7.212-.271.66-.597 1.558-1.488 1.448-1.018-.126-1.147-1.09-1.212-1.932-.198-2.649.251-5.34-.42-7.952-.213-.832.396-2.405-1.138-2.284-1.44.113-3.052.611-3.177 2.563-.101 1.58-.556 3.111-.55 4.705.004.817.142 1.862-.673 2.275-.955.485-1.705-.406-2.396-.942-1.574-1.224-3.073-2.544-4.615-3.811-.684-.561-1.426-1.451-2.337-.471-.869.934-.363 1.86.382 2.639 1.726 1.803 3.52 3.537 5.276 5.31.527.531 1.09 1.032 1.553 1.621 1.196 1.519.931 2.429-.984 2.743-1.715.281-3.449.52-5.19.665-.967.08-2.185-.097-2.3 1.315-.11 1.341.918 1.875 2.009 2.174 2.888.792 5.757 1.656 8.655 2.396 1.979.506 3.065 1.633 3.831 3.493 6.687 16.223 13.407 32.432 20.092 48.655.482 1.163 1.476 2.331.617 3.749z"/><path fill="#3A5D79" d="M459.708 449.863l-41.999.001c-.396-3.32 2.384-8.715 5.456-10.179 5.41-2.577 10.803-5.185 15.992-8.181 1.929-1.115 3.261-.901 4.671.895 3.425 4.363 7.953 7.522 12.367 10.77 2.303 1.693 3.682 3.76 3.513 6.694z"/><path fill="#F8A241" d="M361.358 270.574c-.137.786-.134 1.563.162 2.321-.476 3.957-.813 7.934-1.447 11.862-1.674 10.375-7.131 17.723-17.347 21.122-.847.126-1.722.146-2.454.683-1.298 1.433-3.144 1.328-4.789 1.496-2.379.243-4.781 1.422-7.195.13l-1.906-.062c-1.776 1.723-3.876 1.17-5.944.844-.576-.792-1.36-.445-2.093-.383-1.896 1.246-4.049.827-6.04.648-2.653-.236-5.482.228-7.909-1.383l-2.911-.33c-3.617-1.176-7.257-2.25-10.817-3.634-5.84-2.272-10.134-6.22-13.488-11.345-1.044-1.594-2.096-3.217-2.872-4.947-1.57-3.502-3.281-6.22-7.553-7.535-7.791-2.4-8.181-15.133-1.715-18.793l2.249 1.797c-2.296 1.801-3.979 3.783-3.794 7.073.248 4.398 2.094 7.3 6.447 8.277 2.566.577 4.05 1.827 5.013 4.212.929 2.304 2.176 4.484 3.379 6.672 5.205 9.465 13.975 13.618 23.949 15.268 12.206 2.018 24.517 1.8 36.676-.747 7.234-1.517 13.252-4.894 16.237-12.196 1.684-4.121 2.463-8.424 2.921-12.838.821-7.887.294-15.787.482-23.678.029-1.211-.305-2.523.7-3.555.513.167.125 2.602 1.5.596 1.622.412 1.196 1.811 1.236 2.844.205 5.208.021 10.408-.677 15.581z"/><path fill="#050707" d="M459.708 449.863c-.685-4.075-3.731-6.2-6.781-8.4-3.848-2.775-7.547-5.75-10.401-9.604-.566-.764-1.011-.883-1.836-.432-5.834 3.199-11.799 6.139-17.751 9.109-2.867 1.432-3.639 4.605-4.664 7.417-.227.623-.379 1.272-.566 1.911-.667 0-1.604.495-1.179-.998 1.333-4.674 3.127-8.759 8.123-10.897 5.172-2.214 10.066-5.07 15.093-7.626.861-.438 1.11-1.004 1.362-2.01.758-3.031 1.938-5.955 2.951-8.922.755.295 1.289.827 1.647 1.545-3.826 9.359-3.429 7.735 2.334 13.697 2.726 2.82 5.901 5.073 9.259 7.551.648-3.244.226-6.485 1.892-9.254.784-.471.184-.941-.001-1.411 2.467-4.653 5.637-5.466 9.934-2.546.344.232.691.469.991.755 2.419 2.307 4.838 4.593 8.565 2.597.132-.07.347-.066.492-.012 3.547 1.34 5.997-.258 8.493-2.682 1.961-1.906 4.541-3.068 7.505-2.059.044.582.385.836.942.848 2.352 1.66 2.308 4.471 3.226 6.848 2.86-3.235 3.169-5.271 1.372-8.861-.296-.591-.698-1.146-.572-1.867l.926-1.59c.756 1.38 1.453 2.797 2.285 4.129.818 1.311 1.521 2.565.545 4.092-.552.861.04 1.621.314 2.359 1.794 4.828 3.146 9.785 4.438 14.761.219.837.744 1.933-.988 1.558-1.207-.51-1.227-1.696-1.483-2.707-.975-3.852-2.035-7.674-3.443-11.588-1.634 2.12-2.5 4.19-2.546 6.844-.045 2.543.106 5.379-2.087 7.419l-1.539.03c-.377-.561-.164-1.123.024-1.669 1.736-5.03 1.044-10.009-.45-14.92-1.175-3.86-3.268-4.442-6.484-1.989l-1.669 1.492c-1.788 1.353-2.215 2.725-.882 4.811 1.209 1.895 1.069 4.244.255 6.273-.751 1.871-.262 2.926 1.287 3.92.716.459 1.652.916 1.51 2.07l-1.972.008c-1.006.203-2.017-1.91-3.021.004l-1.419-.035c-2.366-.787-4.729-.582-7.09.023l-1.422-.008c-1.028-1.939-2.314-2.352-4.03-.753-.414.386-1.029.512-1.556.746l-2.071.03c.132-1.789 1.818-2.235 2.859-3.207.837-.78 1.153-1.412.7-2.562-.953-2.42-.891-4.875.403-7.189.627-1.119.481-1.992-.415-2.885-1.354-1.348-2.704-2.691-4.446-3.543-2.354-1.15-3.907-.755-4.776 1.68-1.742 4.883-2.756 9.887-1.174 15.066.26.847.817 1.662.446 2.623l-1.459.01z"/><path fill="#411010" d="M721.397 236.022c.097-.807-.1-1.743.951-2.121 1.992 5.307 2.229 10.705.7 16.152-.363 1.292-.133 2.055.952 2.93 4.57 3.689 8.455 7.979 11.054 13.331 3.674 7.563 3.003 14.661-2.349 21.174-1.018 1.238-1.04 1.771.183 2.888 10.945 10.012 12.21 22.277 3.524 34.297-5.3 7.332-12.376 12.721-19.874 17.6-5.716 3.719-11.693 6.972-17.829 9.938-.354.17-.671.465-1.259.164 1.356-4.302 2.129-8.707 1.475-13.637-4.695 4.975-9.932 8.26-16.397 9.306l.945-2.038c2.454-1.18 5.089-1.936 7.453-3.351 2.313-1.386 4.118-3.3 5.982-5.173.88-.884.884-1.889.56-2.986-.735-2.484-1.913-4.738-3.396-6.854-.708-1.009-1.659-1.858-2.057-3.075.185-.896.312-1.814.972-2.527 7.495 7.311 9.231 16.381 7.75 26.675 8.718-4.347 16.699-9.056 23.914-15.009 4.979-4.106 9.442-8.635 12.528-14.395 5.193-9.697 2.634-19.523-5.211-26.902-.181-.171-.394-.309-.588-.465-3.027-2.451-3.008-2.437-.512-5.549 4.573-5.703 5.632-11.827 2.469-18.627-2.42-5.203-6.184-9.261-10.48-12.846-1.919-1.601-2.758-3.155-1.886-5.575 1.58-4.383.584-8.873.426-13.325z"/><path fill="#411111" d="M571.248 257.587l.44.863c.508 1.514-.646 2.275-1.449 3.188-2.977 3.386-5.839 6.845-7.277 11.226-1.386 4.218-.924 8.082 2.403 11.256 1.597 1.523 1.831 2.914.526 4.781-1.523 2.182-2.731 4.572-3.463 7.16-1.865 6.592.107 11.779 5.887 15.486 2.47 1.582 5.193 2.621 7.936 3.607 2.599.934 5.088 2.093 7.269 3.803 4.743 3.724 5.891 8.729 3.45 14.24-2.052 4.633-5.064 8.539-9.068 12.118 9.714.308 18.901-.521 27.792-3.649.933-.328 1.816-.873 2.875-.641.564.354.483.934.514 1.474-5.303 2.856-11.15 3.707-16.994 4.417-6.354.772-12.753.861-19.43.527 1.231-1.849 3.036-2.863 4.431-4.271 3.057-3.083 5.919-6.299 7.72-10.303 2.537-5.642 1.21-9.96-4.015-13.228-1.766-1.105-3.699-1.846-5.637-2.589-1.931-.741-3.892-1.444-5.73-2.378-9.415-4.779-12.25-12.59-8.03-22.202.827-1.886 2.721-3.565 2.843-5.424.112-1.718-2.287-2.987-3.094-4.822-1.492-3.394-1.369-6.769-.19-10.188 2.008-5.828 5.969-10.269 10.291-14.451z"/><path fill="#BE3C3C" d="M461.166 449.853c-3.117-6.348-1.872-12.61.526-18.774.789-2.03 2.555-2.476 4.556-1.565 2.562 1.165 4.438 3.167 6.316 5.176.607.65.389 1.09-.028 1.715-1.757 2.634-1.954 5.436-.548 8.264.499 1.008.141 1.448-.621 2.025-1.314.995-2.536 2.111-3.798 3.178-2.135-.008-4.269-.014-6.403-.019zM490.149 449.854c-.362-.329-.694-.701-1.091-.98-1.999-1.412-4.045-2.417-2.149-5.717 1.191-2.074.564-4.938-1.23-6.975-.82-.932-.673-1.492.104-2.245 1.486-1.441 2.885-2.979 4.721-4.007 2.844-1.59 4.794-1.064 5.852 2.049 2.001 5.898 2.962 11.895.205 17.887l-6.412-.012z"/><path fill="#B3B3B3" d="M675.526 357.976c.578-.045 1.094.1 1.523.504.511.761.005 1.685.395 2.465-.938 4.053-.965 8.212-1.382 12.32-1.097 10.794-2.199 21.596-2.875 32.421-.266 4.253.539 8.581.965 12.865.729 7.333 1.556 14.655 2.318 21.985.267 2.555.292 5.148.756 7.663.326 1.761-.434 1.828-1.692 1.698-.977-6.285-1.395-12.63-2.04-18.951-.595-5.827-1.262-11.646-1.893-17.471-.535-4.939-.502-9.853.207-14.797.607-4.245.8-8.55 1.196-12.826.632-6.822 1.287-13.641 1.916-20.463.228-2.468.406-4.942.606-7.413z"/><path fill="#B2B2B2" d="M615.563 358.075l2.021-1.447c-.082 5.156 1.161 10.168 1.703 15.256.551 5.17 1.454 10.296 1.805 15.496.403 6.018 1.108 12.016 1.501 18.035.191 2.952.147 5.946-.096 8.896-.67 8.166-.896 16.359-1.563 24.516-.302 3.686.241 7.461-.894 11.076-1.229.182-1.601-.4-1.538-1.566.251-4.636.412-9.276.683-13.91.202-3.469.56-6.93.782-10.398.361-5.621.903-11.244.924-16.869.016-4.286-.649-8.576-1.03-12.863-.717-8.078-1.645-16.131-2.793-24.16-.573-4.011-1.008-8.041-1.505-12.062z"/><path fill="#F8A342" d="M282.304 384.432c-2.278-.124-2.592 1.342-2.412 3.087.562 5.428.715 10.878 1.003 16.322.515 9.729 1.298 19.442 1.891 29.167.281 4.624.352 9.26.583 13.886.058 1.171-.271 2.105-1.044 2.93h-3.515c3.354-1.941 2.455-4.686 2.277-7.355-.479-7.215-.814-14.439-1.229-21.658-.6-10.451-1.237-20.901-1.817-31.354-.102-1.821.002-3.655.012-5.482 1.433.008 2.881-.13 4.251.457z"/><path fill="#3A5C78" d="M498.098 449.836c1.113-2.976 1.547-6.049 1.441-9.224-.087-2.605 2.266-4.062 3.062-6.958 2.424 5.644 3.464 11.019 5.056 16.214-3.186-.012-6.373-.021-9.559-.032z"/><path fill="#0A0A0A" d="M495.167 296.596c5.036-1.755 10.024-4.015 15.465-1.448.009.746-.574.826-1.094.979-2.408-.109-4.811-.74-7.182-.123 1.335-.074 2.619-.074 3.907-.08 4.275.722 8.284 1.971 11.095 5.594-.084.429-.255.743-.78.583-3.465-2.229-7.007-4.192-11.217-4.773-3.114-.43-6.048.232-9.024.823-1.276.147-1.315-.635-1.17-1.555z"/><path fill="#111" d="M509.801 303.48c3.455 1.798 6.582 4.108 9.739 6.356 2.438 1.733 2.839 4.527 3.485 7.141-2.24-6.396-8.169-8.847-13.078-12.345l-.792-.589c-.035-.476.094-.761.646-.563z"/><path fill="#161616" d="M509.591 295.593l1.041-.445c3.579 1.148 6.938 2.742 9.997 4.945.097.484-.206.678-.591.812-3.814-1.115-7.416-2.653-10.447-5.312zM520 300.626l.629-.533c3.209 1.736 4.536 5.328 7.341 7.469.198.151.483.607.118.83-.807.494-1.119-.219-1.485-.734-.666-.452-1.684-.072-2.183-.921-.886-1.598-2.025-3.001-3.319-4.286-.517-.514-1.178-.948-1.101-1.825z"/><path fill="#151515" d="M518.035 318.769c-1.96-3.936-4.794-6.99-8.874-8.785-.025-.581.282-.672.758-.515 4.264 1.478 6.933 4.569 8.689 8.584-.16.262-.196.626-.573.716z"/><path fill="#385A76" d="M469.64 449.84c.622-.539 1.218-1.115 1.873-1.612 2.324-1.766 3.32-1.322 3.713 1.619l-5.586-.007z"/><path fill="#151515" d="M495.167 296.596c.317.573.493 1.251 1.17 1.554l-2.6 2.061c-.598-.525-1.651.402-2.082-.652.575-1.695 1.873-2.531 3.512-2.963z"/><path fill="#365670" d="M476.647 449.854c.044-.984.726-.906 1.416-.88 1.406.055 2.816.152 4.178-.371 1.193-.46 1.461.253 1.496 1.228l-7.09.023z"/><path fill="#151515" d="M509.919 309.469l-.758.515c-2.454-.91-4.72-2.203-6.997-3.471-.048-.6.241-.732.76-.547l6.995 3.503z"/><path fill="#202020" d="M524.572 306.532c.605.502 1.625.26 2.03 1.125-.909.483-1.713.854-2.69-.083-.978-.936-2.197-1.618-3.311-2.413-.188-.215-.2-.44-.038-.676 1.901-.425 2.946.828 4.009 2.047z"/><path fill="#1A1A1A" d="M502.924 305.966l-.76.547c-1.747-.227-3.46-.568-5.006-1.479l-.003-.93 5.769 1.862z"/><path fill="#34536B" d="M485.156 449.866c.241-.688-.629-1.406.202-2.26l2.819 2.256-3.021.004z"/><path fill="#111" d="M518.035 318.769l.573-.716c.653 1.241 1.331 2.479.706 4.391-.894-1.364-.979-2.56-1.279-3.675z"/><path fill="#2B2B2B" d="M509.801 303.48l-.646.563c-.777-.289-1.492-.674-2.034-1.324l.072-.736c1.038.206 1.869.77 2.608 1.497z"/><path fill="#323232" d="M516.578 302.1l.575-.559c1.229-.24 1.946.292 2.233 1.475-.092.388-.219.729-.736.542-.832-.286-1.528-.764-2.072-1.458z"/><path fill="#6C3E35" d="M566.551 246.134c.758.656.922 1.561 1.043 2.484-.164.164-.325.17-.484-.008-.645-.705-.894-1.557-.921-2.49.13-.256.25-.239.362.014z"/><path fill="#7F5448" d="M567.109 248.61c.161-.007.323-.005.484.007.66.556 1.127 1.158.485 2.026-.59-.55-.888-1.24-.969-2.033z"/><path fill="#865541" d="M566.551 246.134l-.362-.014-1.008-2.398c1.378.281 1.225 1.431 1.37 2.412z"/><path fill="#191919" d="M518.65 303.558l.5-.529c1.069-.119 1.513.43 1.531 1.434l-.08.699-1.951-1.604z"/><path fill="#626162" d="M677.444 360.944c-.874-.703-.205-1.652-.395-2.465l.905.994-.51 1.471z"/><path fill="#7BCAF1" d="M653.004 361.942c0-.831.033-1.663-.008-2.492-.096-1.961.237-3.453 2.729-3.484 2.644-.033 2.929 1.555 2.862 3.607-.063 1.992.016 3.988-.021 5.98-.024 1.361.553 1.967 1.937 1.938 2.242-.048 4.486.017 6.729-.017 1.999-.03 2.862.933 2.831 2.9-.03 1.881-.938 2.711-2.787 2.681-2.076-.034-4.158.076-6.229-.03-1.801-.093-2.598.516-2.5 2.409.115 2.237-.02 4.485.036 6.728.042 1.697-.708 2.4-2.389 2.391-1.646-.009-3.091-.229-3.161-2.266-.077-2.24-.133-4.492.003-6.727.124-2.023-.72-2.645-2.626-2.537-2.07.116-4.151.014-6.229.027-1.726.01-2.638-.797-2.654-2.551-.017-1.765.766-2.912 2.597-2.986 2.156-.09 4.326-.135 6.477-.001 1.805.112 2.662-.392 2.427-2.335-.131-1.063-.025-2.155-.024-3.235z"/><path fill="#ED3E3E" d="M359.351 350.374c2.086 2.417 2.03 4.469-.181 6.697-5.308.56-10.629.253-15.942.193-2.098-.023-3.059-1.262-3.031-3.428.026-1.98.495-3.688 2.721-3.716 5.476-.066 10.966-.49 16.433.254z"/><path fill="#2A7964" d="M360.744 363.661c.227-4.986.179-9.387.697-13.719.475-3.971.402-7.953.72-11.922.474-5.956 1.335-11.868 1.755-17.827.085-1.21.506-2.409 1.066-3.556 5.073-10.387 10.154-20.771 15.088-31.224.95-2.012 1.702-2.38 3.585-1.103 5.848 3.965 11.79 7.793 17.703 11.664.959.627 1.694 1.061.787 2.492-13.519 21.35-26.97 42.742-40.441 64.121-.129.206-.323.368-.96 1.074z"/><path fill="#FCC07C" d="M385.255 282.924c6.257-18.126 12.479-36.263 18.817-54.358.746-2.132.514-3.798-.727-5.562-1.62-2.31-3.093-4.723-4.695-7.046-.869-1.261-.835-2.368-.01-3.65.627-.974 1.049-1.276 2.111-.468 1.912 1.456 3.991 2.69 5.94 4.099 1.279.924 1.578.397 1.528-.861-.139-3.479-.726-6.936-.494-10.432.048-.717-.153-1.456.606-2.029 1.757-1.327 3.048-.847 3.362 1.358.372 2.619.746 5.239 1.033 7.868.16 1.467.721 1.278 1.517.494 1.424-1.401 2.838-2.813 4.24-4.234.604-.612 1.243-1.221 2.167-.883 1.243.454 2.889.702 3.552 1.621.894 1.238-.973 1.981-1.6 2.893-1.776 2.571-3.818 4.96-5.756 7.42l.352.54c2.902-1.217 5.82-2.398 8.703-3.663 2.567-1.126 2.964-.936 3.812 1.74.354 1.118.013 1.606-.962 2.123-2.561 1.357-5.054 2.84-7.903 4.458 2.012.82 3.838 1.025 5.638 1.321 1.597.265 2.84.981 2.113 2.773-.596 1.471.56 4.48-3.051 3.711-3.229-.688-6.576-.843-9.777-1.621-2.161-.525-2.575.541-2.964 2.105-2.013 8.123-4.026 16.246-6.062 24.363-2.678 10.688-5.368 21.374-8.079 32.055-.179.705-.573 1.355-.866 2.031-4.18-2.722-8.362-5.444-12.545-8.166z"/><path fill="#2A7864" d="M287.406 334.118c.824 12.08 1.634 24.16 2.479 36.239.261 3.721.591 7.437.938 11.149.121 1.291-.208 1.711-1.617 1.543-6.501-.772-13.015-1.438-19.527-2.117-1.873-.194-1.795-1.176-1.216-2.561 5.061-12.108 10.095-24.229 15.139-36.346 1.11-2.666 2.23-5.327 3.345-7.99l.459.083zM304.396 307.853c4.649.244 9.299.489 13.948.734-.208 2.391-.462 4.778-.609 7.172-.159 2.602-1.743 4.164-3.733 5.503-1.783 1.202-2.413 2.424-1.088 4.663 2.696 4.555 4.989 9.349 7.448 14.045.165.548-.082.686-.575.579-4.948-4.539-9.964-9.007-14.801-13.66-1.502-1.444-2.127-1.198-3.031.433-2.13 3.833-4.369 7.606-6.582 11.437-.907-.535-.483-1.267-.485-1.838-.018-6.727.047-13.454-.008-20.181-.013-1.582.479-2.559 1.831-3.464 2.601-1.743 5.42-3.199 7.685-5.423zM328.288 308.188c3.994-.543 7.99-1.084 11.984-1.626 3.284 2.243 6.562 4.495 9.855 6.724.907.613 1.731 1.23 1.969 2.413 1.057 5.272 2.146 10.539 3.226 15.808.234.561.395 1.082-.54 1.029-2.828-2.543-5.695-5.044-8.471-7.645-1.435-1.346-2.336-1.109-3.454.443-2.606 3.62-5.377 7.123-8.081 10.672-.444.127-.684.047-.481-.479 1.168-2.461 2.26-4.961 3.531-7.367.68-1.289.421-2.121-.622-2.984-1.461-1.21-2.711-2.74-4.308-3.707-3.546-2.15-3.923-5.533-4.103-9.117-.069-1.392-.33-2.776-.505-4.164z"/><path fill="#FCC07C" d="M320.438 308.97c1.885-.971 4.053.057 5.945-.845.341 3.303.693 6.604 1.021 9.907.104 1.055.571 1.83 1.395 2.52 2.037 1.705 3.964 3.541 6.009 5.238.974.809 1.278 1.494.649 2.732-2.995 5.895-5.897 11.836-9.004 18.107l-5.91-10.986c-1.886-3.506-3.768-7.015-5.655-10.52-.351-.652-.924-1.377.064-1.896 5.445-2.856 4.573-8.268 5.317-13.027.063-.409.113-.82.169-1.23z"/><path fill="#20594A" d="M334.295 335.528l.482.479c-.211.546-.537.991-1.237 1.313-.176-.835.271-1.319.755-1.792z"/><path fill="#256A58" d="M319.786 340.549l.574-.579c.454.465.866.947.802 1.721-.78-.036-1.035-.643-1.376-1.142z"/><path fill="#1E5446" d="M354.782 332.536c.426-.215.478-.624.54-1.029.485.442.714 1.086.303 1.535-.365.4-.646-.166-.843-.506z"/><path fill="#FCC07D" d="M359.3 251.554c-.008 7.16.166 14.325-.08 21.477-.188 5.445-.748 10.865-2.345 16.172-2.682 8.91-9.047 13.381-17.631 15.331-7.81 1.774-15.786 2.046-23.735 1.952-9.252-.109-18.325-1.346-26.746-5.693-5.444-2.809-8.777-7.475-11.796-12.496-.556-.924-.998-1.919-1.473-2.891-1.521-3.107-2.653-5.805-7.035-6.84-6.703-1.584-6.804-9.628-4.392-13.471.726-1.157 1.737-2.008 3.223-2.028 2.879 1.523 4.769 3.743 5.108 7.107.065.651.336 1.281.515 1.921 1.738 6.253 2.602 7.252 9.004 10.307-.942-6.337-1.861-12.572-2.798-18.806-.729-4.847-1.471-9.691-2.228-14.532-.208-1.328-.217-2.272 1.513-2.726 2.114-.554 2.696-2.812 3.759-4.427.954-1.445 1.798-1.945 3.607-1.512 5.249 1.254 10.568 2.211 15.845 3.354 1.739.376 3.093.011 3.492-1.785.399-1.802-.688-2.722-2.417-3.081-5.27-1.094-10.529-2.238-16.19-3.447 2.521-3.613 4.896-6.99 7.238-10.39.646-.938 1.673-1.058 2.61-1.283 6.541-1.569 13.089-3.121 19.782-3.901 7.603-.887 22.176 1.467 29.5 7.391-3.529-.492-6.477-.885-9.418-1.318-2.628-.387-5.249-.82-7.874-1.232-1.685-.266-3.128.148-3.433 1.986-.326 1.976.922 2.749 2.771 3.015 7.645 1.096 15.274 2.295 22.921 3.387 1.16.166 1.991.534 2.653 1.537 3.407 5.151 5.522 10.749 6.05 16.922z"/><path fill="#1D1E1E" d="M366.141 206.55c-4.13-3.761-8.422-6.77-13.199-9.077-9.078-4.386-18.66-6.616-28.694-5.735-11.359.997-20.168 6.501-26.171 16.356-2.58 4.234-4.292 8.787-5.479 13.556-.39 1.566-1.047 2.887-2.03 4.184-1.701 2.243-3.292 4.599-4.673 7.05-1.05 1.863-2.312 2.43-4.221 1.603-1.038-.45-2.121-.304-3.192-.394-1.446-.121-2.274.65-2.482 1.908-.208 1.256.464 2.09 1.688 2.697 1.085.538 3.397.012 3.15 1.133-.415 1.877-1.527 4.131-3.675 4.68-2.591.662-2.806 1.82-2.395 4.25 1.633 9.66 2.969 19.369 4.467 29.402-1.944-.784-3.115-1.571-3.462-3.393-.371-1.947-1.031-3.838-1.513-5.766-.676-2.705-1.57-5.238-4.32-6.586-3.329-1.631-4.208-4.686-4.506-8.007-.662-7.335-1.949-14.642-1.515-22.034.227-3.862.547-7.745 1.892-11.469.843-2.336 1.926-4.407 4.057-5.776.71-.456 1.225-.982.787-1.823-2.737-5.25-.052-9.657 2.309-13.998 4.764-8.757 12.641-13.851 21.526-17.599 4.283-1.807 8.742-3.198 13.402-3.513 5.03-.34 10.075-.164 15.085.506 6.826.913 13.476 2.469 19.962 4.886 10.115 3.768 20.048 13.31 23.202 22.959zM374.379 230.618c-1.244-3.055-2.487-6.11-3.734-9.165-.261-.64-.502-1.194-1.44-.874-.859.293-.886.733-.725 1.509 1.628 7.863-1.135 14.824-4.617 21.588-.736 1.43-1.438 2.965-2.938 4.305-.985-4.207-2.232-8.125-4.318-11.701-.953-1.634-2.117-3.104-1.363-5.251.363-1.034-.392-2.229-1.437-2.265-4.104-.145-6.518-3.342-9.69-5.128-5.824-3.278-12.128-4.664-18.669-5.549-10.565-1.429-20.456 1.892-30.851 3.979 1.37-5.347 3.165-10.358 6.348-14.744 8.331-11.48 19.791-15.073 33.468-13.278 9.768 1.281 18.697 4.635 26.417 10.695 8.293 6.511 12.439 15.466 14.136 25.633l-.587.246zM361.358 270.574c-.053-5.534-.097-11.067-.173-16.601-.008-.615.298-1.338-.386-1.824 1.562-2.234 3.256-4.381 4.414-6.874.174-.372.347-.871.816-.827.604.057.631.637.735 1.125.293 1.371.476 2.788.958 4.093 1.304 3.532-1.001 6.199-2.091 9.132-.834 2.247-1.868 4.437-3.01 6.545-.9 1.67-.468 3.584-1.263 5.231z"/><path fill="#FBC689" d="M686.589 270.555c-.854 1.935-.979 4.128-2.113 5.964-.182.277-.251.643-.474.863-2.795 2.764-3.235 6.134-2.567 9.799-.791 3.169-1.5 6.363-2.947 9.324-1.761 1.766-4.164 2.658-5.887 4.531-3.01 3.273-3.233 6.07-.422 9.486.685.832 1.476 1.582 1.729 2.686l-.53 1.303c-1.679 1.144-3.677 1.172-5.524 1.174-9.386.01-18.803.707-28.131-.964-7.609-1.362-14.866-3.524-20.968-8.621-5.828-4.866-8.885-11.29-10.744-18.429-2.472-9.492-1.612-19.17-1.523-28.8.011-1.14.255-2.327 1.074-3.261 5.734-1.682 11.517-3.234 16.651-6.462 2.809-1.766 5.672-3.46 7.943-5.943l-.026.013c2.896-1.879 5.02-4.549 7.22-7.129.786-.922 1.56-1.465 2.87-1.613 4.951-.562 9.852-1.503 14.509-3.326 3-1.176 6.036-1.608 9.23-1.464 2.988.135 5.973-.098 8.943-.488.65-.085 1.632-.474 1.591.827-.119 3.885 2.012 6.73 4.322 9.505.257.308.421.692.63 1.042-.7.744-1.55.348-2.354.314-3.723-.16-7.273.655-10.724 1.96-.786.298-1.64.806-1.252 1.826.334.876 1.254.706 1.973.526 2.02-.5 4.016-1.088 6.07-1.449 4.186-.736 8.012.039 11.109 3.031 1.491 1.439 2.782 1.585 4.348.373l1.867 1.189c-1.399 1.982-3.212 3.527-3.976 5.789-.826 1.361-2.093.736-3.154.595-7.036-.939-12.08 2.463-16.434 7.419-.272.31-.508.657-.704 1.022-.365.673-.734 1.425-.065 2.052.741.695 1.393.082 1.942-.409 1.176-1.048 2.223-2.232 3.376-3.304 2.421-2.25 5.203-3.836 8.496-4.373 2.593-.422 4.085.348 4.994 2.434-.72 3.644.386 7.348-.368 10.988z"/><path fill="#661B1B" d="M662.738 215.224c-8.054-.747-15.729-3.077-23.251-5.9-5.62-2.109-10.322-5.523-13.725-10.617-2.238-3.35-3.027-7.128-3.663-10.977-.194-1.174.393-1.904 1.57-1.433 13.397 5.36 27.433 2.773 41.21 3.339 3.075.126 6.17-.133 9.239.051 6.865.411 13.229 2.11 18.133 7.44 4.428 4.811 5.548 10.58 5.239 16.833-.053 1.069-.781 1.413-1.615 1.601-3.837.862-7.384 2.487-10.934 4.107-.706.322-1.307.554-2.086.056-6.142-3.925-13.128-4.222-20.117-4.5z"/><path fill="#FBC689" d="M579.151 271.554c-1.203-4.509-3.344-8.654-5.089-12.949-4.906-12.071-9.943-24.088-14.928-36.127-.571-1.38-1.153-2.756-1.694-4.147-.393-1.005-1.007-1.527-2.139-1.792-3.065-.714-6.082-1.635-9.115-2.48-.561-.156-1.126-.307-1.661-.53-1.315-.549-1.463-1.68-1.386-2.911.089-1.424 1.128-1.397 2.156-1.469 2.521-.177 5.042-.369 7.958-1.735-2.786-2.592-5.494-5.277-8.39-7.739-1.691-1.436-.925-2.687-.002-3.822 1.184-1.457 2.04.047 2.838.679 2.192 1.737 4.307 3.572 6.72 5.593.252-2.711.479-5.054.685-7.399.117-1.354 3.852-3.842 5.041-3.317.712.315.377 1.004.474 1.535.578 3.207.466 6.449.507 9.684.008.567-.102 1.183.716 1.798 1.546-3.194 3.084-6.332 4.579-9.49.374-.792.472-2.098 1.751-1.179 1.009.726 3.38.373 2.515 2.839-.825 2.35-1.572 4.727-2.357 7.091-.13.395-.345.826.028 1.156.387.341.79.03 1.128-.169 1.283-.763 2.565-1.532 3.818-2.345 1.164-.756 1.917-.795 2.765.625 2.355 3.944 2.44 3.905-1.53 6.399-2.32 1.457-4.646 2.906-6.998 4.312-1.02.609-1.36 1.185-.723 2.392 4.042 7.64 7.978 15.337 12.006 22.984 1.541 2.926 2.938 5.938 4.857 8.654l-2.488 2.673c1.4 1.33 3.27 1.501 4.879 2.237 1.806 2.453 3.729 4.848 4.062 8.045-.365 2.529-.746 5.057-1.089 7.59-.104.762-.473 1.168-1.223 1.336-2.893.643-5.781 1.316-8.671 1.978z"/><path fill="#661B1B" d="M632.232 214.638l7.928 6.426c-.207.854-.829.57-1.234.542-4.845-.338-9.529.996-14.291 1.324-4.558.314-9.015-.887-13.258-2.662-.437-.183-.871-.375-1.46-.3 1.899 1.744 3.798 3.489 5.858 5.384-1.585.75-3.07-.165-4.482-.299-6.049-.579-11.631-2.289-16.034-6.925-4.312-4.538-1.572-10.245 1.596-13.476.391-.398.841-.443 1.357-.179 4.873 2.488 9.018.208 13.023-2.187 3.215-1.922 6.438-3.733 10.052-4.808 1.028-.305 1.694-.313 2.291.697 5.399 9.142 14.196 13.036 23.942 15.471 2.556.638 5.174 1.081 7.642 2.222-4.308 2.194-12.023 1.682-22.93-1.23zM585.066 246.606c-4.18-8.145-8.358-16.289-12.538-24.433 5.385-7.108 11.771-13.161 19.254-18.005-.383-.706-.786-.392-1.14-.309-4.718 1.114-6.735-1.405-6.035-6.182.156-1.064.929-1.032 1.681-1.012 8.233.209 15.547-2.924 22.796-6.273 3.243-1.497 6.481-3.012 9.672-4.617 1.55-.78 1.887-.232 1.811 1.24-.121 2.355.497 4.635 1.206 6.812.454 1.39.28 1.882-1.042 2.212-4.089 1.021-7.583 3.273-11.16 5.38-3.611 2.127-7.368 3.527-11.436 1.068-.812-.491-1.207.114-1.698.537-6.339 5.456-7.004 14.105.693 18.804 1.902 1.161.992 1.562-.266 2.159-4.129 1.961-8.199 4.056-12.395 5.856-1.718.738-1.408 1.539-.68 2.605 1.678 2.453 4.158 3.475 7.011 3.65 1.738.105 3.487.02 5.991.02-4.213 3.77-7.968 7.129-11.725 10.488zM710.611 221.715c-5.179 11.731-10.562 23.378-14.944 35.442-.649 1.785-1.18 3.614-1.764 5.422l-.793-1.901-5.084 6.956c-1.318-.147-1.139-1.244-1.199-2.064-.143-1.973-.104-3.947.553-5.85.659-1.393 1.895-2.496 2.111-4.123 1.044-2.285 2.358-4.391 4.3-6.02 1.41-1.183 1.071-1.732-.424-2.596-5.032-2.906-9.909-6.077-13.259-11.006-3.474-5.109-2.547-9.402 2.586-12.956 4.918-3.405 10.503-5.174 16.168-6.772 1.028-.291 1.935.068 2.866.489 3.106 1.406 5.97 3.235 8.883 4.979zM630.017 243.153c-8.461 7.168-18.505 10.426-29.272 12.011-1.989.292-3.948.434-5.938.429-.506 0-1.07-.01-1.322-.512-.289-.579.269-.891.598-1.219 4.199-4.182 6.162-9.258 6.574-15.147.246-3.524 1.813-6.714 4.076-9.476 1.64-2.001 3.494-3.212 6.383-2.668 3.861.728 7.582.958 10.922 3.859 3.748 3.256 8.742 4.188 13.769 4.211.685.003 1.688-.42 1.975.508.201.654-.6 1.145-1.094 1.549-1.388 1.136-2.188 2.986-4.146 3.426-3.246-.587-6.436-1.163-9.787-.289-3.177.828-6.097 2.133-8.952 3.665-.513.274-.99.614-1.35 1.084-.374.488-.61 1.014-.173 1.583.346.447.835.5 1.349.371.733-.186 1.366-.599 2.023-.949 2.868-1.535 5.83-2.863 9.055-3.385 1.823-.297 3.806-.833 5.31.949z"/><path fill="#591717" d="M700.433 206.124c.029 1.171-1.839 2.14-.368 3.463l-.987 1.143c-.116-4.802-1.591-9.072-4.198-12.885-3.874-5.664-9.794-7.897-16.197-9.172-2.032-.405-4.09-.669-6.175-.521-1.663-.409-3.325-.411-4.987.001-9.488.002-18.978.092-28.465-.026-5.675-.071-11.004-1.791-16.544-4.047 6.81-3.852 13.857-4.207 21.027-3.908 1.1.66 2.401-.144 3.505.487 11.732.029 23.217 1.681 34.349 5.433 4.816 1.625 9.201 4.019 12.953 7.592 3.233 3.079 4.811 6.856 5.624 11.085.092.482.005 1.004.463 1.355z"/><path fill="#661B1B" d="M639.315 218.147c2.016.208 3.381.343 4.746.488 5.777.612 11.305-1.25 16.968-1.693 6.821-.534 13.512.326 19.794 3.334 1.17.561 1.249 1.121.302 1.992-1.466 1.348-2.87 2.76-3.915 4.482-.261.432-.566.806-1.142.847-8.835.63-17.729 1.632-26.266-1.675-3.948-1.531-6.963-4.535-10.487-7.775z"/><path fill="#F8A348" d="M607.561 255.61c-.846 6.539-.646 13.118-.438 19.668.32 10.123 2.375 19.773 9.385 27.674 4.088 4.607 9.33 7.328 15.125 9.109 7.521 2.311 15.232 3.122 23.074 3.018 6.228-.084 12.464.164 18.671-.567l-.488 1.886c-1.665 1.395-3.731 1.184-5.675 1.334-2.064.16-4.147.059-6.223.045-1.768-.011-2.367.826-2.101 2.508.481 3.032.826 6.086 1.158 9.135.216 1.975 1.136 2.903 3.056 3.279 1.436.282 3.235.021 4.019 1.83-.613.705-1.165 1.479-2.055 1.883-1.562-.229-3.108-.535-4.662-.799-2.311-.393-3.408-1.631-3.637-4.006-.365-3.807-.958-7.592-1.377-11.395-.194-1.766-.937-2.531-2.695-2.445-3.674.178-7.305-.367-10.932-.809-1.725-.209-2.419.373-2.664 2.031-.512 3.457-.849 6.936-1.253 10.402-.25 2.146-1.301 3.279-3.33 3.771-2.334.566-4.566 1.544-6.994 1.736-.747-.313-1.522-.573-2.233-.952-.986-.527-.366-.796.226-1.027 1.552-1.803 3.891-1.802 5.907-2.356 2.348-.647 3.236-1.995 3.404-4.229.192-2.568.532-5.123.955-7.664.297-1.781-.303-2.717-2.143-3.238-4.398-1.244-8.772-2.613-12.632-5.201-2.918-1.955-5.677-4.071-7.435-7.221-3.906-5.389-6.151-11.478-7.568-17.918-1.192-3.463-1.829-6.998-1.745-10.689.106-4.713.005-9.43.038-14.146.011-1.499.074-2.995 1.195-4.184.637-.388 1.331-.519 2.067-.463z"/><path fill="#661B1B" d="M616.684 223.574c5.778 1.999 11.163.458 16.607-.223 2.862-.358 5.795-.162 8.695-.214.731-.013 1.207.454 1.716.891 3.696 3.167 8.091 4.657 12.951 5.253-13.831 5.416-30.462 6.566-39.969-5.707zM605.494 256.072c-.709 9.688-.902 19.368.512 29.019-2.321-5.464-4.516-10.988-7.009-16.374-1.875-4.051-4.847-7.333-8.334-10.126-.987-1.719-2.193-3.357-2.06-5.497h2.977c-.694 2.643.187 3.763 3.172 3.985 2.963.22 5.897-.096 8.801-.719.638-.136 1.294-.194 1.941-.288zM605.884 225.993c-2.151 2.273-4.328 4.19-5.435 7.016-.644 1.644-2.48 1.036-3.78 1.284-3.474.663-6.936.729-10.126-1.198-1.381-.835-1.907-1.594.03-2.49 4.217-1.953 8.394-3.991 12.575-6.021.876-.426 1.674-.54 2.611-.125 1.265.562 2.595.975 4.125 1.534z"/><path fill="#651B1B" d="M599.334 236.36c-.391 4.688-.902 9.166-3.627 13.083-.804 1.156-1.64 1.778-3.051 1.671-2.389-.182-4.788.258-7.188-.404-1.433-.396-1.5-.807-.521-1.706 2.867-2.638 5.643-5.394 8.669-7.839 1.905-1.539 3.19-3.846 5.718-4.805z"/><path fill="#4F1110" d="M689.491 255.597c1.155 1.871-.306 2.629-1.489 3.506-.467.061-.935.281-1.396-.021-2.211-2.114-4.719-1.421-7.124-.597-3.47 1.19-6.089 3.616-8.428 6.354-.99 1.158-2.004 2.652-3.613 1.171-1.477-1.358-.386-2.713.63-3.868 5.127-5.844 10.969-9.901 19.305-7.647.46.124.794-.115 1.131-.362.002.707.332 1.192.984 1.464z"/><path fill="#200D0D" d="M690.614 247.153c-1.233 2.377-2.333 2.756-3.85 1.024-3.895-4.451-8.735-4.548-13.916-3.28-1.282.314-2.514.83-3.776 1.227-1.212.379-2.407.383-2.928-1-.501-1.33.215-2.234 1.458-2.725 4.461-1.758 9.014-2.833 13.841-1.828 3.217 1.973 5.828 4.787 9.171 6.582z"/><path fill="#1F0C0D" d="M630.017 243.153c-3.935-1.411-7.486.114-11.021 1.516-1.533.607-3.026 1.382-4.41 2.279-1.27.823-2.355.948-3.201-.36-.908-1.405.031-2.453 1.132-3.088 3.585-2.071 7.257-3.887 11.461-4.526 3.034-.463 5.895-.646 8.562 1.15.987 1.18-.004 2.099-.41 3.094l.026-.013-2.139-.052z"/><path fill="#F5A148" d="M588.604 253.094c.439 1.925 2.23 3.345 2.06 5.497l-.53 2.059c-1.185-2.768-3.154-5.138-4.062-8.045.882-.04 1.754-.02 2.532.489z"/><path fill="#661B1B" d="M721.397 236.022c1.498 4.454 1.61 8.95.163 13.416-.712 2.195-.146 3.427 1.706 4.967 5.003 4.16 9.283 8.952 11.554 15.318 2.365 6.631.472 12.204-3.647 17.338-1.979 2.465-2.083 2.385.354 4.251 4.167 3.188 6.951 7.397 8.317 12.372 1.934 7.041.012 13.457-4.084 19.279-6.606 9.392-15.865 15.665-25.532 21.414-3.197 1.9-6.528 3.576-10.487 5.729.895-3.461.718-6.452.762-9.439.081-5.447-1.853-10.213-4.836-14.643-.894-1.327-2.812-1.969-2.68-3.986 5.494-13.803 10.985-27.607 16.485-41.408 1.107-2.777 2.265-5.533 3.358-8.314.322-.819.821-1.854-.861-1.736 3.007-11.224 6.011-22.447 9.025-33.668.083-.311.267-.595.403-.89zM608.568 341.026c-5.036 2.77-10.629 3.608-16.175 4.428-5.068.749-10.209.732-15.685.492 2.014-2.666 4.505-4.5 6.257-6.997 1.542-2.196 2.858-4.511 3.836-6.972 1.958-4.929.314-9.75-4.12-12.896-3.028-2.146-6.559-3.166-9.925-4.566-5.021-2.09-9.567-4.747-11.22-10.463-1.043-3.609-.413-7.09 1.071-10.417.877-1.966 1.931-3.874 3.106-5.675.707-1.082.959-1.83-.178-2.701-4.67-3.573-4.974-9.729-2.19-15.166 1.718-3.357 4.012-6.279 6.546-9.036.721-.784 1.702-1.39 1.795-2.605 1.97 4.437 4.024 8.839 5.46 13.493 1.401 4.623 3.778 8.828 5.774 13.188 8.396 18.344 16.913 36.631 25.378 54.943.139.294.182.633.27.95z"/><path fill="#1E1F1E" d="M678.531 352.112c.073-5.016-.871-9.352-.511-13.741.138-1.681-.349-2.693-2.198-2.891-1.056-.112-2.08-.766-3.119-.766-2.842 0-2.801-1.427-2.156-3.555 3.432-11.335 6.793-22.691 10.186-34.038 2.396-8.015 4.854-16.011 7.168-24.049.714-2.477 2.303-4.375 3.591-6.483.214-.349.406-.795.911-.638.448.141.48.609.591 1.016.453 1.677.958 3.34 1.398 5.02.26.99.642 1.725 1.867 1.446 4.33-.985 8.773.229 13.127-.685 1.415-.297.811.77.553 1.409-4.558 11.3-9.148 22.587-13.676 33.897-5.482 13.696-10.911 27.414-16.373 41.119-.326.814-.734 1.594-1.359 2.939z"/><path fill="#FBC689" d="M694.905 265.71c5.597-17.533 13.492-34.107 21.225-50.747.643-1.382.36-1.805-.914-2.243-3.848-1.321-7.651-2.771-11.508-4.065-1.465-.491-1.728-1.05-1.024-2.491 1.953-4.012 1.88-4.036 6.111-2.118.892.404 1.828.708 3.19 1.23-.926-3.013-2.216-5.402-3.587-7.667-1.454-2.402.493-2.804 1.702-3.726 1.651-1.258 1.974.463 2.507 1.268 1.871 2.82 3.627 5.715 5.955 8.458-.3-3.39-.624-6.777-.886-10.17-.083-1.07-.882-2.453.488-3.11 1.449-.693 5.01 1.131 5.292 2.496.484 2.335.948 4.674 1.492 7.361 2.747-2.108 4.217-4.919 6.572-6.85.64-.525 1.231-1.786 2.172-.6.696.879 2.237 1.648.762 3.281-1.383 1.529-2.442 3.347-3.665 5.023-1.159 1.588-2.346 3.155-3.798 5.104 3.118 0 5.823-.004 8.529.003.904.002 1.959-.168 1.915 1.259-.033 1.118.287 2.333-1.394 2.748-2.896.717-5.734 1.659-8.624 2.408-1.523.396-2.379 1.2-2.792 2.764-4.52 17.069-9.092 34.124-13.643 51.184-.361 1.357-.675 2.729-1.011 4.094-4.126.576-8.288.416-12.434.572-.844.032-1.41-.127-1.593-1.117-.268-1.463-.684-2.901-1.039-4.349z"/><path fill="#1E1F1E" d="M592.286 263.225c3.173 2.552 4.792 5.858 6.216 9.31 7.05 17.092 14.115 34.177 21.168 51.268 1.132 2.744 2.225 5.504 3.507 8.68-1.602-.568-2.636-.188-3.694.555-2.985 2.091-6.057 4.059-9.296 6.209-1.638-3.443-3.297-6.838-4.876-10.271-3.4-7.388-6.743-14.801-10.135-22.191-4.812-10.486-9.62-20.974-14.496-31.429-.678-1.452-.179-1.933 1.121-2.237 2.094-.491 4.161-1.136 6.277-1.492 1.952-.328 2.735-1.35 3.062-3.251.28-1.647.166-3.441 1.146-5.151z"/><path fill="#FBC689" d="M627.524 334.898c2.126-1.344 4.567-1.8 6.941-2.417 1.696-.441 2.569-1.129 2.68-3.164.215-3.95.966-7.867 1.37-11.811.129-1.261.715-1.588 1.772-1.445 4.683.629 9.372 1.137 14.108 1.02 1.002-.025 1.489.512 1.602 1.51.492 4.351 1.17 8.689 1.458 13.053.138 2.088.98 2.908 2.873 3.289 1.615.324 3.471.005 4.738 1.479-4.548 3.824-9.969 4.553-15.617 4.273-7.704-.383-14.926-2.682-21.925-5.787z"/><path fill="#1E1F1E" d="M676.011 355.615c-1.403-2.146-1.525-3.839-1.512-5.599.033-4.247-.815-5.297-5.104-4.92-5.332.468-10.627 1.397-15.926 2.211-6.267.961-12.507 1.289-18.737-.252-2.296-.569-4.29-1.775-6.285-2.945-2.751-1.613-5.022-1.063-6.578 1.797-1.309 2.406-2.569 4.838-3.894 7.232-.307.555-.677 1.299-1.468 1.098-.704-.18-.456-.992-.59-1.512-.946-3.682-1.836-7.379-2.749-11.07-.27-1.082-.061-1.926.989-2.527 1.004-.577 2.073-1.135 2.888-1.934 2.868-2.812 5.654-2.339 9.082-.738 7.371 3.443 15.057 5.861 23.366 6.15 6.98.244 13.304-.975 18.528-5.871 1.396-1.308 2.729-.254 3.97-.053 4.037.658 4.019.775 4.019 4.865.001 4.485.001 8.97.001 14.068z"/><path fill="#661B1B" d="M613.574 303.009c5.835 6.561 13.223 10.344 21.729 12.1 1.176.242 1.405.938 1.272 1.986-.497 3.941-.997 7.883-1.429 11.832-.111 1.018-.633 1.377-1.533 1.625-2.711.746-5.4 1.572-8.099 2.367-3.729-9.109-7.459-18.219-11.196-27.326-.341-.836-.891-1.608-.744-2.584zM667.123 334.528c-1.665-1.052-3.63-1.02-5.46-1.414-1.436-.309-2.091-.791-2.233-2.359-.331-3.625-.845-7.236-1.403-10.834-.32-2.056.04-3.011 2.469-2.861 4.137.254 8.28-.084 12.394-.662l-4.747 15.925c-.236.783-.335 1.629-1.02 2.205z"/><path fill="#651B1B" d="M692.016 324.565c3.458 2.873 5.198 6.754 6.364 10.953.119.428.074 1.105-.19 1.408-3.963 4.539-8.385 8.367-14.716 9.078 2.607-7.241 5.541-14.353 8.542-21.439zM678.023 298.562c-1.176 4.16-2.354 8.32-3.529 12.48-2.542.475-2.94-1.676-3.561-3.179-1.561-3.793 2.88-9.504 7.09-9.301z"/><path fill="#451413" d="M678.024 298.562c-2.541 1.062-4.791 2.489-6.177 4.979-1.529 2.747-.334 6.117 2.646 7.502l-.586 2.166c-7.386-6.231-4.281-11.561 1.49-15.152.978-.609 1.889-1.375 3.089-1.551-.041.71.242 1.495-.462 2.056z"/><path fill="#431211" d="M686.605 259.082c.469-.19.941-.752 1.396.021-.169 2.086-.734 4.139-.503 6.259.085.78-.216 1.646.528 2.272l-1.438 2.922c-.269-3.827-1.255-7.653.017-11.474z"/><path fill="#461514" d="M681.435 287.181c-1.863-4.325-.867-7.812 3.041-10.662-.071 1.262-.317 2.478-.932 3.598-.861 1.348-1.332 2.791-1.095 4.411l-1.014 2.653z"/><path fill="#5B1919" d="M682.449 284.527c-.903-1.785-.294-3.195 1.095-4.411l-1.095 4.411z"/><path fill="#F4D988" d="M495.17 427.593c-4.501.04-7.764 2.404-10.533 5.653-.678.795-1.295.677-2.172.319-2.42-.986-4.883-.971-7.172.371-1.074.631-1.569.217-2.219-.577-1.373-1.677-3.003-3.1-4.841-4.249-3.43-2.145-5.785-1.654-7.93 1.695-.315.493-.568.748-1.114.733-6.349-4.055-11.192-9.58-15.398-15.734-.63-.921-.859-1.776-.711-2.97.452-3.643.658-7.408-.585-10.876-2.45-6.836-1.338-13.392.809-19.971.602-5.138 4.299-7.931 8.17-10.461 1.633-1.065 3.406-2.448 5.673-1.506 6.98 6.722 15.77 7.481 24.786 7.569 5.741.057 11.498.375 16.635-2.957 1.25-.811 1.939-.36 2.552 1.008 5.748 12.834 6.886 25.836 1.782 39.17-1.815 4.748-3.49 9.527-7.732 12.783z"/><path fill="#BE3C3C" d="M457.18 351.02c1.401-4.111 3.502-7.883 5.739-11.573 4.139-6.826 8.364-13.599 12.528-20.409 3.567-5.833 8.672-10.277 13.49-14.976 1.534-1.496 2.589-.854 3.321.973 2.451 6.108 4.569 12.31 5.207 18.908.878 9.096 1.93 18.184 2.471 27.301.399 6.71-.517 13.453-.207 20.189.045.967-.395 1.529-1.239 1.934-3.765 1.807-7.512 3.33-11.889 3.197-6.736-.207-13.611.23-19.965-2.252-6.452-2.521-12.123-6.299-13.958-13.744-.227-.919-.373-1.719.201-2.604 1.483-2.289 2.879-4.637 4.31-6.96.18.179.401.282.64.366 3.557 1.261 3.754 1.526 3.735 5.281 2.028-1.725 3.885-1.082 5.833.521.169-2.36.163-4.602 3.758-4.868-2.644-1.318-3.827-2.756-3.061-5.442-2.233 1.164-4.175 1.451-5.999-.538-.523 1.595-.062 3.369-1.668 4.162-1.017.502-2.019 1.25-3.247.534z"/><path fill="#D3A66C" d="M457.146 370.021c-6.865 1.386-11.156 5.75-13.843 11.968-.76-1.238-1.266-.81-1.579.277-1.722 5.951-3.113 11.909-1.081 18.105 1.396 4.26 1.743 8.652.898 13.058-.57 2.972-1.887 5.585-5.104 6.499-3.182.902-5.212-1.16-7.08-3.184-3.24-3.511-5.6-7.639-7.655-11.918-1.582-3.289-2.866-6.72-4.42-10.023-1.187-2.522-.545-4.48 1.432-6.199 2.07-1.803 4.131-3.617 6.217-5.402 2.979-2.553 5.662-5.379 8.013-8.528 1.092-1.466 2.241-2.903 3.771-3.958 1.679-1.158 3.224-1.331 4.413.685.282.478.439 1.249 1.218.771.704-.433.325-1.058-.04-1.499-.767-.926-.248-1.648.231-2.443 1.835-3.047 4.35-5.428 7.167-7.55 1.15-.866 1.688-.725 2.004.672.794 3.521 2.55 6.454 5.438 8.669zM516.383 386.115c-.183 5.628-.405 11.112-2.182 16.383-.31.921-.512 2.173-1.601 2.326-1.07.151-1.667-.944-2.229-1.751-1.624-2.328-2.769-4.691-2.897-7.745-.319-7.544-2.358-14.741-5.635-21.558-1.372-2.855-.823-5.843-.78-8.803.016-1.022.766-.844 1.42-.885 5.649-.355 10.318 2.832 12.158 8.379.416 1.257.729 2.557.977 3.857.624 3.283.685 6.611.769 9.797z"/><path fill="#3A5D78" d="M459.19 432.95c-.223 3.371-1.375 6.64-.909 10.483-3.479-1.97-6.187-4.339-8.943-6.626-1.018-.844-1.933-1.812-2.87-2.748-4.695-4.688-4.982-6.807-1.767-12.578.248-.445.572-.539 1.005-.525 3.64 4.959 8.104 8.992 13.484 11.994z"/><path fill="#395C77" d="M500.138 424.56c.805 1.342 1.572 2.705 2.425 4.014.411.633.396 1.177.123 1.842-.904 2.204-1.779 4.419-3.619 6.668-.673-3.212-1.438-6.074-2.954-8.643 1.633-.991 2.673-2.598 4.025-3.881z"/><path fill="#BE3C3C" d="M486.102 440.875c.074 3.675-3.039 6.968-6.67 7.054-3.65.086-6.989-2.999-7.159-6.614-.172-3.64 3.157-7.136 6.848-7.191 3.621-.056 6.905 3.121 6.981 6.751z"/><path fill="#757575" d="M501.228 295.632c1.549.934 3.45-.178 4.98.859-2.063.111-4.118-.331-6.446.221.433-.947.835-1.195 1.466-1.08z"/><path fill="#F5A1A3" d="M329.81 294.283c.529 5.149-3.006 8.898-8.476 8.931-5.615.033-8.742-4.641-8.523-10.229.059-1.49-.292-3.334.967-4.202 2.233-1.539 4.758-3.538 7.309-3.435 2.741.109 5.47 1.955 7.724 3.733 1.468 1.16.993 3.387.999 5.202z"/><path fill="#679962" d="M334.34 250.511c6.558.359 12.851.733 19.146 1.021 1.187.054 1.822.414 1.39 1.584-.43 1.162 1.179 3.241-1.475 3.43-.33.023-.682.064-.994-.018-2.305-.609-3.747-.582-3.876 2.625-.108 2.7-3.493 4.707-6.103 4.342-2.914-.408-5.255-2.855-5.037-5.84.143-1.953-.537-2.157-2.141-2.098-1.479.055-2.968-.291-4.454-.32-1.243-.024-1.474-.608-1.49-1.719-.049-3.128-.097-3.122 3.054-3.012.746.027 1.494.005 1.98.005zM280.333 254.823c-.496-1.934.476-2.279 2.125-2.324 7.303-.205 14.603-.5 21.902-.808 1.072-.045 1.66.313 1.511 1.368-.174 1.229.98 2.893-1.042 3.559-.383.127-.833.126-1.24.082-2.317-.254-3.835.018-4.002 3.064-.132 2.404-3.021 3.993-5.655 3.868-2.708-.129-4.819-1.825-5.114-4.523-.187-1.71-.906-2.093-2.414-1.915-1.068.127-2.211-.117-3.224.16-2.434.664-3.291-.194-2.847-2.531z"/><path fill="#F8A342" d="M326.804 269.317c.188 1.34-.536 2.396-1.131 3.482-.308.564-.768.907-1.414.417-.483-.366-.936-.763-.397-1.423 1.603-1.961.97-3.209-1.189-4.166-.824-.363-1.388-1.229-1.621-2.135-.747-2.887-1.248-5.815-1.221-8.812.006-.648-.103-1.425.86-1.506 1.126-.094 1.07.744 1.135 1.504.151 1.811.248 3.633.529 5.424.303 1.939.537 3.934 3.012 4.598 1.12.3 1.589 1.395 1.437 2.617z"/><path fill="#F5A1A3" d="M638.556 302.116c.222-1.127-.648-2.838.705-3.963 2.119-1.762 4.655-3.691 7.174-3.711 2.73-.021 5.426 1.965 7.735 3.679 1.517 1.126 1.325 3.32 1.317 5.095-.021 4.714-1.997 9.051-8.737 8.991-5.226-.046-8.633-3.895-8.194-10.091z"/><path fill="#4F1110" d="M615.777 254.181c6.077 1.157 12.042 2.584 16.491 7.372.611.659 1.125 1.451 1.516 2.263.45.938.113 1.787-.73 2.395-.894.643-1.918.533-2.463-.268-3.633-5.328-9.347-6.523-15.062-7.719-.998-.207-1.772-.572-1.917-1.627-.219-1.594.7-2.256 2.165-2.416z"/><path fill="#F8A449" d="M648.185 267.717c-.404 2.766-.756 5.541-1.247 8.292-.154.859-.282 1.93-1.101 2.427-1.253.761-3.006 1.026-1.724 3.226.235.404-.809 1.059-1.452.642-.864-.56-1.233-1.604-1.405-2.546-.17-.931.359-1.939 1.312-2.15 2.594-.574 2.623-2.708 2.908-4.598.317-2.111.355-4.266.548-6.397.068-.747-.354-1.888.913-1.935 1.487-.054.955 1.219 1.071 2.023.048.325.008.662.008.992l.169.024z"/><path fill="#0F0F15" d="M470.372 422.45c-.443-.364-.967-.666-1.316-1.105-2.332-2.924-4.231-6.225-8.384-7.182-1.191-.275-2.568-1.49-2.535-3.39.898-.091 1.4.39 1.919.903 3.39 3.35 12.958 4.814 17.061 2.625 1.613-.861 2.519-4.258 1.553-5.781-.531-.838-1.353-.416-2.035-.453-4.845-.27-6.817-3.031-5.532-7.686.396-1.43 1.363-2.262 2.553-2.869 3.676-1.877 7.372-1.693 10.99.17 1.919.987 3 2.57 2.938 4.812-.065 2.422-1.653 3.68-3.594 4.621-.587.284-1.291.315-1.902.56-.821.328-2.245.007-2.027 1.589.187 1.353-.512 2.898 1.506 3.762 4.824 2.066 8.87 1.174 12.138-2.914.422-.527.548-1.4 1.564-1.607.123 1.996-.784 3.501-2.252 4.421-1.816 1.14-3.059 2.613-3.898 4.517-.426.11-.684-.148-.935-.422-3.342-1.162-6.556-3-10.292-1.131-2.172 1.088-4.591 1.324-7.025 1.23-.646-.025-1.481-.199-1.854.406-.474.768.312 1.355.667 1.977.479.844 1.35 1.499 1.241 2.623-.094.262-.276.369-.549.324z"/><path fill="#101015" d="M488.972 388.569c-3.598-.037-5.097-1.666-5.061-5.498.023-2.471 2.928-4.666 6.051-4.574 2.827.082 5.133 2.201 5.116 4.698-.022 3.314-2.406 5.412-6.106 5.374z"/><path fill="#101016" d="M455.12 387.899c.071-2.906 2.518-5.438 5.14-5.316 3.03.141 5.597 2.494 5.461 5.012-.147 2.731-2.869 5.188-5.703 5.146-2.771-.04-4.962-2.206-4.898-4.842z"/><path fill="#070604" d="M493.345 419.211c.586 1.146-.063 2.087-.448 3.015-2.323 5.604-6.793 7.992-12.596 8.701-6.896.842-14.552-3.092-17.549-9.363-.285-.595-1.095-1.514-.183-1.949.95-.455 1.057.738 1.358 1.357 2.808 5.732 10.439 9.836 17.868 8.404 5.182-.998 8.463-3.851 10.44-8.552.233-.548.209-1.335 1.11-1.613z"/><path fill="#17151A" d="M470.372 422.45l.122.025c1.001-.349.899-1.293 1.11-2.065.275-1.009.686-1.984 1.877-2.039 1.255-.058 1.584.943 1.885 1.956.341 1.152.121 2.779 1.536 3.197 1.704.504 3.447-.147 5.119-.617.713-.201.874-.93 1.061-1.585.332-1.174.404-2.651 2.048-2.744 1.609-.091 1.879 1.389 2.467 2.447.155.349.35.689.179 1.089-.073 1.295-.621 2.1-1.992 2.436-3.904.959-7.867.954-11.828.791-1.776-.074-3.05-1.107-3.584-2.891z"/><path fill="#3E2F28" d="M487.775 422.114l-.655-.709c-.052-1.678-.277-3.412 1.466-4.507l.53.544c-.002 1.686-.459 3.241-1.341 4.672z"/><path fill="#EF974B" d="M457.18 351.02c3.772-1.088 3.772-1.088 4.24-5.978 2.222 2.444 4.56 3.131 7.278.486-1.115 3.53.153 5.555 3.487 6.682-3.79.531-4.665 2.75-3.751 6.777-2.754-2.843-5.052-3.939-7.822-.651 1.244-4.206-.92-5.864-3.423-7.332l-.009.016z"/><path fill="#3A5C78" d="M486.903 335.147c-1.591 2.947-1.83 5.314 1.719 7.095-3.359.181-5.682 1.225-5.541 5.138-1.623-2.933-3.592-4.387-7.049-2.292 1.984-3.062 1.518-5.329-1.618-7.244 3.614.243 5.402-1.163 5.423-4.836 1.792 2.733 3.857 4.096 7.066 2.139z"/><path fill="#5D7A8C" d="M486.373 349.433c2.466 2.336 4.676 2.467 7.096-.098-.353 3.132.264 5.391 3.887 5.991-3.143 1.073-4.695 2.816-3.454 6.356-2.484-2.078-4.757-2.742-6.664.029-.868-.389-.625-.973-.565-1.387.282-1.961-.116-3.408-2.35-3.877-.626-.132-1.795-.949-.46-1.333 3.077-.886 3.176-2.842 2.51-5.681z"/><path fill="#F6B788" d="M471.043 361.005c.536 2.571 2.033 2.777 4.447 1.781-1.896 2.66-.518 3.564 2.195 4.342-3.308.504-3.759 1.969-2.203 4.627-2.388-1.401-4.002-1.676-4.45 1.536-1.037-1.999-1.632-4.276-4.522-1.94 1.945-2.942.245-3.771-1.756-4.445 2.738-1.436 2.738-1.436 2.072-4.391 1.945 1.144 3.497 1.161 4.217-1.51z"/><path fill="#798A88" d="M478.899 323.97c1.172-2.15 1.176-3.371-1.197-3.527 1.123-1.049 3.199-1.493 1.09-3.603 1.962.541 3.545 1.005 3.324-2.054 1.101 1.747 1.6 3.773 3.912 1.492-1.066 1.988-.768 3.096 1.594 3.621-2.036.767-2.909 1.678-1.03 3.49-1.77-.121-3.512-1.449-3.677 1.523-.889-1.909-1.93-2.454-4.016-.942z"/><path fill="#C64C46" d="M469.671 341.468l-.503-.818c.193-.48.647-.583 1.062-.741.945-.337 1.632-.912 1.807-1.958.02-.315.014-.629-.032-.941-.532-1.943-2.283-1.328-3.564-1.702-.23-.13-.358-.323-.373-.591 1.03-1.58 2.339-1.318 3.721-.565 2.531 2.128 2.683 2.962 1.077 5.921-.933.765-1.671 1.981-3.195 1.395z"/><path fill="#F0A97F" d="M472.683 340.032c1.167-2.109 1.279-4.035-.961-5.555-.103-.445-.027-.706.508-.482 2.565 2.305 2.702 4.129.501 6.712-.249-.209-.264-.434-.048-.675z"/><path fill="#E59371" d="M472.229 333.995l-.508.482c-1.3-.479-2.587-.864-3.623.515-.147.167-.332.251-.554.253-.315-.117-.581-.262-.335-.663 1.522-1.494 3.138-2.179 5.02-.587z"/><path fill="#EDA47C" d="M472.683 340.032l.048.674c-.829.9-1.745 1.58-3.069 1.182-.045-.014-.082-.134-.078-.202l.088-.218c1.21-.045 2.075-.815 3.011-1.436z"/><path fill="#F1AC81" d="M470.672 340.421l-1.504.229c-.766-.232-1.581-.387-1.952-1.24-.133-.129-.172-.25-.116-.365.054-.111.106-.166.155-.167.222-.059.445-.063.669-.011.725.279 1.451.547 2.254.406.233.017.442.092.63.23.197.342.14.646-.136.918z"/><path fill="#F0AA80" d="M467.166 339.116l.05.294c-1.292-.833-1.07-2.097-.951-3.331.465-.098.677.204.865.546.223.826.746 1.651.036 2.491z"/><path fill="#E69472" d="M466.719 336.573l-.455-.495c.163-.595.323-1.192.946-1.497l.386.434c.421.92.136 1.445-.877 1.558z"/><path fill="#BE3C3C" d="M488.586 416.898l-1.466 4.507c-.185-.352-.38-.695-.551-1.053-.311-.652-.427-1.525-1.433-1.443-1.001.081-.893 1.033-1.229 1.652-.517.95.501 2.555-1.147 2.967-2.081.519-4.213 1.176-6.354.795-1.412-.252-1.028-1.895-1.474-2.902-.396-.899.22-2.541-1.339-2.562-1.647-.021-1.505 1.49-1.466 2.618.048 1.415-.837 1.077-1.631.999-.171-1.758-1.605-2.801-2.401-4.205-.679-1.195-.668-1.842.939-1.812 3.749.071 7.495.149 10.703-2.339.586-.455 1.259.036 1.892.223 1.903.561 3.789 1.316 5.812 1.201 1.144-.065 1.228.514 1.145 1.354z"/><path fill="#EAEAEB" d="M488.081 382.294c-.176.801-.516 1.195-1.191 1.18-.775-.018-.913-.607-.889-1.176.021-.51.327-.867.938-.869.728-.004.874.545 1.142.865z"/><path fill="#E5E5E5" d="M457.591 386.246c.047-.523.193-1.048.818-1.014.655.036 1.042.549 1.044 1.165.001.558-.421.865-1.006.836-.617-.031-.845-.42-.856-.987z"/><path fill="#F7F7F7" d="M473.189 420.528c.355.109.486.123.49.155.146 1.078.957 2.069.447 3.22-.034.078-.545.089-.632-.024-.778-1.019-.285-2.151-.305-3.351z"/><path fill="#F2F2F3" d="M485.516 419.536c.15 1.521.584 2.453.024 3.367-.056.092-.578.062-.611-.021-.396-.981-.457-1.943.587-3.346z"/><path fill="#EFA87E" d="M468.707 335.041c1.792-.394 3.331-.257 3.925 1.867-.908.922-1.047-.206-1.477-.553-.897-.208-1.883-.572-1.755.991.543.098.539-.468.827-.675.3-.251.612-.383.981-.141.88 1.638.258 2.523-1.435 2.876-.899.113-1.548-.406-2.216-.881-.623-1.493-.258-2.661 1.15-3.484z"/><path fill="#C74E47" d="M469.716 339.124c1.398-.455 1.975-1.221.969-2.578-.091-.422-.052-.717.5-.514.542.192.63 1.138 1.447.877l-.01 1.24c-.691.418-.793 1.637-1.943 1.436-.149-.026-.301-.036-.454-.03-.527.278-.57-.015-.509-.431z"/><path fill="#C64D46" d="M468.707 335.041c-1.017.952-1.174 2.155-1.004 3.452.123.132.161.26.113.386-.047.123-.092.185-.136.185l-.515.053-.447-2.543.878-1.559.503-.021.608.047z"/><path fill="#EDA47C" d="M470.679 339.585c.868-.182.844-1.57 1.943-1.438-.167 1.174-.928 1.836-1.95 2.273l.007-.835z"/><path fill="#CA554B" d="M467.681 339.063l.022-.57 2.013.63.509.432c-1.063.95-1.783.122-2.544-.492z"/><path fill="#C75048" d="M471.185 336.032l-.5.514-.559.389c-.302.418-.335 1.051-.966 1.205-.711-.449-1.185-1.002-.519-1.807.727-.879 1.578-1.199 2.544-.301z"/><path fill="#CF6152" d="M469.16 338.14c.313-.408.187-1.172.967-1.204.13.419.534.837.037 1.267-.345.299-.691.305-1.004-.063z"/></g></svg>