<svg xmlns="http://www.w3.org/2000/svg" width="1000" height="450" viewBox="0 0 1000 450"><g><path fill="#443F3B" d="M418.045 73.389h-12.755v-62.336h12.755v62.336zM468.808 73.474h-13.853l-10.727-23.904h-6.672v23.819h-12.756v-62.421h22.722c.338 0 .774.042 1.309.127.535.084 1.098.198 1.69.337.591.142 1.14.283 1.646.422.508.142.9.268 1.183.38 1.295.564 2.547 1.212 3.759 1.943 1.21.732 2.407 1.746 3.589 3.041 1.352 1.464 2.407 2.985 3.168 4.562.76 1.577 1.28 3.124 1.562 4.646.28 1.295.422 2.59.422 3.885 0 2.76-.663 5.604-1.985 8.532-1.325 2.928-3.647 5.519-6.968 7.771l11.911 26.86zm-15.626-43.163c0-1.125-.296-2.28-.887-3.463-.591-1.183-1.676-2.112-3.252-2.787-.282-.112-.633-.212-1.056-.295-.422-.085-.691-.127-.802-.127h-9.629v13.346h9.629c.111 0 .38-.056.802-.169.423-.111.773-.224 1.056-.338 1.576-.618 2.661-1.52 3.252-2.702.591-1.184.887-2.338.887-3.465zM510.109 73.389h-10.98c-.114 0-.367-.029-.761-.084-.394-.056-.731-.113-1.013-.168-1.013-.169-1.999-.338-2.956-.508-.958-.168-2-.479-3.125-.928-3.774-1.409-6.984-3.225-9.63-5.449-2.647-2.223-4.815-4.658-6.504-7.306-1.689-2.646-2.914-5.405-3.674-8.278-.761-2.872-1.141-5.686-1.141-8.446 0-.563.056-1.563.169-2.999.112-1.436.309-2.8.591-4.096.393-1.576.999-3.294 1.816-5.152.815-1.858 1.844-3.675 3.083-5.448 1.238-1.774 2.673-3.463 4.308-5.068 1.632-1.604 3.463-2.998 5.49-4.181 2.873-1.689 5.631-2.787 8.278-3.293.112 0 .38-.056.802-.169l1.436-.38c.534-.139 1.069-.253 1.604-.337.535-.084.972-.127 1.31-.127h10.896v12.67h-10.304c-.114 0-.451.071-1.015.211-.563.142-1.012.24-1.35.296-1.013.113-2.126.464-3.337 1.056-1.212.591-2.406 1.338-3.589 2.238-1.183.901-2.268 1.916-3.252 3.041-.985 1.127-1.731 2.28-2.238 3.463-.113.282-.267.606-.464.972-.198.366-.352.717-.465 1.055-.451 1.296-.732 2.38-.844 3.252-.114.874-.169 1.846-.169 2.914 0 1.521.197 3.112.591 4.773.394 1.661 1.042 3.252 1.942 4.772.9 1.52 2.07 2.943 3.505 4.266 1.437 1.322 3.196 2.436 5.28 3.335.225.113.591.253 1.098.423.507.168 1.027.324 1.563.464.535.142 1.056.268 1.563.379.506.114.928.168 1.267.168h10.22v12.669zM568.982 48.725c0 .113-.027.422-.084.928-.059.508-.113.93-.168 1.268-.283 1.973-.762 3.843-1.438 5.617-.676 1.773-1.576 3.562-2.701 5.364-1.014 1.634-2.381 3.209-4.098 4.73-1.719 1.52-3.338 2.674-4.857 3.463-.451.225-.916.465-1.393.719-.479.253-.973.492-1.479.717-1.521.619-3.111 1.083-4.773 1.395-1.662.309-3.334.464-5.023.464-.846 0-1.818-.057-2.916-.168-1.098-.114-2.098-.253-3-.423-1.855-.451-3.758-1.127-5.699-2.027-1.943-.902-3.844-2.196-5.701-3.886-1.52-1.351-2.859-2.842-4.014-4.477-1.154-1.632-2.041-3.237-2.66-4.814-.281-.676-.592-1.576-.928-2.703-.115-.281-.227-.604-.34-.972-.111-.366-.197-.689-.252-.971l-.211-1.183c-.086-.45-.156-.888-.211-1.309-.057-.424-.102-.774-.129-1.056l-.041-.508v-37.84h12.754v37.503c0 .114.014.198.041.253.029.057.043.142.043.254.057.451.154.944.297 1.479.141.535.295 1.028.465 1.478 1.35 3.154 3.18 5.393 5.488 6.715 2.311 1.324 4.617 1.984 6.928 1.984 1.236 0 2.504-.182 3.801-.548 1.295-.366 2.535-.956 3.717-1.775 1.184-.815 2.238-1.843 3.168-3.083.928-1.237 1.646-2.702 2.154-4.392.111-.281.238-.73.379-1.351.139-.619.211-.985.211-1.098v-37.419h12.67v37.672zM588.492 73.389h-12.754v-62.336h12.754v62.336zM648.549 23.638h-20.188v49.751h-12.754v-49.666h-20.355v-12.67h53.297v12.585zM395.978 151.676h-24.668c-.255 0-.822-.066-1.708-.19-.885-.126-1.645-.256-2.276-.38-2.277-.378-4.492-.761-6.641-1.137-2.153-.38-4.491-1.077-7.021-2.089-8.477-3.164-15.688-7.242-21.631-12.237-5.948-4.997-10.816-10.467-14.611-16.416-3.796-5.944-6.547-12.142-8.255-18.596-1.707-6.451-2.561-12.772-2.561-18.974 0-1.264.124-3.51.379-6.736.252-3.226.693-6.291 1.328-9.203.884-3.539 2.246-7.4 4.081-11.575 1.832-4.175 4.142-8.255 6.925-12.238 2.781-3.986 6.006-7.781 9.676-11.387 3.669-3.605 7.781-6.735 12.334-9.392 6.452-3.795 12.648-6.262 18.596-7.4.25 0 .854-.125 1.802-.379l3.225-.855c1.202-.313 2.404-.569 3.605-.758 1.202-.189 2.185-.286 2.941-.286h24.479v28.462h-23.147c-.257 0-1.017.161-2.277.476-1.268.316-2.28.539-3.037.665-2.277.254-4.778 1.043-7.496 2.37-2.722 1.33-5.408 3.007-8.063 5.028-2.659 2.026-5.094 4.302-7.306 6.833-2.216 2.531-3.891 5.122-5.029 7.778-.255.634-.602 1.362-1.043 2.183-.444.824-.793 1.612-1.042 2.372-1.015 2.912-1.647 5.346-1.898 7.305-.256 1.962-.379 4.144-.379 6.546 0 3.417.441 6.991 1.327 10.722.884 3.733 2.34 7.306 4.364 10.721 2.022 3.415 4.649 6.611 7.876 9.583 3.224 2.972 7.177 5.472 11.858 7.495.504.254 1.329.569 2.467.947 1.138.38 2.306.731 3.51 1.044 1.201.318 2.372.602 3.509.854 1.139.254 2.088.38 2.846.38h22.961v28.464z"/><path fill="#5B7A8C" d="M373.017 123.282c-.234 0-.495-.017-.767-.042.272.024-2.401 28.347-2.401 28.347.736.102 1.231.157 1.46.157h24.668v-28.462h-22.96z"/><path fill="#BE3B3B" d="M395.978 39.911v-28.462h-24.479l-.066.002c.748 9.631.689 19.112.395 28.633.512-.113.849-.172 1.002-.172h23.148z"/><path fill="#443F3B" d="M450.042 151.676h-44.752v-63.15h44.751v12.751h-31.831v12.406h15.83v12.835h-15.83v12.321h31.831v12.837zM498.585 151.676h-44.751v-63.15h12.92v50.314h31.831v12.836zM549.025 151.676h-44.75v-63.15h12.92v50.314h31.83v12.836z"/><path fill-rule="evenodd" clip-rule="evenodd" fill="#E99347" d="M604.418 106.03l25.086 9.448-59.379 37.982 26.27-37.982-19.514-8.95 46.162-29.274z"/></g><g fill-rule="evenodd" clip-rule="evenodd"><path fill="#D2D3D3" d="M676.046 450.088l-55.543.006c-.407-.783-.282-1.628-.262-2.453.207-8.233.903-16.439 1.385-24.656.555-9.463.902-18.894-.109-28.4-1.214-11.426-2.595-22.822-4.137-34.205-.156-1.161-.171-2.325.153-3.47 2.175-3.145 4.07-6.454 5.838-9.854 1.127-2.174 2.763-2.853 4.488-1.784 8.562 5.31 17.8 4.643 27.131 3.279 4.198-.611 8.365-1.444 12.586-1.924 1.078-.124 2.149-.216 3.235-.171 1.788.071 2.827.95 2.854 2.77.052 3.326.77 6.422 2.874 9.092.06 4.415-.603 8.778-.991 13.159-.902 10.182-1.706 20.378-2.814 30.539-.796 7.303.701 14.416 1.282 21.599.649 8.037 1.578 16.052 2.372 24.078.082.823.248 1.665-.342 2.395z"/><path fill="#2A7964" d="M364.07 450.023c-12.694.008-25.388.015-38.081.022-.877-.978-.674-2.189-.686-3.336-.062-5.995.398-11.988.396-17.966-.005-13.993.549-27.974.748-41.957.117-8.152.039-16.319.407-24.466.198-4.389.399-8.794.963-13.164.188-1.454.932-2.665 1.8-3.794 4.316-5.615 8.513-11.319 12.868-16.902 2.07-2.651 2.588-2.688 5.164-.511 3.358 2.842 6.594 5.826 9.758 8.632.4.008.488-.099.5-.309.067-1.096-.896-2.469.39-3.214 1.121-.648 2.221.311 3.245.81l5.038 2.766c2.094 1.026 2.775 2.645 2.352 4.937-1.74 9.42-3.529 18.83-5.277 28.25-1.929 10.401-3.847 20.806-5.834 31.197-.319 1.669-.213 3.312.063 4.965 2.238 13.393 4.296 26.815 6.523 40.208.214 1.294.639 2.632-.337 3.832zM324.015 450.054h-35.011c-.708-.788-.48-1.71-.377-2.615 1.584-13.891 3.275-27.767 4.878-41.654.41-3.559-.493-6.959-.978-10.398-2.396-16.982-4.893-33.952-7.369-50.922-.409-2.81.241-4.669 2.713-5.99 1.17-.626 2.19-1.519 3.396-2.098 1.438-.689 2.23-.189 2.379 1.357.214 2.224.029 4.457.098 6.768 2.527-4.612 5.261-8.994 7.85-13.461 1.541-2.656 2.502-2.785 4.94-.919 2.65 2.03 4.823 4.58 7.312 6.797 3.351 2.988 6.7 5.989 9.886 9.16 2.109 2.099 3.1 4.5 3.064 7.588-.126 10.9-.476 21.798-.714 32.692-.161 7.402.077 14.822-.407 22.203-.551 8.405-.114 16.814-.526 25.203-.225 4.573-.364 9.14-.42 13.713-.012.916-.01 1.847-.714 2.576z"/><path fill="#411010" d="M602.199 346.059c-.754-1.05-1.652-.311-2.459-.152-8.76 1.711-17.594 2.029-25.603 1.699 1.624-1.93 3.493-4.227 5.439-6.453 2.754-3.149 5.326-6.394 6.504-10.517 1.143-3.997-.111-7.192-3.235-9.753-2.151-1.764-4.668-2.862-7.277-3.739-2.528-.848-4.99-1.84-7.281-3.204-7.727-4.599-10.187-11.649-7.036-20.076 2.38-6.367 2.354-6.374.016-12.348-1.604-4.094-.747-8.021 1.05-11.815 2.131-4.503 5.295-8.232 8.906-11.616.724-.68 1.771-1.141.59-2.536-8.814-10.418-7.892-21.868-.971-32.717 3.851-6.034 8.822-11.037 14.359-15.515.624-.507 1.238-1.031 1.891-1.576-3.512-2.243-4.645-5.407-3.604-9.493.2-.786.447-1.143 1.297-1.097 10.511.561 19.539-3.962 28.607-8.361 6.569-3.186 12.958-6.934 20.362-7.854 5.885-.731 11.81-.145 17.702.208 10.486.625 20.871 1.912 30.85 5.448 4.178 1.479 8.137 3.376 11.619 6.16 7.031 5.624 9.439 12.845 7.243 21.541-.403 1.594-.144 2.251 1.431 2.925 6.031 2.581 11.436 6.126 15.706 11.201 5.765 6.851 7.587 14.663 5.367 23.329-.417 1.63-.062 2.489 1.204 3.521 4.492 3.659 8.294 7.934 10.82 13.223 3.576 7.489 2.921 14.551-2.39 20.973-1.159 1.4-.941 1.972.27 3.071 10.584 9.63 11.987 21.768 3.882 33.542-4.457 6.474-10.403 11.429-16.78 15.885-7.084 4.949-14.608 9.137-22.804 12.985 1.383-4.721 2.311-9.129 1.542-14.111-2.421 2.697-5.038 4.65-7.78 6.44-.668-.32-.836-.895-.811-1.57 1.613-2.016 3.871-3.314 5.715-5.097 1.855-1.793 1.807-3.501.966-5.596-2.728-6.808-7.823-11.205-14.376-14.064-2.064-.9-4.059-1.879-5.905-3.161-1.021-.422-1.818-1.18-2.726-1.772-6.903-5.729-6.613-11.213.825-16.203 2.366-1.586 4.882-2.873 7.566-3.782 1.72-.585 1.873-1.367.681-2.62-.286-.299-.511-.656-.739-1.005-3.9-5.913-3.211-10.721 2.47-14.941 1.862-1.385 2.284-2.613 1.618-4.79-2.25-7.35-.921-14.126 3.696-20.273.611-.813 1.635-1.7.174-2.69-3.313-2.062-6.299-4.557-9.315-7.015-2.302-2.765-4.575-5.551-5.1-9.284-.181-1.286-.979-1.709-2.118-1.507-3.642.646-7.314.298-10.973.396-1.268.033-2.474.325-3.654.747-5.114 1.821-10.296 3.349-15.733 3.868-1.84.178-3.301 1.083-4.399 2.566-1.245 1.681-2.737 3.136-4.236 4.582-.652.629-1.273 1.35-2.311 1.318-1.187-1.008-.14-2.037-.032-3.062 1.106-1.729 2.938-2.855 4.248-4.833-3.429-.37-6.546-.663-9.543-1.699-2.553-.882-4.963-1.979-6.941-3.827-3.347-3.126-7.653-2.828-11.558-2.615-2.845.155-4.489 3.182-5.762 5.764-.736 1.495-1.29 3.119-1.429 4.768-.528 6.227-2.377 11.882-7.068 16.613 2.274.803 4.22.542 6.144.203 10.269-1.807 20.114-4.689 28.425-11.394.324-.26.713-.427 1.11-.562.653-.168 1.289-.204 1.863.234.57 1.543-.769 2.037-1.595 2.7-6.699 5.37-14.387 8.62-22.716 10.463-.499.101-1.006.155-1.51.212-3.665.769-7.309 1.712-11.11 1.388-2.923-.247-3.733-.903-4.163-3.706-.172-1.126-.938-.745-1.468-.733-2.109.047-4.148-.209-6.119-1.006-2.783-1.128-3.04-2.25-.722-4.241 4.161-3.578 8.135-7.362 12.453-11.232-1.506-.104-2.808.017-4.093-.067-2.772-.181-5.203-1.164-7.063-3.275-1.685-1.909-1.457-3.106.8-4.337 3.442-1.876 7.066-3.375 10.59-5.081 2.074-1.004 2.113-1.272.284-2.626-6.391-4.732-6.128-13.128.53-18.88.753-.651 1.616-.97 2.525-.427 3.834 2.292 7.325.679 10.605-1.158 3.564-1.996 7.018-4.177 10.93-5.456 1.031-.337 1.229-.935.929-1.909-.57-1.836-.858-3.744-1.042-5.645-.169-1.747-.865-1.896-2.279-1.199-4.332 2.138-8.591 4.426-13.058 6.292-5.34 2.231-10.821 3.853-16.631 4.229-1.178.076-2.637-.379-3.102 1.339-.397 1.461.739 3.714 2.184 4.416.85.415 1.778.383 2.687.481.643.071 1.487.007 1.686.771.195.758-.567 1.153-1.088 1.521-3.067 2.167-5.999 4.512-8.719 7.088-5.862 5.55-10.956 11.676-13.438 19.546-2.36 7.483-.926 14.326 3.814 20.49 2.998 3.896 3.028 3.839-.508 7.394-3.607 3.625-6.872 7.511-8.58 12.441-1.488 4.294-1.018 8.251 2.419 11.485 1.661 1.564 1.642 2.99.394 4.806-1.464 2.127-2.625 4.452-3.364 6.95-1.967 6.672.048 11.98 5.958 15.688 2.485 1.561 5.218 2.592 7.961 3.588 2.36.857 4.628 1.912 6.665 3.385 5.169 3.735 6.483 8.97 3.882 14.767-2.009 4.482-4.945 8.264-9.021 12.031 3.615.004 6.642.188 9.654-.109 4.223-.418 8.458-.809 12.587-1.887.714-.186 1.472-.396 2.149.168.398.921.703 1.829-.506 2.42z"/><path fill="#0D211C" d="M324.015 450.054c.177-12.146.114-24.302.626-36.434.288-6.822.069-13.644.427-20.451.463-8.814.197-17.64.567-26.445.191-4.568.062-9.147.424-13.7.193-2.42-.626-4.225-2.25-5.747-6.187-5.801-12.443-11.527-18.622-17.338-1.226-1.153-1.734-.632-2.4.521-2.661 4.609-5.375 9.188-8.081 13.771-.406.688-.875 1.34-1.634 2.49v-10.746c-2.63 1.75-4.883 3.234-7.12 4.745-.585.396-.457 1.043-.375 1.606 1.395 9.599 2.813 19.194 4.209 28.792 1.42 9.764 2.756 19.54 4.26 29.29.944 6.13-.767 12.031-1.289 18.026-.69 7.928-1.805 15.818-2.75 23.722-.314 2.635-.669 5.266-1.004 7.896l-1.924-.005c-.808-.766-.449-1.709-.35-2.584 1.226-10.964 2.549-21.916 3.805-32.874.302-2.637.525-5.281.812-7.919.178-1.642-.455-2.62-1.929-3.338-3.506-1.708-6.984-3.471-10.561-5.025-.96-.611-2.132-.947-2.729-2.047-.51-.279-1.012-.573-1.53-.836-4.675-2.37-4.698-2.372-3.55-7.342 3.514-15.212 7.08-30.413 10.531-45.639.429-1.892 1.876-2.521 3.146-3.413 2.243-1.578 4.54-3.083 6.877-4.519 1.111-.683 1.539-1.459 1.529-2.805-.04-5.407.149-10.814.075-16.221-.022-1.654.574-2.558 1.899-3.39 2.246-1.409 4.379-3 6.56-4.513.853-.741 1.77-.663 2.716-.221.895 1.249-.176 1.794-.923 2.354-1.663 1.244-3.384 2.423-5.177 3.461-1.942 1.124-2.707 2.621-2.666 4.893.114 6.31.065 12.625.023 19.371 1.939-3.398 3.759-6.451 5.52-9.539 1.797-3.151 2.484-3.223 5.149-.662 4.486 4.311 9.286 8.287 13.627 12.738.151.127.164.426.466.394-.228-.122-.347-.338-.482-.558-2.513-4.524-4.889-9.107-7.322-13.658-1.41-2.638-1.329-3.431 1.002-5.088 2.622-1.863 3.777-4.209 3.854-7.389.042-1.77.047-3.67 1.101-5.284.806-.385 1.541-.342 2.166.355.551 3.761-.177 7.415-1.1 11.013-.31 1.207-1.57 1.904-2.578 2.638-1.357.988-1.705 2.126-.856 3.654 3.472 6.242 6.723 12.604 10.238 18.815.908-.177.955-.952 1.227-1.493 2.248-4.455 4.436-8.943 6.744-13.37.959-1.838.975-3.473-.832-4.563-5.403-3.26-7.446-8.146-7.291-14.223.028-1.118-.701-2.287.278-3.327.627-.347 1.257-.343 1.889-.017 1.759 2.374 1.108 5.267 1.593 7.905.305 1.66.814 2.894 2.137 3.974 1.728 1.409 3.282 3.029 5.035 4.424 1.619 1.288 2.099 2.797 1.194 4.812-.986 2.196-1.961 4.379-3.354 6.324.031.151-.394.18-.167.354.256.195-.141.098.079-.182 2.281-3.621 5.035-6.864 7.604-10.244 1.697-2.233 2.568-2.392 4.647-.393 2.523 2.424 5.337 4.526 7.711 7.076.705-.204-.08-.553.066-.806-1.13-4.506-2.025-9.057-2.969-13.593-.407-1.954-1.318-3.273-2.976-4.304-2.319-1.439-4.578-2.982-6.819-4.543-.777-.54-1.833-.912-1.807-2.154.67-.944 1.516-1.125 2.529-.589 2.751 1.868 5.4 3.923 8.29 5.544 2.136 1.199 2.923 2.864 3.326 5.096.724 4.006 1.662 7.972 2.47 11.961.212 1.047.664 1.772 1.656 2.299 3.444 1.832 6.664 4.317 10.312 5.471 2.889.914 2.8 2.643 3.111 4.701 2.409 15.948 4.807 31.898 7.309 47.832.297 1.888-.226 2.523-2.011 2.656-.967.071-2.022-.051-2.897.577-1.009 1.029-2.459.548-3.618 1.066-2.537.472-5.102.765-7.649 1.175-1.528.246-2.279 1.057-2.613 2.561-.823 3.697-1.053 7.351-.429 11.135 2.122 12.894 4.246 25.787 6.233 38.7.176 1.143.499 2.309-.299 3.369l-2.062-.061c-.647-7.28-2.233-14.419-3.281-21.643-1.19-8.205-2.873-16.346-3.854-24.573-.467-3.92 1.121-7.825 1.84-11.724 3.178-17.209 6.433-34.403 9.657-51.605.178-.947.182-1.869-.798-2.41-3.038-1.681-6.09-3.338-9.539-5.225l1.02 5.789c-3.146-1.829-5.12-4.407-7.601-6.334-1.899-1.478-3.632-3.174-5.384-4.83-.839-.795-1.35-.918-2.148.143-4.694 6.249-9.501 12.413-14.182 18.668-1.003 1.341-.855 3.132-1.182 4.674-1.045 4.925-.894 9.834-1.01 14.739-.32 13.563-.202 27.139-.719 40.691-.317 8.323.009 16.653-.491 24.951-.376 6.242-.198 12.477-.41 18.711-.656.007-1.314.01-1.972.013z"/><path fill="#FBC689" d="M596.051 450.078c-1.358-.002-2.718-.006-4.078-.012-1.49-.591-2.301-1.802-3.049-3.149-3.032-5.465-3.697-11.526-4.539-17.551-2.328-16.667-4.79-33.312-7.089-49.979-.262-1.893-1.077-3.217-2.771-4.146-2.557-1.401-5.076-2.871-7.596-4.339-1.671-.975-2.406-2.276-1.747-4.159.661-1.889 2.181-1.769 3.733-1.482 1.149.213 2.323.2 3.477.389.628.102 1.403.53 1.872-.091.493-.651-.195-1.24-.503-1.785-1.35-2.395-2.751-4.761-4.062-7.178-.446-.827-.784-1.642-.375-2.606.98-2.307 3.009-2.65 4.611-.727 1.591 1.912 2.776 4.138 4.643 6.146 1.229-1.572 1.427-3.418 2.042-5.074.842-2.265 4.265-3.664 6.386-2.582 1.194.609.957 1.635.783 2.612-.537 3.024-1.213 6.021-1.857 9.524 1.986-2.497 3.718-4.576 5.44-6.659 1.11-1.339 2.316-1.812 3.893-.714 1.713 1.193 2.079 2.401 1.058 4.264-1.041 1.896-2.449 3.567-3.673 5.807 1.621-.075 2.894-.624 4.185-.976 1.879-.515 3.08.056 3.592 1.98.193.726.365 1.456.588 2.171.539 1.715-.161 2.689-1.777 3.234-2.842.958-5.65 2.057-8.549 2.803-2.262.582-2.576 1.648-2.081 3.77 3.449 14.766 6.917 29.528 10.302 44.311.818 3.572 1.73 7.125 2.511 10.706 1.218 5.581-1.022 10.263-4.135 14.656-.294.408-.815.568-1.235.836z"/><path d="M265.191 261.294c-1.429-3.255-1.49-6.781-1.914-10.215-1.091-8.845-1.805-17.712-.296-26.591.663-3.905 1.765-7.624 4.879-10.383.465-.412.756-.769.502-1.482-1.531-4.282-.117-8.199 1.71-11.984 5.533-11.465 15.298-17.764 26.818-22.015 11.186-4.127 22.454-2.734 33.724-.781 7.077 1.228 13.822 3.557 20.041 7.238 7.978 4.72 13.991 11.222 17.399 19.89 1.911 4.86 3.971 9.639 6.128 14.393 2.759 6.081 4.084 12.452 1.963 19.861l-4.436-10.202c-1.157 3.827-2.056 7.482-3.573 10.955-.397.909-.07 1.819.251 2.67 2.611 6.938 1.963 13.469-1.877 19.884-1.946 3.252-3.195 6.92-4.76 10.399-.798-.509-.788-1.287-.701-2.091.311-5.123 2.856-9.502 5.064-13.892 1.926-3.832 1.364-7.292.006-11.27-1.584 2.451-2.945 4.778-4.667 6.849-1.571 1.473-1.919.108-2.375-1.019-1.054-6.772-3.263-13.046-7.652-18.458-1.233-1.521-2.504-2.142-4.5-1.87-4.236.58-8.092 1.862-11.232 4.898-.978.945-2.096 1.707-3.559 1.47-2.349-.382-3.333-3-1.752-5.031 1.869-2.401 4.347-4.101 7.138-5.315 1.346-.585 2.742-1.052 4.565-1.7-5.301-2.78-10.524-3.917-15.883-4.724-10.377-1.562-20.131 1.561-30.011 3.788-.653.147-1.267.47-1.729.962-.908.965-2.208 1.991-1.975 3.299.203 1.137 1.839.748 2.827 1.039 3.391.998 6.528 2.513 9.412 4.527 1.816 1.269 2.361 3.276 1.459 4.768-.923 1.527-2.742 1.827-4.855.529-3-1.843-6.011-3.54-9.588-4.014-2.759-.365-4.774.48-6.407 2.827-2.118 3.043-3.579 6.607-6.878 8.77-1.149.751-.703 2.105-.528 3.252 1.488 9.711 2.971 19.422 4.349 29.146.081.576.222 1.147.177 1.736-.081 1.061-.625 1.665-1.626 1.052-3.291-2.014-7.129-3.519-7.832-8.084-.202-1.313-.839-2.544-1.046-3.853-.457-2.899-1.871-5.117-4.345-6.673-.82-.833-2.08-1.259-2.415-2.555z"/><path fill="#010000" d="M507.483 302.78c-3.94-1.604-5.421-1.655-13.321-.41l3.347 1.796c.28.309.318.619.003.931-.781 1.461.778 1.33 1.292 1.663 7.388 4.78 13.196 10.873 16.356 19.233.211.556.861 1.062-.196 2.307-3.841-10.52-10.947-17.774-20.85-22.848 1.884 5.83 4.212 11.229 4.698 17.121 1.019 12.35 3.332 24.611 2.584 37.074-.145 2.398.347 3.354 3.051 3.301 5.679-.11 10.475 3.735 12.043 9.738 2.577 9.866 2.133 19.782-.353 29.616-.438 1.731-.851 3.896-3.05 4.131-1.966.208-2.931-1.603-3.969-3.008-.328-.442-.446-1.077-1.329-1.347-.779 7.451-3.339 14.329-6.369 21.056-.243.635-.194 1.374-.684 1.924-1.285 1.581-2.256 3.531-4.569 3.916-.814-.192-1.05-.717-.858-1.489 6.404-6.918 8.884-15.544 10.203-24.511 1.346-9.148-.768-17.875-4.406-26.275-.553-1.279-1.403-1.545-2.6-.996-9.975 4.579-20.213 2.788-30.39 1.102-4.205-.695-7.67-3.131-10.754-6.038-2.635-1.924-4.466-4.396-5.433-7.555-.664-2.171-1.069-2.237-2.907-.763-1.561 1.25-2.983 2.661-4.219 4.236-.981 1.251-1.907 2.547-1.542 4.309.125.599-.007 1.176-.597 1.518-.655.378-1.149-.04-1.533-.455-1.703-1.843-3.267-1.054-4.798.213-.902.747-1.638 1.673-2.306 2.617-3.305 4.677-7.575 8.378-11.948 11.979-4.867 4.006-5.168 4.842-2.822 10.57 2.559 6.25 5.519 12.297 9.677 17.683.975 1.265 2.061 2.396 3.404 3.267 2.883 1.869 5.669 1.3 7.531-1.562.782-1.202 1.371-2.523 1.415-3.957.127-4.149.321-8.272-1.008-12.356-1.969-6.045-.813-12.027 1.054-17.888.61-1.914 1.285-1.946 2.582-.415-.424 3.371-1.698 6.574-1.812 10.024-.095 2.854.017 5.627.994 8.342 1.355 3.771 1.229 7.703 1 11.6-.111 1.891.443 3.343 1.501 4.829 3.935 5.535 8.606 10.315 14.142 14.252.45.668.911 1.337.06 2.042-1.108.312-1.899-.373-2.701-.917-4.389-2.98-8.427-6.341-11.458-10.768-.409-.686-1.031-1.244-1.272-2.036.085-1.327-1.144-1.939-1.487-3.042-.267.155-.459.201-.533.32-3.791 6.045-8.438 6.626-13.363 1.383-5.61-5.972-8.85-13.382-11.952-20.831-.413-.992-.667-2.052-1.1-3.034-.921-2.089-.5-3.909 1.04-5.484 1.276-1.305 2.569-2.609 3.976-3.766 4.446-3.659 8.538-7.639 12.042-12.234 1.815-2.381 3.785-4.754 7.355-4.224.878.13 1.042-.688 1.371-1.214 2.337-3.748 5.459-6.691 9.245-8.911 1.476-.864 2.25-2.221 2.899-3.632 5.68-12.323 13.11-23.644 20.152-35.184 4.244-6.956 9.703-12.825 16.311-17.614.45-.325.951-.801 1.088-1.299.79-2.885 3.006-3.941 5.583-4.741 4.612-1.43 9.168-3.2 14-.861 0 .766-.596.819-1.129.953-2.627-.163-5.24-.88-7.893-.233-.726.209-1.438.635-1.904.443.575.299 1.363-.329 2.195-.479 5.994-.43 11.312.997 15.466 5.623-.059.45-.224.774-.77.642-2.475-1.491-4.866-3.128-7.673-4-4.623-1.436-9.163-1.148-13.657.522-.92.137-1.445.656-1.544 1.59-.299 1.326.685.798 1.198.769 2.484-.137 4.962-.351 7.445-.49 1.784-.104 3.451.252 4.828 1.497.179.263.155.508-.072.735z"/><path fill="#0E0D0E" d="M691.029 343.612l.607 1.661c2.123 7.46 4.243 14.921 6.368 22.379.182.635.396 1.26.593 1.891.407.351.721.77.918 1.271 2.114 7.478 4.233 14.954 6.195 22.474.337 1.587.146 2.993-1.346 3.956-1.434-.497-1.569-1.851-1.887-3.012-4.114-14.993-8.297-29.969-12.383-44.97-1.145-4.195-3.146-7.693-7.372-9.464-2.959-1.238-3.642-.875-3.479 2.266.25 4.812.639 9.615.441 14.439-.044 1.091.286 2.434-1.271 2.9-1.008-.052-1.714-.647-2.378-1.319-2.821-1.78-2.857-4.666-2.924-7.504-.083-3.514-.161-3.764-3.705-3.332-6.185.754-12.334 1.797-18.514 2.596-8.15 1.055-16.097.792-23.268-4.013-1.789-1.199-2.936-.229-3.719 1.437-1.589 3.381-3.049 6.844-5.864 9.468-.572.724-1.112 1.506-2.236 1.211-1.098-.405-1.346-1.395-1.595-2.364-1.224-4.75-2.178-9.565-3.47-14.297-.496-1.812.05-3.047 1.684-3.93 1.084-.586 2.042-1.385 3.059-1.936-6.147.857-9.036 4.961-10.58 10.614-1.577 5.767-2.838 11.629-4.953 17.245-.763.847-1.567 1.485-2.689.536-.429-.868-.096-1.713.091-2.562.336-1.305 1.188-2.389 1.592-3.669l3.252-11.525c.627-.728.192-1.61.354-2.405.213-3.494 2.115-6.11 4.67-8.19 2.841-2.315 6.177-3.6 9.928-3.503 2.685.071 5.511-.947 7.97.978 1.131.604 2.249 1.232 3.485 1.611 7.62 3.194 15.386 5.587 23.806 5.44 4.548-.08 8.687-1.051 12.398-3.689 1.035-.538 1.781-1.426 2.629-2.195.894-.835 1.94-.762 3.033-.543 3.729.748 7.418 1.674 11.169 2.337 3.275.579 6.021 2.275 8.137 4.883.663.818 1.506 1.591 1.254 2.829z"/><path fill="#F8A348" d="M704.413 397.087c.427-1.039 1.212-1.988.781-3.232 1.892-5.327 4.173-10.497 6.361-15.702 1.105-2.625 1.087-2.729-1.697-3.652-2.604-.864-5.188-1.782-7.843-2.492-1.113-.298-2.279-.545-3.124-1.449-.384-.257-.374-.627-.293-1.016.972-2.283 2.096-4.514 2.87-6.863.626-1.896 1.478-2.334 3.191-1.343.613.355 1.35.494 2.471.887-1.054-2.015-1.826-3.639-2.736-5.183-.602-1.02-.449-1.693.555-2.239.145-.078.275-.187.41-.286 5.175-3.882 5.175-3.882 8.695 1.551 1.123.206.644-.489.546-.971-.192-1.735-.377-3.472-.585-5.204-.144-1.213-.002-1.886 1.57-1.514 2.26.536 4.679.523 6.849 1.269 2.677.918 1.055 4.238 2.897 6.048 1.729-2.015 3.517-3.966 5.142-6.046.875-1.123 1.49-1.109 2.249-.01l.164.188c3.924 4.414 3.922 4.414.607 9.282-1.015 1.491-2.021 2.987-3.294 4.869 2.577-.113 4.687-.157 6.784-.319 1.182-.092 1.739.28 1.604 1.499v.25c.241 5.405.339 5.852-4.951 6.998-5.617 1.219-7.902 4.133-9.047 9.759-3.56 17.493-7.821 34.843-11.802 52.25-.406 1.777-.591 3.616-1.142 5.344-1.503 4.722-5.391 7.256-10.283 6.965-1.346-.08-2.541-.517-3.243-1.584-2.241-3.41-4.021-7.057-4.911-11.07-.176-.786-.301-1.652.217-2.415-.796-1.481-.238-2.934.084-4.392 2.295-9.523 5.86-18.624 9.274-27.775.348-.933.648-1.9 1.63-2.402zM598.946 357.586c1.111 1.574-.972 2.235-.998 3.484-.28.915-1.43 1.633-.63 2.794.8-.019 1.577-.132 2.273-.568 1.247-.846 1.582.305 1.845 1.004.901 2.395 1.563 4.873 2.302 7.324.393 1.303-.354 2.034-1.458 2.478-1.919.771-3.9 1.36-5.859 2.008-.972.233-1.857.719-2.809 1.014-3.246.86-3.223.857-2.583 4.141.237 1.218.58 2.399.964 3.575.228 1.264.516 2.513.773 3.768 2.97 12.402 5.863 24.817 8.657 37.257.45 1.252.195 2.59.47 3.864.229 1.392.294 2.835.716 4.166 1.804 5.684-.871 10.34-3.283 15.076-.735 1.444-2.036 1.177-3.275 1.11.954-1.459 2.102-2.825 2.824-4.389 1.979-4.284 2.594-8.544 1.382-13.419-4.477-18.007-8.476-36.135-12.708-54.201-.349-1.485.108-2.014 1.462-2.428l10.425-3.4c1.15-.351 1.378-.792 1.094-1.943-1.15-4.66-1.1-4.625-5.733-3.391-1.078.288-2.154.911-3.62.519 1.57-2.366 3.037-4.652 4.589-6.883 1.044-1.497.665-2.394-.739-3.493-1.533-1.2-2.292-.567-3.223.603-2.082 2.626-4.214 5.218-6.802 7.544.707-3.719 1.272-7.472 2.183-11.138.457-1.836-.219-1.969-1.651-1.937-2.301.052-4.115.424-4.606 3.271-.324 1.887-.943 3.816-2.12 5.714-1.924-2.629-3.718-5.096-5.529-7.549-.489-.659-.817-2.021-1.976-.903-.846.815-2.443 1.413-1.316 3.215 1.587 2.532 3.033 5.153 4.51 7.754.482.852.867 1.76 1.438 2.932-2.765.235-5.149-.468-7.56-.752-1.112-.131-2.236-.481-2.633.997-.326 1.214-.557 2.379.953 3.197 2.918 1.583 5.671 3.494 8.656 4.932 1.794.862 2.359 2.195 2.594 3.859 1.552 11.062 3.034 22.133 4.611 33.19 1.264 8.844 2.482 17.697 4.016 26.495.742 4.261 2.375 8.301 5.402 11.591-2.196.546-3.322-.632-4.272-2.428-2.989-5.643-3.771-11.834-4.64-18.009-2.366-16.788-4.741-33.572-7.098-50.36-.174-1.24-.69-2.085-1.857-2.709-2.785-1.492-5.419-3.284-8.252-4.667-1.97-.961-2.539-2.172-2.285-4.295.538-4.499.438-4.521 4.923-3.778 1.131.188 2.246.539 3.747.064-1.532-2.67-2.936-5.283-4.512-7.791-.864-1.376-.709-2.251.451-3.399 4.138-4.098 4.087-4.142 7.5.652.762 1.071 1.569 2.109 2.442 3.279.247-.348.466-.517.481-.699.427-5.124 3.855-5.902 8.107-5.836 3.422.052 3.427-.105 2.725 3.287-.3 1.454-.614 2.909-.992 4.695 1.859-1.121 2.63-2.807 3.812-4.085.738-.796 1.246-.839 2.044-.161 1.516 1.291 3.097 2.51 4.648 3.758z"/><path fill="#FCC07C" d="M366.132 450.084c-1.29-8.367-2.557-16.739-3.874-25.102-1.033-6.561-2.114-13.115-3.199-19.67-.59-3.563.733-6.894 1.183-10.332.129-.988.964-1.048 1.685-1.153 3.039-.44 6.083-.846 9.125-1.263 1.51-.551 1.979.388 2.13 1.586.24 1.903.277 3.838.018 5.729-.421 3.067-.355 6.14-.393 9.217-.153 12.801-.753 25.59-1.018 38.389-.02.913-.037 1.846-.747 2.565l-4.91.034zM278.605 397.491c4.127 1.957 8.24 3.946 12.391 5.851 1.227.563 1.353 1.311 1.202 2.57-1.751 14.707-3.425 29.423-5.119 44.137-2.534.005-5.066.009-7.599.013-.938-1.039-.772-2.336-.758-3.561.1-8.894-.438-17.776-.666-26.659-.17-6.641-.171-13.289-.39-19.932-.027-.875-.564-2.082.939-2.419z"/><path fill="#3A5D79" d="M460.029 450.054h-42.036c-.396-3.324 2.386-8.722 5.461-10.188 5.414-2.579 10.812-5.189 16.005-8.188 1.932-1.115 3.264-.901 4.676.896 3.428 4.367 7.96 7.529 12.379 10.78 2.304 1.694 3.684 3.762 3.515 6.7z"/><path fill="#F8A241" d="M265.191 261.294l2.25 1.797c-2.297 1.804-3.983 3.787-3.798 7.08.248 4.401 2.096 7.304 6.453 8.283 2.569.578 4.054 1.829 5.018 4.217.93 2.305 2.178 4.487 3.383 6.677 5.209 9.473 13.987 13.631 23.969 15.28 12.216 2.02 24.539 1.802 36.708-.747 7.242-1.518 13.264-4.898 16.251-12.207 1.686-4.124 2.465-8.431 2.925-12.849.821-7.895.293-15.801.482-23.699.029-1.213-.305-2.525.701-3.557.513.166.125 2.604 1.5.595 1.624.414 1.199 1.812 1.239 2.847.204 5.214.02 10.417-.68 15.595-.136.788-.133 1.565.163 2.324-.476 3.961-.814 7.939-1.448 11.872-1.675 10.385-7.137 17.738-17.363 21.141-.847.128-1.724.147-2.456.683-1.299 1.435-3.146 1.33-4.793 1.498-2.38.243-4.785 1.423-7.201.131l-1.909-.062c-1.777 1.723-3.879 1.172-5.948.843-.577-.791-1.362-.444-2.096-.382-1.897 1.247-4.052.828-6.045.649-2.655-.237-5.487.228-7.916-1.386l-2.914-.329c-3.62-1.178-7.264-2.251-10.827-3.638-5.845-2.272-10.143-6.225-13.5-11.354-1.045-1.596-2.097-3.221-2.874-4.952-1.571-3.507-3.285-6.224-7.56-7.543-7.819-2.413-8.17-15.182-1.714-18.807z"/><path fill="#050707" d="M460.029 450.054c-.686-4.08-3.734-6.206-6.788-8.408-3.85-2.778-7.554-5.755-10.41-9.613-.566-.765-1.012-.885-1.837-.431-5.839 3.201-11.81 6.142-17.767 9.118-2.869 1.431-3.641 4.607-4.668 7.421-.228.624-.379 1.274-.566 1.913-.669 0-1.607.495-1.18-.999 1.333-4.679 3.128-8.765 8.13-10.906 5.175-2.216 10.074-5.076 15.104-7.631.863-.44 1.113-1.006 1.365-2.014.758-3.032 1.938-5.961 2.953-8.93.756.296 1.29.827 1.649 1.546-3.829 9.368-3.431 7.742 2.335 13.711 2.728 2.82 5.907 5.076 9.267 7.556.649-3.247.227-6.492 1.895-9.262.784-.47.184-.942-.001-1.411 2.468-4.657 5.642-5.471 9.942-2.551.345.234.692.47.993.757 2.422 2.308 4.842 4.598 8.573 2.599.132-.069.346-.066.492-.012 3.551 1.341 6.003-.258 8.5-2.684 1.963-1.908 4.545-3.071 7.512-2.06.045.582.385.836.943.848 2.333 1.67 2.352 4.454 3.201 6.885 2.89-3.269 3.198-5.308 1.399-8.899-.296-.594-.697-1.148-.57-1.87l.926-1.592c.756 1.382 1.453 2.8 2.286 4.135.82 1.312 1.524 2.566.546 4.095-.552.862.039 1.623.315 2.362 1.794 4.83 3.148 9.793 4.441 14.773.218.837.744 1.934-.989 1.557-1.208-.508-1.231-1.696-1.484-2.708-.962-3.858-2.067-7.67-3.427-11.624-1.656 2.147-2.521 4.221-2.569 6.876-.044 2.545.106 5.384-2.088 7.426l-1.541.029c-.376-.561-.164-1.125.023-1.669 1.738-5.037 1.046-10.019-.451-14.935-1.175-3.861-3.27-4.446-6.489-1.99l-1.67 1.493c-1.79 1.354-2.217 2.728-.883 4.815 1.211 1.895 1.071 4.247.256 6.278-.751 1.873-.261 2.928 1.289 3.923.715.46 1.653.917 1.511 2.072l-1.973.007c-1.008.206-2.02-1.91-3.024.005l-1.421-.035c-2.368-.787-4.732-.581-7.096.025l-1.424-.009c-1.029-1.941-2.318-2.354-4.035-.754-.414.386-1.028.513-1.556.747l-2.074.027c.133-1.789 1.82-2.235 2.862-3.206.838-.782 1.155-1.415.703-2.566-.954-2.424-.892-4.879.403-7.194.627-1.122.481-1.996-.416-2.888-1.356-1.35-2.706-2.693-4.451-3.546-2.355-1.152-3.911-.756-4.78 1.682-1.744 4.887-2.757 9.894-1.174 15.077.259.85.818 1.665.445 2.626l-1.457.013z"/><path fill="#BE3C3C" d="M461.487 450.042c-3.12-6.354-1.873-12.62.527-18.79.792-2.034 2.557-2.479 4.56-1.567 2.564 1.166 4.441 3.17 6.322 5.181.608.65.389 1.092-.028 1.715-1.759 2.638-1.957 5.44-.55 8.271.502 1.009.142 1.451-.621 2.028-1.314.995-2.539 2.114-3.801 3.18l-6.409-.018zM490.497 450.044c-.362-.329-.695-.699-1.092-.981-2.001-1.413-4.048-2.419-2.151-5.723 1.193-2.076.565-4.94-1.231-6.98-.821-.933-.673-1.492.104-2.246 1.487-1.441 2.886-2.982 4.724-4.009 2.846-1.593 4.799-1.067 5.855 2.049 2.004 5.903 2.965 11.904.206 17.902l-6.415-.012z"/><path fill="#B2B2B2" d="M616.214 357.734l1.831-.998c-.082 5.161 1.162 10.176 1.705 15.268.552 5.177 1.455 10.306 1.806 15.511.404 6.024 1.115 12.026 1.501 18.052.193 3.037.184 6.125-.12 9.151-.48 4.784-.638 9.579-.912 14.37-.374 6.533-1.02 13.054-1.053 19.607-.002.468-.305.932-.469 1.398-1.231.182-1.602-.403-1.539-1.57.252-4.641.413-9.287.684-13.927.203-3.474.56-6.938.783-10.41.361-5.628.896-11.258.928-16.89.023-4.21-.547-8.432-1.002-12.634-.899-8.316-1.909-16.622-2.858-24.933-.122-1.075-.225-2.142-.865-3.065-.955-1.278-.536-2.815-.803-4.227.199-1.56-1.335-3.267.383-4.703zM676.038 358.085c.866-.05 1.525.288 1.972 1.039.465 1.076.059 2.21.218 3.307-.079 1.276.325 2.655-.77 3.72-1.005 3.864-.932 7.857-1.348 11.788-.954 8.992-1.719 18.004-2.472 27.015-.405 4.835.688 9.589 1.1 14.377.645 7.518 1.522 15.017 2.281 22.526.225 2.229.253 4.486.615 6.69.257 1.558-.398 1.712-1.589 1.541-.979-6.29-1.396-12.643-2.042-18.969-.595-5.832-1.263-11.658-1.894-17.485-.535-4.944-.502-9.861.205-14.81.609-4.25.803-8.559 1.198-12.839.632-6.826 1.289-13.653 1.918-20.48.228-2.471.406-4.946.608-7.42z"/><path fill="#0F0E0F" d="M677.458 366.15l.175-4.044c.295-.601-.033-1.332.414-2.015 1.242.317 1.269 1.423 1.477 2.302 4.809 20.35 9.455 40.737 14.312 61.074.294 1.23.204 2.472.219 3.712l-.627 4.474c-.42-.017-.751-.037-.88-.604-4.692-20.464-9.4-40.922-14.119-61.379-.273-1.186-.647-2.346-.971-3.52zM616.431 362.616c.216 1.342.575 2.677.202 4.049-4.912 21.021-9.825 42.041-14.738 63.062-.641-1.081-.879-2.27-.923-3.508-.363-1.822-.271-3.63.157-5.428 4.502-18.871 8.796-37.79 13.28-56.663.135-.567.245-1.143.429-1.696.179-.535.276-1.333.971-1.262.756.077.269 1.01.622 1.446z"/><path fill="#F8A342" d="M371.044 450.05c-.203-9.635.432-19.258.643-28.884.127-5.798.053-11.615.379-17.411.172-3.06.53-6.105.459-9.179-.024-1.079-.017-2.047-1.475-2.012 1.091-.61 2.288-.445 3.457-.486-.39 16.42-.774 32.839-1.178 49.258-.057 2.32-.335 4.639-.274 6.952.045 1.623-.53 2.099-2.011 1.762zM278.605 397.491c-.928 1.237-.077 2.546-.067 3.797.084 10.873.06 21.757.589 32.613.264 5.395.253 10.775.354 16.16-1.889.45-1.964-.698-1.992-2.106-.147-7.376-.343-14.75-.542-22.127-.264-9.855-.547-19.711-.821-29.567l2.479 1.23z"/><path fill="#3A5C78" d="M498.452 450.026c1.114-2.979 1.548-6.053 1.443-9.23-.087-2.609 2.266-4.068 3.065-6.966 2.425 5.648 3.466 11.028 5.061 16.227-3.191-.01-6.379-.02-9.569-.031z"/><path fill="#111" d="M510.165 303.541c3.459 1.8 6.589 4.113 9.749 6.361 2.439 1.736 2.84 4.532 3.488 7.147-2.243-6.402-8.177-8.854-13.09-12.355l-.793-.59c-.036-.475.094-.761.646-.563z"/><path fill="#161616" d="M509.97 295.642l1.022-.436c3.592 1.134 6.946 2.744 10.012 4.943.096.485-.207.68-.593.813-3.812-1.116-7.421-2.642-10.441-5.32zM520.374 300.686l.63-.536c3.212 1.738 4.539 5.333 7.347 7.477.199.15.483.607.118.831-.808.495-1.119-.219-1.486-.735-.665-.451-1.685-.072-2.184-.923-.889-1.597-2.028-3.002-3.323-4.288-.518-.516-1.18-.95-1.102-1.826z"/><path fill="#151515" d="M518.408 318.841c-1.963-3.938-4.799-6.994-8.882-8.792-.026-.58.281-.671.759-.514 4.268 1.478 6.937 4.573 8.696 8.593-.16.262-.196.625-.573.713z"/><path fill="#385A76" d="M469.969 450.03c.623-.541 1.219-1.117 1.874-1.614 2.327-1.768 3.324-1.323 3.716 1.621l-5.59-.007z"/><path fill="#365670" d="M476.983 450.046c.043-.986.726-.909 1.417-.882 1.408.055 2.819.152 4.181-.371 1.195-.46 1.463.252 1.498 1.228l-7.096.025z"/><path fill="#151515" d="M510.285 309.535l-.759.514c-2.457-.911-4.724-2.204-7.004-3.473-.048-.6.24-.732.76-.549l7.003 3.508z"/><path fill="#202020" d="M524.95 306.595c.607.503 1.627.262 2.032 1.127-.91.483-1.714.855-2.692-.084-.979-.937-2.2-1.619-3.313-2.414-.188-.216-.199-.442-.039-.678 1.903-.426 2.947.831 4.012 2.049z"/><path fill="#1A1A1A" d="M503.282 306.027l-.76.55c-1.749-.227-3.464-.57-5.011-1.48l-.003-.931c1.926.619 3.85 1.241 5.774 1.861z"/><path fill="#34536B" d="M485.5 450.056c.241-.687-.63-1.406.201-2.261l2.823 2.256-3.024.005z"/><path fill="#111" d="M518.408 318.841l.573-.713c.653 1.241 1.331 2.479.706 4.394-.895-1.366-.98-2.564-1.279-3.681z"/><path fill="#2B2B2B" d="M510.165 303.541l-.646.563c-.778-.288-1.493-.674-2.036-1.324l.072-.737c1.039.206 1.872.77 2.61 1.498z"/><path fill="#323232" d="M516.958 302.155l.563-.548c1.234-.256 1.945.286 2.24 1.466-.094.391-.22.732-.739.545-.828-.289-1.532-.754-2.064-1.463z"/><path fill="#121212" d="M494.084 300.268c-.675-1.686-.041-2.101 1.544-1.59l-1.544 1.59z"/><path fill="#191919" d="M519.022 303.618l.501-.53c1.069-.119 1.515.431 1.532 1.435l-.079.701-1.954-1.606z"/><path fill="#7BCAF1" d="M653.495 362.133c0-.998.042-1.998-.009-2.993-.107-2.065.73-3.099 2.904-3.062 2.093.034 2.74 1.136 2.689 3.028-.051 1.994.092 3.997-.04 5.985-.132 2.016.717 2.647 2.632 2.534 2.07-.122 4.155-.021 6.233-.026 1.896-.004 2.67.992 2.665 2.818-.006 1.846-.825 2.779-2.713 2.759-2.245-.025-4.49.042-6.734-.018-1.496-.039-2.105.58-2.068 2.072.059 2.326-.042 4.657.029 6.982.058 1.854-.803 2.504-2.567 2.48-1.722-.025-2.987-.449-3.01-2.448-.026-2.243-.083-4.491.011-6.733.071-1.699-.528-2.443-2.29-2.362-2.074.098-4.158-.011-6.235.032-1.75.036-2.938-.521-2.982-2.482-.043-2.051.959-3.095 3.016-3.098 2.08-.005 4.165-.103 6.235.025 1.744.107 2.438-.498 2.254-2.255-.112-1.067-.021-2.157-.02-3.238z"/><path fill="#ED3E3E" d="M350.568 350.125c2.326.003 4.655-.065 6.978.021 2.497.093 3.436 1.133 3.464 3.575.029 2.46-.88 3.628-3.346 3.686-4.649.111-9.306.123-13.954-.01-2.623-.074-3.312-1.145-3.283-3.924.024-2.316 1.222-3.303 3.411-3.343l.499-.009c2.077.001 4.154.001 6.231.004z"/><path fill="#661B1B" d="M700.293 350.186c.882-3.245.73-6.029.736-8.808.019-10.207-4.854-17.477-13.487-22.511-4.003-2.335-8.435-3.834-12.159-6.754-5.037-3.947-5.059-8.212.171-11.848 3.311-2.3 6.93-3.916 10.684-5.297.83-.306 1.797-.364 2.967-1.63-1.057-.815-2.21-1.519-3.137-2.448-5.334-5.354-4.654-11.077 1.95-14.669 2.119-1.152 2.525-1.943 1.606-4.271-3.312-8.392-1.772-15.97 4.714-22.356 1.339-1.316.995-1.762-.465-2.609-5.043-2.924-9.935-6.104-13.29-11.056-3.406-5.022-2.481-9.293 2.454-12.845 4.971-3.576 10.715-5.2 16.456-6.868.645-.188 1.321-.153 1.957.136 8.194 3.72 15.353 8.609 19.465 17.015 2.49 5.092 2.815 10.378 1.31 15.743-.657 2.339-.411 3.688 1.693 5.411 4.963 4.065 9.179 8.839 11.421 15.13 2.509 7.038.47 12.888-4.263 18.053-1.252 1.368-1.14 1.962.184 2.919 4.091 2.956 7.011 6.899 8.67 11.592 2.685 7.589.812 14.547-3.691 20.931-6.627 9.393-15.906 15.65-25.587 21.393-3.195 1.894-6.521 3.564-10.359 5.647zM625.04 333.602c-7.905-3.079-18.626-.085-21.451 7.821-.273.77-.687 1.488-1.038 2.231-3.326.653-6.634 1.434-9.982 1.93-5.004.739-10.052.576-15.482.514 2.075-2.727 4.594-4.547 6.311-7.079 1.689-2.491 3.307-5.021 4.102-7.931 1.358-4.964-.219-8.974-4.407-11.941-3.032-2.148-6.567-3.163-9.937-4.568-4.938-2.061-9.436-4.668-11.146-10.25-1.158-3.777-.47-7.413 1.123-10.896.862-1.884 1.858-3.731 3.016-5.447.745-1.106.888-1.849-.217-2.701-4.603-3.557-4.969-9.584-2.262-14.961 2.466-4.901 5.958-9.005 10.124-12.507 1.034-.868.951-1.173.17-2.043-4.665-5.198-7.532-11.105-6.945-18.308.519-6.364 3.46-11.706 7.137-16.711 4.468-6.08 10.03-11.018 16.181-15.334.439-.309 1.052-.504 1.228-1.314-1.041 0-2.026.086-2.994-.017-2.781-.293-4.798-3.527-3.902-6.163.302-.894.859-1.321 1.854-1.313 8.903.074 16.846-3.244 24.64-7.059 2.618-1.283 5.229-2.58 7.816-3.923 1.526-.794 2.062-.399 2.075 1.31.02 2.409.405 4.831 1.267 7.055.568 1.472-.075 1.692-1.098 1.994-3.624 1.068-6.835 2.975-10.1 4.818-3.939 2.227-7.915 4.957-12.615 1.623-.516-.365-.927-.072-1.32.277-4.646 4.102-7.479 10.358-2.936 16.294 1.222 1.599 3.151 2.383 4.625 3.911-1.67 1.393-3.648 2.064-5.476 2.976-2.751 1.374-5.532 2.7-8.349 3.935-1.646.721-1.65 1.655-.657 2.867 1.791 2.186 4.155 3.282 6.942 3.416 1.73.082 3.467.016 5.838.016-2.812 2.576-5.202 4.789-7.621 6.973-2.276 2.059-4.557 4.113-6.888 6.111-1.312 1.125-.804 1.637.474 2.229 2.983 1.385 6.15 1.231 9.411 1.191.178 1.17-1.809 1.853-.629 3.092 1.059 1.11 2.431 1.318 3.865 1.405 3.696.225 7.237-.665 10.793-1.463-.626 6.802-.449 13.623-.316 20.429.139 7.057 1.586 13.903 4.681 20.301 3.604 7.453 9.334 12.664 17.055 15.664 2.329.905 4.682 1.773 7.121 2.324 1.889.427 2.729 1.586 2.537 3.404-.382 3.641-.749 7.288-1.4 10.895-.202 1.119-.649 2.112-1.829 2.477-3.095.949-6.098 2.254-9.389 2.446z"/><path fill="#FBC689" d="M632.6 243.224c2.897-1.884 5.021-4.557 7.227-7.14.788-.923 1.562-1.471 2.872-1.616 5.964-.666 11.756-2.106 17.357-4.278.772-.3 1.556-.512 2.415-.505 4.321.039 8.645.1 12.946-.497.654-.091 1.632-.46 1.592.834-.12 3.889 2.021 6.734 4.329 9.515.257.307.417.692.624 1.044-2.383.823-4.897-.05-7.332.645-1.914.548-3.906.852-5.758 1.625-.779.325-1.641.809-1.254 1.829.333.878 1.254.708 1.974.529 2.021-.501 4.018-1.089 6.074-1.45 4.188-.737 8.017.037 11.119 3.028 1.489 1.439 2.78 1.598 4.348.38l1.968 1.24c-4.465 4.7-6.857 10.095-6.58 16.528.112 2.594.577 5.137 1.583 7.514.563 1.329.267 1.968-.949 2.481-.528.224-1.005.584-1.477.919-5.014 3.562-6.005 8.142-2.822 13.411.852 1.41 1.939 2.677 2.98 4.097-2.4 1.073-4.791 2.107-7.151 3.208-2.04.949-3.94 2.142-5.59 3.689-3.916 3.679-3.998 7.634-.248 11.485.694.713 1.448 1.367 2.177 2.05-.128 1.208-1.069 1.359-1.988 1.48-.988.131-1.987.29-2.976.318-12.635.371-25.277 1.07-37.663-2.582-13.369-3.941-21.114-12.845-24.177-26.27-2.089-9.146-1.312-18.383-1.31-27.6 0-1.225.24-2.498 1.102-3.513 5.736-1.69 11.526-3.233 16.663-6.471 2.809-1.771 5.675-3.463 7.952-5.945l-.027.018z"/><path fill="#661B1B" d="M622.603 185.899c3.765.777 7.061 2.462 10.752 2.839 3.376.345 6.722.906 10.135.89 7.833-.036 15.686.319 23.494-.125 6.15-.351 12.058.161 17.828 2.149 7.438 2.563 12.806 9.884 13.211 17.757.275 5.353.17 5.099-4.814 7.172-5.137 2.137-9.601 3.808-15.464.854-5.01-2.527-11.175-2.615-17.059-2.07-2.205.204-4.304-1.121-6.456-1.724-5.11-1.431-10.363-2.42-15.231-4.61-9.078-4.083-15.163-10.583-16.447-20.841-.041-.329-.029-.666-.023-.999.003-.326.034-.654.074-1.292zM633.266 215.089c2.481 2.004 4.962 4.008 7.836 6.326-3.525.427-6.679-.141-9.693.697-7.294 2.03-14.213.521-21.047-2.169l6.199 5.704c-4.878-.354-9.224-.86-13.354-2.473-3.054-1.191-5.726-3.003-7.906-5.511-3.102-3.566-1.981-10.739 2.071-13.114.386-.226.718-.341 1.153-.164 5.369 2.198 9.923-.037 14.256-2.829 2.762-1.78 5.686-3.039 8.781-4.063 1.405-.465 2.216-.163 2.89 1.014 4.484 7.807 11.799 11.619 20.023 14.091 3.697 1.111 7.45 2.041 11.131 3.351-7.519 2.136-14.846 1.247-22.34-.86zM691.029 343.612c-2.837-4.756-7.027-7.114-12.549-7.587-2.674-.229-5.28-1.2-7.924-1.81-1.019-.234-2.085-.604-2.938.418-2.21.282-4.269-.403-6.329-1.022-1.135-.342-1.75-1.181-1.943-2.354-.631-3.849-1.083-7.724-1.475-11.6-.247-2.462.546-3.27 3.208-3.239 5.474.065 10.899-.361 16.301-1.208 4.095 2.938 9.169 4.09 13.117 7.357 4.087 3.383 6.892 7.498 8.309 12.597.241.868.286 1.621-.39 2.293-2.283 2.266-4.334 4.813-7.387 6.155zM630.487 243.154c-8.124 7.047-17.95 10.046-28.25 12.003-2.315.438-4.61.45-6.931.456-.502.003-1.053.01-1.35-.462-.37-.585.191-.899.514-1.224 4.223-4.259 6.175-9.405 6.658-15.365.26-3.187 1.437-6.258 3.551-8.891 2.243-2.796 4.833-3.568 8.431-3.067 3.729.518 6.773 1.777 9.736 4.092 3.762 2.938 8.419 3.692 13.124 3.939.774.042 1.911-.473 2.24.463.3.847-.79 1.347-1.35 1.907-1.226 1.23-2.531 2.387-3.804 3.574-7.152-2.976-13.316-.108-19.362 3.321-.785.444-1.665 1.2-.979 2.217.679 1.008 1.659.396 2.458-.032 3.171-1.696 6.395-3.287 9.974-3.87 1.834-.299 3.823-.838 5.34.939zM622.811 183.983c4.261-1.895 8.075-3.679 12.225-3.793 9.867-.272 19.695.352 29.485 1.792 7.34 1.078 14.524 2.611 21.294 5.672 7.086 3.204 12.768 7.794 14.426 15.942.445 2.181.579 4.381-.393 6.532-.521-4.496-1.854-8.68-4.462-12.361-3.949-5.577-9.737-7.955-16.205-9.167-3.883-.727-7.784-.458-11.679-.475-9.158-.039-18.319.076-27.476-.044-5.836-.077-11.364-1.676-17.215-4.098zM639.271 218.042c3.219.199 5.662.521 8.115.654 4.239.23 8.179-1.177 12.27-1.716 7.426-.979 14.488.247 21.341 3.11 1.55.648 1.646 1.309.398 2.436-1.349 1.219-2.622 2.497-3.493 4.18-.909 1.757-2.968 1.129-4.312 1.181-7.102.273-14.231.864-21.257-1.195-5.09-1.493-8.447-5.274-13.062-8.65z"/><path fill="#F8A348" d="M677.381 315.21c.117 1.129-.779.835-1.35.924-5.081.8-10.2 1.198-15.337 1.017-1.907-.067-2.492.497-2.207 2.391.593 3.926 1.072 7.868 1.499 11.815.125 1.158.731 1.493 1.707 1.746 1.973.515 4.098.455 5.926 1.531-.62.692-1.162 1.468-2.049 1.867-1.563-.229-3.112-.534-4.666-.799-2.312-.394-3.41-1.634-3.639-4.011-.368-3.808-.96-7.599-1.379-11.402-.195-1.769-.938-2.535-2.698-2.449-3.678.179-7.311-.368-10.941-.81-1.727-.209-2.421.375-2.666 2.034-.512 3.46-.849 6.94-1.255 10.411-.251 2.148-1.301 3.282-3.333 3.774-2.336.566-4.569 1.545-7 1.737l-2.953-1.386c2.818-1.453 5.958-1.934 8.928-2.926.976-.326 1.554-.656 1.672-1.791.402-3.795.87-7.584 1.401-11.364.223-1.581-.356-2.117-1.897-2.474-11.818-2.734-21.09-8.768-25.835-20.456-2.305-5.673-3.491-11.623-3.712-17.707-.203-5.643-.049-11.302.033-16.954.021-1.454-.081-3.007.947-4.27l1.435-.036c-.861 6.791-.712 13.626-.419 20.419.422 9.748 2.455 19.066 9.192 26.742 4.141 4.718 9.419 7.457 15.262 9.342 10.221 3.298 20.771 3.052 31.318 3.048 3.333-.001 6.618-.451 9.933-.566.714-.024 1.302-.228 1.725-.821l2.358 1.424z"/><path fill="#661B1B" d="M617.273 223.55c5.424 1.514 10.578.618 15.807-.259 3.077-.517 6.305-.139 9.465-.16.635-.003 1.072.38 1.514.77 3.684 3.255 8.112 4.708 12.932 5.296-9.4 7.548-33.436 4.24-39.718-5.647zM606.828 225.625c-2.701 2.462-4.613 4.5-5.707 7.186-.623 1.527-2.211 1.28-3.459 1.476-3.28.514-6.576.82-9.769-.506-.947-.393-1.975-1.005-2.104-1.957-.152-1.114 1.21-1.175 1.954-1.545 3.856-1.916 7.779-3.7 11.635-5.62 2.6-1.294 4.473.996 7.45.966z"/><path fill="#651B1B" d="M599.895 236.501c-.387 3.95-.871 7.718-2.66 11.165-1.7 3.271-4.355 4.527-7.947 3.793l-.235-.082c-1.428-.523-3.748.061-4.157-1.4-.315-1.131 1.72-2.23 2.799-3.235 3.456-3.224 6.993-6.359 10.5-9.527.435-.394.884-.762 1.7-.714z"/><path fill="#200D0D" d="M691.133 247.166c-1.226 2.378-2.33 2.756-3.847 1.022-3.899-4.454-8.745-4.551-13.93-3.28-1.283.314-2.516.83-3.779 1.226-1.213.379-2.411.383-2.931-1.002-.499-1.332.218-2.235 1.461-2.727 4.465-1.758 9.022-2.839 13.854-1.825 3.217 1.972 5.83 4.789 9.172 6.586z"/><path fill="#1F0C0D" d="M630.487 243.154c-3.948-1.398-7.516.115-11.053 1.536-1.611.647-3.141 1.53-4.63 2.429-1.118.674-2.052.663-2.854-.354-.842-1.072-.523-2.165.494-2.807 5.631-3.552 11.489-6.314 18.461-4.884.986.202 1.671.666 2.15 1.506.576 1.008-.323 1.759-.458 2.644l.028-.016-2.138-.054z"/><path fill="#2A7864" d="M292.228 401.703c-6.608-3.209-12.719-6.176-18.829-9.146-1.206-.586-.968-1.62-.739-2.599 2.349-10.091 4.715-20.177 7.071-30.264 1.205-5.159 2.4-10.319 4.158-15.497 2.754 18.991 5.508 37.982 8.339 57.506zM304.579 307.916l13.96.736c-.207 2.392-.462 4.782-.609 7.179-.159 2.603-1.745 4.167-3.736 5.508-1.786 1.203-2.416 2.426-1.089 4.666 2.699 4.56 4.994 9.357 7.455 14.059.166.547-.082.686-.576.579-4.952-4.544-9.972-9.015-14.814-13.672-1.503-1.447-2.128-1.199-3.034.431-2.13 3.84-4.372 7.614-6.587 11.449-.908-.536-.484-1.27-.485-1.841-.019-6.731.047-13.465-.008-20.199-.014-1.583.479-2.56 1.832-3.466 2.604-1.744 5.425-3.201 7.691-5.429zM370.29 342.38c2.297 15.03 4.471 29.264 6.649 43.496.529 3.46.548 3.522-2.822 4.086-3.755.627-7.541 1.066-11.295 1.699-1.663.28-1.984-.212-1.677-1.793 1.358-6.988 2.621-13.994 3.928-20.992 1.488-7.976 2.983-15.948 4.489-23.92.12-.636.349-1.25.728-2.576zM328.493 308.254l11.995-1.629c3.287 2.245 6.567 4.501 9.865 6.729.908.616 1.732 1.231 1.97 2.415 1.058 5.279 2.149 10.549 3.228 15.822.235.562.396 1.085-.541 1.032-2.831-2.545-5.7-5.05-8.477-7.652-1.437-1.348-2.338-1.11-3.458.443-2.609 3.624-5.382 7.128-8.088 10.682-.445.126-.685.045-.481-.479 1.168-2.466 2.262-4.968 3.534-7.376.681-1.288.422-2.12-.623-2.986-1.463-1.211-2.713-2.741-4.311-3.71-3.55-2.151-3.926-5.537-4.106-9.124-.071-1.394-.333-2.778-.507-4.167z"/><path fill="#FCC07C" d="M320.636 309.034c1.886-.97 4.055.058 5.949-.843.343 3.305.695 6.609 1.022 9.915.104 1.056.572 1.831 1.396 2.521 2.038 1.707 3.968 3.545 6.014 5.243.974.809 1.279 1.496.649 2.734-2.999 5.9-5.902 11.847-9.011 18.124-2.076-3.858-3.997-7.428-5.916-10.996-1.887-3.509-3.771-7.021-5.66-10.529-.352-.651-.924-1.378.064-1.897 5.451-2.859 4.578-8.275 5.322-13.039.065-.41.115-.821.171-1.233z"/><path fill="#20594A" d="M334.505 335.618l.481.479c-.21.548-.536.993-1.238 1.313-.175-.835.273-1.321.757-1.792z"/><path fill="#256A58" d="M319.983 340.643l.576-.579c.454.464.867.949.803 1.721-.783-.036-1.038-.642-1.379-1.142z"/><path fill="#1E5446" d="M355.01 332.624c.426-.216.479-.626.541-1.031.486.442.715 1.086.303 1.536-.366.4-.647-.167-.844-.505z"/><path fill="#FCC07C" d="M359.532 251.569c-.007 7.165.167 14.338-.081 21.493-.188 5.452-.749 10.874-2.347 16.188-2.683 8.919-9.055 13.393-17.646 15.345-7.816 1.776-15.799 2.049-23.757 1.954-9.26-.109-18.341-1.347-26.769-5.697-5.449-2.812-8.784-7.482-11.806-12.508-.557-.926-.999-1.921-1.475-2.894-1.522-3.109-2.654-5.812-7.042-6.847-6.708-1.584-6.81-9.635-4.396-13.482.727-1.157 1.739-2.011 3.227-2.03 2.884 1.525 4.773 3.751 5.113 7.119.065.651.45 1.274.497 1.925.407 5.633 4.458 8.076 9.04 10.34-1.117-7.455-2.21-14.77-3.309-22.082-.581-3.867-1.166-7.732-1.759-11.598-.176-1.149-.238-2.14 1.356-2.322.951-.107 1.549-.852 2.07-1.648 1.545-2.372 3.296-4.623 4.666-7.089 1.42-2.551 3.581-2.995 6.113-2.792 3.763.303 7.032 1.915 10.081 4.013 1.494 1.029 3.071 1.853 4.332-.01 1.301-1.922.022-3.213-1.591-4.267-3.589-2.346-7.364-4.222-11.707-4.618-1.507-.138-1.542-.522-.821-1.817 1.612-2.891 3.852-4.538 7.169-5.089 4.834-.802 9.589-2.09 14.427-2.864 9.802-1.569 19.213.008 28.224 4.083.72.325 1.57.549 2.137 1.531-4.294 1.013-8.199 2.677-11.409 5.672-.364.341-.744.667-1.079 1.034-1.121 1.227-1.316 2.579-.066 3.757 1.245 1.174 2.56.913 3.734-.285 3.63-3.705 8.15-5.25 13.227-5.648 1.425-.112 2.388.216 3.27 1.245 4.909 5.742 7.66 12.384 8.377 19.888z"/><path fill="#1D1E1E" d="M278.972 278.018c-1.473-.584-2.659-1.326-3.033-3.162-.447-2.187-1.325-4.288-1.743-6.479-.5-2.624-1.698-4.655-4.073-5.887-3.271-1.697-4.246-4.665-4.537-8.014-.627-7.179-1.88-14.321-1.539-21.558.194-4.13.566-8.257 1.977-12.22.805-2.259 1.917-4.236 3.963-5.562.698-.452 1.289-.97.834-1.806-2.745-5.044-.246-9.417 1.999-13.608 4.781-8.929 12.72-14.261 21.814-18.046 4.371-1.818 8.902-3.276 13.664-3.535 4.953-.269 9.919-.167 14.852.508 6.831.935 13.562 2.273 19.968 4.934 10.722 4.455 18.776 11.643 23.573 23.212-4.453-4.012-8.729-7.04-13.506-9.347-9.087-4.392-18.677-6.621-28.722-5.749-11.275.978-20.053 6.417-26.08 16.146-2.658 4.292-4.178 8.998-5.691 13.762-1.303 4.101-3.123 7.985-7.849 9.407-1.158.349-2.222 1.135-3.219 1.87-1.541 1.139-1.656 2.978-.127 4.165 1.042.81.898 1.322.24 2.205-1.744 2.345-2.722 5.42-6.231 5.982-1.037.165-1.021 1.134-.877 2.026 1.455 9.06 2.915 18.116 4.318 27.185.174 1.123.025 2.296.025 3.571zM294.743 222.109c2.823-11.103 8.113-20.064 18.354-25.224 6.802-3.427 14.109-3.866 21.617-2.868 9.688 1.287 18.504 4.667 26.235 10.607 7.896 6.066 11.896 14.534 14.032 24.026.072.317.035.664.028.997-.007.321-.042.642-.105 1.566-1.446-3.486-2.668-6.452-3.91-9.407-.263-.626-.24-1.551-1.419-1.268-1.258.303-.896 1.007-.735 1.889 1.016 5.559-.158 10.841-2.244 15.971-1.343 3.303-2.89 6.505-5.309 9.656-1.16-3.567-1.823-7.059-3.608-10.116-.879-1.505-1.728-3.029-2.631-4.521-.843-1.393-2.542-2.401-.706-4.5.831-.949.118-3.412-1.585-3.144-5.568.877-9.244-3.21-13.864-4.736-4.425-1.462-8.923-2.379-13.549-2.979-10.163-1.321-19.695 1.676-29.369 3.822-.307.07-.618.117-1.232.229zM361.591 270.605c-.053-5.539-.096-11.077-.171-16.616-.009-.614.296-1.337-.388-1.825 1.563-2.236 3.26-4.385 4.419-6.879.174-.372.347-.872.817-.828.605.057.632.638.736 1.125.293 1.372.476 2.791.958 4.097 1.306 3.535-1.001 6.206-2.092 9.141-.835 2.248-1.869 4.439-3.012 6.551-.903 1.669-.471 3.586-1.267 5.234z"/><path fill="#F4D988" d="M495.522 427.764c-4.504.039-7.771 2.404-10.542 5.656-.678.797-1.296.679-2.174.322-2.421-.988-4.887-.973-7.178.371-1.075.63-1.571.216-2.222-.58-1.374-1.676-3.004-3.102-4.845-4.252-3.432-2.146-5.789-1.653-7.936 1.698-.315.492-.569.749-1.115.734-6.355-4.06-11.202-9.589-15.413-15.749-.631-.923-.86-1.778-.712-2.973.453-3.646.66-7.416-.585-10.885-2.452-6.843-1.339-13.404.81-19.989.598-5.146 4.31-7.934 8.178-10.469 1.633-1.07 3.409-2.452 5.677-1.509 6.987 6.727 15.783 7.487 24.808 7.577 5.746.057 11.509.375 16.649-2.96 1.251-.812 1.94-.361 2.554 1.007 5.753 12.847 6.892 25.858 1.783 39.205-1.816 4.753-3.491 9.538-7.737 12.796z"/><path fill="#BE3C3C" d="M457.498 351.121c1.404-4.113 3.506-7.889 5.745-11.583 4.142-6.831 8.371-13.61 12.539-20.426 3.57-5.839 8.68-10.287 13.502-14.99 1.535-1.497 2.592-.854 3.324.974 2.453 6.114 4.574 12.321 5.212 18.926.879 9.103 1.931 18.199 2.473 27.324.398 6.715-.517 13.464-.208 20.207.045.967-.394 1.531-1.239 1.937-3.768 1.808-7.521 3.332-11.9 3.199-6.744-.208-13.624.229-19.983-2.254-6.458-2.522-12.133-6.304-13.971-13.756-.227-.92-.374-1.721.201-2.607 1.486-2.29 2.882-4.639 4.314-6.965.18.179.402.283.64.367 3.561 1.261 3.758 1.527 3.74 5.279 2.029-1.721 3.888-1.078 5.837.528.17-2.362.165-4.605 3.762-4.873-2.646-1.319-3.831-2.758-3.081-5.388-2.197.898-4.195 1.722-5.923-.795-.586 1.795-.126 3.571-1.733 4.363-1.019.503-2.022 1.25-3.251.533z"/><path fill="#D3A66C" d="M457.465 370.141c-6.872 1.389-11.165 5.756-13.855 11.978-.76-1.238-1.266-.81-1.581.278-1.723 5.957-3.116 11.92-1.082 18.121 1.398 4.264 1.745 8.659.899 13.069-.571 2.975-1.888 5.591-5.108 6.504-3.185.904-5.217-1.159-7.086-3.185-3.244-3.514-5.604-7.647-7.662-11.929-1.583-3.293-2.868-6.725-4.424-10.032-1.187-2.524-.545-4.484 1.433-6.206 2.072-1.803 4.135-3.619 6.222-5.407 2.983-2.555 5.668-5.383 8.02-8.534 1.094-1.468 2.244-2.906 3.775-3.963 1.68-1.159 3.226-1.332 4.417.687.282.478.44 1.251 1.219.771.704-.432.326-1.058-.04-1.5-.768-.928-.249-1.65.232-2.446 1.837-3.05 4.353-5.432 7.173-7.556 1.152-.867 1.69-.725 2.005.673.793 3.524 2.552 6.459 5.443 8.677zM516.75 386.503c-.182 5.412-.406 10.816-2.141 16.015-.33.988-.507 2.375-1.751 2.467-1.011.072-1.624-1.033-2.194-1.854-1.624-2.341-2.707-4.728-2.833-7.777-.305-7.38-2.266-14.453-5.48-21.106-1.436-2.973-.947-5.991-.954-9.031-.003-1.151.809-.984 1.558-1.02 5.586-.266 10.196 2.855 12.024 8.255 1.546 4.556 1.682 9.303 1.771 14.051z"/><path fill="#3A5D78" d="M459.511 433.125c-.191 3.378-1.448 6.639-.843 10.531-3.549-2.009-6.259-4.381-9.02-6.67-1.018-.845-1.933-1.815-2.872-2.752-4.7-4.689-4.987-6.812-1.768-12.589.248-.444.572-.539 1.005-.525 3.644 4.965 8.112 9.001 13.498 12.005z"/><path fill="#395C77" d="M500.495 424.727c.804 1.344 1.572 2.708 2.425 4.018.413.634.396 1.179.124 1.844-.905 2.206-1.78 4.423-3.622 6.673-.673-3.214-1.439-6.078-2.957-8.649 1.636-.993 2.676-2.603 4.03-3.886z"/><path fill="#1E1F1E" d="M694.055 427.18c-1.675-6.993-3.378-13.979-5.02-20.98-3.563-15.188-7.096-30.384-10.667-45.696l-.735 1.604c-.106-1.022-.047-2.025.377-2.982 1.395-.238.942-1.348.996-2.182.36-5.492-.432-10.951-.517-16.432-.031-2.031.382-2.572 2.568-2.033 5.013 1.235 8.015 4.561 9.322 9.158 4.379 15.384 8.468 30.85 12.692 46.276.304 1.104.479 2.293 1.341 3.175-3.782 9.916-7.487 19.86-10.357 30.092zM616.431 362.616l-.71-1.064c-2.803 12.005-5.596 23.946-8.38 35.889-2.046 8.77-4.09 17.539-6.108 26.313-.184.8-.178 1.643-.261 2.465-2.309-9.721-4.623-19.442-6.921-29.167-.666-2.812-1.286-5.635-1.925-8.454.49-3.191 1.535-6.245 2.322-9.362.323-1.277.599-2.592 1.567-3.597 2.025-.706 4.038-1.456 6.083-2.103 1.096-.345 1.376-.812.968-1.96-.831-2.336-1.471-4.741-2.222-7.107-.188-.592-.287-1.372-1.253-1.173 1.825-6.715 3.479-13.481 5.533-20.125 1.674-5.423 6.24-8.429 12.42-8.439-2.056 1.357-3.718 2.526-5.453 3.576-.834.505-1.193 1.039-.951 2.02 1.314 5.306 2.609 10.617 3.876 15.934.174.724.544 1.188 1.197 1.474-.658 1.657.448 3.239.218 4.88z"/><path fill="#FBC689" d="M627.993 334.987c2.127-1.345 4.572-1.803 6.947-2.42 1.698-.44 2.572-1.129 2.683-3.167.215-3.953.966-7.874 1.371-11.821.129-1.261.715-1.589 1.774-1.446 4.688.63 9.38 1.138 14.121 1.021 1.002-.025 1.49.513 1.602 1.511.493 4.354 1.172 8.697 1.459 13.063.139 2.09.983 2.912 2.876 3.293 1.618.324 3.474.004 4.743 1.479-4.552 3.828-9.977 4.558-15.632 4.275-7.71-.379-14.94-2.681-21.944-5.788z"/><path fill="#1E1F1E" d="M676.521 355.692c-1.664-2.445-1.488-4.535-1.509-6.601-.027-2.872-1.067-4.037-3.896-3.938-5.792.2-11.479 1.322-17.185 2.246-6.265 1.016-12.521 1.302-18.755-.253-2.293-.572-4.291-1.78-6.286-2.958-2.639-1.554-4.947-1.045-6.453 1.626-1.348 2.386-2.287 4.991-3.879 7.252-.388.549-.71 1.316-1.393 1.309-.962-.012-.651-1.021-.795-1.58-.96-3.682-1.839-7.386-2.754-11.079-.274-1.101.02-1.889 1.021-2.52 2.037-1.281 4.062-2.591 6.002-4.015.936-.687 1.65-.407 2.519-.013 6.961 3.167 14.051 5.979 21.667 7.11 8.6 1.276 16.882.9 23.722-5.468 1.393-1.297 2.732-.239 3.978-.035 4.016.662 3.996.78 3.996 4.892v14.025z"/><path fill="#FBC689" d="M717.567 363.651c-.386-3.697-.57-7.431-1.23-11.081-.389-2.141.434-1.893 1.92-1.822 2.755.125 4.208 1.293 4.342 4.146.054 1.134.537 2.253.863 3.368.169.576-.251 1.595.686 1.598.5.002 1.07-.709 1.493-1.198 1.626-1.885 3.171-3.843 4.826-5.697.402-.45 1.035-1.686 1.654-.744.605.922 2.542 1.521 1.336 3.255-1.85 2.66-3.711 5.315-5.493 8.021-.47.715-1.559 1.425-1.067 2.312.402.729 1.543.321 2.337.287 1.652-.072 3.296-.36 4.947-.408.874-.023 2.17-.548 2.323 1.063.137 1.422.277 2.752-1.693 3.269-2.649.693-5.191 1.787-7.835 2.509-1.668.459-2.491 1.398-2.86 3.021-4.474 19.643-8.992 39.272-13.434 58.921-.438 1.936-.577 3.914-1.432 5.764-1.478 3.209-4.014 4.436-7.404 4.431-1.443-.001-2.377-.561-2.95-1.836-1.128-2.5-2.494-4.924-3.333-7.517-1.099-3.4.296-6.739 1.198-9.94 4.177-14.829 10.102-29.023 16.009-43.218.959-2.303 1.859-4.637 2.974-6.861.65-1.296.237-1.68-.94-2.038-3.733-1.144-7.414-2.473-11.178-3.497-1.998-.546-2.394-1.454-1.528-3.185.297-.597.656-1.189.8-1.827.325-1.435.993-1.715 2.316-1.065 1.188.582 2.476.964 3.729 1.408.588.208 1.242.89 1.801.215.422-.509-.172-1.084-.428-1.571-.966-1.84-1.836-3.755-3.006-5.46-1.438-2.098.127-2.697 1.416-3.641 1.559-1.141 2 .125 2.65 1.067 1.876 2.715 3.758 5.423 5.639 8.134l.552-.183z"/><path fill="#111010" d="M596.016 375.639c-1.064 4.095-2.121 8.192-3.217 12.279-.071.268-.442.455-.673.68-.339-1.273-.757-2.533-.697-3.878.038-2.913.424-5.733 2.196-8.18.733-.47 1.459-.959 2.391-.901z"/><path fill="#BE3C3C" d="M479.565 448.117c-3.663-.036-6.966-3.269-6.971-6.823-.004-3.694 3.423-7.086 7.068-6.995 3.665.092 6.831 3.34 6.782 6.961-.048 3.701-3.25 6.893-6.879 6.857z"/><path fill="#6B1917" d="M683.095 260.32c.001 3.933-2.818 6.825-6.7 6.871-3.97.049-6.99-2.96-6.946-6.913.042-3.847 2.989-6.734 6.872-6.734 3.908 0 6.774 2.868 6.774 6.776zM619.943 257.799c-.041-3.914 2.776-6.817 6.678-6.879 3.907-.062 6.886 2.763 6.969 6.61.087 3.94-2.943 7.087-6.82 7.088-3.781 0-6.789-3.005-6.827-6.819z"/><path fill="#F8A448" d="M655.14 306.139c-4.242.082-6.843-1.787-9.079-4.254-1.139-1.258-1.93-1.72-3.661-.578-4.977 3.279-9.332.587-10.971-5.265-.148-.528-.219-.987.392-1.243.639-.265 1.16-.081 1.471.524.225.439.331.938.532 1.393 1.907 4.322 4.817 5.244 8.407 2.174 2.066-1.767 3.057-1.789 4.45.528.743 1.237 1.996 2.268 3.218 3.094 3.944 2.67 7.508 2.079 11.105-1.692.553-.578.939-1.581 1.934-.688 1.121 1.008-.166 1.442-.617 1.936-3.064 3.336-4.561 4.081-7.181 4.071z"/><path fill="#F8A449" d="M648.655 267.93c-.398 2.687-.704 5.39-1.226 8.052-.277 1.421-.631 2.941-2.585 3.202-1.195.158-.749 1.025-.433 1.715.255.554.479 1.041-.299 1.425-.835.413-1.213-.029-1.58-.653-.864-1.464-1.536-3.248.486-3.945 2.449-.847 2.658-2.715 2.94-4.619.313-2.116.353-4.27.552-6.403.076-.809-.405-2.084 1.094-1.995 1.253.074.801 1.211.889 1.959.051.409.01.828.01 1.242l.152.02z"/><path fill="#669963" d="M350.624 244.219c-.034 4.015-3.025 6.969-6.973 6.887-3.875-.08-6.753-3.176-6.691-7.193.061-3.878 3.201-6.846 7.128-6.739 3.819.104 6.57 3.069 6.536 7.045zM301.606 248.217c.033 4.045-2.794 6.939-6.793 6.954-3.94.016-6.796-2.737-6.855-6.607-.063-4.108 2.669-7.005 6.656-7.056 4.136-.053 6.96 2.657 6.992 6.709z"/><path fill="#F8A341" d="M323.636 284.631c5.519.039 12.445 4.949 14.519 9.9.291.692.23 1.119-.407 1.421-.771.367-1.282-.062-1.639-.688-1.04-1.832-2.469-3.327-3.956-4.79-4.587-4.513-9.569-4.996-14.77-1.266-1.53 1.097-3.195 2.086-4.19 3.841-.444.779-1.265 1.601-2.214.633-.932-.952.231-1.46.719-1.996 2.888-3.168 6.01-6.005 10.43-6.845.648-.121 1.309-.184 1.508-.21z"/><path fill="#F8A342" d="M327.008 269.462c.154 1.278-.541 2.257-1.075 3.28-.284.543-.694 1.004-1.384.565-.609-.389-1.015-.832-.412-1.606 1.299-1.669 1.181-2.943-.981-3.837-1.004-.416-1.697-1.397-1.957-2.479-.677-2.815-1.208-5.663-1.172-8.579.009-.725-.145-1.628 1.004-1.61 1.139.018.923.936.991 1.648.172 1.809.241 3.638.553 5.423.319 1.832.507 3.778 2.898 4.413 1.247.33 1.705 1.497 1.535 2.782z"/><path fill="#0F0F15" d="M470.702 422.615c-.444-.364-.967-.666-1.317-1.106-2.333-2.926-4.234-6.229-8.391-7.188-1.192-.274-2.57-1.491-2.537-3.392.899-.091 1.401.389 1.92.902 3.392 3.355 12.969 4.82 17.076 2.628 1.615-.862 2.521-4.261 1.554-5.785-.532-.84-1.354-.416-2.037-.454-4.849-.27-6.824-3.034-5.537-7.693.395-1.432 1.364-2.264 2.553-2.87 3.681-1.878 7.379-1.695 11 .17 1.922.987 3.003 2.572 2.941 4.815-.066 2.425-1.655 3.684-3.599 4.625-.586.285-1.292.316-1.903.562-.822.328-2.248.006-2.03 1.589.186 1.355-.511 2.901 1.508 3.766 4.828 2.069 8.877 1.175 12.148-2.917.421-.526.548-1.399 1.567-1.607.122 1.995-.786 3.504-2.255 4.425-1.818 1.14-3.062 2.615-3.902 4.521-.426.11-.684-.147-.936-.423-3.344-1.163-6.561-3.003-10.3-1.132-2.173 1.088-4.594 1.326-7.031 1.23-.646-.024-1.482-.197-1.855.407-.475.77.312 1.357.667 1.979.48.843 1.351 1.499 1.243 2.624-.09.263-.273.37-.547.324z"/><path fill="#101015" d="M489.515 388.704c-3.669.031-5.183-1.494-5.261-5.307-.053-2.571 2.634-4.76 5.859-4.774 2.93-.013 5.366 2.166 5.318 4.755-.061 3.222-2.364 5.295-5.916 5.326z"/><path fill="#101016" d="M455.437 388.041c.067-2.909 2.513-5.444 5.137-5.328 3.032.137 5.605 2.491 5.474 5.01-.143 2.734-2.866 5.196-5.702 5.158-2.775-.037-4.971-2.202-4.909-4.84z"/><path fill="#070604" d="M493.973 419.625c-.608 3.969-2.581 7.49-6.097 9.246-8.803 4.4-18.734 2.955-24.473-6.584-.213-.354-.415-.723-.569-1.104-.203-.504-.686-1.137.133-1.462.588-.233.884.339 1.047.809 1.072 3.106 3.521 4.88 6.081 6.681 7.606 5.35 18.759 2.381 22.432-6.085.254-.586.521-1.166.781-1.749l.665.248z"/><path fill="#17151A" d="M470.702 422.615l.123.027c1.002-.351.9-1.297 1.111-2.068.276-1.01.686-1.985 1.878-2.042 1.255-.057 1.587.943 1.887 1.958.342 1.154.122 2.782 1.537 3.2 1.706.506 3.451-.147 5.125-.617.714-.201.875-.93 1.06-1.587.333-1.175.405-2.653 2.051-2.746 1.61-.091 1.88 1.391 2.47 2.449.153.35.349.69.177 1.091-.073 1.296-.621 2.101-1.993 2.437-3.908.96-7.874.955-11.838.792-1.779-.073-3.054-1.108-3.588-2.894z"/><path fill="#3E2F28" d="M488.12 422.28l-.655-.71c-.052-1.68-.278-3.416 1.467-4.512l.53.546c-.001 1.687-.459 3.243-1.342 4.676z"/><path fill="#EF974B" d="M457.498 351.121c3.776-1.087 3.776-1.087 4.236-5.903 2.254 1.957 4.542 3.586 7.292.229-1.115 3.712.154 5.739 3.492 6.868-3.793.53-4.67 2.75-3.754 6.781-2.757-2.846-5.057-3.941-7.83-.651 1.245-4.21-.92-5.87-3.426-7.339l-.01.015z"/><path fill="#3A5C78" d="M476.556 345.512c.776-4.208.776-4.208-1.58-7.871 3.573.651 5.082-1.059 5.242-4.591 1.717 2.974 3.88 4.018 7.092 2.105-1.647 2.98-1.863 5.429 1.668 7.225-3.454.095-5.618 1.299-5.371 5.753-1.901-3.291-3.617-5.285-7.051-2.621z"/><path fill="#5D7A8C" d="M494.279 361.878c-2.578-2.2-4.855-2.956-6.741.055-.77-.639-.6-1.185-.518-1.617.396-2.088-.384-3.307-2.473-3.793-.561-.13-1.568-.929-.458-1.248 3.072-.882 3.378-2.862 2.544-5.82 2.505 2.362 4.795 2.458 7.026-.038.646 4.107.646 4.107 3.965 6.283-3.137.839-4.657 2.603-3.345 6.178z"/><path fill="#F6B788" d="M466.954 371.146c1.922-2.737.049-3.412-2.288-4.22 2.759-.611 3.921-1.698 2-4.387 2.186.753 4.204 1.96 4.458-1.606.935 2.137 2.009 3.345 4.68 1.818-1.571 2.622-.942 3.888 1.748 4.312-2.664.735-3.439 2.056-1.68 4.77-2.33-1.207-4.072-1.811-4.487 1.75-.945-2.385-1.863-3.976-4.431-2.437z"/><path fill="#798A88" d="M486.352 323.535c-1.764-1.21-2.606-.348-3.313 1.404-.726-1.764-1.641-2.464-3.522-.921.719-2.009.906-3.424-2.116-3.566 2.438-.761 3.06-1.763 1.71-3.921 2.267 1.351 3.291.802 3.603-1.644.739 1.989 1.431 3.303 3.702 1.234-.833 2.088-.833 3.391 1.81 3.957-2.727.6-2.651 1.805-1.874 3.457z"/><path fill="#C64C46" d="M470 341.562l-.503-.819c.193-.48.648-.582 1.064-.74.945-.339 1.634-.913 1.808-1.961.02-.315.013-.63-.033-.942-.532-1.944-2.284-1.328-3.567-1.704-.237-.127-.354-.326-.374-.59 1.032-1.583 2.341-1.32 3.726-.566 2.533 2.13 2.685 2.964 1.076 5.926-.934.767-1.671 1.983-3.197 1.396z"/><path fill="#F0A97F" d="M473.016 340.125c1.167-2.11 1.279-4.039-.962-5.559-.102-.447-.027-.708.508-.484 2.568 2.308 2.705 4.134.501 6.718-.249-.209-.264-.434-.047-.675z"/><path fill="#E59371" d="M472.562 334.082l-.508.484c-1.302-.48-2.589-.865-3.626.514-.147.168-.332.251-.555.254-.315-.118-.58-.263-.335-.663 1.521-1.496 3.139-2.181 5.024-.589z"/><path fill="#F1AC81" d="M471.002 340.515l-1.506.228c-.766-.231-1.583-.385-1.953-1.241-.134-.129-.173-.249-.117-.364.053-.112.105-.167.154-.168.222-.061.446-.06.67-.011.725.278 1.452.547 2.256.407.233.015.442.093.63.229.199.343.143.647-.134.92z"/><path fill="#EDA47C" d="M473.016 340.125l.047.673c-1.736 1.484-1.981 1.545-3.062.764 1.211-.044 2.077-.816 3.015-1.437z"/><path fill="#F0AA80" d="M467.493 339.209l.051.294c-1.294-.834-1.072-2.1-.953-3.334.465-.099.677.204.866.546.223.827.748 1.652.036 2.494z"/><path fill="#E69472" d="M467.046 336.664l-.455-.496c.164-.595.322-1.194.946-1.497l.386.432c.422.922.137 1.446-.877 1.561z"/><path fill="#BE3C3C" d="M488.932 417.059l-1.467 4.512c-.184-.353-.38-.695-.551-1.055-.312-.651-.428-1.525-1.434-1.443-1.003.082-.894 1.033-1.23 1.654-.517.949.501 2.556-1.148 2.968-2.083.521-4.217 1.176-6.359.796-1.413-.252-1.029-1.896-1.474-2.905-.397-.898.218-2.542-1.341-2.564-1.65-.022-1.505 1.491-1.467 2.62.049 1.417-.837 1.079-1.632 1.002-.171-1.761-1.607-2.805-2.404-4.209-.678-1.196-.668-1.844.941-1.814 3.752.071 7.502.148 10.713-2.341.586-.455 1.259.037 1.893.224 1.905.559 3.792 1.316 5.818 1.201 1.141-.066 1.225.514 1.142 1.354z"/><path fill="#EAEAEB" d="M488.39 382.64c-.185.659-.573 1.03-1.232.962-.744-.076-.87-.679-.806-1.249.058-.511.403-.86 1.009-.785.66.082.968.475 1.029 1.072z"/><path fill="#E5E5E5" d="M458.735 385.343c.641.14 1.041.57 1.038 1.189-.002.562-.424.865-1.009.835-.621-.03-.861-.432-.847-.989.013-.524.184-.975.818-1.035z"/><path fill="#F7F7F7" d="M473.595 420.653c.27.202.468.275.481.372.125 1.013.838 1.944.421 3.014-.033.085-.547.13-.624.03-.812-1.056-.419-2.182-.278-3.416z"/><path fill="#F2F2F3" d="M485.865 419.7c.141 1.523.583 2.454.019 3.372-.057.092-.578.061-.612-.022-.398-.981-.458-1.944.593-3.35z"/><path fill="#EFA87E" d="M469.036 335.129c1.793-.393 3.333-.256 3.928 1.87-.909.923-1.047-.206-1.478-.554-.897-.209-1.884-.572-1.756.99.544.101.539-.467.829-.674.299-.252.612-.383.981-.14.881 1.639.258 2.524-1.435 2.877-.901.113-1.551-.406-2.218-.882-.626-1.494-.262-2.662 1.149-3.487z"/><path fill="#C74E47" d="M470.045 339.215c1.4-.454 1.976-1.22.97-2.58-.091-.421-.052-.717.5-.514.544.193.632 1.139 1.45.879l-.01 1.24c-.692.42-.793 1.639-1.944 1.438-.151-.027-.302-.036-.455-.03-.529.279-.571-.016-.511-.433z"/><path fill="#C64D46" d="M469.036 335.129c-1.018.954-1.175 2.157-1.006 3.456.125.132.163.261.114.386-.047.123-.093.187-.136.187l-.515.05-.448-2.543.879-1.562.502-.022.61.048z"/><path fill="#EDA47C" d="M471.01 339.678c.869-.182.844-1.571 1.945-1.438-.167 1.174-.929 1.838-1.952 2.275l.007-.837z"/><path fill="#CA554B" d="M468.008 339.157l.022-.572 2.015.63.51.433c-1.064.951-1.784.122-2.547-.491z"/><path fill="#C75048" d="M471.515 336.121l-.5.514-.559.39c-.303.419-.336 1.053-.968 1.206-.711-.449-1.184-1.003-.518-1.808.728-.879 1.579-1.2 2.545-.302z"/><path fill="#CF6152" d="M469.489 338.23c.315-.407.187-1.171.968-1.205.13.42.535.837.038 1.268-.347.3-.693.306-1.006-.063z"/></g></svg>