<svg xmlns="http://www.w3.org/2000/svg" width="1000" height="450" viewBox="0 0 1000 450"><g><path fill="#443F3B" d="M418.045 73.389h-12.755v-62.336h12.755v62.336zM468.808 73.474h-13.853l-10.727-23.904h-6.672v23.819h-12.756v-62.421h22.722c.338 0 .774.042 1.309.127.535.084 1.098.198 1.69.337.591.142 1.14.283 1.646.422.508.142.9.268 1.183.38 1.295.564 2.547 1.212 3.759 1.943 1.21.732 2.407 1.746 3.589 3.041 1.352 1.464 2.407 2.985 3.168 4.562.76 1.577 1.28 3.124 1.562 4.646.28 1.295.422 2.59.422 3.885 0 2.76-.663 5.604-1.985 8.532-1.325 2.928-3.647 5.519-6.968 7.771l11.911 26.86zm-15.626-43.163c0-1.125-.296-2.28-.887-3.463-.591-1.183-1.676-2.112-3.252-2.787-.282-.112-.633-.212-1.056-.295-.422-.085-.691-.127-.802-.127h-9.629v13.346h9.629c.111 0 .38-.056.802-.169.423-.111.773-.224 1.056-.338 1.576-.618 2.661-1.52 3.252-2.702.591-1.184.887-2.338.887-3.465zM510.109 73.389h-10.98c-.114 0-.367-.029-.761-.084-.394-.056-.731-.113-1.013-.168-1.013-.169-1.999-.338-2.956-.508-.958-.168-2-.479-3.125-.928-3.774-1.409-6.984-3.225-9.63-5.449-2.647-2.223-4.815-4.658-6.504-7.306-1.689-2.646-2.914-5.405-3.674-8.278-.761-2.872-1.141-5.686-1.141-8.446 0-.563.056-1.563.169-2.999.112-1.436.309-2.8.591-4.096.393-1.576.999-3.294 1.816-5.152.815-1.858 1.844-3.675 3.083-5.448 1.238-1.774 2.673-3.463 4.308-5.068 1.632-1.604 3.463-2.998 5.49-4.181 2.873-1.689 5.631-2.787 8.278-3.293.112 0 .38-.056.802-.169l1.436-.38c.534-.139 1.069-.253 1.604-.337.535-.084.972-.127 1.31-.127h10.896v12.67h-10.304c-.114 0-.451.071-1.015.211-.563.142-1.012.24-1.35.296-1.013.113-2.126.464-3.337 1.056-1.212.591-2.406 1.338-3.589 2.238-1.183.901-2.268 1.916-3.252 3.041-.985 1.127-1.731 2.28-2.238 3.463-.113.282-.267.606-.464.972-.198.366-.352.717-.465 1.055-.451 1.296-.732 2.38-.844 3.252-.114.874-.169 1.846-.169 2.914 0 1.521.197 3.112.591 4.773.394 1.661 1.042 3.252 1.942 4.772.9 1.52 2.07 2.943 3.505 4.266 1.437 1.322 3.196 2.436 5.28 3.335.225.113.591.253 1.098.423.507.168 1.027.324 1.563.464.535.142 1.056.268 1.563.379.506.114.928.168 1.267.168h10.22v12.669zM568.982 48.725c0 .113-.027.422-.084.928-.059.508-.113.93-.168 1.268-.283 1.973-.762 3.843-1.438 5.617-.676 1.773-1.576 3.562-2.701 5.364-1.014 1.634-2.381 3.209-4.098 4.73-1.719 1.52-3.338 2.674-4.857 3.463-.451.225-.916.465-1.393.719-.479.253-.973.492-1.479.717-1.521.619-3.111 1.083-4.773 1.395-1.662.309-3.334.464-5.023.464-.846 0-1.818-.057-2.916-.168-1.098-.114-2.098-.253-3-.423-1.855-.451-3.758-1.127-5.699-2.027-1.943-.902-3.844-2.196-5.701-3.886-1.52-1.351-2.859-2.842-4.014-4.477-1.154-1.632-2.041-3.237-2.66-4.814-.281-.676-.592-1.576-.928-2.703-.115-.281-.227-.604-.34-.972-.111-.366-.197-.689-.252-.971l-.211-1.183c-.086-.45-.156-.888-.211-1.309-.057-.424-.102-.774-.129-1.056l-.041-.508v-37.84h12.754v37.503c0 .114.014.198.041.253.029.057.043.142.043.254.057.451.154.944.297 1.479.141.535.295 1.028.465 1.478 1.35 3.154 3.18 5.393 5.488 6.715 2.311 1.324 4.617 1.984 6.928 1.984 1.236 0 2.504-.182 3.801-.548 1.295-.366 2.535-.956 3.717-1.775 1.184-.815 2.238-1.843 3.168-3.083.928-1.237 1.646-2.702 2.154-4.392.111-.281.238-.73.379-1.351.139-.619.211-.985.211-1.098v-37.419h12.67v37.672zM588.492 73.389h-12.754v-62.336h12.754v62.336zM648.549 23.638h-20.188v49.751h-12.754v-49.666h-20.355v-12.67h53.297v12.585zM395.978 151.676h-24.668c-.255 0-.822-.066-1.708-.19-.885-.126-1.645-.256-2.276-.38-2.277-.378-4.492-.761-6.641-1.137-2.153-.38-4.491-1.077-7.021-2.089-8.477-3.164-15.688-7.242-21.631-12.237-5.948-4.997-10.816-10.467-14.611-16.416-3.796-5.944-6.547-12.142-8.255-18.596-1.707-6.451-2.561-12.772-2.561-18.974 0-1.264.124-3.51.379-6.736.252-3.226.693-6.291 1.328-9.203.884-3.539 2.246-7.4 4.081-11.575 1.832-4.175 4.142-8.255 6.925-12.238 2.781-3.986 6.006-7.781 9.676-11.387 3.669-3.605 7.781-6.735 12.334-9.392 6.452-3.795 12.648-6.262 18.596-7.4.25 0 .854-.125 1.802-.379l3.225-.855c1.202-.313 2.404-.569 3.605-.758 1.202-.189 2.185-.286 2.941-.286h24.479v28.462h-23.147c-.257 0-1.017.161-2.277.476-1.268.316-2.28.539-3.037.665-2.277.254-4.778 1.043-7.496 2.37-2.722 1.33-5.408 3.007-8.063 5.028-2.659 2.026-5.094 4.302-7.306 6.833-2.216 2.531-3.891 5.122-5.029 7.778-.255.634-.602 1.362-1.043 2.183-.444.824-.793 1.612-1.042 2.372-1.015 2.912-1.647 5.346-1.898 7.305-.256 1.962-.379 4.144-.379 6.546 0 3.417.441 6.991 1.327 10.722.884 3.733 2.34 7.306 4.364 10.721 2.022 3.415 4.649 6.611 7.876 9.583 3.224 2.972 7.177 5.472 11.858 7.495.504.254 1.329.569 2.467.947 1.138.38 2.306.731 3.51 1.044 1.201.318 2.372.602 3.509.854 1.139.254 2.088.38 2.846.38h22.961v28.464z"/><path fill="#5B7A8C" d="M373.017 123.282c-.234 0-.495-.017-.767-.042.272.024-2.401 28.347-2.401 28.347.736.102 1.231.157 1.46.157h24.668v-28.462h-22.96z"/><path fill="#BE3B3B" d="M395.978 39.911v-28.462h-24.479l-.066.002c.748 9.631.689 19.112.395 28.633.512-.113.849-.172 1.002-.172h23.148z"/><path fill="#443F3B" d="M450.042 151.676h-44.752v-63.15h44.751v12.751h-31.831v12.406h15.83v12.835h-15.83v12.321h31.831v12.837zM498.585 151.676h-44.751v-63.15h12.92v50.314h31.831v12.836zM549.025 151.676h-44.75v-63.15h12.92v50.314h31.83v12.836z"/><path fill-rule="evenodd" clip-rule="evenodd" fill="#E99347" d="M604.418 106.03l25.086 9.448-59.379 37.982 26.27-37.982-19.514-8.95 46.162-29.274z"/></g><g fill-rule="evenodd" clip-rule="evenodd"><path fill="#FCC07C" d="M274.618 391.716c-4.224-2.115-8.581-3.921-13.005-5.567-1.924.417-1.66 2.183-1.958 3.449-2.395 10.233-4.644 20.5-6.999 30.744-2.031 8.83-3.981 17.678-5.994 26.512-.277 1.214-.807 2.463.157 3.635h12.513c.915-.724 1.212-1.762 1.491-2.826 4.504-17.181 9.089-34.341 13.663-51.505.382-1.437 1.178-2.932.132-4.442z"/><path fill="#F8A342" d="M246.819 450.488c.668-5.188 2.156-10.201 3.293-15.288 3.55-15.894 7.209-31.762 10.813-47.643.122-.541.194-1.067.688-1.409l-2.536-1.169c-3.815 16.989-7.678 33.966-11.423 50.967-1.064 4.832-2.594 9.575-3.012 14.542h2.177zM274.618 391.716c-1.052 6.32-3.103 12.388-4.708 18.567-3.484 13.412-7.046 26.805-10.578 40.205h2.177c4.892-18.306 9.781-36.61 14.677-54.916.256-.957.552-1.906.827-2.858-.705-.562-1.507-.883-2.395-.998z"/><path fill="#D2D3D3" d="M675.366 450.271h-55.422c-.377-.696-.303-1.452-.286-2.199.191-8.307.913-16.586 1.395-24.878.549-9.454.897-18.873-.108-28.37-1.213-11.413-2.589-22.796-4.132-34.168-.157-1.157-.172-2.323.153-3.466 2.173-3.14 4.063-6.443 5.827-9.838 1.127-2.173 2.76-2.851 4.482-1.783 8.552 5.302 17.774 4.636 27.093 3.276 4.193-.612 8.354-1.443 12.567-1.925 1.076-.122 2.147-.213 3.23-.171 1.788.073 2.822.953 2.85 2.768.049 3.324.77 6.413 2.869 9.082.057 4.41-.6 8.769-.991 13.143-.901 10.091-1.701 20.191-2.791 30.262-.805 7.454.684 14.731 1.293 22.073.66 7.945 1.569 15.869 2.35 23.807.079.828.21 1.665-.379 2.387z"/><path fill="#2A7964" d="M363.805 450.271h-37.946c-.672-.741-.723-1.663-.702-2.583.125-5.315-.392-10.646.419-15.945.063-.41.067-.83.057-1.245-.346-13.64.462-27.265.625-40.897.108-9.14.166-18.287.467-27.423.141-4.296.356-8.618.966-12.892.205-1.438.998-2.633 1.867-3.761 4.265-5.534 8.405-11.165 12.701-16.676 2.145-2.752 2.586-2.77 5.333-.472 3.36 2.81 6.502 5.87 9.999 8.757-.104-4.505.374-4.78 4.299-2.674 1.539.826 3.021 1.754 4.582 2.541 1.977.998 2.659 2.554 2.266 4.74-1.176 6.551-2.421 13.088-3.655 19.627-2.499 13.239-4.88 26.503-7.442 39.732-.34 1.752-.233 3.468.059 5.202 2.243 13.372 4.292 26.774 6.521 40.146.216 1.309.568 2.642-.416 3.823zM323.861 450.271h-34.951c-.679-.791-.496-1.704-.392-2.617 1.582-13.876 3.299-27.736 4.871-41.614.15-1.337.168-2.637-.019-3.969-2.695-19.108-5.559-38.192-8.299-57.293-.399-2.783.184-4.677 2.69-5.991 1.172-.615 2.189-1.514 3.392-2.096 1.426-.69 2.24-.22 2.383 1.338.203 2.224.074 4.458.066 6.834 2.515-4.594 5.215-8.893 7.744-13.293 1.67-2.909 2.635-3.054 5.264-.977 2.549 2.017 4.688 4.474 7.107 6.639 3.343 2.99 6.694 5.981 9.875 9.153 2.105 2.1 3.085 4.5 3.051 7.584-.124 10.89-.481 21.776-.714 32.662-.158 7.31.067 14.64-.403 21.932-.545 8.48-.127 16.965-.533 25.428-.218 4.568-.362 9.131-.414 13.701-.01.921-.052 1.839-.718 2.579z"/><path fill="#0D211C" d="M323.861 450.271c.179-12.135.121-24.281.628-36.401.285-6.816.076-13.632.429-20.433.459-8.805.194-17.624.564-26.419.191-4.565.064-9.142.425-13.689.192-2.415-.618-4.226-2.237-5.747-6.177-5.798-12.429-11.517-18.602-17.32-1.221-1.148-1.731-.644-2.399.513-2.656 4.606-5.373 9.179-8.069 13.761-.407.691-.701 1.474-1.641 2.054v-10.013c-2.707 1.155-4.717 2.892-6.917 4.302-.912.585-.581 1.446-.465 2.255 1.623 11.312 3.228 22.63 4.875 33.94 1.242 8.524 2.615 17.029 3.771 25.563.493 3.643-.57 7.25-.922 10.865-.609 6.265-1.557 12.494-2.313 18.744-.725 6.003-1.388 12.016-2.078 18.025h-1.997c-1.114-1.757-.271-3.611-.064-5.338 1.563-13.119 3.005-26.255 4.664-39.363.193-1.528-.034-2.98-.251-4.458-.758-5.17-1.561-10.337-2.353-16.052-3.068 4.587-5.458 9.015-8.187 13.227-1.355 2.092-2.522 4.306-3.896 6.389-.816 1.238-1.811 2.015-3.281.858-.838-.731-1.557-1.589-2.368-2.349-3.296-3.38-6.666-6.688-10.01-10.022-.523-.609-1.255-1.095-1.219-2.041-1.112-1.227-2.097-2.608-3.366-3.646-1.791-1.461-1.914-2.596-.577-4.64 9.167-14.015 18.134-28.16 27.244-42.214 1.281-1.976 3.569-2.989 5.576-3.991 3.435-1.714 4.538-4.094 4.254-7.871-.334-4.452.066-8.957.04-13.438-.007-1.257.476-1.947 1.473-2.599 2.359-1.535 4.643-3.184 6.957-4.787.852-.739 1.768-.662 2.713-.22.893 1.248-.177 1.791-.924 2.35-1.66 1.241-3.377 2.419-5.17 3.456-1.941 1.121-2.701 2.618-2.66 4.886.113 6.303.064 12.608.022 19.354 1.967-3.48 3.833-6.597 5.638-9.75 1.615-2.82 2.409-2.955 4.654-.79 4.592 4.43 9.53 8.489 13.973 13.062.15.127.164.428.465.395-.227-.122-.347-.337-.481-.559-2.508-4.518-4.882-9.095-7.312-13.64-1.408-2.634-1.328-3.425 1.001-5.079 2.618-1.861 3.772-4.201 3.848-7.379.041-1.768.046-3.662 1.099-5.277.804-.382 1.538-.339 2.163.357.552 3.754-.18 7.402-1.101 10.998-.309 1.203-1.57 1.9-2.576 2.633-1.355.986-1.7 2.123-.854 3.648 3.459 6.237 6.733 12.578 10.207 18.794.925-.182.971-.955 1.243-1.495 2.245-4.45 4.429-8.932 6.735-13.352.957-1.836.976-3.468-.83-4.559-5.393-3.257-7.438-8.132-7.281-14.202.028-1.115-.701-2.283.276-3.323.627-.346 1.256-.342 1.886-.016 1.754 2.372 1.107 5.26 1.59 7.895.303 1.659.813 2.888 2.134 3.968 1.724 1.407 3.277 3.026 5.027 4.418 1.617 1.286 2.095 2.791 1.191 4.804-.986 2.192-1.958 4.374-3.349 6.317.032.149-.394.178-.166.351.256.196-.141.099.079-.181 2.279-3.615 5.029-6.854 7.594-10.229 1.694-2.231 2.562-2.39 4.639-.394 2.52 2.421 5.33 4.521 7.701 7.068.707-.204-.079-.554.067-.805-1.128-4.502-2.022-9.047-2.965-13.575-.406-1.951-1.313-3.271-2.969-4.298-2.317-1.438-4.573-2.979-6.811-4.536-.775-.54-1.832-.911-1.806-2.153.668-.941 1.515-1.121 2.525-.586 2.747 1.864 5.391 3.913 8.276 5.536 2.129 1.194 2.92 2.852 3.323 5.083.723 3.998 1.677 7.953 2.455 11.941.232 1.183.846 1.883 1.868 2.431 3.508 1.881 6.973 3.837 10.481 5.715.831.444 1.356.935 1.752 1.884 6.415 15.366 12.905 30.702 19.378 46.045 1.328 3.147 1.323 3.146-1.734 4.469-.531.23-1.042.504-1.561.759-.602.898-1.591 1.221-2.495 1.677-3.907 1.588-7.733 3.357-11.629 4.966-.929.399-1.9.694-2.792 1.182-1.191.596-2.384 1.188-3.633 1.647-2.446.9-2.969.666-3.808-1.882-.545-1.656-1.039-3.332-1.407-5.127-.025-.062.013.021-.061.268-2.414 8.082-1.199 16.094.264 24.162 1.808 9.979 3.273 20.021 4.879 30.035.17 1.054.475 2.128-.021 3.187h-2.496c-.173-5.24-1.477-10.319-2.266-15.468-1.581-10.312-3.497-20.576-4.832-30.917-.481-3.726 1.085-7.491 1.772-11.222 3.178-17.264 6.463-34.508 9.725-51.755.222-1.178.075-2.132-1.081-2.752-2.917-1.564-5.824-3.146-8.956-4.841-.29 1.976.665 3.561.633 5.541-2.996-1.693-4.912-4.262-7.375-6.153-1.903-1.461-3.63-3.162-5.374-4.822-.896-.854-1.419-1.053-2.312.142-4.622 6.182-9.395 12.25-14.005 18.44-.972 1.303-.955 3.137-1.343 4.602-.734 2.767-.051 5.429-.628 8.04-.474 2.148-.299 4.302-.332 6.452-.217 13.709-.18 27.428-.695 41.125-.313 8.308.005 16.624-.492 24.907-.374 6.234-.217 12.456-.386 18.681l-1.995.001z"/><path fill="#FCC07C" d="M372.745 396.336c3.876-1.943 7.875-3.6 11.936-5.11 1.765.382 1.523 2.002 1.796 3.165 2.198 9.391 4.262 18.812 6.423 28.214 1.864 8.104 3.652 16.225 5.501 24.332.254 1.114.739 2.26-.144 3.335h-11.484c-.839-.663-1.112-1.617-1.368-2.594-4.133-15.767-8.342-31.515-12.539-47.269-.351-1.318-1.08-2.688-.121-4.073z"/><path fill="#3A5D79" d="M459.67 450.271h-41.941c-.479-3.219 2.274-8.715 5.351-10.191 5.541-2.658 11.044-5.383 16.409-8.383 1.48-.828 2.706-.944 3.899.582 3.565 4.571 8.26 7.889 12.863 11.287 2.291 1.692 3.645 3.772 3.419 6.705z"/><path fill="#FBC689" d="M581.499 450.271h-12.982c-.566-.689-.282-1.419-.065-2.119 2.808-9.072 5.688-18.124 8.597-27.166 1.589-2.429 4.133-3.745 6.37-5.415.729-.546 1.606-.6 2.201.228 2.25 3.129 5.004 5.926 6.413 9.618-.026 2.051-1.022 3.81-1.765 5.628-2.307 5.652-4.644 11.293-7.036 16.91-.395.927-.777 1.827-1.733 2.316zM727.792 450.271h-14.478c-1.035-.532-1.511-1.513-1.945-2.498-2.567-5.838-5.46-11.529-7.849-17.448-.142-.698.11-1.311.483-1.867 1.793-2.673 3.485-5.411 5.242-8.11.707-1.085 1.559-1.749 2.862-.88 2.465 1.647 5.086 3.085 7.109 5.323 3.984 7.396 6.093 15.496 8.783 23.376.245.715.377 1.453-.207 2.104z"/><path fill="#050707" d="M459.67 450.271c-.719-3.557-2.993-5.785-5.907-7.817-4.205-2.931-8.275-6.131-11.329-10.359-.633-.878-1.162-.64-1.871-.255-5.756 3.13-11.554 6.176-17.514 8.905-1.674.769-2.493 2.376-3.308 3.926-.932 1.772-1.542 3.661-2.012 5.601h-1.497c.601-1.802 1.109-3.643 1.827-5.394 1.205-2.943 3.232-4.979 6.241-6.358 5.253-2.404 10.315-5.229 15.474-7.848.889-.45 1.068-1.057 1.318-2.029.778-3.018 1.942-5.933 2.957-8.887 1.207-.272 1.597.474 1.806 1.446-1.133 1.856-1.668 3.953-2.386 5.979-.492 1.385-.326 2.646.626 3.727 3.893 4.417 8.234 8.321 13.414 11.688-.014-3.257.496-6.175 1.193-9.062.228-.672.09-1.427.464-2.066 3.483-4.633 6.118-4.996 10.781-1.485.2.149.407.294.581.468 2.205 2.24 4.501 4.028 7.903 2.292.612-.312 1.536-.218 2.198.086 2.429 1.111 3.986-.044 5.616-1.72 2.333-2.399 5.182-3.837 8.678-3.52.607.197 1.02.653 1.45 1.088 1.74 1.987 2.229 4.517 2.851 7.079 3.092-3.628 3.317-5.447 1.249-9.287-.272-.506-.607-.983-.67-1.582.102-.759.214-1.511 1.217-1.571.801 1.446 1.559 2.917 2.416 4.33.759 1.252 1.339 2.457.424 3.881-.343.533-.19 1.076.034 1.656 2.163 5.564 3.556 11.366 5.207 17.09h-1.497c-1.116-.579-1.22-1.715-1.475-2.746-.954-3.86-2.063-7.673-3.424-11.627-1.673 2.145-2.532 4.226-2.559 6.878-.023 2.574-.015 5.367-2.03 7.495h-1.497c-.541-.613-.237-1.256-.03-1.872 1.677-5.037.979-10.007-.544-14.9-1.156-3.711-3.211-4.271-6.341-1.932-.801.599-1.431 1.392-2.209 1.998-1.509 1.181-1.67 2.325-.596 4.003 1.33 2.074 1.235 4.513.392 6.725-.672 1.767-.244 2.771 1.206 3.747.756.509 1.846.941 1.631 2.231h-1.997c-.999.041-1.998-1.937-2.996 0h-1.498c-2.33-.92-4.66-.748-6.99 0h-1.499c-1.516-2.265-1.518-2.269-3.966-.822-.498.295-1.083.426-1.525.822h-1.998c-.121-1.795 1.532-2.208 2.514-3.073.992-.873 1.422-1.568.868-2.952-.896-2.235-.861-4.595.351-6.739.817-1.449.469-2.442-.644-3.492-1.275-1.201-2.526-2.41-4.119-3.186-2.343-1.141-3.918-.722-4.779 1.718-1.727 4.902-2.746 9.919-1.125 15.106.264.843.864 1.65.444 2.618l-1.499-.002z"/><path fill="#BE3C3C" d="M461.168 450.271c-3.12-6.314-1.906-12.561.435-18.721.821-2.158 2.617-2.627 4.702-1.655 2.538 1.184 4.417 3.172 6.271 5.193.487.535.436.94.038 1.51-1.871 2.677-2.087 5.533-.639 8.442.512 1.031.011 1.404-.654 2.017-1.197 1.101-2.854 1.68-3.663 3.214h-6.49zM490.126 450.271c-.276-.297-.51-.66-.837-.877-2.201-1.47-4.218-2.649-2.367-6.076 1.098-2.038.422-4.745-1.233-6.786-.471-.578-1.098-1.055-.303-1.86 1.692-1.715 3.31-3.521 5.501-4.627 2.476-1.247 4.237-.793 5.207 1.84 2.125 5.776 3.229 11.675.634 17.663-.093.216-.075.48-.11.724l-6.492-.001z"/><path fill="#B2B2B2" d="M617.948 450.271c1.091-3.29.517-6.733.849-10.097.687-6.995.806-14.048 1.191-21.076.281-5.112.927-10.221.46-15.348-.954-10.456-1.663-20.935-3.32-31.321-.583-3.654-.801-7.367-1.584-10.995-1.385-2.657-.749-4.116 1.929-4.414-.07 5.152 1.16 10.161 1.705 15.247.553 5.17 1.455 10.293 1.804 15.493.402 6.015 1.107 12.011 1.5 18.027.192 2.951.142 5.944-.1 8.894-.441 5.36-.729 10.725-.999 16.094-.298 5.947-.906 11.878-.973 17.841-.007.554-.304 1.104-.466 1.655h-1.996z"/><path fill="#B3B3B3" d="M677.33 366.905c-.931-.466-.888.153-.939.792-.85 10.149-1.337 20.35-2.677 30.438-1.433 10.79.618 21.279 1.569 31.877.607 6.761 1.382 13.506 2.08 20.259h-1.997c-.669-6.483-1.323-12.969-2.015-19.45-.787-7.382-1.746-14.752-2.346-22.147-.237-2.934.224-5.938.485-8.898.405-4.603.923-9.192 1.369-13.791.652-6.735 1.291-13.472 1.919-20.209.229-2.468.404-4.941.604-7.414 1.164-.685 1.835-.154 2.291.921.116 1.089-.21 2.158-.135 3.248-.226 1.448.643 2.954-.208 4.374z"/><path fill="#F8A342" d="M398.257 450.271c-.615-4.761-1.979-9.362-3.022-14.03-3.258-14.585-6.617-29.148-9.924-43.722-.113-.496-.179-.979-.631-1.294.776-.359 1.551-.717 2.326-1.072 3.502 15.591 7.046 31.169 10.483 46.771.977 4.436 2.381 8.786 2.764 13.347h-1.996zM372.745 396.336c.966 5.799 2.847 11.367 4.32 17.038 3.197 12.308 6.467 24.598 9.708 36.897h-1.998c-4.489-16.799-8.977-33.599-13.47-50.397-.234-.879-.505-1.748-.758-2.623.647-.516 1.383-.809 2.198-.915z"/><path fill="#3A5C78" d="M498.115 450.271c.939-3.188 1.431-6.394 1.389-9.764-.028-2.249 2.138-3.797 3.147-6.312 2.313 5.47 3.405 10.845 4.952 16.075-3.162.001-6.327.001-9.488.001z"/><path fill="#F8A449" d="M577.535 420.886c-1.721 6.906-4.162 13.589-6.258 20.379-.926 2.999-1.841 6.004-2.761 9.007h-1.998c1.657-6.923 4.232-13.567 6.242-20.383.932-3.163 2.021-6.278 3.04-9.417.24 1.555 1.263-.174 1.735.414zM727.792 450.271c-2.128-7.808-4.715-15.455-7.946-22.881-.36-.829-.704-1.667-1.056-2.499.434-.524.494-1.278 1.061-1.722 4.629 8.551 7.542 17.73 9.94 27.102h-1.999zM581.499 450.271c3.423-8.33 7.384-16.442 10.095-25.06 1.275.155 1.587 1.014 1.542 2.129-2.816 6.945-5.638 13.888-8.445 20.835-.274.683-.466 1.396-.696 2.096h-2.496z"/><path fill="#F8A44A" d="M703.754 430.254c2.802 4.574 4.459 9.696 6.946 14.424.959 1.817 1.746 3.727 2.614 5.594h-2.498c-2.782-6.191-5.563-12.384-8.346-18.574.215-.673.156-1.586 1.284-1.444z"/><path fill="#385A76" d="M469.656 450.271c.606-1.268 1.897-1.794 2.932-2.544 1.258-.913 2.367.229 2.56 2.544h-5.492z"/><path fill="#365670" d="M476.646 450.271c-.033-.953.573-.999 1.301-.966 1.473.065 2.931.116 4.374-.391 1.227-.429 1.369.423 1.315 1.356l-6.99.001z"/><path fill="#34536B" d="M485.134 450.271l-.223-2.33c1.471.531 2.267 1.543 3.219 2.33h-2.996z"/><path fill="#411010" d="M600.646 346.359c-1.312-.788-2.54.086-3.763.282-7.982 1.286-16.004 1.563-23.472 1.237 1.7-1.94 3.605-4.151 5.55-6.33 2.836-3.181 5.449-6.486 6.622-10.701 1.086-3.9-.142-7.025-3.148-9.543-2.197-1.838-4.79-2.952-7.479-3.856-2.521-.849-4.975-1.85-7.26-3.226-7.604-4.591-10.057-11.553-7.001-19.86.864-2.353 2.814-4.359 3.293-6.618.462-2.167-2.555-3.632-3.302-5.918-1.362-4.163-.626-8.031 1.185-11.812 2.149-4.487 5.301-8.218 8.932-11.567.807-.745 1.535-1.245.441-2.553-8.596-10.269-7.928-21.468-.989-32.467 4.268-6.762 9.959-12.21 16.466-17.229-4.393-1.926-4.237-5.529-3.765-9.282.116-.909.416-1.305 1.402-1.253 10.402.542 19.359-3.915 28.333-8.277 4.4-2.14 8.771-4.338 13.326-6.147 6.312-2.511 12.873-2.113 19.433-1.84 11.229.464 22.387 1.446 33.209 4.729 5.435 1.647 10.607 3.839 15.037 7.512 6.609 5.482 8.876 12.481 6.87 20.732-.524 2.15.082 2.792 1.868 3.569 5.773 2.516 10.927 5.972 15.044 10.815 5.854 6.89 7.708 14.744 5.458 23.497-.382 1.487-.149 2.339 1.083 3.334 4.567 3.688 8.43 8.011 10.976 13.379 3.547 7.488 2.832 14.523-2.456 20.943-1.007 1.221-1.069 1.755.167 2.886 10.946 10.013 12.208 22.254 3.538 34.273-5.035 6.983-11.715 12.194-18.812 16.912-5.885 3.91-12.066 7.298-18.409 10.398-.488.238-1.007.41-1.839.746 1.47-4.646 2.229-9.053 1.594-13.981-2.931 2.975-5.732 5.51-9.325 6.94-.551-.179-.773-.582-.779-1.133.278-.865.99-1.318 1.723-1.702 2.324-1.217 4.073-3.105 5.926-4.891 1.174-1.131 1.412-2.342.898-3.829-1.493-4.341-3.904-8.05-7.521-10.906-2.417-1.911-5.024-3.534-7.919-4.634-1.881-.712-3.561-1.76-5.218-2.869-1.027-.425-1.831-1.19-2.746-1.786-6.883-5.724-6.573-11.17.888-16.191 2.432-1.637 5.051-2.884 7.787-3.889 1.266-.465 1.604-1.069.646-2.146-.219-.247-.405-.525-.597-.798-4.389-6.22-3.711-11.185 2.358-15.678 1.613-1.193 2.024-2.284 1.433-4.178-1.396-4.452-1.617-8.978-.191-13.497.532-1.462 1.105-2.907 1.995-4.201.652-1.227 1.433-2.372 2.301-3.452.785-.974.765-1.754-.466-2.306-3.307-1.963-6.189-4.485-9.174-6.881-2.296-2.762-4.562-5.544-5.078-9.272-.181-1.296-1.006-1.682-2.133-1.48-3.636.647-7.301.294-10.951.395-1.27.034-2.468.326-3.649.749-5.102 1.82-10.276 3.339-15.701 3.86-1.839.177-3.294 1.084-4.391 2.563-1.243 1.681-2.733 3.131-4.228 4.574-.65.628-1.271 1.348-2.308 1.317-1.183-1.009-.138-2.037-.029-3.057 1.071-1.756 3-2.797 4.145-4.834-2.985-.359-5.778-.559-8.474-1.381-3.15-.96-5.956-2.443-8.496-4.563-3.27-2.729-7.421-2.506-11.157-2.129-2.701.271-4.312 3.17-5.528 5.688-.725 1.5-1.292 3.115-1.43 4.761-.515 6.223-2.396 11.856-7.037 16.597 2.233.83 4.175.553 6.086.218 10.251-1.806 20.087-4.667 28.384-11.364.323-.26.71-.43 1.105-.569.643-.176 1.271-.217 1.848.197.676 1.144-.283 1.717-.931 2.211-4.363 3.34-8.846 6.488-14.212 8.07-1.397.406-2.763.912-4.145 1.364-1.609.672-3.277 1.149-4.976 1.526-.493.098-.992.152-1.49.207-3.658.775-7.295 1.708-11.09 1.387-2.939-.25-3.762-.922-4.137-3.705-.156-1.141-.934-.736-1.452-.727-2.104.042-4.142-.204-6.11-.995-2.802-1.125-3.067-2.238-.771-4.221 4.144-3.579 8.126-7.335 12.428-11.223-1.516-.13-2.809.005-4.082-.088-2.859-.205-5.353-1.229-7.2-3.484-1.438-1.758-1.218-2.9.788-4.006 3.427-1.888 7.037-3.396 10.565-5.078 2.338-1.115 2.338-1.285.27-2.898-6.64-5.181-5.338-13.674.949-18.842.707-.58 1.528-.745 2.323-.263 3.721 2.263 7.154.732 10.365-1.039 3.642-2.012 7.145-4.261 11.125-5.574 1.027-.339 1.21-.966.917-1.929-.561-1.837-.85-3.739-1.031-5.636-.175-1.799-.938-1.831-2.3-1.158-4.323 2.137-8.579 4.413-13.037 6.277-5.329 2.229-10.801 3.848-16.6 4.215-1.25.078-2.837-.405-3.12 1.585-.236 1.653.916 3.636 2.446 4.263.869.354 1.8.284 2.703.407.567.076 1.284.085 1.45.749.163.649-.459 1.016-.902 1.36-2.559 1.989-5.122 3.96-7.594 6.07-4.867 4.158-8.808 9.03-12.075 14.49-5.573 9.31-4.954 18.93 1.759 27.407.415.522.78 1.084 1.225 1.578 1.069 1.184.867 2.14-.317 3.16-3.364 2.892-6.254 6.216-8.562 10.011-1.569 2.577-2.784 5.295-2.782 8.418.002 2.71.898 5.017 2.774 6.995 2.354 2.483 2.288 2.496.518 5.531-1.979 3.391-3.726 6.854-3.809 10.942-.104 5.159 2.604 8.607 6.642 11.257 2.517 1.654 5.357 2.646 8.163 3.703 2.971 1.117 5.829 2.458 8.149 4.71 3.683 3.574 4.469 8.155 2.325 13.05-2.002 4.566-4.942 8.443-9.128 12.264 3.697.043 6.781.203 9.856-.102 4.135-.407 8.273-.821 12.319-1.843.484-.123.986-.165 1.477.028.58 1.125.435 2.013-.812 2.549z"/><path d="M265.125 261.71c-1.425-3.251-1.487-6.771-1.911-10.199-1.088-8.833-1.801-17.688-.295-26.553.663-3.901 1.763-7.615 4.874-10.369.464-.411.753-.768.5-1.48-1.528-4.276-.115-8.187 1.708-11.966 5.524-11.45 15.275-17.739 26.779-21.984 11.171-4.12 22.422-2.729 33.676-.779 7.068 1.225 13.803 3.55 20.013 7.227 7.966 4.712 13.97 11.206 17.374 19.86 1.908 4.854 3.971 9.624 6.118 14.374 2.745 6.073 4.105 12.43 1.952 19.809-1.625-3.739-3.02-6.947-4.417-10.157-1.159 3.813-2.056 7.464-3.57 10.931-.397.909-.07 1.818.25 2.667 2.607 6.929 1.961 13.449-1.874 19.856-1.943 3.245-3.19 6.908-4.753 10.383-.796-.508-.786-1.284-.698-2.086.305-5.027 2.793-9.326 4.953-13.646 1.926-3.855 1.65-7.415.068-11.415-1.54 2.375-2.896 4.699-4.613 6.766-1.537 1.471-1.913.158-2.368-.983-.911-6.174-2.847-11.966-6.56-17.051-1.945-2.665-2.393-2.751-5.437-1.718-5.716 1.936-11.083 4.49-15.619 8.592-1.74 1.574-3.358 1.626-4.641.378-1.264-1.229-1.161-3.224.414-4.903 3.974-4.242 9.2-6.471 14.358-8.795.605-.272 1.273-.39 1.851-.733.149-.089.256-.207.385-.575-.906-1.138-2.327-1.633-3.667-2.186-9.694-4.015-19.67-5.291-30.02-3.078-4.146.884-8.273 1.874-12.435 2.669-3.03.578-4.391 2.761-5.808 5.017-.72 1.148.287 1.217.976 1.396 5.112 1.326 9.358 4.229 13.474 7.367 1.06.807 2.078 1.694 2.759 2.854.806 1.369.712 2.77-.441 3.882-1.083 1.044-2.409 1.081-3.67.268-1.328-.857-2.504-1.92-3.742-2.901-2.962-2.343-6.17-4.236-9.819-5.291-3.273-.947-4.318-.468-6.314 2.277-2.081 2.859-3.434 6.286-6.626 8.312-1.157.734-.641 2.116-.467 3.251 1.485 9.694 2.975 19.391 4.346 29.102.082.575.228 1.146.18 1.733-.089 1.087-.664 1.604-1.65 1.006-3.38-2.045-7.219-3.671-7.86-8.34-.169-1.229-.802-2.378-.983-3.605-.428-2.912-1.887-5.097-4.349-6.647-.819-.831-2.068-1.251-2.401-2.537z"/><path fill="#0E0D0E" d="M688.874 344.892l.579 1.191c5.685 13.23 11.357 26.467 17.059 39.693 3.538 8.205 7.033 16.431 10.725 24.565 1.341 2.958 1.696 6.025 2.063 9.146.147 1.232.365 2.456.551 3.682-.627.406 1.085 2.253-1.061 1.722-2.562-1.797-5.164-5.062-7.67-4.992-2.657.075-3.518 4.563-5.355 6.984-.787 1.035-1.349 2.241-2.011 3.37l-1.284 1.443c-4.04-10.412-8.083-20.822-12.123-31.233-4.341-11.186-8.679-22.373-13.017-33.559-.51-1.475-.71-2.974-.354-4.517.396-.844.863-.627 1.281-.048.541.747.835 1.625 1.167 2.477 7.661 19.688 15.255 39.403 22.885 59.104.201.52.222 1.155 1.02 1.569 1.715-2.284 3.056-4.852 4.717-7.199 1.804-2.549 2.109-2.629 4.781-.912 1.04.666 2.022 1.43 3.414 2.108.129-2.434-.04-4.578-.933-6.637-9.23-21.289-18.414-42.598-27.691-63.865-1.323-3.034-2.67-6.137-5.885-7.813-2.598-1.355-3.4-1.024-3.175 1.829.375 4.73.56 9.459.404 14.195-.03.938.421 2.562-1.596 2.203-.453-.741-1.114-1.089-1.982-1.038-2.816-1.778-2.851-4.66-2.918-7.493-.082-3.505-.163-3.756-3.702-3.326-6.175.754-12.316 1.797-18.487 2.594-8.139 1.052-16.074.79-23.235-4.01-1.786-1.196-2.93-.222-3.712 1.438-1.587 3.378-3.046 6.834-5.855 9.456-2.338.73-2.107 2.582-1.929 4.414-2.351 6.947-4.73 13.887-7.047 20.848-4.735 14.225-9.427 28.465-14.176 42.687-.274.82-.24 1.861-1.187 2.372l-1.541-2.129c-2.038-2.913-4.103-5.808-6.093-8.751-.598-.887-1.072-1.053-1.934-.346-1.98 1.628-4.019 3.186-6.032 4.771-.596-.069-1.681 1.902-1.734-.415-.571-10.259 4.112-19.135 7.539-28.322 5.701-15.287 11.531-30.527 17.306-45.788l.815-2.444c.493-4.964 2.99-8.743 7.312-11.018 5.256-2.763 10.723-3.052 16.116-.125.527 1.572 2.078 1.61 3.288 2.164 7.554 3.141 15.245 5.498 23.579 5.359 4.547-.076 8.687-1.038 12.402-3.674 1.018-.535 1.771-1.388 2.595-2.16.514-.438 1.093-.872 1.777-.729 6.855 1.418 13.907 2.42 18.887 8.161.74.85 1.659 1.667 1.457 2.998z"/><path fill="#010000" d="M501.019 423.314l-.925 1.596c-.7 1.959-1.741 3.563-4.024 3.878-.557-.01-.896-.263-.941-.847-.003-.63.369-1.075.722-1.543 8.694-11.491 11.275-24.346 8.441-38.36-.742-3.667-1.876-7.228-3.372-10.681-.757-1.745-1.773-2.062-3.3-1.188-3.753 2.144-7.814 2.523-12.044 2.427-4.982-.115-9.958.004-14.908-.84-5.244-.893-9.808-3.041-13.642-6.728-2.631-1.922-4.462-4.39-5.425-7.546-.663-2.169-1.068-2.237-2.903-.766-1.56 1.249-2.979 2.658-4.215 4.231-.979 1.25-1.907 2.542-1.54 4.303.124.597-.006 1.175-.594 1.516-.654.383-1.071-.112-1.543-.438-2.097-1.454-3.374-1.625-4.912.4-4.915 6.479-11.046 11.694-16.978 17.135-1.333 1.224-1.83 2.748-1.17 4.527 2.812 7.591 6.199 14.878 11.199 21.321.874 1.128 1.897 2.091 3.093 2.866 2.878 1.868 5.662 1.296 7.521-1.564.78-1.2 1.368-2.521 1.411-3.952.126-4.144.319-8.263-1.008-12.341-1.966-6.039-.811-12.013 1.057-17.863.609-1.91 1.29-1.938 2.575-.394-.43 3.364-1.697 6.563-1.81 10.008-.093 2.851.011 5.618.991 8.329 1.359 3.762 1.23 7.691.999 11.582-.113 1.891.417 3.354 1.507 4.816 3.632 4.875 7.461 9.543 12.584 12.968.617.411 1.234.87 1.302 1.718.185.472.787.94.001 1.411-.604.329-1.141.054-1.623-.255-4.206-2.681-8.042-5.795-11.11-9.769-.429-.556-1.082-1.091-.743-1.965-.358-.717-.896-1.242-1.642-1.552.023-1.297-1.07-1.979-1.64-3.142-.313.435-.566.739-.772 1.075-2.99 4.877-7.671 5.634-11.914 1.78-4.259-3.868-6.902-8.892-9.45-13.936-1.791-3.548-3.329-7.211-4.663-10.967-.762-2.146-.363-3.856 1.084-5.499 2.102-2.384 4.674-4.236 7.033-6.325 3.183-2.82 6.053-5.908 8.67-9.264 1.929-2.476 3.886-5.114 7.694-4.555.856.127 1.01-.743 1.338-1.268 2.295-3.668 5.347-6.57 9.05-8.747 1.552-.914 2.395-2.303 3.081-3.789 5.782-12.542 13.342-24.062 20.543-35.784 4.083-6.646 9.412-12.215 15.754-16.758 1-.715 1.054-1.823 1.755-2.603.645.372 1.717-.619 2.081.65-.304 1.333.684.797 1.193.769 2.479-.136 4.956-.349 7.434-.49 1.78-.102 3.447.252 4.821 1.496.179.265.155.511-.072.736-4.257-2.28-8.647-.778-13.611-.576l3.651 1.96c.279.309.318.62.004.93-.782 1.458.777 1.329 1.291 1.66 7.378 4.773 13.175 10.856 16.336 19.203.173.458.369.91.509 1.381.025.087-.17.24-.703.94-3.833-10.526-10.946-17.755-20.83-22.845 1.886 5.834 4.209 11.228 4.694 17.108 1.018 12.332 3.327 24.574 2.582 37.021-.143 2.388.334 3.352 3.043 3.297 5.668-.111 10.462 3.734 12.028 9.723 2.576 9.851 2.129 19.752-.35 29.571-.437 1.73-.849 3.891-3.042 4.131-1.962.213-2.939-1.587-3.961-3.004l-1.286-1.795c-.83 7.891-3.375 14.761-6.406 21.476z"/><path fill="#F8A241" d="M265.125 261.71l2.247 1.796c-2.296 1.798-3.978 3.779-3.793 7.067.248 4.396 2.091 7.297 6.441 8.274 2.564.576 4.049 1.822 5.012 4.208.929 2.302 2.175 4.481 3.377 6.668 5.201 9.46 13.967 13.612 23.936 15.261 12.199 2.017 24.504 1.8 36.656-.746 7.231-1.515 13.246-4.891 16.229-12.188 1.684-4.12 2.462-8.422 2.921-12.832.819-7.882.293-15.779.481-23.665.029-1.211-.306-2.522.698-3.553.513.166.126 2.601 1.499.595 1.622.411 1.195 1.809 1.235 2.842.204 5.206.018 10.402-.677 15.572-.135.786-.133 1.563.163 2.319-.476 3.955-.813 7.93-1.447 11.857-1.672 10.368-7.127 17.712-17.338 21.109-.846.126-1.72.146-2.453.683-1.297 1.432-3.142 1.325-4.786 1.496-2.377.24-4.778 1.419-7.191.129l-1.905-.062c-1.775 1.721-3.874 1.167-5.94.843-.576-.792-1.36-.444-2.093-.38-1.895 1.242-4.046.824-6.036.645-2.651-.235-5.478.228-7.904-1.381l-2.91-.33c-3.614-1.177-7.253-2.246-10.811-3.63-5.836-2.272-10.128-6.219-13.48-11.339-1.043-1.596-2.094-3.216-2.87-4.945-1.568-3.503-3.28-6.216-7.548-7.531-7.806-2.41-8.161-15.158-1.713-18.782z"/><path fill="#0A0A0A" d="M516.523 302.518c-3.463-2.228-7.004-4.19-11.21-4.771-3.112-.43-6.045.23-9.021.822-1.272.148-1.312-.635-1.168-1.553 5.034-1.753 10.018-4.012 15.458-1.448.008.745-.576.827-1.095.978-2.407-.108-4.808-.741-7.18-.121 1.336-.073 2.618-.075 3.907-.08 4.272.719 8.279 1.971 11.09 5.589-.084.43-.254.744-.781.584z"/><path fill="#111" d="M509.75 303.896c3.453 1.799 6.578 4.108 9.735 6.353 2.436 1.735 2.836 4.527 3.481 7.138-2.24-6.392-8.164-8.842-13.071-12.338-.267-.189-.526-.392-.79-.589-.035-.476.093-.761.645-.564z"/><path fill="#161616" d="M509.541 296.014l1.04-.445c3.576 1.147 6.934 2.743 9.991 4.942.096.483-.204.679-.591.812-3.811-1.115-7.411-2.652-10.44-5.309zM519.942 301.046l.63-.535c3.206 1.736 4.533 5.325 7.336 7.467.198.149.483.605.117.829-.806.494-1.117-.22-1.483-.735-.664-.45-1.683-.071-2.181-.921-.885-1.597-2.024-2.998-3.317-4.282-.517-.515-1.176-.947-1.102-1.823z"/><path fill="#151515" d="M517.979 319.178c-1.959-3.934-4.79-6.987-8.868-8.78-.025-.582.282-.672.757-.514 4.263 1.476 6.929 4.565 8.685 8.578-.158.263-.197.624-.574.716zM495.124 297.017c.316.572.492 1.251 1.168 1.553-.866.688-1.73 1.374-2.597 2.058-.597-.524-1.65.405-2.081-.65.575-1.693 1.871-2.53 3.51-2.961zM509.868 309.884l-.757.514c-2.453-.911-4.717-2.203-6.994-3.468-.049-.601.24-.734.759-.549 2.33 1.166 4.661 2.335 6.992 3.503z"/><path fill="#202020" d="M524.512 306.947c.606.502 1.626.26 2.03 1.124-.908.484-1.711.854-2.688-.082-.978-.935-2.195-1.62-3.311-2.412-.185-.216-.196-.439-.037-.675 1.899-.425 2.943.828 4.006 2.045z"/><path fill="#1A1A1A" d="M502.876 306.381l-.759.549c-1.746-.228-3.458-.571-5.002-1.479l-.004-.93c1.921.622 3.844 1.24 5.765 1.86z"/><path fill="#111" d="M517.979 319.178l.573-.716c.652 1.242 1.33 2.478.705 4.388-.894-1.362-.979-2.559-1.278-3.672z"/><path fill="#2B2B2B" d="M509.75 303.896l-.645.563c-.777-.288-1.491-.672-2.034-1.322l.072-.736c1.039.206 1.869.77 2.607 1.495z"/><path fill="#323232" d="M516.523 302.518l.576-.56c1.225-.239 1.943.294 2.231 1.475-.092.389-.221.729-.736.541-.831-.286-1.527-.763-2.071-1.456z"/><path fill="#191919" d="M518.595 303.974l.499-.529c1.068-.118 1.514.43 1.531 1.434l-.082.699-1.948-1.604z"/><path fill="#7BCAF1" d="M658.438 362.485c.077 6.251-.776 5.291 5.452 5.376.995.013 1.996.039 2.989-.005 2.066-.091 3.093.793 3.046 2.936-.046 2.089-1.197 2.701-3.073 2.65-2.073-.058-4.153.047-6.227-.031-1.603-.061-2.258.57-2.205 2.188.076 2.322-.027 4.65.026 6.973.042 1.725-.767 2.363-2.42 2.355-1.659-.008-3.069-.271-3.129-2.302-.064-2.239-.106-4.488.002-6.724.087-1.803-.517-2.602-2.405-2.498-2.07.112-4.152-.005-6.227.033-1.8.034-2.867-.672-2.867-2.592.001-1.92.946-2.948 2.88-2.973 2.244-.025 4.486-.067 6.726.011 1.389.048 1.938-.435 1.89-1.856-.082-2.322-.002-4.648-.025-6.974-.021-1.889.901-2.686 2.758-2.69 1.83-.005 2.832.726 2.811 2.636-.013 1.163-.003 2.326-.002 3.487z"/><path fill="#ED3E3E" d="M350.572 357.716c-2.323 0-4.651.101-6.967-.026-2.666-.144-3.408-1.104-3.335-3.858.065-2.437.965-3.368 3.568-3.401 4.396-.056 8.793-.056 13.19-.002 2.743.034 3.724 1.013 3.779 3.507.059 2.635-.946 3.692-3.764 3.782-2.156.069-4.314.014-6.471.014v-.016z"/><path fill="#2A7964" d="M283.737 344.2c1.234 8.403 2.453 16.64 3.651 24.877.381 2.622.464 5.316 1.129 7.86.583 2.221-.18 3.751-1.285 5.508-3.938 6.255-7.774 12.575-11.546 18.934-.805 1.357-1.261 1.34-2.296.277-5.053-5.182-10.156-10.313-15.276-15.429-.754-.754-1.009-1.329-.36-2.327 8.45-13.036 16.862-26.092 25.292-39.14.118-.181.35-.287.691-.56zM370.326 342.814c2.485 5.87 4.979 11.738 7.456 17.61 3.482 8.258 6.926 16.533 10.459 24.772.583 1.357.486 2.019-.975 2.625-6.667 2.771-13.301 5.62-19.919 8.505-1.451.631-2.251.652-2.624-1.187-.411-2.025-.987-4.046-1.766-5.958-1.261-3.099-.702-6.141-.119-9.224 2.337-12.362 4.667-24.726 6.999-37.089l.489-.054z"/><path fill="#2A7864" d="M304.458 308.267l13.94.736c-.207 2.388-.462 4.774-.608 7.168-.161 2.597-1.743 4.158-3.731 5.498-1.783 1.199-2.412 2.423-1.088 4.659 2.695 4.553 4.987 9.346 7.444 14.038.165.548-.082.687-.576.579-4.944-4.536-9.958-9.002-14.792-13.652-1.502-1.443-2.125-1.197-3.03.432-2.127 3.831-4.366 7.604-6.577 11.432-.907-.535-.484-1.267-.485-1.837-.018-6.725.046-13.447-.008-20.17-.013-1.581.479-2.559 1.829-3.463 2.601-1.743 5.419-3.196 7.682-5.42zM328.336 308.603c3.994-.541 7.985-1.083 11.978-1.625 3.283 2.241 6.559 4.493 9.851 6.72.907.614 1.73 1.229 1.967 2.412 1.057 5.27 2.147 10.534 3.224 15.799.234.561.395 1.082-.54 1.03-2.828-2.541-5.693-5.042-8.465-7.644-1.435-1.344-2.335-1.105-3.453.445-2.606 3.617-5.374 7.118-8.077 10.668-.445.125-.684.044-.48-.48 1.166-2.461 2.257-4.959 3.528-7.363.68-1.288.42-2.119-.621-2.982-1.46-1.21-2.708-2.738-4.306-3.706-3.544-2.147-3.92-5.529-4.1-9.112-.07-1.392-.332-2.776-.506-4.162z"/><path fill="#FCC07C" d="M320.491 309.383c1.883-.969 4.049.059 5.942-.844.34 3.301.691 6.6 1.02 9.901.104 1.054.571 1.829 1.395 2.519 2.035 1.704 3.96 3.54 6.004 5.234.973.809 1.278 1.495.649 2.732-2.993 5.891-5.894 11.828-8.999 18.096-2.073-3.854-3.991-7.415-5.907-10.98-1.885-3.503-3.765-7.009-5.652-10.512-.351-.651-.923-1.377.064-1.894 5.443-2.857 4.571-8.265 5.314-13.022.064-.408.114-.818.17-1.23z"/><path fill="#20594A" d="M334.341 335.928l.48.48c-.209.546-.536.988-1.235 1.312-.176-.837.27-1.32.755-1.792z"/><path fill="#256A58" d="M319.839 340.945l.576-.579c.519.433.742 1.006.924 1.726-.904-.04-1.158-.646-1.5-1.147z"/><path fill="#1E5446" d="M354.816 332.938c.425-.215.478-.625.54-1.03.486.443.714 1.085.304 1.536-.366.398-.647-.168-.844-.506z"/><path fill="#F4D988" d="M459.166 431.885c-6.345-4.051-11.186-9.574-15.391-15.724-.63-.923-.858-1.777-.71-2.971.453-3.641.659-7.403-.584-10.867-2.449-6.834-1.337-13.388.808-19.961.604-5.136 4.296-7.927 8.167-10.454 1.632-1.065 3.403-2.447 5.668-1.507 6.977 6.719 15.762 7.478 24.773 7.566 5.737.057 11.492.374 16.626-2.957 1.249-.81 1.938-.359 2.549 1.008 5.745 12.827 6.883 25.821 1.782 39.148-1.814 4.743-3.487 9.521-7.727 12.774-4.498.042-7.759 2.402-10.527 5.648-.677.797-1.294.68-2.171.32-2.418-.985-4.88-.968-7.168.374-1.073.629-1.568.213-2.218-.579-1.371-1.677-3-3.098-4.838-4.248-3.427-2.144-5.78-1.651-7.925 1.696-.316.495-.569.75-1.114.734z"/><path fill="#3A5D78" d="M445.691 421.308c3.636 4.957 8.098 8.987 13.476 11.988-.185 3.373-1.447 6.629-.84 10.514-3.545-2.005-6.25-4.374-9.008-6.658-1.015-.844-1.93-1.812-2.867-2.746-4.693-4.685-4.98-6.803-1.766-12.573.248-.444.572-.538 1.005-.525z"/><path fill="#BE3C3C" d="M479.176 448.267c-3.66-.046-6.953-3.285-6.943-6.83.01-3.695 3.441-7.073 7.075-6.97 3.664.106 6.814 3.357 6.756 6.972-.06 3.694-3.267 6.873-6.888 6.828z"/><path fill="#395C77" d="M496.069 428.788c1.633-.99 2.672-2.597 4.024-3.878.803 1.341 1.571 2.703 2.422 4.013.412.632.396 1.174.123 1.841-.904 2.202-1.778 4.416-3.617 6.664-.672-3.211-1.436-6.072-2.952-8.64z"/><path fill="#1E1F1E" d="M677.365 359.399c1.392-.248.945-1.358.98-2.188.209-5.143-.236-10.269-.456-15.401-.109-2.58.236-2.738 2.721-1.886 2.931 1.006 4.91 3.055 6.145 5.811 3.356 7.488 6.69 14.986 9.968 22.512 4.138 9.492 8.2 19.021 12.313 28.526 2.337 5.401 4.688 10.794 7.079 16.172.935 2.105.576 4.407 1.138 6.573.242.936-.232 1.464-1.269.743-1.224-.852-2.572-1.546-3.709-2.499-1.549-1.294-2.48-1.283-3.568.646-1.659 2.945-3.654 5.704-5.725 8.876-1.63-4.112-3.168-7.917-4.65-11.744-4.669-12.05-9.311-24.108-13.978-36.159-2.094-5.406-4.225-10.8-6.335-16.201-.189-.489-.114-1.292-1.044-.791-.124-1.029.024-2.025.39-2.99z"/><path fill="#661B1B" d="M689.072 294.024c-1.534-1.138-2.716-1.807-3.641-2.733-5.289-5.292-4.768-10.962 1.679-14.5 2.519-1.383 2.651-2.439 1.713-4.876-3.184-8.262-1.468-15.626 4.806-21.86 1.245-1.24 1.168-1.723-.395-2.618-5.051-2.896-9.832-6.15-13.311-11.004-4.161-5.805-1.419-9.959 2.428-12.837 4.897-3.662 10.684-5.217 16.414-6.894.644-.189 1.322-.173 1.956.115 8.098 3.672 15.204 8.477 19.343 16.744 2.617 5.229 2.996 10.646 1.369 16.176-.674 2.293-.188 3.559 1.74 5.169 4.99 4.166 9.263 8.968 11.507 15.342 2.339 6.645.384 12.197-3.746 17.306-1.938 2.396-2.03 2.287.497 4.239 4.144 3.2 6.919 7.411 8.257 12.4 1.89 7.048-.056 13.436-4.16 19.249-6.622 9.378-15.88 15.634-25.544 21.374-3.188 1.894-6.515 3.563-10.36 5.652.852-3.301.724-6.151.712-8.997-.043-10.089-4.911-17.265-13.428-22.25-3.994-2.34-8.417-3.836-12.14-6.745-5.049-3.945-5.075-8.184.096-11.832 4.046-2.853 8.63-4.519 14.208-6.62zM624.907 333.378c-6.868-3.79-17.845-2.107-21.44 5.986-.675 1.516-1.339 3.036-2.006 4.552-8.008 2.47-16.229 2.656-24.867 2.45 2.063-2.701 4.576-4.521 6.292-7.053 1.685-2.487 3.298-5.015 4.089-7.921 1.35-4.958-.226-8.953-4.416-11.92-3.028-2.145-6.561-3.151-9.924-4.558-5.011-2.097-9.552-4.762-11.188-10.483-1.008-3.521-.345-6.893.974-10.194.217-.537.449-1.084.769-1.565 2.204-3.328 3.688-5.966-.02-9.992-3.714-4.035-1.609-9.33.941-13.727 2.387-4.113 5.473-7.733 9.183-10.724 1.076-.865.913-1.183.155-2.042-2.933-3.325-5.347-6.961-6.398-11.361-1.53-6.408-.138-12.36 2.971-17.961 4.802-8.656 11.747-15.333 19.799-20.943.341-.237.671-.492.982-.768.097-.088.11-.271.212-.539-.859 0-1.674.008-2.486-.002-3.693-.05-4.641-3.456-4.421-5.947.09-1.003.757-1.557 1.895-1.547 8.8.074 16.668-3.17 24.377-6.947 2.464-1.208 4.909-2.451 7.371-3.667 2.531-1.249 2.445-1.219 2.735 1.46.239 2.208.532 4.472 1.271 6.546.528 1.488-.111 1.689-1.115 1.988-3.619 1.069-6.827 2.968-10.085 4.814-3.936 2.231-7.908 4.938-12.598 1.612-.396-.279-.777-.174-1.129.122-4.998 4.213-7.985 11.23-2.425 17.151 1.109 1.18 2.565 2.037 4.126 3.247-2.422 1.369-4.703 2.454-7.06 3.448-2.37 1.003-4.599 2.338-6.948 3.386-1.642.734-1.644 1.667-.649 2.869 1.858 2.244 4.29 3.344 7.182 3.417 1.648.043 3.297.007 5.577.007-2.808 2.574-5.196 4.783-7.609 6.965-2.274 2.054-4.551 4.108-6.878 6.102-1.315 1.127-.799 1.635.474 2.227 2.98 1.383 6.143 1.229 9.397 1.189.178 1.168-1.806 1.849-.629 3.087 1.058 1.11 2.427 1.317 3.86 1.404 3.69.224 7.228-.666 10.777-1.461-.624 6.783-.436 13.587-.318 20.375.119 6.871 1.531 13.543 4.436 19.806 3.593 7.746 9.462 13.127 17.432 16.198 2.247.868 4.52 1.692 6.872 2.226 1.846.42 2.79 1.501 2.608 3.346-.364 3.716-.744 7.436-1.438 11.109-.174.929-.521 1.826-1.472 2.174-2.729.997-5.476 1.956-8.357 2.428-.346.057-.642-.114-.881-.369z"/><path fill="#FBC689" d="M690.458 247.603l1.876 1.146c-1.166 1.816-2.848 3.105-3.549 5.07-.586.829-1.454.725-2.226.528-6.588-1.674-11.631 1.234-16.245 5.423-.801.729-1.552 1.521-2.078 2.479-.435.79-1.074 1.724-.14 2.466.858.68 1.535-.178 2.125-.721 1.226-1.126 2.349-2.358 3.558-3.503 2.041-1.94 4.515-3.185 7.204-3.798 2.067-.472 4.333-.797 5.819 1.464-1.625 4.952-1.15 9.84.605 14.633.455 1.243.429 1.926-.86 2.522-.964.445-1.838 1.136-2.656 1.827-3.722 3.143-4.487 7.005-2.351 11.393.917 1.884 2.319 3.417 3.697 5.163-2.455 1.101-4.833 2.136-7.186 3.226-2.041.947-3.942 2.137-5.593 3.682-3.925 3.675-4.012 7.631-.265 11.479.694.713 1.449 1.367 2.177 2.048-.129 1.207-1.069 1.357-1.986 1.479-.987.13-1.984.289-2.97.317-12.62.37-25.241 1.068-37.608-2.578-13.35-3.935-21.084-12.826-24.143-26.23-2.085-9.135-1.311-18.356-1.308-27.561 0-1.223.239-2.495 1.098-3.508 1.674-.523 3.344-1.049 5.015-1.574.537-.287 1.094-.151 1.265.35.696 2.036 2.458 2.199 4.167 2.627 4.709 1.179 9.3 2.625 12.522 6.64.533.666 1.229 1.343 2.098.646.953-.765.462-1.697-.132-2.416-1.372-1.67-2.854-3.221-4.809-4.271-2.878-1.547-5.907-2.637-9.093-3.331-.894-.194-2.094-.165-1.964-1.642 5.868-1.994 11.024-5.161 15.512-9.428l-.027.016c2.894-1.882 5.015-4.551 7.215-7.129.787-.922 1.562-1.469 2.87-1.615 5.954-.662 11.739-2.102 17.332-4.271.771-.298 1.55-.512 2.411-.505 4.316.039 8.633.1 12.929-.496.651-.089 1.628-.459 1.588.834-.118 3.884 2.018 6.724 4.324 9.501.254.306.417.691.622 1.043-2.381.818-4.892-.053-7.323.641-1.913.548-3.901.853-5.751 1.624-.778.323-1.638.809-1.25 1.829.332.877 1.251.706 1.969.528 2.019-.5 4.014-1.086 6.067-1.449 4.184-.736 8.006.036 11.103 3.025 1.491 1.438 2.781 1.595 4.345.377z"/><path fill="#661B1B" d="M697.863 213.234c.235 1.696-.706 2.472-2.182 2.812-3.502.811-6.787 2.193-9.947 3.872-1.297.69-2.309.706-3.656-.135-3.96-2.47-8.514-3.54-13.044-3.589-10.858-.121-21.115-2.868-30.979-6.908-9.002-3.687-14.791-10.458-16.081-20.482-.304-2.351-.037-2.615 2.297-1.763 6.31 2.307 12.844 3.112 19.519 3.1 7.489-.014 14.997.312 22.463-.113 5.962-.339 11.704.09 17.329 1.971 8.025 2.681 13.233 9.598 13.772 18.059.069 1.065.336 2.117.509 3.176zM655.016 216.14c-7.562 2.449-14.922 1.496-22.377-.607l7.398 5.986c-.198.863-.819.564-1.228.55-4.335-.156-8.544.657-12.803 1.334-5.134.815-9.98-.911-14.747-2.665-.438-.162-.798-.638-1.505-.359 1.959 1.798 3.86 3.543 5.886 5.399-1.653.866-3.205-.058-4.732-.221-6.079-.647-11.623-2.488-15.932-7.18-4.129-4.498-1.286-10.158 1.805-13.278.311-.311.691-.425 1.137-.246 5.56 2.257 10.192-.12 14.652-3.04 2.676-1.752 5.584-2.863 8.584-3.872 1.343-.451 2.088-.028 2.682 1.011 4.517 7.89 11.881 11.721 20.207 14.156 3.642 1.067 7.314 2.025 10.973 3.032zM688.874 344.892c-3.206-5.868-8.961-7.737-14.825-9.41-1.508-.43-3.077-.648-4.596-1.054-.951-.252-1.771-.24-2.475.517-2.207.28-4.262-.403-6.318-1.02-1.137-.342-1.749-1.179-1.941-2.354-.632-3.842-1.08-7.71-1.472-11.581-.248-2.459.541-3.264 3.202-3.232 5.467.065 10.885-.36 16.275-1.209 4.094 2.939 9.169 4.088 13.112 7.354 4.083 3.383 6.855 7.511 8.308 12.595.363 1.271-.177 1.999-.937 2.841-2.406 2.666-5.171 4.855-8.333 6.553zM629.898 243.597c-8.109 7.039-17.925 10.033-28.209 11.985-2.312.439-4.604.45-6.92.457-.502.002-1.053.009-1.351-.462-.367-.583.193-.898.515-1.223 4.217-4.252 6.166-9.391 6.65-15.344.258-3.181 1.436-6.248 3.545-8.879 2.24-2.79 4.827-3.56 8.419-3.062 3.725.518 6.765 1.774 9.724 4.086 3.755 2.934 8.406 3.688 13.104 3.935.771.041 1.907-.473 2.237.464.299.845-.789 1.344-1.347 1.902-1.228 1.23-2.529 2.383-3.799 3.57-7.145-2.975-13.302-.108-19.34 3.316-.783.442-1.661 1.197-.977 2.213.676 1.008 1.654.398 2.454-.029 3.164-1.693 6.385-3.282 9.96-3.866 1.834-.299 3.82-.836 5.335.937zM621.974 184.612c4.755-2.049 8.755-3.817 13.204-3.934 6.96-.181 13.892.31 20.833.895 7.113.598 14.119 1.688 20.96 3.627 6.741 1.911 13.205 4.489 18.078 9.887 3.648 4.04 5.177 8.792 4.743 14.195-.019.243-.102.488-.2.713-.096.216-.254.406-.586.918-.362-4.785-1.698-8.959-4.294-12.631-3.94-5.572-9.685-8.197-16.187-9.096-9.333-1.29-18.744-.321-28.117-.525-6.29-.136-12.626.404-18.82-1.063-3.016-.717-5.937-1.829-9.614-2.986zM639.095 218.821c1.998-.619 3.562.227 5.176.338 5.128.353 10.003-1.037 14.986-1.714 7.373-1.001 14.484.212 21.292 3.225 1.264.56 1.43 1.133.371 2.137-1.378 1.306-2.767 2.584-3.666 4.35-.9 1.772-2.959 1.136-4.299 1.188-7.008.271-14.038.839-20.984-1.114-5.195-1.463-8.631-5.261-12.876-8.41z"/><path fill="#F8A348" d="M676.725 315.549c.118 1.128-.776.834-1.346.924-5.073.798-10.186 1.197-15.317 1.016-1.902-.069-2.488.495-2.202 2.386.59 3.92 1.071 7.857 1.497 11.798.124 1.158.729 1.492 1.703 1.745 1.972.515 4.093.453 5.919 1.527-.619.693-1.161 1.468-2.046 1.865-1.562-.229-3.107-.535-4.661-.799-2.309-.392-3.403-1.631-3.633-4.005-.365-3.804-.958-7.587-1.375-11.387-.195-1.768-.939-2.53-2.695-2.444-3.671.178-7.302-.367-10.927-.809-1.723-.21-2.418.372-2.664 2.028-.51 3.456-.85 6.932-1.251 10.398-.25 2.145-1.298 3.276-3.327 3.769-2.333.565-4.564 1.545-6.991 1.736-.835-.64-2.497-.199-2.501-1.92 2.229-.629 4.425-1.486 6.697-1.828 2.739-.414 3.629-1.927 3.8-4.456.207-3.061.628-6.109 1.033-9.151.199-1.49-.186-2.169-1.805-2.545-17.961-4.187-26.807-14.961-29.177-33.634-.916-7.209-.533-14.435-.358-21.658.032-1.373-.086-2.845.926-4.02l1.432-.037c-.861 6.781-.709 13.607-.418 20.39.422 9.734 2.452 19.039 9.179 26.703 4.136 4.711 9.406 7.447 15.24 9.329 10.206 3.293 20.742 3.047 31.273 3.043 3.328-.001 6.61-.451 9.919-.564.712-.023 1.3-.227 1.723-.82l2.353 1.42z"/><path fill="#661B1B" d="M656.396 229.869c-3.327 1.477-6.815 2.473-10.371 3.044-5.742.922-11.501 1.153-17.24-.325-5.044-1.3-8.511-4.745-12.011-8.308 5.348 1.253 10.495.357 15.716-.519 3.072-.515 6.296-.137 9.45-.158.636-.004 1.071.379 1.514.768 3.677 3.247 8.095 4.711 12.942 5.498zM605.664 226.615c-2 1.923-3.994 3.889-5.051 6.588-.602 1.54-2.163 1.311-3.421 1.523-3.197.541-6.405.775-9.53-.362-1.09-.396-2.342-1.02-2.385-2.247-.035-.945 1.323-1.062 2.092-1.463 2.493-1.307 5.056-2.481 7.547-3.79 3.472-1.825 6.939-3.109 10.748-.249z"/><path fill="#651B1B" d="M599.316 237.009c-.339 3.901-.844 7.733-2.701 11.237-1.581 2.98-4.257 4.397-7.523 3.676-1.637-.36-4.268-.005-4.65-1.44-.369-1.381 1.961-2.595 3.201-3.763 3.137-2.946 6.385-5.776 9.593-8.647.587-.528 1.08-1.273 2.08-1.063z"/><path fill="#4F1110" d="M686.803 258.156c-2.891-1.646-5.756-1.182-8.589.134-3.087 1.436-5.488 3.722-7.622 6.306-.879 1.062-1.848 1.917-3.141.914-1.362-1.055-.875-2.335.045-3.479 3.527-4.396 7.713-7.747 13.481-8.723 1.948-.33 3.808-.115 5.664.364.723.185 1.393.58 2.144.147-.862 1.354-1.629 2.752-1.982 4.337z"/><path fill="#501111" d="M616.524 253.078c.28 1.134 1.293.828 2.034 1.005 3.409.802 6.721 1.854 9.748 3.664 1.727 1.033 3.268 2.288 4.465 3.921.909 1.238 1.924 2.622.165 3.854-1.643 1.152-2.444-.23-3.37-1.382-2.932-3.653-7.184-4.921-11.466-6.019-2.152-.552-4.819-.213-4.919-3.56-.002-.035-.465-.058-.712-.087l4.055-1.396z"/><path fill="#200D0D" d="M690.458 247.603c-1.224 2.374-2.325 2.754-3.842 1.02-3.893-4.445-8.731-4.543-13.909-3.274-1.281.313-2.512.829-3.774 1.225-1.211.379-2.405.383-2.925-1.001-.5-1.332.217-2.233 1.458-2.721 4.458-1.757 9.008-2.835 13.834-1.823 3.214 1.967 5.82 4.779 9.158 6.574z"/><path fill="#1F0C0D" d="M629.898 243.597c-3.941-1.396-7.503.113-11.037 1.534-1.608.646-3.134 1.527-4.623 2.425-1.115.674-2.049.664-2.848-.353-.842-1.072-.524-2.164.492-2.804 5.622-3.547 11.475-6.305 18.435-4.877.984.202 1.669.665 2.149 1.505.574 1.005-.326 1.755-.459 2.639l.027-.016-2.136-.053z"/><path fill="#FCC07C" d="M359.331 252c-.006 7.155.167 14.316-.08 21.464-.188 5.443-.747 10.858-2.344 16.162-2.679 8.906-9.042 13.374-17.62 15.323-7.806 1.773-15.778 2.045-23.724 1.95-9.247-.107-18.314-1.344-26.73-5.688-5.44-2.809-8.772-7.472-11.79-12.489-.555-.925-.997-1.919-1.472-2.89-1.52-3.104-2.652-5.802-7.032-6.835-6.699-1.584-6.8-9.623-4.389-13.465.726-1.154 1.735-2.008 3.222-2.026 2.875 1.521 4.766 3.74 5.104 7.101.067.65.45 1.272.497 1.922.408 5.619 4.437 8.078 9.02 10.327-.944-6.356-1.861-12.586-2.798-18.812-.728-4.844-1.472-9.686-2.226-14.522-.205-1.312-.306-2.482 1.514-2.687.887-.099 1.379-.827 1.849-1.537 1.604-2.423 3.338-4.768 4.813-7.267.945-1.603 2.154-2.107 3.9-1.974 3.261.246 6.032 1.729 8.747 3.345 2.358 1.406 4.54 3.073 6.561 4.938 1.259 1.163 2.658 1.641 3.928.266 1.35-1.46.759-2.872-.617-4.074-5.125-4.476-10.624-8.259-17.525-9.519 1.945-4.022 4.406-7.012 9.297-7.563 4.514-.51 8.911-1.971 13.415-2.649 11.56-1.739 22.418.337 32.554 6.362-.54 1.197-1.598 1.075-2.366 1.366-5.477 2.066-10.653 4.619-15.007 8.637-1.444 1.332-2.743 2.807-1.051 4.606 1.652 1.762 3.075.45 4.433-.826 5.105-4.805 11.473-7.172 18.007-9.206.926-.287 1.38.198 1.878.795 4.704 5.652 7.34 12.156 8.032 19.465z"/><path fill="#1D1E1E" d="M366.049 206.703c-8.236-7.467-17.92-11.921-28.774-13.818-11.089-1.937-21.712-.95-30.931 6.291-7.141 5.609-11.28 13.228-13.356 21.902-.88 3.671-3.184 6.316-5.161 9.215-.997 1.462-3.147 1.288-4.683 2.125-3.282 1.787-3.532 2.542-1.223 5.473.494.629.31 1.025-.078 1.518-1.839 2.343-2.691 5.627-6.318 6.245-1.337.228-1.022 1.365-.857 2.42 1.571 10.024 3.085 20.058 4.662 30.386-1.937-.558-3.058-1.35-3.444-3.109-.443-2.02-1.1-3.991-1.577-6.004-.647-2.737-1.645-5.224-4.365-6.548-3.381-1.646-4.132-4.76-4.432-8.046-.648-7.085-1.854-14.137-1.531-21.279.191-4.21.584-8.414 2.021-12.446.774-2.173 1.885-4.073 3.833-5.359.782-.515 1.384-1.036.858-1.997-2.591-4.745-.277-8.914 1.763-12.927 3.401-6.687 8.769-11.588 15.265-15.228 6.646-3.721 13.683-6.534 21.348-6.911 4.675-.23 9.409-.119 14.094.583 6.727 1.007 13.368 2.29 19.695 4.895 10.743 4.425 18.787 11.622 23.191 22.619zM374.407 231.083c-1.244-3.053-2.486-6.107-3.733-9.16-.259-.634-.492-1.202-1.436-.882-.855.289-.899.721-.734 1.504 1.646 7.773-1.108 14.667-4.481 21.379-.754 1.499-1.492 3.125-3.048 4.456-.972-3.46-1.771-6.823-3.418-9.889-.906-1.685-1.807-3.358-2.918-4.923-.861-1.214-2.12-2.1-.534-4.071 1.388-1.729-.697-3.906-3.16-3.294-1.829.454-3.167.271-4.82-.844-6.326-4.265-13.518-5.914-21.035-6.843-10.425-1.289-20.126 2.006-30.425 3.991 1.074-4.146 2.354-8.099 4.45-11.722 5.451-9.422 13.513-15.259 24.381-16.513 8.364-.962 16.531.514 24.37 3.637 6.63 2.642 12.793 6.057 17.502 11.546 5.303 6.181 8.446 13.378 9.039 21.628zM361.388 271.009c-.052-5.53-.095-11.061-.171-16.593-.008-.614.296-1.334-.387-1.821 1.562-2.232 3.255-4.379 4.413-6.87.173-.373.346-.87.816-.827.603.057.63.636.734 1.124.293 1.371.475 2.786.957 4.092 1.305 3.53-.999 6.195-2.088 9.126-.835 2.245-1.868 4.434-3.009 6.542-.903 1.667-.469 3.58-1.265 5.227z"/><path fill="#1E1F1E" d="M618.893 333.764c-2.47 1.658-4.649 3.249-6.955 4.621-1.192.707-1.591 1.294-1.204 2.748 1.233 4.632 2.201 9.334 3.391 13.979.387 1.519.376 2.905-.116 4.378-6.837 20.448-13.648 40.906-20.475 61.361-.197.592-.158 1.479-.945 1.544-.592.048-.828-.701-1.162-1.173-1.625-2.298-3.332-4.54-4.896-6.877-.979-1.463-1.762-1.888-3.342-.578-1.56 1.288-3.013 2.798-5.221 3.79.278-2.698.035-5.385.876-7.67 5.632-15.319 11.505-30.546 17.275-45.812 2.667-7.051 5.257-14.133 7.925-21.183 2.669-7.051 7.788-10.282 14.849-9.128z"/><path fill="#FBC689" d="M627.408 335.298c2.125-1.343 4.565-1.8 6.939-2.415 1.693-.44 2.567-1.128 2.678-3.164.214-3.947.964-7.863 1.368-11.805.129-1.258.714-1.586 1.771-1.443 4.681.63 9.367 1.137 14.102 1.02 1.002-.025 1.488.512 1.6 1.508.492 4.349 1.168 8.687 1.457 13.048.139 2.087.982 2.905 2.873 3.286 1.613.325 3.468.004 4.734 1.479-4.545 3.822-9.963 4.551-15.609 4.27-7.699-.385-14.916-2.683-21.913-5.784z"/><path fill="#1E1F1E" d="M675.869 355.982c-1.662-2.456-1.487-4.542-1.508-6.605-.029-2.866-1.069-4.026-3.897-3.926-5.784.203-11.464 1.317-17.16 2.244-6.255 1.016-12.504 1.299-18.729-.255-2.288-.572-4.283-1.78-6.275-2.956-2.631-1.555-4.938-1.039-6.44 1.633-1.346 2.385-2.284 4.984-3.875 7.242-.386.548-.714 1.317-1.394 1.302-.951-.021-.645-1.024-.791-1.586-.957-3.677-1.835-7.376-2.747-11.063-.275-1.104.028-1.886 1.029-2.514 2.034-1.281 4.056-2.589 5.991-4.009.937-.688 1.652-.396 2.516-.005 6.95 3.165 14.032 5.968 21.637 7.098 8.59 1.277 16.857.89 23.688-5.467 1.387-1.292 2.729-.234 3.973-.027 4.002.66 3.984.778 3.984 4.891-.002 4.468-.002 8.938-.002 14.003z"/><path fill="#BE3C3C" d="M457.157 351.41c1.403-4.108 3.501-7.878 5.737-11.567 4.137-6.821 8.359-13.59 12.521-20.396 3.566-5.831 8.667-10.272 13.483-14.969 1.534-1.494 2.587-.852 3.318.973 2.451 6.105 4.568 12.304 5.203 18.897.879 9.092 1.93 18.174 2.472 27.285.398 6.708-.517 13.445-.208 20.179.044.966-.394 1.528-1.237 1.935-3.764 1.804-7.51 3.327-11.883 3.193-6.734-.207-13.604.23-19.955-2.25-6.449-2.519-12.116-6.296-13.95-13.737-.227-.917-.374-1.716.2-2.602 1.484-2.289 2.879-4.634 4.309-6.957.18.181.402.283.638.367 3.557 1.262 3.751 1.521 3.735 5.281 2.027-1.729 3.883-1.081 5.875.559-.016-2.489.367-4.478 3.441-5.042-2.372-1.182-3.558-2.618-2.806-5.245-2.194.894-4.191 1.723-5.915-.794-.591 1.789-.125 3.562-1.732 4.356-1.015.501-2.017 1.25-3.246.534z"/><path fill="#D3A66C" d="M457.124 370.401c-6.86 1.387-11.148 5.748-13.835 11.961-.759-1.236-1.265-.81-1.578.276-1.721 5.949-3.111 11.904-1.081 18.098 1.396 4.256 1.742 8.647.898 13.051-.57 2.969-1.884 5.581-5.101 6.494-3.18.901-5.21-1.157-7.077-3.182-3.238-3.51-5.596-7.635-7.651-11.91-1.581-3.287-2.864-6.717-4.417-10.02-1.187-2.521-.545-4.477 1.429-6.195 2.069-1.801 4.129-3.615 6.212-5.4 2.981-2.551 5.662-5.375 8.01-8.521 1.092-1.466 2.239-2.902 3.77-3.958 1.677-1.156 3.221-1.331 4.41.686.282.478.44 1.248 1.218.771.703-.433.325-1.056-.039-1.498-.767-.926-.248-1.647.231-2.443 1.833-3.047 4.347-5.425 7.163-7.544 1.15-.868 1.687-.727 2.003.67.793 3.52 2.549 6.451 5.435 8.664zM516.325 386.357c-.14 5.275-.385 10.253-1.736 15.096-.266.954-.645 1.883-1.036 2.793-.46 1.065-1.237 1.441-2.09.476-1.924-2.185-3.811-4.455-3.926-7.553-.297-8.091-2.307-15.743-5.755-23.035-1.351-2.86-.816-5.841-.765-8.802.017-1.035.789-.824 1.434-.862 5.667-.342 10.3 2.833 12.138 8.39.415 1.256.726 2.556.974 3.856.623 3.278.68 6.604.762 9.641z"/><path fill="#757575" d="M501.181 296.053c1.546.934 3.448-.178 4.979.86-2.064.11-4.116-.332-6.444.219.432-.946.835-1.194 1.465-1.079z"/><path fill="#0F0F15" d="M470.342 422.803c-.442-.365-.966-.666-1.316-1.105-2.33-2.922-4.227-6.222-8.378-7.178-1.19-.274-2.566-1.489-2.533-3.39.897-.087 1.4.392 1.918.903 3.387 3.35 12.951 4.813 17.052 2.624 1.612-.86 2.516-4.254 1.552-5.777-.532-.838-1.353-.415-2.035-.453-4.842-.27-6.814-3.03-5.529-7.682.395-1.428 1.363-2.261 2.549-2.865 3.675-1.878 7.368-1.693 10.985.167 1.919.988 2.998 2.571 2.937 4.811-.066 2.42-1.651 3.678-3.593 4.619-.586.282-1.291.314-1.9.561-.821.327-2.244.006-2.027 1.587.187 1.351-.511 2.896 1.505 3.76 4.822 2.064 8.865 1.173 12.131-2.914.421-.526.549-1.397 1.564-1.605.122 1.995-.784 3.5-2.249 4.419-1.817 1.139-3.06 2.612-3.898 4.514-.426.109-.684-.148-.935-.423-3.339-1.16-6.552-2.999-10.287-1.128-2.17 1.087-4.588 1.321-7.023 1.227-.646-.024-1.48-.198-1.852.408-.474.769.313 1.354.667 1.976.479.844 1.351 1.497 1.243 2.619-.09.266-.277.366-.548.325z"/><path fill="#101015" d="M488.936 388.938c-3.597-.034-5.096-1.66-5.062-5.49.023-2.471 2.923-4.666 6.045-4.574 2.826.082 5.132 2.197 5.116 4.693-.018 3.312-2.401 5.41-6.099 5.371z"/><path fill="#101016" d="M455.108 388.075c.158-2.801 2.544-5.205 5.075-5.12 3.007.103 5.62 2.451 5.515 4.958-.118 2.824-2.981 5.344-5.9 5.191-2.767-.141-4.841-2.367-4.69-5.029z"/><path fill="#070604" d="M493.576 419.816c-.599 3.962-2.574 7.474-6.078 9.229-8.778 4.394-18.704 2.962-24.44-6.565-.213-.354-.414-.721-.569-1.104-.204-.504-.684-1.136.124-1.465.584-.238.887.328 1.05.8 1.069 3.101 3.512 4.875 6.069 6.673 7.597 5.344 18.738 2.384 22.404-6.065.254-.588.519-1.173.78-1.757l.66.254z"/><path fill="#17151A" d="M470.342 422.803l.123.025c.586-.254.851-.692.966-1.331.222-1.233.448-2.709 2.021-2.748 1.843-.046 1.72 1.692 2.093 2.91.049.157.093.32.122.483.303 1.677 1.325 2.106 2.914 1.847 2.224-.363 4.593-.358 4.827-3.515.062-.833.685-1.521 1.684-1.567.857-.039 1.381.459 1.796 1.135.262.426.427.9.671 1.337.154.348.351.688.179 1.089-.074 1.292-.621 2.097-1.992 2.432-3.901.959-7.862.954-11.821.791-1.776-.074-3.048-1.107-3.583-2.888z"/><path fill="#3E2F28" d="M487.736 422.468l-.656-.711c-.051-1.677-.274-3.409 1.466-4.505l.53.545c-.001 1.684-.459 3.237-1.34 4.671z"/><path fill="#F8A448" d="M643.641 295.021c1.767 2.387 2.96 4.956 4.974 6.957 4.903 4.873 8.093 4.346 11.242-1.789.449-.878.057-3.39 2.273-2.235 1.824.951.271 2.353-.219 3.399-1.171 2.505-2.63 4.903-5.36 5.961-2.918 1.132-5.556.223-7.785-1.768-1.479-1.321-2.988-2.645-4.054-4.371-.596-.966-1.022-1.203-1.944-.034-3.657 4.635-7.281 4.383-10.459-.574-.992-1.546-1.752-3.211-2.268-4.966-.204-.691-.896-1.669.436-2.033 1.09-.297 1.679.25 1.996 1.312.574 1.915 1.384 3.697 2.708 5.27 1.888 2.244 3.38 2.384 5.195.031 1.196-1.554 2.115-3.322 3.265-5.16z"/><path fill="#F8A449" d="M648.057 268.265c-.413 2.765-.732 5.546-1.273 8.284-.263 1.334-.652 2.747-2.476 3.012-1.426.209-.729 1.165-.429 1.885.214.51.32.926-.312 1.225-.394.184-.736.295-1.149.039-1.573-.977-1.76-4.024-.073-4.567 2.574-.828 2.747-2.812 3.019-4.812.289-2.114.352-4.264.534-6.396.063-.758-.283-1.863 1.024-1.827 1.287.038.882 1.144.961 1.896.043.409.008.825.008 1.24l.166.021z"/><path fill="#679A62" d="M352.142 250.539c.767.179 2.084-.597 2.437.149.534 1.128.526 2.561.55 3.868.017.854-.824.881-1.496.938-7.496.634-14.993 1.257-22.487 1.911-1.196.106-1.795-.424-1.664-1.538.151-1.282-1.137-3.225 1.283-3.601 2.12-.329 4.277-.423 6.421-.589 4.947-.387 9.896-.754 14.956-1.138zM306.037 255.496c-.046.665-.124 1.492-.151 2.319-.029.822-.351 1.203-1.233 1.098-7.651-.922-15.303-1.844-22.958-2.73-3.201-.371-.884-2.551-1.163-3.803-.367-1.65 1.025-1.104 1.993-.991 7.407.874 14.819 1.711 22.23 2.558.833.094 1.811.04 1.282 1.549z"/><path fill="#F8A341" d="M341.107 298.257c-.744.904-1.36 1.27-2.461.358-2.71-2.24-5.764-3.913-9.252-4.617-6.98-1.412-13.659-.339-20.105 2.53-.455.202-.899.432-1.345.653-.817.403-1.208-.067-1.56-.717-.442-.814-.057-1.222.654-1.529 10.6-4.615 21.139-6.232 31.484.671 1.021.682 1.953 1.511 2.585 2.651z"/><path fill="#F8A342" d="M326.854 269.762c.181 1.346-.543 2.399-1.138 3.484-.313.568-.781.883-1.42.396-.49-.376-.907-.778-.374-1.43 1.621-1.979.906-3.203-1.214-4.157-.822-.371-1.381-1.235-1.613-2.141-.742-2.887-1.241-5.813-1.214-8.808.006-.652-.085-1.421.878-1.489 1.131-.078 1.053.769 1.117 1.521.155 1.811.25 3.631.529 5.421.302 1.94.556 3.924 3.023 4.586 1.124.298 1.579 1.402 1.426 2.617z"/><path fill="#EF974B" d="M457.157 351.41c3.771-1.087 3.771-1.087 4.238-5.973 2.221 2.441 4.558 3.127 7.274.484-1.116 3.529.153 5.553 3.479 6.674-3.732.569-4.751 2.689-4.027 6.168-2.469-2.231-4.766-3.328-7.534-.041 1.243-4.202-.918-5.86-3.42-7.329l-.01.017z"/><path fill="#3A5C78" d="M480.103 333.029c1.49 3.703 3.76 4.093 6.827 2.455-1.654 2.964-1.854 5.403 1.647 7.168-3.183.396-5.974.915-5.43 5.207-1.816-2.727-3.532-4.708-6.999-2.327 1.395-2.948 1.855-5.503-2.079-6.993 4.602-1.24 4.602-1.24 6.034-5.51z"/><path fill="#5D7A8C" d="M493.527 349.762c-.604 3.279.283 5.351 3.878 5.991-3.479.98-4.682 2.915-3.582 6.403-2.524-2.43-4.786-2.679-6.74.003-.689-.6-.53-1.143-.447-1.575.398-2.09-.396-3.297-2.477-3.783-.562-.131-1.442-.508-.466-1.329.905-.763 2.548-.456 2.912-2.006.265-1.128-.622-2.216-.038-3.764 2.191 2.423 4.477 2.476 6.96.06z"/><path fill="#F6B788" d="M475.473 363.062c-1.718 2.661-.847 3.808 1.717 4.303-2.784.665-3.344 2.079-1.723 4.751-2.358-1.321-4.024-1.729-4.477 1.801-.87-2.567-1.887-3.94-4.39-2.436 1.768-2.647.203-3.537-1.869-4.168 2.743-1.487 2.743-1.487 2.046-4.409 1.92 1.078 3.521 1.216 4.085-2.013.796 2.561 1.967 3.57 4.611 2.171z"/><path fill="#798A88" d="M486.913 324.14c-2.266-.642-3.798-1.73-3.875 1.342-1.1-1.745-1.964-2.892-4.018-1.034.805-2.122 1.325-3.678-1.505-3.726 2.123-.677 2.434-1.811 1.405-3.699 1.89.849 3.276 1.171 3.177-1.572 1.126 1.318 1.553 3.636 3.78 1.207-.652 1.844-.946 3.202 1.633 3.521-1.752.953-3.123 1.775-.597 3.961z"/><path fill="#C64C46" d="M469.642 341.863l-.502-.818c.194-.479.648-.581 1.064-.74.943-.334 1.631-.91 1.804-1.957.02-.313.014-.628-.032-.941-.533-1.942-2.281-1.328-3.563-1.7-.233-.13-.355-.325-.373-.589 1.029-1.581 2.337-1.318 3.719-.567 2.53 2.128 2.68 2.959 1.076 5.919-.934.763-1.669 1.98-3.193 1.393z"/><path fill="#F0A97F" d="M472.653 340.43c1.166-2.109 1.278-4.034-.961-5.552-.101-.447-.027-.706.508-.484 2.565 2.307 2.7 4.13.501 6.711-.249-.211-.264-.436-.048-.675z"/><path fill="#E59371" d="M472.199 334.394l-.508.484c-1.299-.48-2.585-.866-3.621.514-.146.167-.332.252-.554.254-.316-.119-.58-.263-.334-.664 1.521-1.494 3.135-2.179 5.017-.588z"/><path fill="#F1AC81" d="M470.644 340.817l-1.504.228c-.766-.231-1.58-.385-1.951-1.238-.133-.127-.172-.25-.116-.363.053-.113.105-.168.154-.169.221-.058.445-.063.669-.012.723.28 1.449.549 2.253.409.231.016.44.091.628.227.198.343.142.647-.133.918z"/><path fill="#EDA47C" d="M472.653 340.43l.047.674c-.829.899-1.745 1.577-3.069 1.179-.044-.013-.081-.131-.077-.202l.087-.217c1.211-.045 2.076-.813 3.012-1.434z"/><path fill="#F0AA80" d="M467.138 339.514l.05.294c-1.291-.832-1.07-2.096-.951-3.33.464-.099.676.205.864.545.224.827.747 1.652.037 2.491z"/><path fill="#E69472" d="M466.691 336.973l-.454-.496c.163-.593.322-1.191.944-1.495l.386.433c.421.919.138 1.443-.876 1.558z"/><path fill="#BE3C3C" d="M488.546 417.252c-.488 1.503-.976 3.004-1.466 4.506-.184-.351-.379-.695-.549-1.052-.312-.651-.427-1.524-1.431-1.442-1.002.079-.893 1.031-1.229 1.65-.515.95.501 2.553-1.146 2.965-2.08.519-4.21 1.175-6.35.795-1.411-.251-1.028-1.893-1.473-2.901-.395-.898.219-2.539-1.338-2.559-1.647-.024-1.503 1.487-1.465 2.613.048 1.414-.835 1.079-1.629 1.001-.171-1.759-1.604-2.8-2.4-4.203-.678-1.193-.667-1.841.94-1.811 3.746.071 7.49.147 10.697-2.34.585-.453 1.258.039 1.891.225 1.902.56 3.786 1.314 5.809 1.201 1.137-.067 1.221.512 1.139 1.352z"/><path fill="#EAEAEB" d="M488.012 382.781c-.102.618-.41 1.033-1.087 1.062-.767.032-.962-.508-.96-1.099.003-.507.242-.927.862-.939.673-.015 1.015.361 1.185.976z"/><path fill="#E5E5E5" d="M459.467 386.706c-.097.547-.375.906-.977.899-.602-.008-.897-.341-.912-.922-.013-.537.164-1.065.747-1.085.657-.024.972.515 1.142 1.108z"/><path fill="#F7F7F7" d="M473.185 420.353c.759 1.673 1.323 2.715.888 3.924-.02.055-.549.06-.634-.06-.726-1.033-.283-2.161-.254-3.864z"/><path fill="#F2F2F3" d="M485.585 420.014c-.094 1.398.715 2.405-.245 3.313-.072.066-.571-.12-.586-.227-.136-.974-.397-2.008.831-3.086z"/><path fill="#EFA87E" d="M468.679 335.44c1.791-.393 3.329-.257 3.923 1.866-.909.923-1.047-.206-1.477-.553-.897-.206-1.883-.571-1.754.991.544.101.539-.467.828-.673.298-.252.611-.383.979-.143.88 1.636.259 2.521-1.433 2.874-.899.113-1.548-.405-2.214-.879-.625-1.493-.26-2.659 1.148-3.483z"/><path fill="#C74E47" d="M469.687 339.521c1.399-.455 1.974-1.221.969-2.576-.091-.424-.052-.718.499-.514.543.191.631 1.138 1.448.877l-.01 1.238c-.692.418-.793 1.636-1.942 1.436-.15-.026-.301-.035-.454-.031-.528.28-.571-.014-.51-.43z"/><path fill="#C64D46" d="M468.679 335.44c-1.017.953-1.174 2.154-1.004 3.451.125.132.162.26.114.385-.046.124-.092.185-.136.185l-.515.053-.447-2.541.877-1.558.503-.023.608.048z"/><path fill="#EDA47C" d="M470.65 339.982c.868-.182.843-1.57 1.942-1.437-.167 1.174-.928 1.834-1.949 2.272l.007-.835z"/><path fill="#CA554B" d="M467.653 339.461l.022-.569 2.012.629.51.431c-1.063.95-1.783.123-2.544-.491z"/><path fill="#C75048" d="M471.154 336.432l-.499.514-.558.388c-.304.417-.336 1.052-.966 1.205-.71-.449-1.183-1.001-.519-1.806.727-.879 1.577-1.201 2.542-.301z"/><path fill="#CF6152" d="M469.132 338.538c.313-.407.185-1.172.967-1.203.13.417.534.835.037 1.266-.346.298-.692.304-1.004-.063z"/></g></svg>