<svg xmlns="http://www.w3.org/2000/svg" width="320" height="300" viewBox="-10 0 310 300" zoomAndPan="disable"><defs><marker id="arrow" viewBox="0 0 10 10" refX="10" refY="5" orient="auto" markerWidth="8" markerHeight="6"><path d="M0 0l10 5-10 5 3-5"/></marker><style type="text/css">path{ stroke: black; fill: none; stroke-width: 2px; } *[vector=&quot;yes&quot;]{ marker-end: url(&quot;#arrow&quot;); marker-mid: url(&quot;#arrow&quot;); }</style></defs><g transform="rotate(-20 150 150)"><path d="M150 0v120M150 180v120M155 180c10 95 145 95 145-30s-135-125-145-30M160 180c10 70 115 70 115-30s-105-100-115-30M165 180c10 45 85 45 85-30s-75-75-85-30M145 180c-10 95-145 95-145-30s135-125 145-30M140 180c-10 70-115 70-115-30s105-100 115-30M135 180c-10 45-85 45-85-30s75-75 85-30"/><circle cx="150" cy="150" r="90" stroke="#00f" stroke-width="2" fill="none"/><path d="M135 120h30v60h-30v-60"/><path d="M135 180h30v-30h-30v30" fill="#f00"/><text x="144" y="137">S</text><text x="144" y="175">N</text></g></svg>