<?xml version="1.0" encoding="utf-8"?>
<!-- Generator: Adobe Illustrator 18.1.1, SVG Export Plug-In . SVG Version: 6.00 Build 0)  -->
<svg version="1.1" id="Layer_1" xmlns="http://www.w3.org/2000/svg" xmlns:xlink="http://www.w3.org/1999/xlink" x="0px" y="0px"
	 viewBox="0 0 40 40" enable-background="new 0 0 40 40" xml:space="preserve">
<path fill="#FFFFFF" d="M20,10.4c-4.9,0-9.8,0-14.7,0c-1.4,0-1.9-0.5-1.9-2.3c0-0.7,0-1.4,0-2.1c0-1.6,0.5-2.2,1.9-2.2
	c8.5,0,16.9,0,25.4,0c1.4,0,2.9,0,4.3,0c1.2,0,1.7,0.6,1.8,2c0,0.8,0,1.5,0,2.3c0,1.7-0.4,2.2-1.9,2.2C29.9,10.4,24.9,10.4,20,10.4z
	"/>
<path fill="#FFFFFF" d="M20,23.5c-4.9,0-9.9,0-14.8,0c-1.4,0-1.9-0.6-1.9-2.2c0-0.8,0-1.6,0-2.5C3.4,17.6,3.9,17,5,17
	c10,0,20,0,30,0c1.1,0,1.6,0.6,1.7,2c0,0.8,0,1.7,0,2.5c0,1.5-0.5,2-1.8,2C29.9,23.5,25,23.5,20,23.5z"/>
<path fill="#FFFFFF" d="M20,36.7c-4.9,0-9.9,0-14.8,0c-1.5,0-1.9-0.5-1.9-2.3c0-0.7,0-1.5,0-2.2c0-1.5,0.5-2.1,1.8-2.1
	c6.7,0,13.4,0,20.1,0c3.2,0,6.4,0,9.6,0c1.4,0,1.8,0.6,1.8,2.2c0,0.8,0,1.6,0,2.4c0,1.4-0.5,2-1.7,2C30,36.7,25,36.7,20,36.7z"/>
</svg>
