<svg xmlns="http://www.w3.org/2000/svg" width="1000" height="450" viewBox="0 0 1000 450"><g><path fill="#443F3B" d="M418.045 73.389h-12.755v-62.336h12.755v62.336zM468.808 73.474h-13.853l-10.727-23.904h-6.672v23.819h-12.756v-62.421h22.722c.338 0 .774.042 1.309.127.535.084 1.098.198 1.69.337.591.142 1.14.283 1.646.422.508.142.9.268 1.183.38 1.295.564 2.547 1.212 3.759 1.943 1.21.732 2.407 1.746 3.589 3.041 1.352 1.464 2.407 2.985 3.168 4.562.76 1.577 1.28 3.124 1.562 4.646.28 1.295.422 2.59.422 3.885 0 2.76-.663 5.604-1.985 8.532-1.325 2.928-3.647 5.519-6.968 7.771l11.911 26.86zm-15.626-43.163c0-1.125-.296-2.28-.887-3.463-.591-1.183-1.676-2.112-3.252-2.787-.282-.112-.633-.212-1.056-.295-.422-.085-.691-.127-.802-.127h-9.629v13.346h9.629c.111 0 .38-.056.802-.169.423-.111.773-.224 1.056-.338 1.576-.618 2.661-1.52 3.252-2.702.591-1.184.887-2.338.887-3.465zM510.109 73.389h-10.98c-.114 0-.367-.029-.761-.084-.394-.056-.731-.113-1.013-.168-1.013-.169-1.999-.338-2.956-.508-.958-.168-2-.479-3.125-.928-3.774-1.409-6.984-3.225-9.63-5.449-2.647-2.223-4.815-4.658-6.504-7.306-1.689-2.646-2.914-5.405-3.674-8.278-.761-2.872-1.141-5.686-1.141-8.446 0-.563.056-1.563.169-2.999.112-1.436.309-2.8.591-4.096.393-1.576.999-3.294 1.816-5.152.815-1.858 1.844-3.675 3.083-5.448 1.238-1.774 2.673-3.463 4.308-5.068 1.632-1.604 3.463-2.998 5.49-4.181 2.873-1.689 5.631-2.787 8.278-3.293.112 0 .38-.056.802-.169l1.436-.38c.534-.139 1.069-.253 1.604-.337.535-.084.972-.127 1.31-.127h10.896v12.67h-10.304c-.114 0-.451.071-1.015.211-.563.142-1.012.24-1.35.296-1.013.113-2.126.464-3.337 1.056-1.212.591-2.406 1.338-3.589 2.238-1.183.901-2.268 1.916-3.252 3.041-.985 1.127-1.731 2.28-2.238 3.463-.113.282-.267.606-.464.972-.198.366-.352.717-.465 1.055-.451 1.296-.732 2.38-.844 3.252-.114.874-.169 1.846-.169 2.914 0 1.521.197 3.112.591 4.773.394 1.661 1.042 3.252 1.942 4.772.9 1.52 2.07 2.943 3.505 4.266 1.437 1.322 3.196 2.436 5.28 3.335.225.113.591.253 1.098.423.507.168 1.027.324 1.563.464.535.142 1.056.268 1.563.379.506.114.928.168 1.267.168h10.22v12.669zM568.982 48.725c0 .113-.027.422-.084.928-.059.508-.113.93-.168 1.268-.283 1.973-.762 3.843-1.438 5.617-.676 1.773-1.576 3.562-2.701 5.364-1.014 1.634-2.381 3.209-4.098 4.73-1.719 1.52-3.338 2.674-4.857 3.463-.451.225-.916.465-1.393.719-.479.253-.973.492-1.479.717-1.521.619-3.111 1.083-4.773 1.395-1.662.309-3.334.464-5.023.464-.846 0-1.818-.057-2.916-.168-1.098-.114-2.098-.253-3-.423-1.855-.451-3.758-1.127-5.699-2.027-1.943-.902-3.844-2.196-5.701-3.886-1.52-1.351-2.859-2.842-4.014-4.477-1.154-1.632-2.041-3.237-2.66-4.814-.281-.676-.592-1.576-.928-2.703-.115-.281-.227-.604-.34-.972-.111-.366-.197-.689-.252-.971l-.211-1.183c-.086-.45-.156-.888-.211-1.309-.057-.424-.102-.774-.129-1.056l-.041-.508v-37.84h12.754v37.503c0 .114.014.198.041.253.029.057.043.142.043.254.057.451.154.944.297 1.479.141.535.295 1.028.465 1.478 1.35 3.154 3.18 5.393 5.488 6.715 2.311 1.324 4.617 1.984 6.928 1.984 1.236 0 2.504-.182 3.801-.548 1.295-.366 2.535-.956 3.717-1.775 1.184-.815 2.238-1.843 3.168-3.083.928-1.237 1.646-2.702 2.154-4.392.111-.281.238-.73.379-1.351.139-.619.211-.985.211-1.098v-37.419h12.67v37.672zM588.492 73.389h-12.754v-62.336h12.754v62.336zM648.549 23.638h-20.188v49.751h-12.754v-49.666h-20.355v-12.67h53.297v12.585zM395.978 151.676h-24.668c-.255 0-.822-.066-1.708-.19-.885-.126-1.645-.256-2.276-.38-2.277-.378-4.492-.761-6.641-1.137-2.153-.38-4.491-1.077-7.021-2.089-8.477-3.164-15.688-7.242-21.631-12.237-5.948-4.997-10.816-10.467-14.611-16.416-3.796-5.944-6.547-12.142-8.255-18.596-1.707-6.451-2.561-12.772-2.561-18.974 0-1.264.124-3.51.379-6.736.252-3.226.693-6.291 1.328-9.203.884-3.539 2.246-7.4 4.081-11.575 1.832-4.175 4.142-8.255 6.925-12.238 2.781-3.986 6.006-7.781 9.676-11.387 3.669-3.605 7.781-6.735 12.334-9.392 6.452-3.795 12.648-6.262 18.596-7.4.25 0 .854-.125 1.802-.379l3.225-.855c1.202-.313 2.404-.569 3.605-.758 1.202-.189 2.185-.286 2.941-.286h24.479v28.462h-23.147c-.257 0-1.017.161-2.277.476-1.268.316-2.28.539-3.037.665-2.277.254-4.778 1.043-7.496 2.37-2.722 1.33-5.408 3.007-8.063 5.028-2.659 2.026-5.094 4.302-7.306 6.833-2.216 2.531-3.891 5.122-5.029 7.778-.255.634-.602 1.362-1.043 2.183-.444.824-.793 1.612-1.042 2.372-1.015 2.912-1.647 5.346-1.898 7.305-.256 1.962-.379 4.144-.379 6.546 0 3.417.441 6.991 1.327 10.722.884 3.733 2.34 7.306 4.364 10.721 2.022 3.415 4.649 6.611 7.876 9.583 3.224 2.972 7.177 5.472 11.858 7.495.504.254 1.329.569 2.467.947 1.138.38 2.306.731 3.51 1.044 1.201.318 2.372.602 3.509.854 1.139.254 2.088.38 2.846.38h22.961v28.464z"/><path fill="#5B7A8C" d="M373.017 123.282c-.234 0-.495-.017-.767-.042.272.024-2.401 28.347-2.401 28.347.736.102 1.231.157 1.46.157h24.668v-28.462h-22.96z"/><path fill="#BE3B3B" d="M395.978 39.911v-28.462h-24.479l-.066.002c.748 9.631.689 19.112.395 28.633.512-.113.849-.172 1.002-.172h23.148z"/><path fill="#443F3B" d="M450.042 151.676h-44.752v-63.15h44.751v12.751h-31.831v12.406h15.83v12.835h-15.83v12.321h31.831v12.837zM498.585 151.676h-44.751v-63.15h12.92v50.314h31.831v12.836zM549.025 151.676h-44.75v-63.15h12.92v50.314h31.83v12.836z"/><path fill-rule="evenodd" clip-rule="evenodd" fill="#E99347" d="M604.418 106.03l25.086 9.448-59.379 37.982 26.27-37.982-19.514-8.95 46.162-29.274z"/></g><g fill-rule="evenodd" clip-rule="evenodd"><path fill="#D2D3D3" d="M675.485 450.85c-18.496.002-36.995.004-55.493.007-.406-.782-.282-1.627-.262-2.452.207-8.226.902-16.424 1.385-24.635.556-9.454.899-18.876-.11-28.374-1.212-11.416-2.591-22.803-4.132-34.175-.157-1.159-.172-2.324.152-3.466 2.174-3.144 4.066-6.448 5.831-9.847 1.128-2.173 2.762-2.851 4.485-1.782 8.556 5.305 17.783 4.639 27.108 3.277 4.194-.612 8.355-1.443 12.573-1.924 1.078-.124 2.147-.215 3.232-.171 1.787.071 2.824.95 2.853 2.768.051 3.323.768 6.417 2.872 9.084.058 4.411-.602 8.771-.991 13.147-.901 10.173-1.704 20.36-2.812 30.513-.796 7.297.701 14.402 1.282 21.579.648 8.031 1.576 16.039 2.369 24.059.082.82.249 1.663-.342 2.392z"/><path fill="#2A7964" d="M363.784 450.786c-12.683.008-25.365.015-38.047.022-.876-.979-.681-2.189-.685-3.334-.016-5.904.377-11.813.385-17.701.018-14.062.559-28.113.758-42.17.114-8.144.038-16.304.405-24.443.198-4.384.399-8.787.963-13.152.187-1.453.93-2.663 1.797-3.792 4.312-5.608 8.505-11.309 12.858-16.886 2.068-2.649 2.579-2.681 5.16-.512 3.366 2.829 6.557 5.857 9.797 8.627.352.007.438-.098.451-.31.066-1.093-.896-2.466.389-3.21 1.12-.65 2.219.308 3.242.808 1.721.84 3.312 1.921 5.032 2.763 2.094 1.025 2.772 2.643 2.351 4.933-1.739 9.411-3.525 18.814-5.271 28.225-1.928 10.392-3.845 20.787-5.831 31.17-.318 1.668-.212 3.309.064 4.961 2.235 13.381 4.292 26.791 6.518 40.172.215 1.293.64 2.629-.336 3.829zM323.765 450.815h-34.979c-.707-.786-.48-1.708-.377-2.612 1.582-13.878 3.271-27.743 4.874-41.619.411-3.556-.493-6.952-.978-10.389-2.393-16.969-4.888-33.921-7.362-50.877-.41-2.809.241-4.664 2.711-5.986 1.168-.624 2.188-1.516 3.393-2.095 1.438-.689 2.227-.187 2.376 1.357.213 2.222.028 4.453.097 6.762 2.525-4.607 5.256-8.985 7.843-13.448 1.54-2.655 2.5-2.784 4.935-.92 2.648 2.029 4.82 4.576 7.306 6.791 3.348 2.984 6.694 5.983 9.877 9.152 2.106 2.097 3.098 4.495 3.062 7.58-.126 10.892-.476 21.779-.713 32.664-.161 7.396.076 14.81-.407 22.184-.551 8.399-.114 16.801-.526 25.181-.225 4.57-.363 9.132-.42 13.702-.011.915-.009 1.846-.712 2.573z"/><path fill="#411010" d="M600.697 346.917c-1.313-.787-2.541.086-3.764.284-7.988 1.286-16.013 1.563-23.485 1.237 1.701-1.942 3.608-4.154 5.552-6.335 2.838-3.183 5.452-6.489 6.626-10.707 1.086-3.901-.141-7.03-3.149-9.547-2.198-1.839-4.794-2.954-7.482-3.858-2.524-.849-4.979-1.852-7.262-3.229-7.613-4.592-10.064-11.56-7.008-19.869.865-2.354 2.816-4.363 3.296-6.624.46-2.167-2.556-3.634-3.305-5.92-1.362-4.164-.626-8.036 1.186-11.819 2.149-4.489 5.303-8.223 8.937-11.574.808-.745 1.536-1.245.443-2.552-8.603-10.275-7.934-21.481-.991-32.486 4.271-6.768 9.964-12.217 16.475-17.239-4.395-1.927-4.24-5.532-3.766-9.288.114-.909.415-1.305 1.401-1.254 10.41.544 19.372-3.917 28.348-8.282 4.404-2.142 8.774-4.337 13.334-6.15 6.317-2.512 12.881-2.113 19.444-1.841 11.234.465 22.398 1.448 33.228 4.731 5.438 1.648 10.613 3.842 15.046 7.517 6.614 5.485 8.881 12.488 6.873 20.744-.522 2.151.082 2.792 1.869 3.571 5.777 2.517 10.934 5.974 15.054 10.821 5.858 6.894 7.709 14.752 5.46 23.511-.381 1.485-.149 2.338 1.084 3.334 4.569 3.692 8.436 8.017 10.981 13.387 3.55 7.492 2.834 14.531-2.456 20.955-1.007 1.222-1.073 1.756.166 2.888 11.016 10.076 12.23 22.413 3.394 34.492-5.544 7.58-12.949 13.088-20.766 18.078-5.709 3.645-11.66 6.849-18.209 9.932 1.497-4.786 2.3-9.192 1.6-14.092-2.896 2.942-5.701 5.478-9.297 6.909-.55-.179-.773-.582-.778-1.134.277-.865.99-1.319 1.724-1.704 2.324-1.216 4.074-3.104 5.928-4.893 1.174-1.132 1.412-2.342.9-3.83-1.494-4.343-3.907-8.054-7.526-10.913-2.419-1.911-5.026-3.535-7.923-4.634-1.881-.714-3.564-1.764-5.223-2.872-1.025-.428-1.829-1.189-2.746-1.786-6.886-5.729-6.578-11.178.886-16.202 2.434-1.638 5.055-2.885 7.792-3.89 1.266-.465 1.607-1.069.648-2.148-.221-.246-.406-.526-.599-.798-4.389-6.223-3.711-11.19 2.36-15.688 1.614-1.196 2.027-2.285 1.434-4.18-1.396-4.456-1.618-8.982-.191-13.505.535-1.462 1.107-2.908 1.997-4.203.652-1.228 1.433-2.373 2.302-3.453.784-.974.765-1.755-.466-2.308-3.307-1.964-6.192-4.488-9.179-6.884-2.298-2.763-4.562-5.548-5.082-9.278-.18-1.295-1.007-1.681-2.133-1.481-3.639.647-7.305.294-10.959.395-1.267.035-2.468.329-3.648.751-5.106 1.819-10.282 3.341-15.711 3.861-1.84.177-3.296 1.087-4.392 2.565-1.244 1.681-2.734 3.133-4.231 4.576-.65.629-1.272 1.348-2.309 1.317-1.184-1.009-.139-2.036-.03-3.059 1.07-1.757 3.003-2.797 4.147-4.839-3.325-.363-6.439-.651-9.432-1.686-2.551-.882-4.961-1.977-6.937-3.823-3.341-3.123-7.642-2.824-11.541-2.62-2.847.149-4.487 3.173-5.763 5.749-.737 1.492-1.294 3.115-1.431 4.762-.516 6.226-2.397 11.861-7.04 16.605 2.234.828 4.177.551 6.09.213 10.256-1.804 20.097-4.666 28.397-11.368.322-.26.709-.431 1.105-.569.643-.176 1.271-.216 1.848.196.677 1.146-.282 1.72-.929 2.216-4.366 3.341-8.854 6.491-14.221 8.075-1.398.404-2.765.911-4.146 1.363-1.61.674-3.279 1.149-4.979 1.527-.493.098-.992.152-1.491.209-3.659.772-7.298 1.71-11.094 1.387-2.941-.25-3.766-.922-4.144-3.707-.154-1.141-.932-.738-1.452-.727-2.105.042-4.144-.204-6.112-.997-2.801-1.127-3.069-2.239-.771-4.224 4.146-3.582 8.131-7.339 12.433-11.228-1.516-.133-2.809.004-4.086-.089-2.858-.207-5.354-1.229-7.2-3.487-1.438-1.76-1.218-2.902.79-4.008 3.426-1.889 7.04-3.398 10.568-5.082 2.341-1.115 2.341-1.283.268-2.9-6.644-5.187-5.333-13.686.954-18.851.706-.581 1.53-.747 2.322-.265 3.726 2.265 7.16.733 10.372-1.04 3.642-2.012 7.147-4.263 11.132-5.576 1.025-.337 1.209-.966.916-1.928-.56-1.838-.849-3.741-1.031-5.64-.174-1.802-.942-1.827-2.303-1.155-4.326 2.138-8.583 4.415-13.044 6.278-5.333 2.23-10.806 3.851-16.608 4.218-1.25.079-2.839-.404-3.12 1.59-.233 1.653.919 3.635 2.453 4.261.869.355 1.801.282 2.703.406.567.077 1.286.088 1.448.753.159.649-.462 1.017-.906 1.361-2.561 1.99-5.126 3.962-7.598 6.074-4.871 4.16-8.811 9.034-12.081 14.498-5.574 9.312-4.952 18.939 1.765 27.422.413.521.78 1.084 1.225 1.577 1.067 1.187.861 2.145-.321 3.162-3.363 2.896-6.251 6.225-8.565 10.016-1.486 2.431-2.652 5.002-2.772 7.923-.12 2.887.744 5.379 2.766 7.499 2.363 2.479 2.306 2.504.515 5.532-1.229 2.079-2.383 4.203-3.081 6.533-1.957 6.538-.027 11.82 5.702 15.552 2.53 1.648 5.334 2.717 8.152 3.738 2.438.883 4.779 1.972 6.869 3.512 5.01 3.693 6.341 8.94 3.722 14.57-1.019 2.188-2.163 4.303-3.614 6.257-1.442 1.944-3.197 3.594-5.287 5.801 3.59.034 6.675.197 9.754-.106 4.136-.408 8.276-.822 12.324-1.844.483-.123.986-.164 1.476.028.577 1.123.43 2.012-.818 2.549z"/><path fill="#0D211C" d="M323.765 450.815c.177-12.135.113-24.28.626-36.401.287-6.816.068-13.632.426-20.435.463-8.805.197-17.623.567-26.42.192-4.565.062-9.142.424-13.688.193-2.418-.625-4.221-2.249-5.742-6.181-5.796-12.432-11.519-18.605-17.323-1.225-1.152-1.733-.63-2.398.521-2.658 4.605-5.374 9.178-8.07 13.761-.407.693-.703 1.474-1.636 2.059v-10.309c-2.627 1.748-4.879 3.231-7.114 4.741-.584.395-.456 1.043-.374 1.604 1.394 9.591 2.81 19.178 4.205 28.768 1.419 9.755 2.754 19.521 4.256 29.263.944 6.125-.766 12.022-1.288 18.013-.69 7.92-1.803 15.803-2.747 23.701-.314 2.632-.668 5.26-1.003 7.889-1.487.321-1.98-.028-1.767-1.749 1.786-14.472 3.485-28.954 5.149-43.44.306-2.664-.615-5.238-1.262-7.971-.743 2.095-1.599 4.157-2.194 6.292-.515 1.849-1.306 2.248-2.818 1.03-1.01.026-1.704-.659-2.503-1.108-3.759-2.499-7.504-5.018-11.27-7.51-.822-.614-1.81-1.055-2.237-2.093-1.697-1.181-3.359-2.417-5.104-3.521-1.035-.653-1.185-1.278-.741-2.431 6.107-15.838 12.166-31.694 18.21-47.557.374-.979.548-1.281 1.839-.947.841.216 2.02-1.258 3.152-1.723 4.806-1.976 6.311-5.456 5.729-10.539-.44-3.845.066-7.792.031-11.693-.01-1.259.483-1.946 1.479-2.596 2.358-1.538 4.643-3.187 6.957-4.789.852-.74 1.769-.662 2.714-.22.894 1.248-.176 1.794-.923 2.352-1.662 1.243-3.381 2.421-5.172 3.458-1.941 1.122-2.704 2.618-2.664 4.888.113 6.306.065 12.614.023 19.354 1.938-3.395 3.756-6.444 5.515-9.53 1.796-3.15 2.481-3.222 5.145-.662 4.482 4.306 9.278 8.28 13.616 12.727.15.127.164.427.465.395-.227-.123-.346-.338-.481-.559-2.51-4.521-4.884-9.098-7.315-13.646-1.409-2.635-1.328-3.426 1.002-5.082 2.62-1.862 3.774-4.204 3.85-7.383.042-1.768.046-3.666 1.1-5.28.805-.382 1.54-.339 2.165.357.551 3.755-.178 7.406-1.1 11.003-.31 1.205-1.569 1.901-2.576 2.635-1.356.987-1.704 2.126-.855 3.65 3.469 6.236 6.717 12.594 10.229 18.8.908-.179.954-.952 1.226-1.491 2.247-4.453 4.432-8.938 6.738-13.359.958-1.836.974-3.47-.831-4.559-5.398-3.26-7.44-8.14-7.285-14.211.029-1.118-.699-2.285.278-3.325.627-.347 1.256-.342 1.887-.017 1.756 2.373 1.107 5.263 1.591 7.899.305 1.658.814 2.89 2.136 3.969 1.726 1.408 3.278 3.027 5.029 4.421 1.617 1.287 2.096 2.793 1.192 4.808-.986 2.192-1.959 4.375-3.352 6.319.032.149-.393.179-.166.352.256.195-.141.098.078-.182 2.28-3.617 5.032-6.856 7.598-10.234 1.696-2.231 2.565-2.39 4.643-.394 2.521 2.424 5.333 4.523 7.704 7.071.706-.203-.079-.553.067-.806-1.13-4.502-2.023-9.048-2.967-13.581-.406-1.951-1.315-3.271-2.972-4.298-2.318-1.439-4.575-2.98-6.815-4.54-.775-.539-1.832-.911-1.805-2.153.67-.943 1.516-1.124 2.527-.588 2.266 1.545 4.41 3.326 6.829 4.577 3.168 1.639 4.686 4.03 5.143 7.514.442 3.365 1.423 6.657 2.01 10.008.255 1.456.867 2.36 2.187 3.034 2.733 1.396 5.355 3.009 8.088 4.412 2.072 1.062 3.512 2.158 4.146 4.823 1.3 5.472 3.371 10.76 5.12 16.124 3.314 10.175 6.567 20.369 9.985 30.509.702 2.083.612 3.233-1.78 3.605-.789.123-1.525.576-2.286.879-.414.727-1.164.931-1.868 1.206-4.199 1.245-8.364 2.599-12.515 3.99-.823.203-1.618.592-2.505.4-1.66.49-3.302 1.061-4.984 1.438-1.125.253-1.089 1.095-1.283 1.863-1.066 4.208.457 8.212 1.071 12.261 1.79 11.793 3.738 23.563 5.697 35.329.301 1.807-.096 2.496-1.945 1.982-.646-7.274-2.231-14.407-3.278-21.623-1.188-8.2-2.871-16.333-3.851-24.553-.467-3.917 1.12-7.819 1.839-11.714 3.176-17.194 6.427-34.374 9.648-51.56.178-.947.182-1.867-.797-2.408-3.036-1.68-6.084-3.336-9.531-5.221l1.019 5.786c-3.144-1.83-5.114-4.404-7.593-6.331-1.898-1.475-3.629-3.17-5.38-4.825-.837-.793-1.349-.917-2.146.145-4.69 6.24-9.493 12.399-14.17 18.65-1.001 1.34-.854 3.127-1.181 4.67-1.044 4.92-.893 9.825-1.009 14.726-.32 13.551-.202 27.115-.718 40.656-.317 8.316.009 16.639-.491 24.929-.376 6.237-.199 12.466-.409 18.695-.657.006-1.314.007-1.971.009z"/><path d="M264.992 262.221c-1.426-3.251-1.488-6.774-1.912-10.204-1.09-8.838-1.803-17.697-.295-26.568.663-3.902 1.764-7.617 4.876-10.374.464-.411.755-.769.5-1.48-1.529-4.278-.116-8.191 1.709-11.974 5.528-11.455 15.284-17.748 26.794-21.995 11.176-4.124 22.435-2.732 33.694-.781 7.071 1.227 13.81 3.554 20.024 7.231 7.97 4.716 13.978 11.212 17.383 19.873 1.909 4.857 3.973 9.628 6.121 14.381 2.746 6.076 4.107 12.437 1.953 19.82-1.627-3.743-3.024-6.956-4.423-10.169-1.155 3.822-2.053 7.476-3.568 10.944-.398.909-.069 1.818.25 2.668 2.609 6.933 1.963 13.456-1.875 19.865-1.945 3.249-3.193 6.914-4.756 10.392-.798-.51-.786-1.286-.699-2.09.31-5.123 2.854-9.501 5.063-13.89 1.932-3.834 1.339-7.289.006-11.263-1.593 2.472-2.955 4.803-4.683 6.874-1.653 1.473-1.921-.019-2.384-1.106-.512-3.126-1.251-6.194-2.328-9.18-.495-1.374-1.039-2.164-2.875-1.898-2.629.38-5.278-.447-7.912-.759-5.3-.626-10.455-.143-15.534 1.389-3.208.967-5.049.48-5.706-1.576-.575-1.803.789-3.635 3.713-4.478 5.304-1.526 10.711-2.352 16.254-1.647 2.224.282 4.482.027 7.289.815-1.119-1.911-2.221-3.02-3.422-4.09-6.352-5.66-14.017-8.01-22.251-9.211-5.716-.833-11.275-.241-16.851.83-3.923.752-7.794 1.761-11.713 2.513-3.877.745-5.136 3.967-6.849 6.73-.729 1.176.625 1.018 1.257 1.081 3.493.35 6.9 1.083 10.241 2.147 1.036.331 2.039.729 2.801 1.562.859.938 1.18 2.016.718 3.221-.47 1.227-1.468 1.748-2.736 1.812-1.106.058-2.139-.279-3.164-.627-3.251-1.104-6.605-1.669-10.015-1.983-2.712-.251-4.805.488-6.284 3.019-1.327 2.273-2.666 4.596-5.031 6.102-1.28.813-.794 2.23-.609 3.453 1.445 9.542 2.913 19.08 4.274 28.635.094.657.24 1.312.206 1.983-.062 1.229-.688 1.735-1.789 1.09-3.429-2.013-7.166-3.752-7.795-8.405-.167-1.23-.791-2.38-.982-3.608-.438-2.814-1.871-4.932-4.23-6.462-.826-.86-2.11-1.296-2.455-2.612z"/><path fill="#0E0D0E" d="M688.975 345.448l.578 1.192c5.698 13.257 11.384 26.519 17.096 39.771 3.545 8.223 7.102 16.439 10.705 24.636 2.087 4.746 2.286 9.794 2.583 14.837-.935.455-1.559-.24-2.275-.605-1.622-1.142-3.252-2.275-4.854-3.439-1.534-1.114-2.622-1.019-4.09.288-2.959 2.637-5.715 5.505-8.85 7.945-.644.5-1.181 1.195-2.141 1.045-.783-.354-.959-1.129-1.267-1.815-6.59-19.942-13.6-39.741-20.22-59.676-.604-1.907-.165-3.723.49-5.519.576-.492.899-.047 1.169.364.461.703.667 1.521.93 2.309 6.323 18.941 12.866 37.809 19.25 56.729 1.001 2.97 1.019 2.967 3.242.846 1.985-1.896 4.112-3.631 6.108-5.519 2.443-2.31 3.311-2.281 6.114-.469.829.535 1.573 1.232 2.829 1.567.104-2.377-.115-4.582-1.046-6.719-8.798-20.214-17.503-40.469-26.307-60.681-1.031-2.366-2.025-4.742-3.326-6.98-1.084-1.857-2.563-3.271-4.516-4.157-1.976-.896-2.641-.555-2.531 1.617.243 4.815.657 9.624.439 14.449-.049 1.075.329 2.467-1.362 2.787-.921-.149-1.627-.664-2.247-1.324-2.817-1.779-2.854-4.663-2.921-7.497-.083-3.511-.162-3.761-3.702-3.33-6.179.753-12.321 1.796-18.497 2.595-8.143 1.053-16.083.792-23.247-4.009-1.787-1.198-2.933-.23-3.715 1.435-1.589 3.378-3.048 6.837-5.859 9.458-1.245 1.291-1.452 2.932-1.54 4.611-1.139 4.698-2.876 9.205-4.39 13.779-4.676 14.131-9.379 28.254-14.103 42.368-.34 1.021-.566 2.094-1.204 2.996-1.331.949-2.336-.14-3.428-.58-.848-.344-1.565-.937-2.371-1.365-6.73-3.466-4.501-3.493-10.427.765-.93.67-1.689 1.568-2.748 2.078-1.268.617-1.712-.089-1.73-1.181-.035-2.05-.318-4.132.508-6.113.95-8.535 5.094-16.022 7.963-23.912 5.37-14.766 11.069-29.411 16.631-44.107l.816-2.444c.492-4.967 2.99-8.749 7.316-11.025 5.257-2.765 10.729-3.053 16.125-.125.533 1.566 2.078 1.616 3.29 2.166 7.558 3.141 15.254 5.501 23.592 5.36 4.55-.075 8.691-1.036 12.408-3.674 1.019-.534 1.772-1.391 2.597-2.162.515-.438 1.095-.872 1.778-.729 6.86 1.416 13.913 2.42 18.898 8.165.742.85 1.661 1.666 1.459 2.998z"/><path fill="#010000" d="M497.109 305.986c.179 1.023.182 1.018 1.264 1.705 7.423 4.712 13.212 10.819 16.369 19.172.21.556.861 1.062-.197 2.305-3.836-10.51-10.938-17.757-20.83-22.826 1.881 5.824 4.208 11.222 4.692 17.106 1.018 12.337 3.33 24.589 2.582 37.04-.144 2.396.348 3.35 3.049 3.298 5.676-.11 10.466 3.732 12.032 9.73 2.575 9.857 2.132 19.765-.352 29.591-.438 1.729-.851 3.893-3.047 4.125-1.965.21-2.931-1.599-3.967-3.005-.326-.441-.444-1.074-1.329-1.345-.777 7.445-3.335 14.315-6.361 21.039-.244.633-.195 1.371-.684 1.92-1.285 1.579-2.255 3.528-4.565 3.914-.813-.194-1.048-.718-.856-1.488 6.399-6.911 8.875-15.532 10.194-24.489 1.344-9.141-.768-17.86-4.402-26.253-.554-1.278-1.402-1.544-2.598-.995-9.966 4.574-20.196 2.784-30.363 1.101-4.202-.694-7.664-3.129-10.745-6.033-2.633-1.922-4.463-4.391-5.428-7.548-.662-2.17-1.067-2.234-2.904-.764-1.561 1.251-2.981 2.66-4.216 4.234-.98 1.25-1.906 2.545-1.541 4.304.125.599-.008 1.176-.596 1.518-.655.378-1.147-.04-1.531-.455-1.7-1.84-3.264-1.054-4.794.213-.901.747-1.636 1.671-2.304 2.615-3.301 4.672-7.567 8.371-11.937 11.967-4.863 4.005-5.165 4.839-2.82 10.561 2.556 6.245 5.514 12.288 9.668 17.669.974 1.264 2.058 2.395 3.4 3.264 2.882 1.868 5.665 1.3 7.525-1.561.781-1.2 1.37-2.521 1.414-3.952.126-4.146.321-8.268-1.008-12.348-1.967-6.04-.812-12.018 1.053-17.871.609-1.913 1.283-1.945 2.579-.416-.424 3.368-1.696 6.569-1.812 10.016-.095 2.853.018 5.623.993 8.336 1.355 3.765 1.229 7.695.999 11.589-.111 1.888.443 3.338 1.501 4.825 3.93 5.529 8.598 10.306 14.128 14.238.449.668.91 1.337.061 2.041-1.106.312-1.897-.373-2.698-.916-4.385-2.979-8.419-6.335-11.447-10.759-.409-.686-1.03-1.243-1.272-2.034.04-1.303-1.051-1.988-1.575-2.991-.18.106-.37.153-.445.273-3.783 6.039-8.436 6.619-13.359 1.37-5.604-5.976-8.847-13.381-11.94-20.833-.411-.993-.671-2.05-1.102-3.033-.92-2.096-.469-3.922 1.076-5.477 1.461-1.471 2.971-2.902 4.556-4.238 4.014-3.386 7.773-6.992 10.982-11.183 1.952-2.55 3.923-5.316 7.852-4.756.859.122 1.016-.74 1.341-1.268 2.092-3.391 4.854-6.16 8.217-8.214 1.884-1.151 3.153-2.628 4.039-4.549 5.745-12.474 13.275-23.927 20.438-35.584 4.086-6.649 9.417-12.223 15.765-16.77.998-.715 1.052-1.823 1.754-2.603.646.373 1.719-.623 2.082.651-.304 1.333.686.796 1.194.768 2.481-.135 4.958-.351 7.438-.491 1.782-.101 3.447.253 4.824 1.497.179.265.153.511-.071.736-4.26-2.28-8.653-.776-13.619-.575l3.651 1.961c.279.309.318.621.003.931z"/><path fill="#FCC07C" d="M367.23 397.136c4.291-1.495 8.559-3.058 12.972-4.177.904.889.964 2.092 1.122 3.224 2.408 17.174 4.809 34.35 7.192 51.526.145 1.041.535 2.136-.28 3.104h-11.554c-.802-.717-.994-1.69-1.168-2.684-2.749-15.798-5.595-31.58-8.374-47.373-.208-1.183-.734-2.436.09-3.62zM272.291 395.856l11.542 7.69c.722 1.039.65 2.18.477 3.355-2.028 13.794-4.144 27.576-6.158 41.374-.13.894-.143 1.836-.827 2.556-3.853-.015-7.705-.029-11.557-.045-.83-.904-.709-2.01-.587-3.078 1.873-16.36 3.657-32.731 5.472-49.1.122-1.101.14-2.403 1.638-2.752z"/><path fill="#FBC689" d="M577.5 421.495c.974-.775 1.932-1.571 2.924-2.326 4.841-3.687 4.845-3.683 10.082-.254 7.39 5.022 13.593 11.447 20.335 17.234 1.893 1.626 4.006 3.066 5.544 5.005.914 1.153 2.502.013 3.071 1.397-.407 2.748.454 5.649-1.016 8.265-3.334-.006-6.666-.014-9.999-.021-1.06-.268-1.98-.791-2.855-1.445-7.771-5.813-15.575-11.58-23.415-17.299-3.155-2.303-3.974-5.775-5.054-9.154-.154-.485.104-.973.383-1.402zM697.956 430.959c3.711-3.307 7.485-6.544 11.096-9.956 1.238-1.17 2.047-1.188 3.312-.164 1.795 1.45 3.744 2.708 5.628 4.048 1.005 4.091.419 7.914-2.311 11.171-4.389 5.236-9.729 9.476-14.935 13.85-.509.428-1.203.553-1.761.917-6.52-.013-13.038-.026-19.558-.041-.107-1.313.774-2.149 1.558-2.958 4.987-5.162 10.263-10.046 14.955-15.494.54-.627 1.165-1.179 2.016-1.373z"/><path fill="#3A5D79" d="M459.659 450.815c-14.001 0-28 0-41.999.001-.396-3.32 2.383-8.714 5.457-10.18 5.408-2.577 10.802-5.184 15.99-8.181 1.93-1.114 3.261-.9 4.671.896 3.425 4.362 7.953 7.521 12.369 10.769 2.303 1.694 3.68 3.761 3.512 6.695z"/><path fill="#F8A241" d="M361.308 271.524c-.136.787-.133 1.565.163 2.323-.476 3.957-.813 7.934-1.447 11.861-1.673 10.376-7.131 17.723-17.347 21.121-.847.128-1.723.147-2.455.685-1.298 1.434-3.144 1.328-4.789 1.495-2.379.242-4.781 1.421-7.195.13l-1.906-.062c-1.776 1.723-3.876 1.17-5.944.844-.576-.791-1.361-.445-2.094-.383-1.896 1.247-4.048.827-6.039.649-2.653-.237-5.482.228-7.909-1.384l-2.912-.33c-3.616-1.177-7.257-2.248-10.817-3.633-5.839-2.272-10.134-6.221-13.488-11.345-1.044-1.596-2.095-3.217-2.872-4.949-1.57-3.501-3.281-6.218-7.553-7.534-7.792-2.4-8.181-15.133-1.715-18.793l2.25 1.797c-2.297 1.802-3.98 3.783-3.795 7.073.249 4.397 2.094 7.3 6.447 8.277 2.566.577 4.05 1.827 5.013 4.213.931 2.304 2.177 4.482 3.381 6.671 5.204 9.465 13.974 13.619 23.948 15.268 12.207 2.018 24.518 1.801 36.676-.747 7.235-1.515 13.252-4.894 16.237-12.195 1.685-4.121 2.464-8.424 2.923-12.839.819-7.886.293-15.786.481-23.678.029-1.212-.305-2.522.699-3.555.513.167.126 2.604 1.501.596 1.623.412 1.196 1.812 1.236 2.843.204 5.209.019 10.41-.678 15.581z"/><path fill="#050707" d="M459.659 450.815c-.685-4.076-3.731-6.2-6.782-8.401-3.847-2.774-7.547-5.749-10.4-9.604-.566-.763-1.012-.884-1.838-.431-5.832 3.199-11.799 6.139-17.75 9.11-2.866 1.432-3.638 4.604-4.664 7.416-.227.623-.379 1.274-.565 1.911-.669-.001-1.604.495-1.179-.998 1.332-4.675 3.125-8.76 8.123-10.897 5.171-2.214 10.065-5.07 15.092-7.626.861-.438 1.111-1.004 1.363-2.011.758-3.029 1.936-5.955 2.95-8.921.756.295 1.288.827 1.648 1.545-3.827 9.359-3.43 7.734 2.333 13.698 2.726 2.817 5.901 5.072 9.259 7.55.648-3.244.226-6.485 1.892-9.254.785-.471.185-.94 0-1.411 2.467-4.652 5.637-5.465 9.933-2.547.345.233.692.469.992.756 2.419 2.307 4.838 4.592 8.564 2.598.132-.071.347-.068.492-.013 3.549 1.339 5.998-.257 8.493-2.682 1.962-1.906 4.542-3.067 7.505-2.058.046.581.385.835.943.845 2.33 1.672 2.35 4.453 3.198 6.881 2.887-3.268 3.195-5.303 1.398-8.894-.296-.591-.698-1.146-.57-1.865l.925-1.591c.755 1.379 1.451 2.797 2.285 4.13.817 1.31 1.521 2.564.544 4.091-.552.861.04 1.622.314 2.36 1.794 4.826 3.146 9.784 4.438 14.76.218.836.744 1.931-.989 1.557-1.206-.509-1.227-1.696-1.482-2.707-.976-3.85-2.035-7.672-3.443-11.588-1.635 2.121-2.5 4.191-2.547 6.845-.044 2.543.105 5.378-2.086 7.419l-1.54.03c-.376-.561-.163-1.123.024-1.669 1.736-5.031 1.045-10.01-.449-14.92-1.176-3.86-3.269-4.442-6.485-1.989l-1.669 1.491c-1.788 1.353-2.215 2.726-.882 4.812 1.21 1.894 1.069 4.243.256 6.273-.752 1.871-.262 2.925 1.287 3.919.715.459 1.651.917 1.509 2.071l-1.971.007c-1.007.204-2.017-1.91-3.021.005l-1.421-.035c-2.365-.788-4.729-.582-7.09.024l-1.422-.008c-1.027-1.941-2.315-2.353-4.03-.755-.413.387-1.028.513-1.555.747l-2.072.029c.133-1.789 1.818-2.234 2.859-3.206.837-.781 1.154-1.413.701-2.562-.952-2.421-.891-4.875.403-7.188.627-1.121.48-1.994-.415-2.886-1.355-1.348-2.704-2.691-4.446-3.543-2.354-1.151-3.908-.755-4.776 1.681-1.742 4.882-2.756 9.886-1.174 15.065.258.846.816 1.662.445 2.624l-1.455.01z"/><path fill="#BE3C3C" d="M461.116 450.806c-3.117-6.349-1.871-12.612.526-18.775.791-2.032 2.555-2.476 4.556-1.566 2.562 1.165 4.438 3.167 6.317 5.177.608.649.388 1.09-.028 1.714-1.758 2.635-1.955 5.436-.55 8.264.502 1.009.142 1.449-.619 2.026-1.315.995-2.536 2.111-3.799 3.177-2.133-.008-4.268-.011-6.403-.017zM490.1 450.807c-.361-.33-.694-.701-1.09-.981-1.999-1.411-4.045-2.416-2.149-5.717 1.191-2.074.564-4.937-1.231-6.974-.82-.932-.672-1.493.104-2.246 1.486-1.441 2.884-2.979 4.721-4.006 2.844-1.591 4.795-1.064 5.852 2.049 2 5.898 2.962 11.895.204 17.887l-6.411-.012z"/><path fill="#B2B2B2" d="M675.478 358.928c.869-.053 1.528.295 1.981 1.036.799 1.438.356 2.748-.414 4.024-.156 1.839-.799 3.661-.181 5.526.039 8.239-.887 16.433-1.881 24.569-1.252 10.262-.763 20.378.418 30.566.921 7.93 1.921 15.859 2.323 23.84.045.795.174 1.604-.307 2.335l-1.933.024c-.977-6.285-1.394-12.631-2.039-18.952-.595-5.826-1.263-11.646-1.893-17.471-.535-4.939-.502-9.852.206-14.797.608-4.245.801-8.549 1.196-12.826.632-6.821 1.288-13.641 1.917-20.462.23-2.467.407-4.941.607-7.412zM618.44 450.816c.12-2.961-.049-5.937.435-8.879-.56-.38-.713-.925-.636-1.563.183-8.379.827-16.73 1.409-25.087.444-6.397-.018-12.761-.59-19.136-.916-10.175-2.164-20.304-3.594-30.416-.175-1.243.153-2.479.137-3.723-.173-1.834-.414-3.698 1.935-4.434-.082 5.157 1.16 10.168 1.704 15.257.551 5.169 1.454 10.295 1.803 15.496.404 6.018 1.114 12.016 1.5 18.035.195 3.034.184 6.119-.12 9.144-.48 4.779-.636 9.571-.91 14.358-.375 6.527-1.02 13.042-1.053 19.59-.003.466-.304.932-.468 1.397l-1.552-.039z"/><path fill="#F8A342" d="M388.236 450.813c-1.474-10.29-2.979-20.574-4.412-30.868-1.251-8.99-2.418-17.99-3.622-26.986.55-.476 1.22-.597 1.914-.644 2.636 18.826 5.258 37.657 7.936 56.479.229 1.611.008 2.435-1.816 2.019zM272.291 395.856c-1.633 2.07-1.05 4.644-1.354 6.945-1.093 8.258-1.727 16.576-2.673 24.855-.879 7.705-1.908 15.394-2.496 23.13-1.517.349-2.238.125-2.014-1.796 1.326-11.386 2.513-22.785 3.774-34.178.759-6.851 1.568-13.696 2.355-20.546.898.387 1.733.868 2.408 1.59zM367.23 397.136l9.452 53.678c-1.652.438-2.152-.447-2.406-1.901-2.848-16.356-5.731-32.704-8.612-49.055-.116-.653-.29-1.297-.436-1.945.545-.577 1.334-.524 2.002-.777zM277.324 450.832c.04-4.479 1.061-8.838 1.681-13.244 1.206-8.573 2.536-17.129 3.79-25.695.406-2.773 1.055-5.52 1.036-8.346l2.062 1.432c-2.196 14.821-4.416 29.64-6.556 44.471-.208 1.443-.909 1.554-2.013 1.382z"/><path fill="#F8A449" d="M577.5 421.495c.911 4.14 2.054 7.976 5.884 10.701 8.474 6.03 16.72 12.379 25.058 18.6-2.091.389-3.766-.247-5.493-1.559-7.341-5.579-14.812-10.989-22.215-16.486-3.465-2.574-6.72-12.009-5.562-16.094.175-.612.614-1.147.932-1.72-.052 1.906.034 3.828-.193 5.712-.243 2.011.516 1.591 1.589.846z"/><path fill="#3A5C78" d="M498.049 450.788c1.114-2.975 1.546-6.048 1.441-9.224-.087-2.606 2.264-4.062 3.062-6.958 2.425 5.643 3.464 11.018 5.056 16.213-3.186-.009-6.374-.02-9.559-.031z"/><path fill="#F8A449" d="M698.986 450.824c2.772-2.454 5.495-4.972 8.336-7.347 2.804-2.348 5.317-4.978 7.797-7.641 2.896-3.107 2.618-7.114 2.872-10.95l1.944.997c.287 5.635-1.577 10.282-5.841 14.138-3.633 3.283-7.271 6.562-10.93 9.813-1.288 1.147-2.678 1.128-4.178.99zM677.418 450.825c-.288-.459-.195-.911.021-1.362 1.273-2.45 3.366-4.249 5.171-6.248 4.037-4.477 8.712-8.349 12.557-13.025.451-.547.965-1.191 1.871-.854l.918 1.623c-4.634 5.45-9.757 10.434-14.797 15.493-1.353 1.356-2.669 2.731-3.73 4.332l-2.011.041z"/><path fill="#0A0A0A" d="M495.119 297.548c5.034-1.755 10.022-4.015 15.463-1.449.01.746-.574.826-1.093.979-2.408-.109-4.811-.74-7.183-.122 1.336-.075 2.619-.076 3.907-.082 4.275.723 8.284 1.972 11.097 5.594-.085.431-.255.744-.782.584-3.465-2.229-7.007-4.193-11.216-4.773-3.114-.43-6.048.232-9.025.824-1.275.147-1.313-.636-1.168-1.555z"/><path fill="#111" d="M509.751 304.433c3.456 1.798 6.579 4.112 9.742 6.354 2.449 1.734 2.731 4.575 3.535 7.12-2.292-6.375-8.221-8.824-13.129-12.321-.269-.191-.529-.394-.793-.591-.036-.475.093-.761.645-.562z"/><path fill="#161616" d="M509.543 296.545l1.039-.446c3.579 1.148 6.938 2.742 9.998 4.945.096.485-.205.679-.591.812-3.814-1.115-7.416-2.653-10.446-5.311zM519.951 301.578l.629-.534c3.209 1.736 4.535 5.327 7.341 7.47.198.15.482.606.117.829-.807.494-1.118-.218-1.485-.734-.665-.452-1.684-.072-2.181-.92-.887-1.599-2.026-3.001-3.32-4.286-.518-.515-1.18-.949-1.101-1.825z"/><path fill="#151515" d="M517.986 319.72c-1.961-3.936-4.795-6.989-8.874-8.785-.025-.581.282-.672.758-.515 4.265 1.478 6.932 4.569 8.689 8.585-.16.263-.197.625-.573.715z"/><path fill="#385A76" d="M469.591 450.792c.622-.539 1.217-1.116 1.872-1.612 2.324-1.766 3.321-1.322 3.713 1.62l-5.585-.008z"/><path fill="#151515" d="M495.119 297.548c.315.571.491 1.251 1.168 1.554l-2.6 2.06c-.598-.524-1.65.403-2.082-.651.576-1.695 1.874-2.531 3.514-2.963z"/><path fill="#365670" d="M476.598 450.808c.044-.986.727-.907 1.417-.882 1.405.056 2.816.154 4.177-.371 1.194-.459 1.461.254 1.496 1.229l-7.09.024z"/><path fill="#151515" d="M509.87 310.42l-.758.515c-2.455-.91-4.721-2.203-6.998-3.47-.047-.6.241-.733.76-.548 2.333 1.167 4.665 2.335 6.996 3.503z"/><path fill="#202020" d="M524.523 307.482c.604.502 1.624.262 2.029 1.126-.908.483-1.711.854-2.69-.083-.978-.936-2.196-1.618-3.31-2.413-.188-.216-.2-.439-.039-.676 1.901-.425 2.947.83 4.01 2.046z"/><path fill="#1A1A1A" d="M502.874 306.917l-.76.548c-1.746-.226-3.46-.569-5.005-1.479l-.004-.93 5.769 1.861z"/><path fill="#34536B" d="M485.108 450.818c.182-.688-.516-1.402.11-2.332l2.91 2.327-3.02.005z"/><path fill="#111" d="M517.986 319.72l.573-.715c.653 1.241 1.33 2.479.706 4.39-.895-1.364-.979-2.56-1.279-3.675z"/><path fill="#2B2B2B" d="M509.751 304.433l-.645.562c-.777-.286-1.492-.672-2.033-1.323l.071-.736c1.039.206 1.869.769 2.607 1.497z"/><path fill="#323232" d="M516.528 303.051l.575-.559c1.229-.239 1.946.293 2.233 1.476-.091.388-.219.729-.736.542-.83-.286-1.528-.765-2.072-1.459z"/><path fill="#191919" d="M518.601 304.51l.5-.53c1.069-.119 1.513.43 1.531 1.434l-.079.699-1.952-1.603z"/><path fill="#7BCAF1" d="M652.955 362.945c0-.996.035-1.995-.008-2.989-.082-1.89.583-2.995 2.676-3.032 2.169-.04 2.986.984 2.915 3.051-.066 1.908.084 3.827-.04 5.729-.131 2 .501 2.927 2.652 2.761 1.982-.151 3.986-.001 5.98-.039 1.973-.039 2.897.856 2.886 2.85-.011 2.048-1.062 2.789-2.986 2.739-2.075-.054-4.157.064-6.229-.034-1.762-.085-2.367.654-2.298 2.354.09 2.24-.036 4.487.035 6.728.061 1.873-.849 2.471-2.591 2.449-1.731-.021-2.965-.481-2.983-2.469-.02-2.326-.056-4.652.007-6.979.04-1.492-.565-2.112-2.059-2.076-2.241.058-4.485-.002-6.729.017-1.705.015-2.669-.728-2.706-2.5-.035-1.756.709-2.949 2.545-3.035 2.237-.104 4.491-.136 6.727-.005 1.778.105 2.397-.562 2.226-2.281-.108-1.069-.021-2.158-.02-3.239z"/><path fill="#ED3E3E" d="M350.443 350.986c2.324 0 4.648-.042 6.972.013 2.21.053 3.303 1.233 3.322 3.471.021 2.479-.842 3.711-3.253 3.771-4.729.12-9.462.082-14.191-.002-2.405-.042-3.225-1.507-3.149-3.821.074-2.271 1.102-3.395 3.328-3.425 2.323-.031 4.648-.007 6.971-.007z"/><path fill="#661B1B" d="M688.547 294.194c-.985-.768-2.129-1.479-3.056-2.409-5.325-5.35-4.643-11.068 1.964-14.651 2.136-1.157 2.503-1.962 1.593-4.273-3.302-8.389-1.749-15.943 4.712-22.346 1.054-1.042 1.355-1.581-.246-2.486-5.146-2.91-10.093-6.144-13.5-11.156-3.404-5.012-2.468-9.281 2.465-12.832 4.967-3.573 10.707-5.192 16.443-6.859.645-.188 1.318-.148 1.955.142 8.186 3.719 15.34 8.602 19.442 17.004 2.484 5.088 2.806 10.367 1.304 15.73-.652 2.329-.4 3.683 1.699 5.405 4.887 4.009 9.043 8.704 11.32 14.883 2.624 7.121.614 13.03-4.182 18.269-1.268 1.384-1.106 1.972.199 2.916 4.086 2.956 6.999 6.896 8.656 11.586 2.68 7.583.805 14.533-3.697 20.909-6.625 9.383-15.894 15.634-25.567 21.37-3.189 1.892-6.514 3.562-10.342 5.641.888-3.245.731-6.032.736-8.811.015-10.197-4.853-17.46-13.483-22.487-4-2.33-8.427-3.828-12.146-6.746-5.03-3.944-5.047-8.202.188-11.838 3.306-2.299 6.924-3.909 10.674-5.293.825-.305 1.812-.321 2.869-1.668zM624.972 333.929c-6.871-3.791-17.852-2.109-21.451 5.991-.674 1.516-1.338 3.035-2.007 4.554-8.013 2.472-16.237 2.656-24.883 2.449 2.067-2.7 4.581-4.521 6.296-7.056 1.686-2.487 3.302-5.016 4.093-7.925 1.348-4.959-.227-8.959-4.418-11.927-3.031-2.146-6.564-3.153-9.928-4.561-5.017-2.098-9.556-4.764-11.198-10.487-.987-3.435-.397-6.754.884-9.968.644-1.617 1.269-3.371 2.382-4.645 1.897-2.171 1.579-3.563-.471-5.46-3.326-3.08-3.65-8.267-1.162-13.434 2.418-5.019 5.994-9.168 10.224-12.72 1.049-.882.919-1.188.151-2.044-4.656-5.197-7.521-11.098-6.93-18.294.521-6.357 3.46-11.692 7.136-16.693 4.466-6.072 10.021-11.007 16.166-15.319.439-.308 1.056-.5 1.213-1.298-.869 0-1.683.009-2.494-.002-3.696-.048-4.644-3.453-4.425-5.947.089-1.003.756-1.558 1.895-1.549 8.807.073 16.678-3.17 24.391-6.952 2.614-1.281 5.238-2.547 7.807-3.917 1.776-.948 2.213-.469 2.334 1.46.141 2.291.504 4.639 1.244 6.799.511 1.488-.109 1.692-1.116 1.989-3.621 1.069-6.83 2.972-10.089 4.818-3.939 2.23-7.913 4.941-12.607 1.613-.394-.28-.775-.177-1.128.121-4.996 4.212-7.995 11.232-2.429 17.161 1.11 1.182 2.568 2.038 4.13 3.25-2.424 1.367-4.706 2.454-7.062 3.449-2.372 1.002-4.601 2.337-6.953 3.389-1.642.733-1.646 1.665-.65 2.869 1.859 2.247 4.293 3.347 7.185 3.42 1.648.041 3.3.007 5.581.007-2.811 2.574-5.198 4.786-7.613 6.968-2.275 2.055-4.555 4.11-6.882 6.105-1.314 1.127-.8 1.636.474 2.228 2.981 1.384 6.146 1.228 9.403 1.188.177 1.17-1.809 1.853-.628 3.091 1.056 1.109 2.427 1.317 3.86 1.404 3.693.224 7.231-.665 10.783-1.462-.621 6.786-.436 13.594-.317 20.387.118 6.875 1.532 13.55 4.439 19.816 3.594 7.749 9.467 13.134 17.439 16.208 2.251.867 4.523 1.691 6.876 2.226 1.848.421 2.792 1.504 2.611 3.349-.365 3.719-.746 7.439-1.439 11.116-.175.928-.523 1.827-1.475 2.175-2.73.997-5.477 1.956-8.361 2.43-.345.055-.643-.115-.881-.37z"/><path fill="#FBC689" d="M607.512 256.558l5.017-1.576c.536-.287 1.095-.149 1.266.351.696 2.035 2.46 2.199 4.168 2.627 4.713 1.18 9.304 2.626 12.529 6.643.534.666 1.229 1.344 2.099.647.954-.763.461-1.699-.131-2.418-1.375-1.669-2.858-3.221-4.812-4.271-2.879-1.549-5.91-2.637-9.099-3.332-.894-.195-2.094-.165-1.965-1.644 5.873-1.994 11.032-5.162 15.522-9.432l-.027.016c2.895-1.882 5.017-4.554 7.219-7.133.788-.924 1.563-1.47 2.871-1.616 5.958-.665 11.745-2.104 17.343-4.274.771-.299 1.552-.512 2.412-.504 4.318.039 8.638.099 12.935-.497.653-.091 1.63-.459 1.59.834-.118 3.885 2.019 6.728 4.327 9.505.255.307.417.693.621 1.043-2.38.821-4.893-.051-7.324.644-1.913.547-3.902.852-5.754 1.624-.778.325-1.639.811-1.252 1.828.333.878 1.252.707 1.972.528 2.019-.499 4.015-1.087 6.07-1.449 4.184-.735 8.009.038 11.108 3.028 1.487 1.437 2.778 1.594 4.346.378l1.874 1.145c-1.165 1.818-2.849 3.107-3.55 5.075-.585.829-1.456.724-2.226.528-6.591-1.673-11.638 1.234-16.254 5.425-.802.729-1.552 1.523-2.079 2.479-.435.79-1.075 1.728-.14 2.467.858.679 1.536-.179 2.127-.722 1.225-1.129 2.351-2.358 3.558-3.507 2.044-1.94 4.518-3.184 7.21-3.798 2.067-.471 4.333-.796 5.819 1.466-1.625 4.955-1.15 9.846.606 14.641.456 1.243.429 1.927-.861 2.525-.962.445-1.838 1.135-2.657 1.827-3.724 3.145-4.489 7.008-2.354 11.397.919 1.888 2.323 3.421 3.703 5.167-2.458 1.1-4.837 2.136-7.19 3.228-2.045.947-3.946 2.14-5.596 3.685-3.927 3.677-4.015 7.633-.266 11.485.694.713 1.449 1.367 2.178 2.049-.129 1.208-1.068 1.359-1.986 1.48-.989.131-1.986.29-2.974.319-12.624.37-25.255 1.068-37.63-2.58-13.25-3.906-20.997-12.701-24.104-26.004-2.151-9.213-1.366-18.526-1.359-27.818 0-1.223.239-2.497 1.1-3.509z"/><path fill="#661B1B" d="M697.975 213.863c.202 1.603-.742 2.333-2.086 2.642-3.591.828-6.942 2.262-10.185 3.965-1.217.64-2.178.641-3.438-.145-4.039-2.52-8.661-3.58-13.288-3.656-10.849-.179-21.13-2.839-30.985-6.955-8.893-3.714-14.628-10.415-15.944-20.334-.322-2.42-.056-2.736 2.188-1.907 6.472 2.394 13.179 3.167 20.023 3.145 7.41-.025 14.837.296 22.226-.114 6.047-.335 11.873.133 17.57 2.079 7.594 2.595 12.941 9.806 13.404 17.853.065 1.148.338 2.285.515 3.427zM655.643 216.772c-4.292 1.924-8.16 1.338-11.923 1.252-3.702-.082-7.253-1.291-11.008-2.025l7.493 6.105c-5.36.115-10.413 1.411-15.545 1.882-5.107.468-9.919-1.39-15.293-3.551l6.706 6.211c-8.441-.751-16.181-1.767-21.64-8.491-2.729-3.36-1.382-10.035 2.337-12.539.355-.239.687-.486 1.131-.305 5.875 2.41 10.667-.331 15.309-3.361 2.555-1.667 5.366-2.576 8.179-3.583 1.245-.446 1.937.083 2.47 1.005 4.891 8.471 12.905 12.273 21.862 14.687 3.109.837 6.211 1.697 9.922 2.713zM688.975 345.448c-3.208-5.872-8.967-7.742-14.832-9.414-1.511-.431-3.081-.649-4.6-1.054-.952-.254-1.771-.242-2.477.517-2.206.28-4.265-.403-6.323-1.021-1.133-.341-1.748-1.18-1.941-2.353-.631-3.846-1.082-7.716-1.473-11.589-.247-2.46.542-3.267 3.204-3.236 5.469.065 10.891-.362 16.286-1.207 4.096 2.939 9.18 4.079 13.117 7.36 3.929 3.276 6.671 7.217 8.16 12.129.469 1.551.034 2.43-.948 3.499-2.377 2.589-5.102 4.692-8.173 6.369zM629.968 244.098c-8.116 7.042-17.936 10.038-28.225 11.992-2.314.44-4.608.451-6.927.457-.5.002-1.051.009-1.349-.462-.368-.585.192-.898.515-1.223 4.219-4.255 6.17-9.397 6.653-15.353.259-3.183 1.435-6.251 3.547-8.884 2.241-2.792 4.829-3.562 8.424-3.063 3.726.518 6.768 1.776 9.728 4.089 3.759 2.936 8.412 3.688 13.112 3.937.772.041 1.909-.474 2.239.462.299.847-.79 1.345-1.349 1.905-1.228 1.229-2.529 2.385-3.801 3.57-7.146-2.974-13.305-.106-19.348 3.318-.783.445-1.662 1.2-.978 2.215.679 1.007 1.656.396 2.455-.03 3.167-1.695 6.39-3.284 9.967-3.868 1.834-.3 3.82-.836 5.337.938zM699.078 211.202c-.892-11.822-8.963-20.151-20.512-21.621-7.132-.907-14.27-.304-21.402-.448-5.738-.117-11.48.034-17.22-.044-5.942-.083-11.573-1.629-17.093-3.877 1.915-1.7 8.666-4.052 11.961-4.078 14.277-.108 28.48.71 42.315 4.545 6.666 1.848 13.041 4.453 17.897 9.747 3.687 4.017 5.264 8.744 4.891 14.153-.038.582-.15 1.151-.837 1.623zM639.187 219.321c1.965-.652 3.521.214 5.125.325 5.128.355 10.011-1.004 14.996-1.708 7.386-1.043 14.486.236 21.31 3.202 1.559.679 1.257 1.352.243 2.309-1.32 1.248-2.644 2.48-3.493 4.176-.9 1.802-2.951 1.149-4.289 1.206-7.014.29-14.048.841-20.999-1.101-5.203-1.455-8.655-5.25-12.893-8.409z"/><path fill="#F8A348" d="M676.819 316.091c.116 1.127-.777.833-1.348.924-5.076.798-10.19 1.196-15.324 1.015-1.905-.067-2.489.498-2.204 2.39.591 3.921 1.071 7.86 1.497 11.804.125 1.157.731 1.491 1.704 1.745 1.974.515 4.096.453 5.922 1.529-.618.692-1.161 1.467-2.047 1.865-1.562-.229-3.108-.534-4.662-.799-2.311-.393-3.408-1.63-3.636-4.006-.366-3.806-.959-7.593-1.378-11.394-.193-1.767-.937-2.532-2.694-2.446-3.675.179-7.307-.366-10.933-.809-1.725-.21-2.42.374-2.664 2.031-.512 3.458-.85 6.936-1.253 10.402-.251 2.147-1.3 3.278-3.331 3.772-2.333.564-4.565 1.543-6.993 1.735-.835-.639-2.499-.201-2.504-1.922 2.232-.63 4.428-1.487 6.702-1.83 2.74-.412 3.63-1.928 3.802-4.459.208-3.062.628-6.109 1.035-9.154.199-1.492-.187-2.171-1.809-2.549-17.969-4.186-26.82-14.967-29.192-33.651-.916-7.213-.533-14.442-.358-21.668.034-1.375-.087-2.847.927-4.023l1.434-.036c-.86 6.784-.711 13.613-.418 20.4.421 9.739 2.453 19.05 9.184 26.719 4.139 4.714 9.411 7.449 15.249 9.333 10.212 3.295 20.754 3.05 31.289 3.046 3.331-.002 6.614-.452 9.926-.565.712-.023 1.3-.228 1.722-.821l2.355 1.422z"/><path fill="#661B1B" d="M616.832 224.771c5.35 1.251 10.499.358 15.724-.519 3.074-.517 6.299-.152 9.456-.141.379.002.846.181 1.124.438 3.78 3.475 8.407 4.984 14.11 5.752-4.096 1.539-7.583 2.535-11.142 3.106-5.747.925-11.506 1.154-17.25-.324-5.048-1.3-8.516-4.749-12.022-8.312zM605.732 227.117c-2.09 1.911-4.021 4.023-5.176 6.752-.633 1.497-2.275 1.22-3.507 1.396-3.271.472-6.581.825-9.75-.592-.919-.412-1.938-1.001-2-2.014-.058-.94 1.161-1.018 1.852-1.377 2.57-1.339 5.219-2.535 7.768-3.912 3.477-1.874 6.938-3.1 10.813-.253z"/><path fill="#651B1B" d="M599.412 237.167c-.361 3.921-.961 7.296-2.197 10.584-1.249 3.323-3.598 4.818-6.955 4.741-1.626-.036-3.232-.639-4.861-.868-1.586-.224-1.395-.851-.483-1.688 2.867-2.637 5.656-5.371 8.663-7.837 1.889-1.549 3.246-3.764 5.833-4.932z"/><path fill="#4F1110" d="M686.901 258.665c-2.891-1.647-5.759-1.184-8.594.135-3.087 1.435-5.491 3.725-7.626 6.31-.878 1.062-1.846 1.918-3.142.916-1.365-1.057-.874-2.338.046-3.484 3.53-4.396 7.715-7.75 13.487-8.727 1.949-.33 3.811-.116 5.668.364.722.187 1.394.58 2.145.148-.862 1.354-1.628 2.753-1.984 4.338z"/><path fill="#501111" d="M616.583 253.584c.282 1.135 1.297.83 2.039 1.005 3.41.803 6.723 1.855 9.751 3.667 1.729 1.033 3.271 2.29 4.469 3.923.909 1.24 1.924 2.622.166 3.856-1.644 1.153-2.448-.23-3.373-1.384-2.934-3.656-7.189-4.923-11.472-6.021-2.154-.553-4.822-.214-4.923-3.562-.001-.037-.464-.058-.712-.088 1.352-.464 2.704-.929 4.055-1.396z"/><path fill="#200D0D" d="M690.562 248.106c-1.227 2.375-2.328 2.754-3.846 1.021-3.896-4.45-8.736-4.547-13.917-3.278-1.283.314-2.514.83-3.775 1.226-1.212.379-2.409.382-2.929-1.002-.498-1.331.219-2.233 1.46-2.724 4.462-1.756 9.014-2.836 13.841-1.824 3.214 1.973 5.825 4.786 9.166 6.581z"/><path fill="#1F0C0D" d="M629.968 244.098c-3.944-1.397-7.509.115-11.046 1.535-1.607.646-3.135 1.528-4.624 2.427-1.116.673-2.051.663-2.849-.354-.843-1.071-.525-2.163.491-2.804 5.626-3.55 11.48-6.31 18.446-4.881.985.203 1.669.667 2.148 1.506.576 1.005-.325 1.757-.458 2.641l.028-.015-2.136-.055z"/><path fill="#2A7964" d="M283.497 343.964c2.283 15.55 4.461 30.622 6.729 45.678.53 3.519-.941 6.51-2.084 9.6-1.367 3.693-1.424 3.683-4.637 1.531-5.248-3.509-10.466-7.062-15.75-10.516-1.234-.808-1.712-1.524-1.132-3.03 5.409-14.016 10.752-28.056 16.125-42.087.109-.283.329-.524.749-1.176zM369.645 345.15c.83.443.826 1.264 1.036 1.91 4.359 13.341 8.662 26.702 13.061 40.029.528 1.602.42 2.348-1.336 2.895-6.818 2.124-13.603 4.362-20.377 6.623-1.826.61-2.335.466-1.919-1.706 3.13-16.36 6.131-32.746 9.183-49.122.037-.207.214-.389.352-.629z"/><path fill="#2A7864" d="M304.346 308.804c4.649.245 9.298.49 13.948.734-.207 2.392-.461 4.778-.609 7.173-.16 2.6-1.744 4.163-3.733 5.502-1.784 1.202-2.413 2.424-1.089 4.664 2.697 4.555 4.99 9.348 7.449 14.044.166.548-.082.687-.575.579-4.947-4.539-9.964-9.006-14.801-13.659-1.502-1.445-2.127-1.199-3.031.43-2.129 3.836-4.369 7.608-6.582 11.438-.908-.534-.483-1.267-.485-1.838-.018-6.726.048-13.453-.007-20.181-.013-1.582.479-2.559 1.831-3.464 2.6-1.741 5.42-3.198 7.684-5.422zM328.238 309.14l11.984-1.625c3.284 2.242 6.562 4.495 9.855 6.723.908.614 1.732 1.23 1.968 2.413 1.058 5.273 2.148 10.539 3.226 15.808.234.562.396 1.083-.54 1.03-2.827-2.543-5.695-5.045-8.469-7.646-1.436-1.345-2.337-1.108-3.455.443-2.607 3.62-5.377 7.124-8.081 10.673-.445.126-.685.046-.481-.479 1.167-2.46 2.259-4.962 3.531-7.367.681-1.288.421-2.12-.622-2.983-1.461-1.211-2.71-2.741-4.307-3.709-3.547-2.148-3.922-5.532-4.103-9.115-.07-1.395-.332-2.779-.506-4.166z"/><path fill="#FCC07C" d="M320.388 309.921c1.884-.97 4.052.057 5.944-.845.342 3.303.693 6.604 1.021 9.907.105 1.055.572 1.83 1.395 2.52 2.037 1.706 3.964 3.542 6.008 5.238.974.808 1.279 1.495.649 2.732-2.995 5.895-5.896 11.835-9.003 18.106-2.074-3.854-3.993-7.42-5.91-10.985-1.886-3.506-3.768-7.014-5.656-10.52-.351-.652-.923-1.377.064-1.896 5.445-2.856 4.573-8.267 5.317-13.027.066-.408.115-.82.171-1.23z"/><path fill="#20594A" d="M334.246 336.479l.481.479c-.209.547-.536.99-1.236 1.313-.177-.834.27-1.319.755-1.792z"/><path fill="#256A58" d="M319.736 341.5l.575-.579c.453.465.865.948.801 1.722-.78-.037-1.035-.643-1.376-1.143z"/><path fill="#1E5446" d="M354.731 333.488c.427-.215.479-.624.54-1.03.487.442.715 1.086.304 1.535-.365.402-.646-.165-.844-.505z"/><path fill="#FCC07D" d="M359.249 252.505c-.007 7.16.168 14.325-.08 21.476-.188 5.446-.748 10.865-2.344 16.172-2.681 8.912-9.047 13.383-17.63 15.333-7.81 1.772-15.786 2.045-23.736 1.95-9.252-.107-18.325-1.345-26.746-5.691-5.444-2.811-8.777-7.476-11.796-12.497-.556-.924-.998-1.918-1.474-2.891-1.521-3.105-2.652-5.805-7.035-6.84-6.703-1.584-6.805-9.628-4.392-13.471.726-1.158 1.736-2.008 3.223-2.028 2.879 1.522 4.769 3.744 5.108 7.108.065.65.45 1.272.497 1.922.408 5.627 4.448 8.08 9.03 10.333-1.112-7.434-2.202-14.738-3.299-22.042-.58-3.862-1.168-7.722-1.76-11.581-.173-1.135-.259-2.046 1.325-2.354 2.039-.398 2.901-2.369 3.527-3.929 2.268-5.657 6.656-5.639 11.49-4.771 2.701.482 5.361 1.145 7.949 2.065 1.61.572 3.287.838 4.03-1.088.776-2.009-.528-3.008-2.324-3.646-4.467-1.587-9.081-2.45-14.046-2.792 1.562-2.666 3.163-4.949 4.856-7.179.684-.903 1.646-1.098 2.59-1.325 6.62-1.597 13.238-3.554 20.032-3.866 13.767-.634 26.51 2.063 35.939 13.361.258.309.47.654.994 1.392-2.796-.273-5.193-.509-7.591-.741-5.428-.527-10.792-.158-16.069 1.238-1.117.296-2.235.685-3.26 1.211-1.26.648-1.79 1.795-1.207 3.149.561 1.3 1.702 1.971 3.06 1.443 8.08-3.15 16.299-2.53 24.569-1.071 1.069.188 1.19.106 3.017-.954 1.878 4.021 3.275 8.149 3.553 12.604z"/><path fill="#1D1E1E" d="M279.348 243.248c-.766 1.574-1.651 2.229-2.86 2.492-1.754.381-2.236 1.145-1.896 3.165 1.67 9.922 3.058 19.893 4.587 30.124-2.028-.662-3.124-1.576-3.499-3.474-.433-2.187-1.328-4.28-1.759-6.468-.5-2.531-1.692-4.465-3.976-5.652-3.357-1.746-4.301-4.81-4.59-8.237-.598-7.091-1.847-14.143-1.504-21.287.198-4.124.562-8.245 1.962-12.206.799-2.26 1.897-4.247 3.934-5.575.802-.523 1.302-1.064.801-2.022-2.645-5.061-.166-9.44 2.19-13.559 6.983-12.204 18.491-17.905 31.593-20.855 6.511-1.465 13.124-.598 19.71.209 6.46.791 12.718 2.229 18.732 4.669 10.77 4.368 18.795 11.614 23.519 22.895-2.369-1.831-4.326-3.51-6.444-4.953-10.721-7.306-22.634-10.775-35.537-9.814-11.373.847-20.186 6.418-26.225 16.242-2.775 4.514-4.334 9.458-5.834 14.483-1.129 3.783-4.093 6.562-6.23 9.789-.384.581-1.652.626-2.534.816-2.913.629-5.113 2.328-6.9 4.602-.807 1.026-1.128 2.239-.479 3.505.604 1.185 1.6 1.603 3.239 1.111zM294.746 222.861c2.65-13.383 12.308-25.49 26.666-27.745 12.167-1.909 23.369 1.084 33.962 6.912 10.523 5.789 16.282 15.041 19.062 26.438.253 1.038.396 2.036.056 3.456-1.354-3.289-2.573-6.261-3.806-9.226-.267-.644-.312-1.515-1.475-1.179-1.058.307-.858.869-.72 1.701 1.607 9.651-2.297 17.723-7.425 25.962-1.159-3.461-1.85-6.576-3.232-9.471-5.738-12.012-15.755-17.773-28.386-20.175-11.556-2.198-22.512.623-33.539 3.247-.39.094-.754.374-1.163.08zM361.308 271.524c-.052-5.532-.094-11.066-.171-16.6-.01-.615.297-1.337-.387-1.824 1.562-2.233 3.257-4.381 4.415-6.874.172-.372.346-.871.815-.827.605.058.633.637.735 1.124.293 1.372.476 2.789.957 4.094 1.306 3.531-.999 6.2-2.089 9.133-.836 2.245-1.869 4.436-3.011 6.545-.901 1.668-.469 3.583-1.264 5.229z"/><path fill="#1E1F1E" d="M677.045 363.988c-.159-1.372.081-2.702.414-4.024 1.392-.249.947-1.359.981-2.189.211-5.147-.239-10.276-.455-15.413-.108-2.579.235-2.738 2.727-1.882 2.931 1.009 4.909 3.06 6.146 5.817 3.358 7.495 6.694 14.999 9.974 22.527 4.141 9.502 8.208 19.037 12.323 28.549 2.339 5.404 4.695 10.803 7.08 16.186.935 2.105.589 4.407 1.133 6.578.246.985-.286 1.41-1.286.712-1.293-.901-2.713-1.637-3.926-2.63-1.141-.936-2.027-.831-3.042.093-2.816 2.565-5.736 5.025-8.457 7.69-1.406 1.377-1.984 1.551-2.68-.55-3.962-11.973-7.997-23.922-12.062-35.86-2.912-8.551-5.911-17.071-8.87-25.604zM578.166 418.296c-.309-5.982 1.776-10.952 3.685-15.973 5.539-14.578 11.031-29.172 16.593-43.74 2.308-6.043 4.201-12.251 7.072-18.068 2.358-4.778 7.6-7.229 13.401-6.171-2.45 1.643-4.636 3.237-6.954 4.608-1.217.719-1.539 1.341-1.156 2.771 1.259 4.717 2.298 9.492 3.464 14.234.328 1.337.291 2.591-.148 3.905-6.318 18.899-12.626 37.804-18.889 56.722-.517 1.562-.938 2.068-2.543.984-1.986-1.343-4.222-2.311-6.314-3.501-1.144-.647-2.021-.716-3.103.284-1.499 1.383-3.229 2.516-5.108 3.945z"/><path fill="#FBC689" d="M627.476 335.851c2.125-1.344 4.567-1.801 6.941-2.418 1.696-.44 2.57-1.128 2.68-3.165.216-3.948.966-7.866 1.37-11.81.13-1.26.714-1.588 1.773-1.445 4.682.63 9.372 1.137 14.108 1.019 1.001-.023 1.488.514 1.601 1.512.492 4.351 1.169 8.688 1.458 13.053.139 2.087.98 2.907 2.873 3.288 1.615.325 3.471.005 4.738 1.479-4.548 3.825-9.968 4.553-15.618 4.272-7.704-.382-14.926-2.682-21.924-5.785z"/><path fill="#1E1F1E" d="M675.956 356.592c-1.371-2.081-1.512-3.753-1.503-5.496.021-4.419-.79-5.431-5.229-5.049-5.252.453-10.461 1.406-15.685 2.16-8.975 1.294-17.834 1.949-25.883-3.603-1.904-1.314-4.46-.253-5.775 2.147-1.355 2.476-2.375 5.129-4.008 7.456-.332.472-.672 1.095-1.301 1.018-.793-.098-.539-.921-.668-1.432-.936-3.686-1.808-7.387-2.753-11.069-.312-1.216-.072-2.109 1.064-2.715.364-.195.745-.396 1.04-.678 3.693-3.523 7.255-3.93 12.102-1.39 7.436 3.896 15.732 5.873 24.154 5.875 5.883.001 11.667-1.492 16.22-5.834 1.169-1.116 7.153-.374 8.015.942.167.255.2.631.201.95.013 5.355.009 10.711.009 16.718z"/><path fill="#F8A449" d="M595.993 421.252c5.3 4.604 10.601 9.208 15.897 13.816 2.243 1.953 4.477 3.916 6.716 5.876l.269.992c-.409.491-.34 1.725-1.582.592-3.363-3.062-6.908-5.923-10.301-8.952-5.245-4.687-10.395-9.48-15.896-13.875-.248-.198-.396-.521-.591-.786 1.99.402 3.322 2.35 5.488 2.337z"/><path fill="#F4D988" d="M495.12 428.546c-4.5.039-7.763 2.403-10.532 5.651-.678.796-1.295.678-2.173.32-2.419-.987-4.883-.972-7.171.371-1.074.63-1.569.217-2.22-.577-1.372-1.678-3.003-3.1-4.841-4.25-3.429-2.145-5.784-1.652-7.93 1.697-.314.492-.568.747-1.113.732-6.35-4.055-11.192-9.58-15.4-15.734-.629-.922-.858-1.778-.71-2.971.453-3.642.658-7.408-.585-10.875-2.45-6.837-1.338-13.392.81-19.972.601-5.137 4.297-7.932 8.169-10.46 1.635-1.066 3.407-2.449 5.673-1.506 6.981 6.721 15.77 7.481 24.787 7.569 5.739.056 11.498.375 16.635-2.956 1.249-.812 1.939-.361 2.551 1.005 5.749 12.836 6.886 25.836 1.783 39.172-1.816 4.746-3.491 9.527-7.733 12.784z"/><path fill="#BE3C3C" d="M457.131 351.971c1.401-4.11 3.502-7.883 5.739-11.573 4.139-6.825 8.364-13.599 12.527-20.408 3.567-5.833 8.673-10.278 13.491-14.977 1.533-1.495 2.588-.853 3.321.973 2.449 6.108 4.568 12.31 5.206 18.909.879 9.095 1.93 18.184 2.472 27.3.398 6.711-.517 13.452-.206 20.189.044.967-.395 1.529-1.24 1.935-3.765 1.806-7.514 3.331-11.89 3.196-6.737-.207-13.61.231-19.964-2.252-6.453-2.521-12.123-6.298-13.959-13.744-.227-.918-.374-1.719.201-2.604 1.484-2.288 2.879-4.635 4.31-6.959.181.181.402.282.64.367 3.557 1.261 3.754 1.525 3.736 5.281 2.027-1.726 3.885-1.083 5.832.521.169-2.359.164-4.602 3.76-4.868-2.645-1.317-3.828-2.755-3.062-5.443-2.234 1.166-4.176 1.452-6-.537-.522 1.596-.062 3.369-1.668 4.162-1.017.501-2.019 1.249-3.246.532z"/><path fill="#D3A66C" d="M457.097 370.974c-6.865 1.385-11.155 5.75-13.842 11.967-.761-1.237-1.266-.81-1.58.277-1.722 5.952-3.114 11.91-1.081 18.105 1.396 4.26 1.744 8.653.898 13.059-.57 2.971-1.886 5.585-5.104 6.498-3.183.903-5.213-1.159-7.081-3.183-3.239-3.512-5.599-7.64-7.655-11.918-1.58-3.289-2.865-6.72-4.42-10.023-1.187-2.522-.544-4.481 1.432-6.2 2.069-1.803 4.132-3.616 6.216-5.402 2.982-2.553 5.663-5.378 8.013-8.527 1.094-1.466 2.242-2.903 3.772-3.959 1.678-1.157 3.224-1.33 4.413.685.282.479.439 1.25 1.219.771.703-.431.324-1.057-.041-1.498-.767-.926-.247-1.648.231-2.444 1.837-3.047 4.35-5.427 7.168-7.549 1.15-.867 1.688-.725 2.003.672.794 3.52 2.551 6.453 5.439 8.669zM516.328 386.708c-.125 5.802-.428 11.03-1.943 16.093-.341 1.136-.501 2.783-1.892 2.958-1.205.152-1.835-1.244-2.489-2.19-1.528-2.209-2.443-4.5-2.577-7.345-.354-7.542-2.385-14.735-5.657-21.554-1.367-2.849-.822-5.846-.75-8.808.027-1.057.849-.784 1.47-.819 5.695-.324 10.276 2.84 12.113 8.427.412 1.257.723 2.558.971 3.858.621 3.28.669 6.61.754 9.38z"/><path fill="#3A5D78" d="M459.141 433.902c-.222 3.371-1.375 6.64-.908 10.482-3.479-1.969-6.187-4.339-8.944-6.625-1.017-.845-1.932-1.813-2.869-2.748-4.696-4.688-4.983-6.808-1.767-12.579.247-.444.571-.538 1.005-.524 3.639 4.959 8.103 8.993 13.483 11.994z"/><path fill="#395C77" d="M500.09 425.513c.802 1.341 1.571 2.703 2.422 4.013.413.633.397 1.177.125 1.842-.904 2.204-1.779 4.419-3.619 6.668-.674-3.212-1.438-6.074-2.954-8.645 1.633-.99 2.672-2.597 4.026-3.878z"/><path fill="#BE3C3C" d="M486.052 441.849c.062 3.677-3.062 6.961-6.691 7.033-3.652.071-6.986-3.028-7.14-6.638-.154-3.655 3.174-7.128 6.872-7.17 3.626-.04 6.899 3.146 6.959 6.775z"/><path fill="#757575" d="M501.178 296.583c1.549.935 3.45-.178 4.981.86-2.063.11-4.118-.332-6.447.219.434-.945.836-1.193 1.466-1.079z"/><path fill="#F5A1A3" d="M651.472 300.007c-.006 2.024.896 3.954.122 6.093-.924 2.554-2.664 3.723-5.162 3.883-2.979.191-6.197.447-8.229-2.254-2.39-3.179-2.906-6.878-1.709-10.74 2.565-.604 4.713-1.863 6.345-3.972.371-.479 1.034-.889 1.491-.339 2.193 2.63 5.125 4.534 7.142 7.329z"/><path fill="#F8A348" d="M651.472 300.007c-2.979-1.843-5.335-4.34-7.58-7.234-2.084 2.069-3.771 4.935-7.398 4.217-3.693-1.911-5.21-5.384-6.448-9.04-.221-.655-.683-1.51.458-1.824.914-.254 1.655.005 1.94 1.018.567 2.014 1.428 3.892 2.673 5.577 1.615 2.188 3.261 2.27 5.13.275 1.421-1.518 2.123-3.513 3.409-5.428 1.889 2.861 3.543 5.61 5.908 7.844 4.004 3.783 7.091 3.369 9.681-1.481.505-.947.881-1.964 1.312-2.949.321-.729.793-1.03 1.57-.614.577.308 1.343.476.928 1.415-1.32 2.973-2.673 5.926-5.594 7.738-1.906 1.182-3.937.999-5.989.486z"/><path fill="#F8A449" d="M647.968 269.342c-.293 2.293-.383 5.27-1.221 8.138-.354 1.214-.752 2.367-2.301 2.577-1.425.195-.882 1.101-.519 1.838.315.641.259 1.062-.434 1.381-.706.326-1.048-.054-1.426-.559-1.292-1.727-1.239-3.607.503-4.131 2.571-.771 2.546-2.811 2.852-4.667.347-2.106.363-4.266.553-6.4.066-.748-.338-1.857.956-1.897 1.308-.04.96 1.065 1.029 1.826.039.41.008.827.008 1.894z"/><path fill="#679962" d="M334.646 251.482c6.3.344 12.599.708 18.902 1.009 1.051.051 1.361.329 1.358 1.451-.004 2.175-.454 4.277-.919 6.35-.567 2.54-3.359 4.375-5.829 4.187-2.779-.212-5.241-2.418-5.304-5.353-.046-2.155-1.043-2.428-2.74-2.483-3.069-.101-6.136-.131-9.207-.41-2.549-.231-1.413-1.93-1.58-3.098-.191-1.332.287-2 1.83-1.744 1.133.187 2.323.036 3.487.036l.002.055zM305.824 256.922c0 .83.04 1.663-.008 2.49-.167 2.903-2.441 5.09-5.351 5.179-3.073.094-5.458-1.715-5.715-4.679-.136-1.563-.688-1.978-2.134-1.879-3.474.236-6.974-.151-10.436.428-1.323.221-2.195-.194-1.911-1.691.229-1.207-1.16-3.217 1.592-3.28 6.471-.15 12.939-.363 19.408-.551l.748-.003c3.964-.094 3.964-.094 3.807 3.986z"/><path fill="#F8A341" d="M323.341 294.02c-5.355-.284-10.052 1.253-14.635 3.278-.895.396-1.8 1.146-2.444-.333-.63-1.446.668-1.507 1.383-1.805 5.549-2.309 11.239-4.057 17.353-3.616 5.589.404 10.731 2.044 14.939 5.934.444.411 1.562.81.719 1.734-.652.714-1.309.568-2.127-.087-4.496-3.601-9.586-5.537-15.188-5.105z"/><path fill="#F8A342" d="M326.753 270.33c.173 1.271-.508 2.258-1.041 3.28-.338.646-.802 1.102-1.574.509-.522-.401-.783-.822-.281-1.449 1.464-1.829 1.025-3.063-1.106-3.994-.994-.436-1.626-1.464-1.866-2.547-.607-2.742-1.141-5.503-1.104-8.334.009-.708-.199-1.628.944-1.666 1.14-.038.959.865 1.051 1.588.3 2.37.66 4.734.934 7.109.149 1.298.74 2.077 2.017 2.505 1.371.459 2.25 1.414 2.026 2.999z"/><path fill="#0F0F15" d="M470.322 423.402c-.443-.365-.967-.666-1.316-1.105-2.331-2.924-4.23-6.226-8.383-7.182-1.191-.275-2.568-1.49-2.535-3.39.897-.09 1.4.39 1.919.902 3.389 3.351 12.958 4.815 17.061 2.625 1.613-.86 2.519-4.257 1.553-5.78-.531-.839-1.352-.415-2.034-.454-4.846-.269-6.818-3.03-5.533-7.686.396-1.43 1.363-2.262 2.551-2.868 3.678-1.877 7.373-1.692 10.992.17 1.919.986 3 2.57 2.938 4.812-.066 2.422-1.652 3.681-3.595 4.621-.586.285-1.29.315-1.901.561-.821.328-2.246.007-2.028 1.589.186 1.352-.511 2.897 1.507 3.762 4.823 2.067 8.869 1.172 12.138-2.915.421-.526.547-1.399 1.563-1.606.124 1.995-.784 3.501-2.252 4.421-1.816 1.139-3.058 2.613-3.897 4.517-.427.109-.684-.148-.936-.422-3.341-1.162-6.556-3.002-10.292-1.13-2.171 1.087-4.59 1.323-7.024 1.229-.646-.024-1.482-.199-1.854.407-.475.769.312 1.355.665 1.977.48.844 1.352 1.498 1.243 2.622-.094.261-.276.368-.55.323z"/><path fill="#101015" d="M488.935 389.521c-3.604-.034-5.103-1.654-5.073-5.486.019-2.477 2.911-4.672 6.04-4.587 2.826.077 5.137 2.19 5.127 4.688-.012 3.312-2.395 5.419-6.094 5.385z"/><path fill="#101016" d="M455.071 388.736c.121-2.788 2.475-5.237 5.005-5.203 2.971.038 5.661 2.38 5.607 4.88-.061 2.804-2.91 5.385-5.829 5.279-2.771-.1-4.896-2.3-4.783-4.956z"/><path fill="#070604" d="M493.573 420.413c-.608 3.966-2.579 7.484-6.092 9.239-8.796 4.396-18.717 2.951-24.451-6.577-.214-.355-.414-.723-.569-1.104-.202-.504-.685-1.137.134-1.462.587-.232.884.339 1.046.81 1.07 3.102 3.518 4.874 6.076 6.674 7.6 5.346 18.743 2.377 22.412-6.078.254-.587.52-1.166.779-1.749l.665.247z"/><path fill="#17151A" d="M470.322 423.402l.123.025c1.001-.35.898-1.294 1.11-2.065.275-1.009.685-1.985 1.876-2.04 1.255-.058 1.586.944 1.885 1.957.342 1.152.121 2.779 1.536 3.197 1.705.504 3.447-.147 5.121-.617.712-.201.874-.929 1.06-1.585.332-1.174.403-2.651 2.048-2.745 1.608-.091 1.878 1.389 2.468 2.448.152.348.348.688.176 1.089-.072 1.296-.62 2.099-1.991 2.436-3.903.959-7.866.954-11.827.79-1.776-.073-3.05-1.105-3.585-2.89z"/><path fill="#3E2F28" d="M487.725 423.066l-.654-.71c-.052-1.678-.277-3.411 1.466-4.506l.531.544c-.003 1.686-.46 3.241-1.343 4.672z"/><path fill="#EF974B" d="M457.131 351.971c3.773-1.087 3.773-1.087 4.24-5.978 2.221 2.444 4.56 3.131 7.278.486-1.116 3.531.153 5.556 3.481 6.676-3.735.57-4.755 2.694-4.029 6.175-2.472-2.234-4.769-3.329-7.538-.043 1.243-4.205-.92-5.863-3.424-7.332l-.008.016z"/><path fill="#3A5C78" d="M488.505 343.28c-3.624-.104-5.419 1.406-5.35 4.993-3.21-3.331-3.21-3.331-7.247-2.303 1.651-2.845 2.043-5.384-1.862-6.892 4.592-1.202 4.592-1.202 5.967-5.257 1.53 3.109 3.715 4.074 6.909 2.201-1.67 2.989-1.842 5.423 1.583 7.258z"/><path fill="#5D7A8C" d="M486.323 350.386c2.467 2.332 4.676 2.467 7.097-.1-.356 3.135.267 5.391 3.888 5.994-3.149 1.069-4.696 2.817-3.455 6.321-2.472-1.736-4.779-3.175-6.591.104-.942-.435-.697-1.021-.639-1.431.283-1.963-.117-3.409-2.353-3.875-.625-.13-1.801-.944-.46-1.332 3.077-.887 3.182-2.838 2.513-5.681z"/><path fill="#F6B788" d="M464.715 367.902c2.746-1.528 2.746-1.528 2.024-4.43 1.911 1.044 3.544 1.268 4.084-2.003.83 2.509 1.964 3.591 4.695 2.104-1.912 2.772-.723 3.765 2.042 4.405-2.782.787-4.466 1.709-2.147 4.477-2.293-1.049-3.993-1.545-4.426 2.014-.901-2.509-1.888-3.953-4.399-2.406 1.718-2.622.259-3.561-1.873-4.161z"/><path fill="#798A88" d="M477.773 321.192c1.662-.718 2.654-1.482 1.056-3.438 2.054.869 3.207.54 3.389-1.527 1.44 2.061 1.44 2.061 3.772 1.393-1.14 1.641-.7 2.691 1.597 3.27-2.103.731-2.982 1.638-1.276 3.443-1.699-.475-3.123-.996-3.507 1.598-.93-1.721-1.76-2.901-3.649-1.222.948-2.002.795-3.147-1.382-3.517z"/><path fill="#C64C46" d="M469.622 342.419l-.503-.817c.192-.481.646-.584 1.062-.741.945-.337 1.632-.912 1.806-1.958.021-.315.014-.63-.032-.942-.531-1.942-2.282-1.328-3.565-1.702-.233-.129-.355-.324-.373-.589 1.031-1.581 2.34-1.32 3.723-.566 2.531 2.127 2.683 2.96 1.075 5.92-.932.766-1.669 1.982-3.193 1.395z"/><path fill="#F0A97F" d="M472.634 340.984c1.167-2.11 1.278-4.037-.962-5.556-.102-.445-.026-.706.508-.481 2.566 2.305 2.703 4.129.501 6.711-.247-.209-.263-.433-.047-.674z"/><path fill="#E59371" d="M472.18 334.947l-.508.481c-1.301-.479-2.586-.863-3.622.516-.146.168-.333.248-.555.253-.315-.118-.58-.262-.335-.663 1.522-1.495 3.138-2.18 5.02-.587z"/><path fill="#F1AC81" d="M470.623 341.373l-1.504.228c-.767-.231-1.582-.386-1.952-1.239-.133-.129-.172-.251-.116-.364.054-.113.105-.167.153-.168.223-.06.446-.064.671-.011.725.278 1.451.547 2.254.406.233.016.441.093.629.23.198.342.141.647-.135.918z"/><path fill="#EDA47C" d="M472.634 340.984l.047.673c-.829.9-1.745 1.581-3.07 1.181-.044-.013-.08-.133-.077-.2l.089-.219c1.209-.045 2.074-.815 3.011-1.435z"/><path fill="#F0AA80" d="M467.116 340.067l.051.295c-1.292-.833-1.07-2.097-.951-3.332.464-.098.677.205.865.545.223.828.747 1.653.035 2.492z"/><path fill="#E69472" d="M466.669 337.525l-.453-.495c.163-.595.321-1.192.944-1.497l.387.433c.421.921.137 1.445-.878 1.559z"/><path fill="#BE3C3C" d="M488.536 417.851l-1.466 4.507c-.184-.351-.379-.695-.55-1.054-.312-.65-.428-1.524-1.433-1.443-1.001.082-.893 1.033-1.229 1.652-.516.951.502 2.555-1.146 2.967-2.081.521-4.214 1.176-6.354.796-1.411-.253-1.027-1.895-1.473-2.902-.396-.899.219-2.541-1.34-2.562-1.647-.022-1.504 1.489-1.466 2.618.048 1.413-.836 1.077-1.63.999-.172-1.759-1.605-2.801-2.402-4.205-.678-1.194-.668-1.842.939-1.812 3.749.072 7.496.149 10.704-2.34.587-.454 1.258.036 1.891.223 1.904.562 3.789 1.316 5.812 1.202 1.142-.066 1.226.513 1.143 1.354z"/><path fill="#EAEAEB" d="M488 383.404c-.155.66-.503 1.048-1.178 1.021-.775-.032-.899-.63-.869-1.195.028-.509.347-.884.955-.844.666.045.987.431 1.092 1.018z"/><path fill="#E5E5E5" d="M459.438 387.315c-.083.48-.329.868-.942.869-.588.001-.917-.292-.942-.89-.022-.542.151-1.083.716-1.12.646-.044.997.48 1.168 1.141z"/><path fill="#F7F7F7" d="M473.095 421.31c1.049.921.869 2.011 1.194 2.883.122.325.039.675-.362.741-.472.081-.803-.17-.821-.65-.034-.887-.011-1.775-.011-2.974z"/><path fill="#F2F2F3" d="M485.216 420.933c.188.214.352.314.354.418.022.852.544 1.737-.113 2.536-.073.088-.585.004-.613-.087-.3-.98-.506-1.969.372-2.867z"/><path fill="#EFA87E" d="M468.658 335.993c1.792-.394 3.331-.257 3.925 1.866-.909.922-1.047-.205-1.478-.554-.896-.206-1.882-.57-1.754.991.543.101.538-.466.827-.674.298-.25.611-.382.98-.141.881 1.638.259 2.524-1.435 2.876-.899.113-1.549-.406-2.215-.88-.623-1.493-.26-2.661 1.15-3.484z"/><path fill="#C74E47" d="M469.667 340.075c1.398-.455 1.974-1.22.969-2.579-.09-.421-.052-.715.499-.513.543.193.631 1.138 1.448.877l-.01 1.24c-.692.418-.794 1.638-1.943 1.436-.15-.026-.302-.036-.453-.03-.529.279-.571-.016-.51-.431z"/><path fill="#C64D46" d="M468.658 335.993c-1.016.951-1.175 2.154-1.005 3.452.125.131.162.26.114.386-.047.123-.093.186-.137.186l-.515.05-.447-2.541.879-1.56.502-.021.609.048z"/><path fill="#EDA47C" d="M470.63 340.536c.868-.181.843-1.57 1.944-1.437-.168 1.174-.929 1.835-1.951 2.273l.007-.836z"/><path fill="#CA554B" d="M467.631 340.017l.022-.571 2.013.629.511.432c-1.064.95-1.784.122-2.546-.49z"/><path fill="#C75048" d="M471.135 336.983l-.499.513-.559.391c-.303.417-.336 1.05-.967 1.205-.711-.45-1.184-1.003-.518-1.807.727-.879 1.578-1.2 2.543-.302z"/><path fill="#CF6152" d="M469.11 339.092c.314-.409.187-1.172.968-1.205.13.419.534.838.037 1.267-.345.3-.692.306-1.005-.062z"/></g></svg>